%TF.GenerationSoftware,KiCad,Pcbnew,7.0.9*%
%TF.CreationDate,2024-01-12T00:39:35+08:00*%
%TF.ProjectId,UINIO-MCU-GD32F103CBT6,55494e49-4f2d-44d4-9355-2d4744333246,Version 3.1.0*%
%TF.SameCoordinates,PX72c1710PY5584170*%
%TF.FileFunction,Paste,Top*%
%TF.FilePolarity,Positive*%
%FSLAX46Y46*%
G04 Gerber Fmt 4.6, Leading zero omitted, Abs format (unit mm)*
G04 Created by KiCad (PCBNEW 7.0.9) date 2024-01-12 00:39:35*
%MOMM*%
%LPD*%
G01*
G04 APERTURE LIST*
G04 Aperture macros list*
%AMRoundRect*
0 Rectangle with rounded corners*
0 $1 Rounding radius*
0 $2 $3 $4 $5 $6 $7 $8 $9 X,Y pos of 4 corners*
0 Add a 4 corners polygon primitive as box body*
4,1,4,$2,$3,$4,$5,$6,$7,$8,$9,$2,$3,0*
0 Add four circle primitives for the rounded corners*
1,1,$1+$1,$2,$3*
1,1,$1+$1,$4,$5*
1,1,$1+$1,$6,$7*
1,1,$1+$1,$8,$9*
0 Add four rect primitives between the rounded corners*
20,1,$1+$1,$2,$3,$4,$5,0*
20,1,$1+$1,$4,$5,$6,$7,0*
20,1,$1+$1,$6,$7,$8,$9,0*
20,1,$1+$1,$8,$9,$2,$3,0*%
%AMHorizOval*
0 Thick line with rounded ends*
0 $1 width*
0 $2 $3 position (X,Y) of the first rounded end (center of the circle)*
0 $4 $5 position (X,Y) of the second rounded end (center of the circle)*
0 Add line between two ends*
20,1,$1,$2,$3,$4,$5,0*
0 Add two circle primitives to create the rounded ends*
1,1,$1,$2,$3*
1,1,$1,$4,$5*%
G04 Aperture macros list end*
%ADD10C,0.120000*%
%ADD11RoundRect,0.135000X0.135000X0.185000X-0.135000X0.185000X-0.135000X-0.185000X0.135000X-0.185000X0*%
%ADD12RoundRect,0.140000X0.140000X0.170000X-0.140000X0.170000X-0.140000X-0.170000X0.140000X-0.170000X0*%
%ADD13RoundRect,0.135000X-0.135000X-0.185000X0.135000X-0.185000X0.135000X0.185000X-0.135000X0.185000X0*%
%ADD14R,0.650000X1.200000*%
%ADD15R,1.800000X1.000000*%
%ADD16R,1.000000X0.600000*%
%ADD17RoundRect,0.140000X-0.140000X-0.170000X0.140000X-0.170000X0.140000X0.170000X-0.140000X0.170000X0*%
%ADD18RoundRect,0.218750X-0.218750X-0.256250X0.218750X-0.256250X0.218750X0.256250X-0.218750X0.256250X0*%
%ADD19R,1.200000X0.650000*%
%ADD20RoundRect,0.140000X-0.170000X0.140000X-0.170000X-0.140000X0.170000X-0.140000X0.170000X0.140000X0*%
%ADD21RoundRect,0.135000X0.185000X-0.135000X0.185000X0.135000X-0.185000X0.135000X-0.185000X-0.135000X0*%
%ADD22R,1.150000X0.600000*%
%ADD23R,1.150000X0.300000*%
%ADD24RoundRect,0.140000X0.170000X-0.140000X0.170000X0.140000X-0.170000X0.140000X-0.170000X-0.140000X0*%
%ADD25R,1.400000X1.200000*%
%ADD26HorizOval,0.280000X-0.537401X0.537401X0.537401X-0.537401X0*%
%ADD27HorizOval,0.280000X0.537401X0.537401X-0.537401X-0.537401X0*%
%ADD28RoundRect,0.218750X0.218750X0.256250X-0.218750X0.256250X-0.218750X-0.256250X0.218750X-0.256250X0*%
G04 APERTURE END LIST*
%TO.C,USB1*%
D10*
X4405060Y-7272130D02*
X3255060Y-7272130D01*
X3255060Y-6672130D01*
X4405060Y-6672130D01*
X4405060Y-7272130D01*
G36*
X4405060Y-7272130D02*
G01*
X3255060Y-7272130D01*
X3255060Y-6672130D01*
X4405060Y-6672130D01*
X4405060Y-7272130D01*
G37*
X4405060Y-8072130D02*
X3255060Y-8072130D01*
X3255060Y-7472130D01*
X4405060Y-7472130D01*
X4405060Y-8072130D01*
G36*
X4405060Y-8072130D02*
G01*
X3255060Y-8072130D01*
X3255060Y-7472130D01*
X4405060Y-7472130D01*
X4405060Y-8072130D01*
G37*
X4405060Y-8572130D02*
X3255060Y-8572130D01*
X3255060Y-8272130D01*
X4405060Y-8272130D01*
X4405060Y-8572130D01*
G36*
X4405060Y-8572130D02*
G01*
X3255060Y-8572130D01*
X3255060Y-8272130D01*
X4405060Y-8272130D01*
X4405060Y-8572130D01*
G37*
X4405060Y-9072130D02*
X3255060Y-9072130D01*
X3255060Y-8772130D01*
X4405060Y-8772130D01*
X4405060Y-9072130D01*
G36*
X4405060Y-9072130D02*
G01*
X3255060Y-9072130D01*
X3255060Y-8772130D01*
X4405060Y-8772130D01*
X4405060Y-9072130D01*
G37*
X4405060Y-9572130D02*
X3255060Y-9572130D01*
X3255060Y-9272130D01*
X4405060Y-9272130D01*
X4405060Y-9572130D01*
G36*
X4405060Y-9572130D02*
G01*
X3255060Y-9572130D01*
X3255060Y-9272130D01*
X4405060Y-9272130D01*
X4405060Y-9572130D01*
G37*
X4405060Y-10072130D02*
X3255060Y-10072130D01*
X3255060Y-9772130D01*
X4405060Y-9772130D01*
X4405060Y-10072130D01*
G36*
X4405060Y-10072130D02*
G01*
X3255060Y-10072130D01*
X3255060Y-9772130D01*
X4405060Y-9772130D01*
X4405060Y-10072130D01*
G37*
X4405060Y-10572130D02*
X3255060Y-10572130D01*
X3255060Y-10272130D01*
X4405060Y-10272130D01*
X4405060Y-10572130D01*
G36*
X4405060Y-10572130D02*
G01*
X3255060Y-10572130D01*
X3255060Y-10272130D01*
X4405060Y-10272130D01*
X4405060Y-10572130D01*
G37*
X4405060Y-11072130D02*
X3255060Y-11072130D01*
X3255060Y-10772130D01*
X4405060Y-10772130D01*
X4405060Y-11072130D01*
G36*
X4405060Y-11072130D02*
G01*
X3255060Y-11072130D01*
X3255060Y-10772130D01*
X4405060Y-10772130D01*
X4405060Y-11072130D01*
G37*
X4405060Y-11572130D02*
X3255060Y-11572130D01*
X3255060Y-11272130D01*
X4405060Y-11272130D01*
X4405060Y-11572130D01*
G36*
X4405060Y-11572130D02*
G01*
X3255060Y-11572130D01*
X3255060Y-11272130D01*
X4405060Y-11272130D01*
X4405060Y-11572130D01*
G37*
X4405060Y-12072130D02*
X3255060Y-12072130D01*
X3255060Y-11772130D01*
X4405060Y-11772130D01*
X4405060Y-12072130D01*
G36*
X4405060Y-12072130D02*
G01*
X3255060Y-12072130D01*
X3255060Y-11772130D01*
X4405060Y-11772130D01*
X4405060Y-12072130D01*
G37*
X4405060Y-12872130D02*
X3255060Y-12872130D01*
X3255060Y-12272130D01*
X4405060Y-12272130D01*
X4405060Y-12872130D01*
G36*
X4405060Y-12872130D02*
G01*
X3255060Y-12872130D01*
X3255060Y-12272130D01*
X4405060Y-12272130D01*
X4405060Y-12872130D01*
G37*
X4405060Y-13672130D02*
X3255060Y-13672130D01*
X3255060Y-13072130D01*
X4405060Y-13072130D01*
X4405060Y-13672130D01*
G36*
X4405060Y-13672130D02*
G01*
X3255060Y-13672130D01*
X3255060Y-13072130D01*
X4405060Y-13072130D01*
X4405060Y-13672130D01*
G37*
X3715060Y-5357130D02*
X3809060Y-5385130D01*
X3895060Y-5431130D01*
X3971060Y-5493130D01*
X4033060Y-5569130D01*
X4080060Y-5656130D01*
X4108060Y-5749130D01*
X4118060Y-5847130D01*
X4108060Y-5945130D01*
X4080060Y-6038130D01*
X4033060Y-6125130D01*
X3971060Y-6201130D01*
X3895060Y-6263130D01*
X3809060Y-6309130D01*
X3715060Y-6337130D01*
X3618060Y-6347130D01*
X2518060Y-6347130D01*
X2420060Y-6337130D01*
X2326060Y-6309130D01*
X2240060Y-6263130D01*
X2164060Y-6201130D01*
X2102060Y-6125130D01*
X2056060Y-6038130D01*
X2027060Y-5945130D01*
X2018060Y-5847130D01*
X2027060Y-5749130D01*
X2056060Y-5656130D01*
X2102060Y-5569130D01*
X2164060Y-5493130D01*
X2240060Y-5431130D01*
X2326060Y-5385130D01*
X2420060Y-5357130D01*
X2518060Y-5347130D01*
X3618060Y-5347130D01*
X3715060Y-5357130D01*
G36*
X3715060Y-5357130D02*
G01*
X3809060Y-5385130D01*
X3895060Y-5431130D01*
X3971060Y-5493130D01*
X4033060Y-5569130D01*
X4080060Y-5656130D01*
X4108060Y-5749130D01*
X4118060Y-5847130D01*
X4108060Y-5945130D01*
X4080060Y-6038130D01*
X4033060Y-6125130D01*
X3971060Y-6201130D01*
X3895060Y-6263130D01*
X3809060Y-6309130D01*
X3715060Y-6337130D01*
X3618060Y-6347130D01*
X2518060Y-6347130D01*
X2420060Y-6337130D01*
X2326060Y-6309130D01*
X2240060Y-6263130D01*
X2164060Y-6201130D01*
X2102060Y-6125130D01*
X2056060Y-6038130D01*
X2027060Y-5945130D01*
X2018060Y-5847130D01*
X2027060Y-5749130D01*
X2056060Y-5656130D01*
X2102060Y-5569130D01*
X2164060Y-5493130D01*
X2240060Y-5431130D01*
X2326060Y-5385130D01*
X2420060Y-5357130D01*
X2518060Y-5347130D01*
X3618060Y-5347130D01*
X3715060Y-5357130D01*
G37*
X-584940Y-5357130D02*
X-490940Y-5385130D01*
X-404940Y-5431130D01*
X-328940Y-5493130D01*
X-266940Y-5569130D01*
X-219940Y-5656130D01*
X-191940Y-5749130D01*
X-181940Y-5847130D01*
X-191940Y-5945130D01*
X-219940Y-6038130D01*
X-266940Y-6125130D01*
X-328940Y-6201130D01*
X-404940Y-6263130D01*
X-490940Y-6309130D01*
X-584940Y-6337130D01*
X-681940Y-6347130D01*
X-1581940Y-6347130D01*
X-1679940Y-6337130D01*
X-1773940Y-6309130D01*
X-1859940Y-6263130D01*
X-1935940Y-6201130D01*
X-1997940Y-6125130D01*
X-2043940Y-6038130D01*
X-2072940Y-5945130D01*
X-2081940Y-5847130D01*
X-2072940Y-5749130D01*
X-2043940Y-5656130D01*
X-1997940Y-5569130D01*
X-1935940Y-5493130D01*
X-1859940Y-5431130D01*
X-1773940Y-5385130D01*
X-1679940Y-5357130D01*
X-1581940Y-5347130D01*
X-681940Y-5347130D01*
X-584940Y-5357130D01*
G36*
X-584940Y-5357130D02*
G01*
X-490940Y-5385130D01*
X-404940Y-5431130D01*
X-328940Y-5493130D01*
X-266940Y-5569130D01*
X-219940Y-5656130D01*
X-191940Y-5749130D01*
X-181940Y-5847130D01*
X-191940Y-5945130D01*
X-219940Y-6038130D01*
X-266940Y-6125130D01*
X-328940Y-6201130D01*
X-404940Y-6263130D01*
X-490940Y-6309130D01*
X-584940Y-6337130D01*
X-681940Y-6347130D01*
X-1581940Y-6347130D01*
X-1679940Y-6337130D01*
X-1773940Y-6309130D01*
X-1859940Y-6263130D01*
X-1935940Y-6201130D01*
X-1997940Y-6125130D01*
X-2043940Y-6038130D01*
X-2072940Y-5945130D01*
X-2081940Y-5847130D01*
X-2072940Y-5749130D01*
X-2043940Y-5656130D01*
X-1997940Y-5569130D01*
X-1935940Y-5493130D01*
X-1859940Y-5431130D01*
X-1773940Y-5385130D01*
X-1679940Y-5357130D01*
X-1581940Y-5347130D01*
X-681940Y-5347130D01*
X-584940Y-5357130D01*
G37*
X3715060Y-14007130D02*
X3809060Y-14035130D01*
X3895060Y-14081130D01*
X3971060Y-14143130D01*
X4033060Y-14219130D01*
X4080060Y-14306130D01*
X4108060Y-14399130D01*
X4118060Y-14497130D01*
X4108060Y-14595130D01*
X4080060Y-14688130D01*
X4033060Y-14775130D01*
X3971060Y-14851130D01*
X3895060Y-14913130D01*
X3809060Y-14959130D01*
X3715060Y-14987130D01*
X3618060Y-14997130D01*
X2518060Y-14997130D01*
X2420060Y-14987130D01*
X2326060Y-14959130D01*
X2240060Y-14913130D01*
X2164060Y-14851130D01*
X2102060Y-14775130D01*
X2056060Y-14688130D01*
X2027060Y-14595130D01*
X2018060Y-14497130D01*
X2027060Y-14399130D01*
X2056060Y-14306130D01*
X2102060Y-14219130D01*
X2164060Y-14143130D01*
X2240060Y-14081130D01*
X2326060Y-14035130D01*
X2420060Y-14007130D01*
X2518060Y-13997130D01*
X3618060Y-13997130D01*
X3715060Y-14007130D01*
G36*
X3715060Y-14007130D02*
G01*
X3809060Y-14035130D01*
X3895060Y-14081130D01*
X3971060Y-14143130D01*
X4033060Y-14219130D01*
X4080060Y-14306130D01*
X4108060Y-14399130D01*
X4118060Y-14497130D01*
X4108060Y-14595130D01*
X4080060Y-14688130D01*
X4033060Y-14775130D01*
X3971060Y-14851130D01*
X3895060Y-14913130D01*
X3809060Y-14959130D01*
X3715060Y-14987130D01*
X3618060Y-14997130D01*
X2518060Y-14997130D01*
X2420060Y-14987130D01*
X2326060Y-14959130D01*
X2240060Y-14913130D01*
X2164060Y-14851130D01*
X2102060Y-14775130D01*
X2056060Y-14688130D01*
X2027060Y-14595130D01*
X2018060Y-14497130D01*
X2027060Y-14399130D01*
X2056060Y-14306130D01*
X2102060Y-14219130D01*
X2164060Y-14143130D01*
X2240060Y-14081130D01*
X2326060Y-14035130D01*
X2420060Y-14007130D01*
X2518060Y-13997130D01*
X3618060Y-13997130D01*
X3715060Y-14007130D01*
G37*
X-584940Y-14007130D02*
X-490940Y-14035130D01*
X-404940Y-14081130D01*
X-328940Y-14143130D01*
X-266940Y-14219130D01*
X-219940Y-14306130D01*
X-191940Y-14399130D01*
X-181940Y-14497130D01*
X-191940Y-14595130D01*
X-219940Y-14688130D01*
X-266940Y-14775130D01*
X-328940Y-14851130D01*
X-404940Y-14913130D01*
X-490940Y-14959130D01*
X-584940Y-14987130D01*
X-681940Y-14997130D01*
X-1581940Y-14997130D01*
X-1679940Y-14987130D01*
X-1773940Y-14959130D01*
X-1859940Y-14913130D01*
X-1935940Y-14851130D01*
X-1997940Y-14775130D01*
X-2043940Y-14688130D01*
X-2072940Y-14595130D01*
X-2081940Y-14497130D01*
X-2072940Y-14399130D01*
X-2043940Y-14306130D01*
X-1997940Y-14219130D01*
X-1935940Y-14143130D01*
X-1859940Y-14081130D01*
X-1773940Y-14035130D01*
X-1679940Y-14007130D01*
X-1581940Y-13997130D01*
X-681940Y-13997130D01*
X-584940Y-14007130D01*
G36*
X-584940Y-14007130D02*
G01*
X-490940Y-14035130D01*
X-404940Y-14081130D01*
X-328940Y-14143130D01*
X-266940Y-14219130D01*
X-219940Y-14306130D01*
X-191940Y-14399130D01*
X-181940Y-14497130D01*
X-191940Y-14595130D01*
X-219940Y-14688130D01*
X-266940Y-14775130D01*
X-328940Y-14851130D01*
X-404940Y-14913130D01*
X-490940Y-14959130D01*
X-584940Y-14987130D01*
X-681940Y-14997130D01*
X-1581940Y-14997130D01*
X-1679940Y-14987130D01*
X-1773940Y-14959130D01*
X-1859940Y-14913130D01*
X-1935940Y-14851130D01*
X-1997940Y-14775130D01*
X-2043940Y-14688130D01*
X-2072940Y-14595130D01*
X-2081940Y-14497130D01*
X-2072940Y-14399130D01*
X-2043940Y-14306130D01*
X-1997940Y-14219130D01*
X-1935940Y-14143130D01*
X-1859940Y-14081130D01*
X-1773940Y-14035130D01*
X-1679940Y-14007130D01*
X-1581940Y-13997130D01*
X-681940Y-13997130D01*
X-584940Y-14007130D01*
G37*
%TD*%
D11*
%TO.C,R1*%
X12329060Y-7452130D03*
X11309060Y-7452130D03*
%TD*%
D12*
%TO.C,C7*%
X46409060Y-13727130D03*
X45449060Y-13727130D03*
%TD*%
D13*
%TO.C,R8*%
X57859060Y-8912130D03*
X56839060Y-8912130D03*
%TD*%
D14*
%TO.C,SW2*%
X19664060Y-8072130D03*
X19664060Y-12372130D03*
X17514060Y-8072130D03*
X17514060Y-12372130D03*
%TD*%
D15*
%TO.C,Y1*%
X40799060Y-14512130D03*
X40799060Y-12012130D03*
%TD*%
D16*
%TO.C,U1*%
X10529060Y-12576130D03*
X10529060Y-13526130D03*
X10529060Y-14476130D03*
X13129060Y-14476130D03*
X13129060Y-12576130D03*
%TD*%
D17*
%TO.C,C11*%
X38239060Y-11972130D03*
X39199060Y-11972130D03*
%TD*%
D18*
%TO.C,D1*%
X10751560Y-6062130D03*
X12326560Y-6062130D03*
%TD*%
D19*
%TO.C,SW3*%
X54989060Y-14102130D03*
X50689060Y-14102130D03*
X54989060Y-11952130D03*
X50689060Y-11952130D03*
%TD*%
D20*
%TO.C,C2*%
X9429060Y-13512130D03*
X9429060Y-14472130D03*
%TD*%
D13*
%TO.C,R10*%
X45419060Y-12177130D03*
X46439060Y-12177130D03*
%TD*%
%TO.C,R4*%
X11309060Y-10882130D03*
X12329060Y-10882130D03*
%TD*%
D12*
%TO.C,C4*%
X29829060Y-4172130D03*
X28869060Y-4172130D03*
%TD*%
D21*
%TO.C,R12*%
X14229060Y-10850000D03*
X14229060Y-9830000D03*
%TD*%
D17*
%TO.C,C10*%
X38239060Y-14542130D03*
X39199060Y-14542130D03*
%TD*%
D22*
%TO.C,USB1*%
X3830060Y-6972130D03*
X3830060Y-7772130D03*
D23*
X3830060Y-8922130D03*
X3830060Y-9922130D03*
X3830060Y-10422130D03*
X3830060Y-11422130D03*
D22*
X3830060Y-13372130D03*
X3830060Y-12572130D03*
D23*
X3830060Y-11922130D03*
X3830060Y-10922130D03*
X3830060Y-9422130D03*
X3830060Y-8422130D03*
%TD*%
D24*
%TO.C,C5*%
X14239060Y-13532130D03*
X14239060Y-12572130D03*
%TD*%
D11*
%TO.C,R9*%
X56849060Y-11452130D03*
X57869060Y-11452130D03*
%TD*%
D25*
%TO.C,Y2*%
X40759060Y-7332130D03*
X38559060Y-7332130D03*
X38559060Y-9032130D03*
X40759060Y-9032130D03*
%TD*%
D13*
%TO.C,R5*%
X45419060Y-8077130D03*
X46439060Y-8077130D03*
%TD*%
D17*
%TO.C,C6*%
X28859060Y-16152130D03*
X29819060Y-16152130D03*
%TD*%
D21*
%TO.C,R7*%
X37089060Y-9112130D03*
X37089060Y-8092130D03*
%TD*%
D26*
%TO.C,U2*%
X30268299Y-14975456D03*
X30621852Y-14621903D03*
X30975406Y-14268349D03*
X31328959Y-13914796D03*
X31682512Y-13561243D03*
X32036066Y-13207689D03*
X32389619Y-12854136D03*
X32743173Y-12500582D03*
X33096726Y-12147029D03*
X33450279Y-11793476D03*
X33803833Y-11439922D03*
X34157386Y-11086369D03*
D27*
X34157386Y-9247891D03*
X33803833Y-8894338D03*
X33450279Y-8540784D03*
X33096726Y-8187231D03*
X32743173Y-7833678D03*
X32389619Y-7480124D03*
X32036066Y-7126571D03*
X31682512Y-6773017D03*
X31328959Y-6419464D03*
X30975406Y-6065911D03*
X30621852Y-5712357D03*
X30268299Y-5358804D03*
D26*
X28429821Y-5358804D03*
X28076268Y-5712357D03*
X27722714Y-6065911D03*
X27369161Y-6419464D03*
X27015608Y-6773017D03*
X26662054Y-7126571D03*
X26308501Y-7480124D03*
X25954947Y-7833678D03*
X25601394Y-8187231D03*
X25247841Y-8540784D03*
X24894287Y-8894338D03*
X24540734Y-9247891D03*
D27*
X24540734Y-11086369D03*
X24894287Y-11439922D03*
X25247841Y-11793476D03*
X25601394Y-12147029D03*
X25954947Y-12500582D03*
X26308501Y-12854136D03*
X26662054Y-13207689D03*
X27015608Y-13561243D03*
X27369161Y-13914796D03*
X27722714Y-14268349D03*
X28076268Y-14621903D03*
X28429821Y-14975456D03*
%TD*%
D12*
%TO.C,C8*%
X40369060Y-10342130D03*
X41329060Y-10342130D03*
%TD*%
D11*
%TO.C,R3*%
X12329060Y-8702130D03*
X11309060Y-8702130D03*
%TD*%
%TO.C,R2*%
X12329060Y-9792130D03*
X11309060Y-9792130D03*
%TD*%
D12*
%TO.C,C1*%
X46409060Y-6577130D03*
X45449060Y-6577130D03*
%TD*%
D28*
%TO.C,L1*%
X46716560Y-10177130D03*
X45141560Y-10177130D03*
%TD*%
D12*
%TO.C,C9*%
X19669060Y-6582130D03*
X18709060Y-6582130D03*
%TD*%
D11*
%TO.C,R11*%
X12329060Y-4660000D03*
X11309060Y-4660000D03*
%TD*%
D17*
%TO.C,C3*%
X22699060Y-10132130D03*
X23659060Y-10132130D03*
%TD*%
D13*
%TO.C,R6*%
X18659060Y-13832130D03*
X19679060Y-13832130D03*
%TD*%
D12*
%TO.C,C12*%
X41329060Y-6022130D03*
X40369060Y-6022130D03*
%TD*%
D19*
%TO.C,SW1*%
X50689060Y-6202130D03*
X54989060Y-6202130D03*
X50689060Y-8352130D03*
X54989060Y-8352130D03*
%TD*%
M02*
