%TF.GenerationSoftware,KiCad,Pcbnew,7.0.7*%
%TF.CreationDate,2023-08-30T17:48:35+08:00*%
%TF.ProjectId,UINIO-MCU-GD32F103C,55494e49-4f2d-44d4-9355-2d4744333246,Version 3.0.0*%
%TF.SameCoordinates,PX92f3a10PY5584170*%
%TF.FileFunction,Paste,Top*%
%TF.FilePolarity,Positive*%
%FSLAX46Y46*%
G04 Gerber Fmt 4.6, Leading zero omitted, Abs format (unit mm)*
G04 Created by KiCad (PCBNEW 7.0.7) date 2023-08-30 17:48:35*
%MOMM*%
%LPD*%
G01*
G04 APERTURE LIST*
G04 Aperture macros list*
%AMRoundRect*
0 Rectangle with rounded corners*
0 $1 Rounding radius*
0 $2 $3 $4 $5 $6 $7 $8 $9 X,Y pos of 4 corners*
0 Add a 4 corners polygon primitive as box body*
4,1,4,$2,$3,$4,$5,$6,$7,$8,$9,$2,$3,0*
0 Add four circle primitives for the rounded corners*
1,1,$1+$1,$2,$3*
1,1,$1+$1,$4,$5*
1,1,$1+$1,$6,$7*
1,1,$1+$1,$8,$9*
0 Add four rect primitives between the rounded corners*
20,1,$1+$1,$2,$3,$4,$5,0*
20,1,$1+$1,$4,$5,$6,$7,0*
20,1,$1+$1,$6,$7,$8,$9,0*
20,1,$1+$1,$8,$9,$2,$3,0*%
%AMHorizOval*
0 Thick line with rounded ends*
0 $1 width*
0 $2 $3 position (X,Y) of the first rounded end (center of the circle)*
0 $4 $5 position (X,Y) of the second rounded end (center of the circle)*
0 Add line between two ends*
20,1,$1,$2,$3,$4,$5,0*
0 Add two circle primitives to create the rounded ends*
1,1,$1,$2,$3*
1,1,$1,$4,$5*%
G04 Aperture macros list end*
%ADD10C,0.120000*%
%ADD11RoundRect,0.135000X0.135000X0.185000X-0.135000X0.185000X-0.135000X-0.185000X0.135000X-0.185000X0*%
%ADD12RoundRect,0.140000X0.140000X0.170000X-0.140000X0.170000X-0.140000X-0.170000X0.140000X-0.170000X0*%
%ADD13RoundRect,0.135000X-0.135000X-0.185000X0.135000X-0.185000X0.135000X0.185000X-0.135000X0.185000X0*%
%ADD14R,0.650000X1.200000*%
%ADD15R,1.800000X1.000000*%
%ADD16R,1.000000X0.600000*%
%ADD17RoundRect,0.140000X-0.140000X-0.170000X0.140000X-0.170000X0.140000X0.170000X-0.140000X0.170000X0*%
%ADD18RoundRect,0.218750X-0.218750X-0.256250X0.218750X-0.256250X0.218750X0.256250X-0.218750X0.256250X0*%
%ADD19R,1.200000X0.650000*%
%ADD20RoundRect,0.140000X-0.170000X0.140000X-0.170000X-0.140000X0.170000X-0.140000X0.170000X0.140000X0*%
%ADD21RoundRect,0.135000X0.185000X-0.135000X0.185000X0.135000X-0.185000X0.135000X-0.185000X-0.135000X0*%
%ADD22R,1.150000X0.600000*%
%ADD23R,1.150000X0.300000*%
%ADD24RoundRect,0.140000X0.170000X-0.140000X0.170000X0.140000X-0.170000X0.140000X-0.170000X-0.140000X0*%
%ADD25R,1.400000X1.200000*%
%ADD26HorizOval,0.280000X-0.537401X0.537401X0.537401X-0.537401X0*%
%ADD27HorizOval,0.280000X0.537401X0.537401X-0.537401X-0.537401X0*%
%ADD28RoundRect,0.218750X0.218750X0.256250X-0.218750X0.256250X-0.218750X-0.256250X0.218750X-0.256250X0*%
G04 APERTURE END LIST*
%TO.C,USB1*%
D10*
X-29354940Y-7272130D02*
X-30504940Y-7272130D01*
X-30504940Y-6672130D01*
X-29354940Y-6672130D01*
X-29354940Y-7272130D01*
G36*
X-29354940Y-7272130D02*
G01*
X-30504940Y-7272130D01*
X-30504940Y-6672130D01*
X-29354940Y-6672130D01*
X-29354940Y-7272130D01*
G37*
X-29354940Y-8072130D02*
X-30504940Y-8072130D01*
X-30504940Y-7472130D01*
X-29354940Y-7472130D01*
X-29354940Y-8072130D01*
G36*
X-29354940Y-8072130D02*
G01*
X-30504940Y-8072130D01*
X-30504940Y-7472130D01*
X-29354940Y-7472130D01*
X-29354940Y-8072130D01*
G37*
X-29354940Y-8572130D02*
X-30504940Y-8572130D01*
X-30504940Y-8272130D01*
X-29354940Y-8272130D01*
X-29354940Y-8572130D01*
G36*
X-29354940Y-8572130D02*
G01*
X-30504940Y-8572130D01*
X-30504940Y-8272130D01*
X-29354940Y-8272130D01*
X-29354940Y-8572130D01*
G37*
X-29354940Y-9072130D02*
X-30504940Y-9072130D01*
X-30504940Y-8772130D01*
X-29354940Y-8772130D01*
X-29354940Y-9072130D01*
G36*
X-29354940Y-9072130D02*
G01*
X-30504940Y-9072130D01*
X-30504940Y-8772130D01*
X-29354940Y-8772130D01*
X-29354940Y-9072130D01*
G37*
X-29354940Y-9572130D02*
X-30504940Y-9572130D01*
X-30504940Y-9272130D01*
X-29354940Y-9272130D01*
X-29354940Y-9572130D01*
G36*
X-29354940Y-9572130D02*
G01*
X-30504940Y-9572130D01*
X-30504940Y-9272130D01*
X-29354940Y-9272130D01*
X-29354940Y-9572130D01*
G37*
X-29354940Y-10072130D02*
X-30504940Y-10072130D01*
X-30504940Y-9772130D01*
X-29354940Y-9772130D01*
X-29354940Y-10072130D01*
G36*
X-29354940Y-10072130D02*
G01*
X-30504940Y-10072130D01*
X-30504940Y-9772130D01*
X-29354940Y-9772130D01*
X-29354940Y-10072130D01*
G37*
X-29354940Y-10572130D02*
X-30504940Y-10572130D01*
X-30504940Y-10272130D01*
X-29354940Y-10272130D01*
X-29354940Y-10572130D01*
G36*
X-29354940Y-10572130D02*
G01*
X-30504940Y-10572130D01*
X-30504940Y-10272130D01*
X-29354940Y-10272130D01*
X-29354940Y-10572130D01*
G37*
X-29354940Y-11072130D02*
X-30504940Y-11072130D01*
X-30504940Y-10772130D01*
X-29354940Y-10772130D01*
X-29354940Y-11072130D01*
G36*
X-29354940Y-11072130D02*
G01*
X-30504940Y-11072130D01*
X-30504940Y-10772130D01*
X-29354940Y-10772130D01*
X-29354940Y-11072130D01*
G37*
X-29354940Y-11572130D02*
X-30504940Y-11572130D01*
X-30504940Y-11272130D01*
X-29354940Y-11272130D01*
X-29354940Y-11572130D01*
G36*
X-29354940Y-11572130D02*
G01*
X-30504940Y-11572130D01*
X-30504940Y-11272130D01*
X-29354940Y-11272130D01*
X-29354940Y-11572130D01*
G37*
X-29354940Y-12072130D02*
X-30504940Y-12072130D01*
X-30504940Y-11772130D01*
X-29354940Y-11772130D01*
X-29354940Y-12072130D01*
G36*
X-29354940Y-12072130D02*
G01*
X-30504940Y-12072130D01*
X-30504940Y-11772130D01*
X-29354940Y-11772130D01*
X-29354940Y-12072130D01*
G37*
X-29354940Y-12872130D02*
X-30504940Y-12872130D01*
X-30504940Y-12272130D01*
X-29354940Y-12272130D01*
X-29354940Y-12872130D01*
G36*
X-29354940Y-12872130D02*
G01*
X-30504940Y-12872130D01*
X-30504940Y-12272130D01*
X-29354940Y-12272130D01*
X-29354940Y-12872130D01*
G37*
X-29354940Y-13672130D02*
X-30504940Y-13672130D01*
X-30504940Y-13072130D01*
X-29354940Y-13072130D01*
X-29354940Y-13672130D01*
G36*
X-29354940Y-13672130D02*
G01*
X-30504940Y-13672130D01*
X-30504940Y-13072130D01*
X-29354940Y-13072130D01*
X-29354940Y-13672130D01*
G37*
X-30044940Y-5357130D02*
X-29950940Y-5385130D01*
X-29864940Y-5431130D01*
X-29788940Y-5493130D01*
X-29726940Y-5569130D01*
X-29679940Y-5656130D01*
X-29651940Y-5749130D01*
X-29641940Y-5847130D01*
X-29651940Y-5945130D01*
X-29679940Y-6038130D01*
X-29726940Y-6125130D01*
X-29788940Y-6201130D01*
X-29864940Y-6263130D01*
X-29950940Y-6309130D01*
X-30044940Y-6337130D01*
X-30141940Y-6347130D01*
X-31241940Y-6347130D01*
X-31339940Y-6337130D01*
X-31433940Y-6309130D01*
X-31519940Y-6263130D01*
X-31595940Y-6201130D01*
X-31657940Y-6125130D01*
X-31703940Y-6038130D01*
X-31732940Y-5945130D01*
X-31741940Y-5847130D01*
X-31732940Y-5749130D01*
X-31703940Y-5656130D01*
X-31657940Y-5569130D01*
X-31595940Y-5493130D01*
X-31519940Y-5431130D01*
X-31433940Y-5385130D01*
X-31339940Y-5357130D01*
X-31241940Y-5347130D01*
X-30141940Y-5347130D01*
X-30044940Y-5357130D01*
G36*
X-30044940Y-5357130D02*
G01*
X-29950940Y-5385130D01*
X-29864940Y-5431130D01*
X-29788940Y-5493130D01*
X-29726940Y-5569130D01*
X-29679940Y-5656130D01*
X-29651940Y-5749130D01*
X-29641940Y-5847130D01*
X-29651940Y-5945130D01*
X-29679940Y-6038130D01*
X-29726940Y-6125130D01*
X-29788940Y-6201130D01*
X-29864940Y-6263130D01*
X-29950940Y-6309130D01*
X-30044940Y-6337130D01*
X-30141940Y-6347130D01*
X-31241940Y-6347130D01*
X-31339940Y-6337130D01*
X-31433940Y-6309130D01*
X-31519940Y-6263130D01*
X-31595940Y-6201130D01*
X-31657940Y-6125130D01*
X-31703940Y-6038130D01*
X-31732940Y-5945130D01*
X-31741940Y-5847130D01*
X-31732940Y-5749130D01*
X-31703940Y-5656130D01*
X-31657940Y-5569130D01*
X-31595940Y-5493130D01*
X-31519940Y-5431130D01*
X-31433940Y-5385130D01*
X-31339940Y-5357130D01*
X-31241940Y-5347130D01*
X-30141940Y-5347130D01*
X-30044940Y-5357130D01*
G37*
X-34344940Y-5357130D02*
X-34250940Y-5385130D01*
X-34164940Y-5431130D01*
X-34088940Y-5493130D01*
X-34026940Y-5569130D01*
X-33979940Y-5656130D01*
X-33951940Y-5749130D01*
X-33941940Y-5847130D01*
X-33951940Y-5945130D01*
X-33979940Y-6038130D01*
X-34026940Y-6125130D01*
X-34088940Y-6201130D01*
X-34164940Y-6263130D01*
X-34250940Y-6309130D01*
X-34344940Y-6337130D01*
X-34441940Y-6347130D01*
X-35341940Y-6347130D01*
X-35439940Y-6337130D01*
X-35533940Y-6309130D01*
X-35619940Y-6263130D01*
X-35695940Y-6201130D01*
X-35757940Y-6125130D01*
X-35803940Y-6038130D01*
X-35832940Y-5945130D01*
X-35841940Y-5847130D01*
X-35832940Y-5749130D01*
X-35803940Y-5656130D01*
X-35757940Y-5569130D01*
X-35695940Y-5493130D01*
X-35619940Y-5431130D01*
X-35533940Y-5385130D01*
X-35439940Y-5357130D01*
X-35341940Y-5347130D01*
X-34441940Y-5347130D01*
X-34344940Y-5357130D01*
G36*
X-34344940Y-5357130D02*
G01*
X-34250940Y-5385130D01*
X-34164940Y-5431130D01*
X-34088940Y-5493130D01*
X-34026940Y-5569130D01*
X-33979940Y-5656130D01*
X-33951940Y-5749130D01*
X-33941940Y-5847130D01*
X-33951940Y-5945130D01*
X-33979940Y-6038130D01*
X-34026940Y-6125130D01*
X-34088940Y-6201130D01*
X-34164940Y-6263130D01*
X-34250940Y-6309130D01*
X-34344940Y-6337130D01*
X-34441940Y-6347130D01*
X-35341940Y-6347130D01*
X-35439940Y-6337130D01*
X-35533940Y-6309130D01*
X-35619940Y-6263130D01*
X-35695940Y-6201130D01*
X-35757940Y-6125130D01*
X-35803940Y-6038130D01*
X-35832940Y-5945130D01*
X-35841940Y-5847130D01*
X-35832940Y-5749130D01*
X-35803940Y-5656130D01*
X-35757940Y-5569130D01*
X-35695940Y-5493130D01*
X-35619940Y-5431130D01*
X-35533940Y-5385130D01*
X-35439940Y-5357130D01*
X-35341940Y-5347130D01*
X-34441940Y-5347130D01*
X-34344940Y-5357130D01*
G37*
X-30044940Y-14007130D02*
X-29950940Y-14035130D01*
X-29864940Y-14081130D01*
X-29788940Y-14143130D01*
X-29726940Y-14219130D01*
X-29679940Y-14306130D01*
X-29651940Y-14399130D01*
X-29641940Y-14497130D01*
X-29651940Y-14595130D01*
X-29679940Y-14688130D01*
X-29726940Y-14775130D01*
X-29788940Y-14851130D01*
X-29864940Y-14913130D01*
X-29950940Y-14959130D01*
X-30044940Y-14987130D01*
X-30141940Y-14997130D01*
X-31241940Y-14997130D01*
X-31339940Y-14987130D01*
X-31433940Y-14959130D01*
X-31519940Y-14913130D01*
X-31595940Y-14851130D01*
X-31657940Y-14775130D01*
X-31703940Y-14688130D01*
X-31732940Y-14595130D01*
X-31741940Y-14497130D01*
X-31732940Y-14399130D01*
X-31703940Y-14306130D01*
X-31657940Y-14219130D01*
X-31595940Y-14143130D01*
X-31519940Y-14081130D01*
X-31433940Y-14035130D01*
X-31339940Y-14007130D01*
X-31241940Y-13997130D01*
X-30141940Y-13997130D01*
X-30044940Y-14007130D01*
G36*
X-30044940Y-14007130D02*
G01*
X-29950940Y-14035130D01*
X-29864940Y-14081130D01*
X-29788940Y-14143130D01*
X-29726940Y-14219130D01*
X-29679940Y-14306130D01*
X-29651940Y-14399130D01*
X-29641940Y-14497130D01*
X-29651940Y-14595130D01*
X-29679940Y-14688130D01*
X-29726940Y-14775130D01*
X-29788940Y-14851130D01*
X-29864940Y-14913130D01*
X-29950940Y-14959130D01*
X-30044940Y-14987130D01*
X-30141940Y-14997130D01*
X-31241940Y-14997130D01*
X-31339940Y-14987130D01*
X-31433940Y-14959130D01*
X-31519940Y-14913130D01*
X-31595940Y-14851130D01*
X-31657940Y-14775130D01*
X-31703940Y-14688130D01*
X-31732940Y-14595130D01*
X-31741940Y-14497130D01*
X-31732940Y-14399130D01*
X-31703940Y-14306130D01*
X-31657940Y-14219130D01*
X-31595940Y-14143130D01*
X-31519940Y-14081130D01*
X-31433940Y-14035130D01*
X-31339940Y-14007130D01*
X-31241940Y-13997130D01*
X-30141940Y-13997130D01*
X-30044940Y-14007130D01*
G37*
X-34344940Y-14007130D02*
X-34250940Y-14035130D01*
X-34164940Y-14081130D01*
X-34088940Y-14143130D01*
X-34026940Y-14219130D01*
X-33979940Y-14306130D01*
X-33951940Y-14399130D01*
X-33941940Y-14497130D01*
X-33951940Y-14595130D01*
X-33979940Y-14688130D01*
X-34026940Y-14775130D01*
X-34088940Y-14851130D01*
X-34164940Y-14913130D01*
X-34250940Y-14959130D01*
X-34344940Y-14987130D01*
X-34441940Y-14997130D01*
X-35341940Y-14997130D01*
X-35439940Y-14987130D01*
X-35533940Y-14959130D01*
X-35619940Y-14913130D01*
X-35695940Y-14851130D01*
X-35757940Y-14775130D01*
X-35803940Y-14688130D01*
X-35832940Y-14595130D01*
X-35841940Y-14497130D01*
X-35832940Y-14399130D01*
X-35803940Y-14306130D01*
X-35757940Y-14219130D01*
X-35695940Y-14143130D01*
X-35619940Y-14081130D01*
X-35533940Y-14035130D01*
X-35439940Y-14007130D01*
X-35341940Y-13997130D01*
X-34441940Y-13997130D01*
X-34344940Y-14007130D01*
G36*
X-34344940Y-14007130D02*
G01*
X-34250940Y-14035130D01*
X-34164940Y-14081130D01*
X-34088940Y-14143130D01*
X-34026940Y-14219130D01*
X-33979940Y-14306130D01*
X-33951940Y-14399130D01*
X-33941940Y-14497130D01*
X-33951940Y-14595130D01*
X-33979940Y-14688130D01*
X-34026940Y-14775130D01*
X-34088940Y-14851130D01*
X-34164940Y-14913130D01*
X-34250940Y-14959130D01*
X-34344940Y-14987130D01*
X-34441940Y-14997130D01*
X-35341940Y-14997130D01*
X-35439940Y-14987130D01*
X-35533940Y-14959130D01*
X-35619940Y-14913130D01*
X-35695940Y-14851130D01*
X-35757940Y-14775130D01*
X-35803940Y-14688130D01*
X-35832940Y-14595130D01*
X-35841940Y-14497130D01*
X-35832940Y-14399130D01*
X-35803940Y-14306130D01*
X-35757940Y-14219130D01*
X-35695940Y-14143130D01*
X-35619940Y-14081130D01*
X-35533940Y-14035130D01*
X-35439940Y-14007130D01*
X-35341940Y-13997130D01*
X-34441940Y-13997130D01*
X-34344940Y-14007130D01*
G37*
%TD*%
D11*
%TO.C,R1*%
X-21430940Y-7452130D03*
X-22450940Y-7452130D03*
%TD*%
D12*
%TO.C,C7*%
X12649060Y-13727130D03*
X11689060Y-13727130D03*
%TD*%
D13*
%TO.C,R8*%
X23079060Y-8912130D03*
X24099060Y-8912130D03*
%TD*%
D14*
%TO.C,SW2*%
X-14095940Y-8072130D03*
X-14095940Y-12372130D03*
X-16245940Y-8072130D03*
X-16245940Y-12372130D03*
%TD*%
D15*
%TO.C,Y1*%
X7039060Y-12012130D03*
X7039060Y-14512130D03*
%TD*%
D16*
%TO.C,U1*%
X-23230940Y-12576130D03*
X-23230940Y-13526130D03*
X-23230940Y-14476130D03*
X-20630940Y-14476130D03*
X-20630940Y-12576130D03*
%TD*%
D17*
%TO.C,C11*%
X4479060Y-11972130D03*
X5439060Y-11972130D03*
%TD*%
D18*
%TO.C,D1*%
X-23008440Y-6062130D03*
X-21433440Y-6062130D03*
%TD*%
D19*
%TO.C,SW3*%
X16929060Y-11952130D03*
X21229060Y-11952130D03*
X16929060Y-14102130D03*
X21229060Y-14102130D03*
%TD*%
D20*
%TO.C,C2*%
X-24330940Y-13512130D03*
X-24330940Y-14472130D03*
%TD*%
D13*
%TO.C,R10*%
X11659060Y-12177130D03*
X12679060Y-12177130D03*
%TD*%
%TO.C,R4*%
X-22450940Y-10882130D03*
X-21430940Y-10882130D03*
%TD*%
D12*
%TO.C,C4*%
X-3930940Y-4172130D03*
X-4890940Y-4172130D03*
%TD*%
D21*
%TO.C,R12*%
X-19530940Y-10850000D03*
X-19530940Y-9830000D03*
%TD*%
D17*
%TO.C,C10*%
X4479060Y-14542130D03*
X5439060Y-14542130D03*
%TD*%
D22*
%TO.C,USB1*%
X-29929940Y-6972130D03*
X-29929940Y-7772130D03*
D23*
X-29929940Y-8922130D03*
X-29929940Y-9922130D03*
X-29929940Y-10422130D03*
X-29929940Y-11422130D03*
D22*
X-29929940Y-13372130D03*
X-29929940Y-12572130D03*
D23*
X-29929940Y-11922130D03*
X-29929940Y-10922130D03*
X-29929940Y-9422130D03*
X-29929940Y-8422130D03*
%TD*%
D24*
%TO.C,C5*%
X-19520940Y-13532130D03*
X-19520940Y-12572130D03*
%TD*%
D11*
%TO.C,R9*%
X24109060Y-11452130D03*
X23089060Y-11452130D03*
%TD*%
D25*
%TO.C,Y2*%
X6999060Y-7332130D03*
X4799060Y-7332130D03*
X4799060Y-9032130D03*
X6999060Y-9032130D03*
%TD*%
D13*
%TO.C,R5*%
X11659060Y-8077130D03*
X12679060Y-8077130D03*
%TD*%
D17*
%TO.C,C6*%
X-4900940Y-16152130D03*
X-3940940Y-16152130D03*
%TD*%
D21*
%TO.C,R7*%
X3329060Y-9112130D03*
X3329060Y-8092130D03*
%TD*%
D26*
%TO.C,U2*%
X-3491701Y-14975456D03*
X-3138148Y-14621903D03*
X-2784594Y-14268349D03*
X-2431041Y-13914796D03*
X-2077488Y-13561243D03*
X-1723934Y-13207689D03*
X-1370381Y-12854136D03*
X-1016827Y-12500582D03*
X-663274Y-12147029D03*
X-309721Y-11793476D03*
X43833Y-11439922D03*
X397386Y-11086369D03*
D27*
X397386Y-9247891D03*
X43833Y-8894338D03*
X-309721Y-8540784D03*
X-663274Y-8187231D03*
X-1016827Y-7833678D03*
X-1370381Y-7480124D03*
X-1723934Y-7126571D03*
X-2077488Y-6773017D03*
X-2431041Y-6419464D03*
X-2784594Y-6065911D03*
X-3138148Y-5712357D03*
X-3491701Y-5358804D03*
D26*
X-5330179Y-5358804D03*
X-5683732Y-5712357D03*
X-6037286Y-6065911D03*
X-6390839Y-6419464D03*
X-6744392Y-6773017D03*
X-7097946Y-7126571D03*
X-7451499Y-7480124D03*
X-7805053Y-7833678D03*
X-8158606Y-8187231D03*
X-8512159Y-8540784D03*
X-8865713Y-8894338D03*
X-9219266Y-9247891D03*
D27*
X-9219266Y-11086369D03*
X-8865713Y-11439922D03*
X-8512159Y-11793476D03*
X-8158606Y-12147029D03*
X-7805053Y-12500582D03*
X-7451499Y-12854136D03*
X-7097946Y-13207689D03*
X-6744392Y-13561243D03*
X-6390839Y-13914796D03*
X-6037286Y-14268349D03*
X-5683732Y-14621903D03*
X-5330179Y-14975456D03*
%TD*%
D12*
%TO.C,C8*%
X7569060Y-10342130D03*
X6609060Y-10342130D03*
%TD*%
D11*
%TO.C,R3*%
X-21430940Y-8702130D03*
X-22450940Y-8702130D03*
%TD*%
%TO.C,R2*%
X-21430940Y-9792130D03*
X-22450940Y-9792130D03*
%TD*%
D12*
%TO.C,C1*%
X12649060Y-6577130D03*
X11689060Y-6577130D03*
%TD*%
D28*
%TO.C,L1*%
X12956560Y-10177130D03*
X11381560Y-10177130D03*
%TD*%
D12*
%TO.C,C9*%
X-14090940Y-6582130D03*
X-15050940Y-6582130D03*
%TD*%
D11*
%TO.C,R11*%
X-21430940Y-4660000D03*
X-22450940Y-4660000D03*
%TD*%
D17*
%TO.C,C3*%
X-11060940Y-10132130D03*
X-10100940Y-10132130D03*
%TD*%
D13*
%TO.C,R6*%
X-15100940Y-13832130D03*
X-14080940Y-13832130D03*
%TD*%
D12*
%TO.C,C12*%
X7569060Y-6022130D03*
X6609060Y-6022130D03*
%TD*%
D19*
%TO.C,SW1*%
X21229060Y-8352130D03*
X16929060Y-8352130D03*
X21229060Y-6202130D03*
X16929060Y-6202130D03*
%TD*%
M02*
