%TF.GenerationSoftware,KiCad,Pcbnew,7.0.10*%
%TF.CreationDate,2024-01-31T15:03:47+08:00*%
%TF.ProjectId,UINIO-MCU-GD32F103CBT6,55494e49-4f2d-44d4-9355-2d4744333246,Version 3.1.2*%
%TF.SameCoordinates,PX72c1710PY5584170*%
%TF.FileFunction,Legend,Bot*%
%TF.FilePolarity,Positive*%
%FSLAX46Y46*%
G04 Gerber Fmt 4.6, Leading zero omitted, Abs format (unit mm)*
G04 Created by KiCad (PCBNEW 7.0.10) date 2024-01-31 15:03:47*
%MOMM*%
%LPD*%
G01*
G04 APERTURE LIST*
%ADD10C,0.187500*%
%ADD11C,0.300000*%
%ADD12C,0.100000*%
%ADD13C,0.120000*%
%ADD14R,1.700000X1.700000*%
%ADD15O,1.700000X1.700000*%
%ADD16C,1.200000*%
%ADD17C,0.650000*%
%ADD18O,2.100000X1.000000*%
%ADD19O,1.900000X1.000000*%
G04 APERTURE END LIST*
D10*
G36*
X23562794Y-11814806D02*
G01*
X23251946Y-10918776D01*
X22895376Y-10918776D01*
X23379905Y-12199000D01*
X23745683Y-12199000D01*
X24230529Y-10918776D01*
X23873642Y-10918776D01*
X23562794Y-11814806D01*
G37*
G36*
X22626208Y-11211830D02*
G01*
X22642658Y-11212741D01*
X22658644Y-11214261D01*
X22674167Y-11216388D01*
X22689225Y-11219122D01*
X22703820Y-11222465D01*
X22717950Y-11226415D01*
X22731617Y-11230974D01*
X22744820Y-11236139D01*
X22757559Y-11241913D01*
X22769834Y-11248294D01*
X22781646Y-11255283D01*
X22792993Y-11262880D01*
X22803877Y-11271085D01*
X22814297Y-11279897D01*
X22824252Y-11289317D01*
X22833672Y-11299234D01*
X22842485Y-11309618D01*
X22850689Y-11320468D01*
X22858286Y-11331785D01*
X22865275Y-11343568D01*
X22871656Y-11355817D01*
X22877430Y-11368532D01*
X22882596Y-11381714D01*
X22887154Y-11395362D01*
X22891104Y-11409477D01*
X22894447Y-11424058D01*
X22897182Y-11439105D01*
X22899309Y-11454619D01*
X22900828Y-11470599D01*
X22901740Y-11487045D01*
X22902044Y-11503958D01*
X22902044Y-11943082D01*
X22901751Y-11958409D01*
X22900873Y-11973355D01*
X22899409Y-11987919D01*
X22897360Y-12002100D01*
X22894726Y-12015900D01*
X22891506Y-12029317D01*
X22887701Y-12042353D01*
X22883310Y-12055006D01*
X22878334Y-12067278D01*
X22872773Y-12079167D01*
X22866626Y-12090675D01*
X22859894Y-12101800D01*
X22852576Y-12112543D01*
X22844673Y-12122905D01*
X22836184Y-12132884D01*
X22827110Y-12142482D01*
X22817513Y-12151556D01*
X22807533Y-12160044D01*
X22797172Y-12167947D01*
X22786428Y-12175265D01*
X22775303Y-12181998D01*
X22763795Y-12188144D01*
X22751906Y-12193706D01*
X22739634Y-12198682D01*
X22726981Y-12203073D01*
X22713945Y-12206878D01*
X22700528Y-12210098D01*
X22686728Y-12212732D01*
X22672547Y-12214781D01*
X22657983Y-12216245D01*
X22643038Y-12217123D01*
X22627710Y-12217415D01*
X22609687Y-12217379D01*
X22591536Y-12217272D01*
X22573257Y-12217092D01*
X22554850Y-12216840D01*
X22536316Y-12216516D01*
X22517654Y-12216121D01*
X22498864Y-12215653D01*
X22479946Y-12215113D01*
X22460901Y-12214502D01*
X22441728Y-12213819D01*
X22422427Y-12213063D01*
X22402998Y-12212236D01*
X22383442Y-12211337D01*
X22363758Y-12210366D01*
X22343946Y-12209322D01*
X22324006Y-12208207D01*
X22303939Y-12207020D01*
X22283744Y-12205762D01*
X22263421Y-12204431D01*
X22242970Y-12203028D01*
X22222392Y-12201553D01*
X22201686Y-12200007D01*
X22180852Y-12198388D01*
X22159890Y-12196698D01*
X22138801Y-12194935D01*
X22117584Y-12193101D01*
X22096239Y-12191194D01*
X22074766Y-12189216D01*
X22053166Y-12187166D01*
X22031438Y-12185044D01*
X22009582Y-12182850D01*
X21987598Y-12180584D01*
X21987598Y-11951972D01*
X22009263Y-11953672D01*
X22030600Y-11955317D01*
X22051607Y-11956909D01*
X22072286Y-11958447D01*
X22092636Y-11959930D01*
X22112658Y-11961360D01*
X22132350Y-11962736D01*
X22151714Y-11964058D01*
X22170750Y-11965326D01*
X22189457Y-11966540D01*
X22207835Y-11967700D01*
X22225884Y-11968806D01*
X22243605Y-11969858D01*
X22260997Y-11970856D01*
X22278060Y-11971800D01*
X22294795Y-11972690D01*
X22311201Y-11973526D01*
X22327278Y-11974309D01*
X22343027Y-11975037D01*
X22358447Y-11975712D01*
X22373538Y-11976332D01*
X22388301Y-11976899D01*
X22402735Y-11977411D01*
X22416840Y-11977870D01*
X22430617Y-11978274D01*
X22444065Y-11978625D01*
X22457184Y-11978922D01*
X22469974Y-11979165D01*
X22494569Y-11979488D01*
X22517850Y-11979596D01*
X22526166Y-11979154D01*
X22540041Y-11976132D01*
X22552510Y-11970246D01*
X22563572Y-11961498D01*
X22569831Y-11954268D01*
X22576790Y-11942210D01*
X22580837Y-11928694D01*
X22581988Y-11915458D01*
X22581988Y-11842429D01*
X21950767Y-11842429D01*
X21950767Y-11613818D01*
X22270823Y-11613818D01*
X22581988Y-11613818D01*
X22581988Y-11513166D01*
X22581916Y-11508673D01*
X22580197Y-11492127D01*
X22576186Y-11477864D01*
X22569883Y-11465882D01*
X22561288Y-11456183D01*
X22550400Y-11448766D01*
X22537221Y-11443632D01*
X22521750Y-11440779D01*
X22508642Y-11440137D01*
X22344169Y-11440137D01*
X22339656Y-11440208D01*
X22323039Y-11441920D01*
X22308713Y-11445914D01*
X22296680Y-11452190D01*
X22286939Y-11460748D01*
X22279489Y-11471588D01*
X22274332Y-11484710D01*
X22271467Y-11500115D01*
X22270823Y-11513166D01*
X22270823Y-11613818D01*
X21950767Y-11613818D01*
X21950767Y-11503958D01*
X21951071Y-11487045D01*
X21951982Y-11470599D01*
X21953502Y-11454619D01*
X21955629Y-11439105D01*
X21958363Y-11424058D01*
X21961706Y-11409477D01*
X21965656Y-11395362D01*
X21970215Y-11381714D01*
X21975380Y-11368532D01*
X21981154Y-11355817D01*
X21987535Y-11343568D01*
X21994524Y-11331785D01*
X22002121Y-11320468D01*
X22010326Y-11309618D01*
X22019138Y-11299234D01*
X22028558Y-11289317D01*
X22038514Y-11279897D01*
X22048934Y-11271085D01*
X22059817Y-11262880D01*
X22071165Y-11255283D01*
X22082976Y-11248294D01*
X22095251Y-11241913D01*
X22107990Y-11236139D01*
X22121193Y-11230974D01*
X22134860Y-11226415D01*
X22148991Y-11222465D01*
X22163585Y-11219122D01*
X22178644Y-11216388D01*
X22194166Y-11214261D01*
X22210152Y-11212741D01*
X22226602Y-11211830D01*
X22243516Y-11211526D01*
X22609294Y-11211526D01*
X22626208Y-11211830D01*
G37*
G36*
X21234769Y-11494750D02*
G01*
X21249205Y-11494964D01*
X21263697Y-11495608D01*
X21278247Y-11496681D01*
X21292854Y-11498183D01*
X21307518Y-11500114D01*
X21322239Y-11502474D01*
X21337018Y-11505264D01*
X21351853Y-11508482D01*
X21366745Y-11512130D01*
X21381694Y-11516207D01*
X21396701Y-11520713D01*
X21411764Y-11525648D01*
X21426884Y-11531012D01*
X21442062Y-11536806D01*
X21457296Y-11543028D01*
X21472588Y-11549680D01*
X21472588Y-12199000D01*
X21792644Y-12199000D01*
X21792644Y-11229624D01*
X21509102Y-11229624D01*
X21491004Y-11348692D01*
X21481147Y-11340253D01*
X21471262Y-11332082D01*
X21451409Y-11316544D01*
X21431444Y-11302077D01*
X21411367Y-11288682D01*
X21391179Y-11276358D01*
X21370879Y-11265106D01*
X21350467Y-11254926D01*
X21329944Y-11245817D01*
X21309309Y-11237780D01*
X21288563Y-11230815D01*
X21267705Y-11224921D01*
X21246735Y-11220099D01*
X21225654Y-11216348D01*
X21204461Y-11213669D01*
X21183156Y-11212061D01*
X21161740Y-11211526D01*
X21079504Y-11211526D01*
X21079504Y-11494750D01*
X21234769Y-11494750D01*
G37*
G36*
X20992187Y-11943082D02*
G01*
X20969142Y-11944762D01*
X20946404Y-11946388D01*
X20923973Y-11947962D01*
X20901849Y-11949482D01*
X20880031Y-11950948D01*
X20858521Y-11952362D01*
X20837318Y-11953722D01*
X20816422Y-11955028D01*
X20795833Y-11956282D01*
X20775551Y-11957482D01*
X20755575Y-11958628D01*
X20735907Y-11959722D01*
X20716546Y-11960762D01*
X20697491Y-11961748D01*
X20678744Y-11962682D01*
X20660303Y-11963562D01*
X20642170Y-11964388D01*
X20624344Y-11965162D01*
X20606824Y-11965882D01*
X20589612Y-11966548D01*
X20572706Y-11967162D01*
X20556107Y-11967722D01*
X20539816Y-11968228D01*
X20523831Y-11968682D01*
X20508154Y-11969082D01*
X20492783Y-11969428D01*
X20477719Y-11969722D01*
X20462963Y-11969962D01*
X20448513Y-11970148D01*
X20434370Y-11970282D01*
X20420534Y-11970362D01*
X20407005Y-11970388D01*
X20393908Y-11969257D01*
X20380501Y-11965280D01*
X20368502Y-11958440D01*
X20361283Y-11952290D01*
X20352381Y-11941202D01*
X20346392Y-11928658D01*
X20343515Y-11916285D01*
X20342867Y-11906250D01*
X20342867Y-11842429D01*
X20736269Y-11842429D01*
X20751597Y-11842137D01*
X20766542Y-11841259D01*
X20781106Y-11839795D01*
X20795287Y-11837746D01*
X20809087Y-11835112D01*
X20822504Y-11831892D01*
X20835540Y-11828087D01*
X20848193Y-11823696D01*
X20860465Y-11818720D01*
X20872354Y-11813158D01*
X20883862Y-11807011D01*
X20894987Y-11800279D01*
X20905731Y-11792961D01*
X20916092Y-11785058D01*
X20926072Y-11776570D01*
X20935669Y-11767496D01*
X20944743Y-11757898D01*
X20953232Y-11747919D01*
X20961135Y-11737557D01*
X20968452Y-11726814D01*
X20975185Y-11715689D01*
X20981332Y-11704181D01*
X20986893Y-11692292D01*
X20991869Y-11680020D01*
X20996260Y-11667367D01*
X21000065Y-11654331D01*
X21003285Y-11640914D01*
X21005919Y-11627114D01*
X21007968Y-11612932D01*
X21009432Y-11598369D01*
X21010310Y-11583423D01*
X21010603Y-11568096D01*
X21010603Y-11503958D01*
X21010310Y-11488631D01*
X21009432Y-11473689D01*
X21007968Y-11459132D01*
X21005919Y-11444959D01*
X21003285Y-11431171D01*
X21000065Y-11417767D01*
X20996260Y-11404748D01*
X20991869Y-11392113D01*
X20986893Y-11379862D01*
X20981332Y-11367996D01*
X20975185Y-11356515D01*
X20968452Y-11345418D01*
X20961135Y-11334706D01*
X20953232Y-11324378D01*
X20944743Y-11314434D01*
X20935669Y-11304875D01*
X20926072Y-11295763D01*
X20916092Y-11287238D01*
X20905731Y-11279302D01*
X20894987Y-11271953D01*
X20883862Y-11265192D01*
X20872354Y-11259019D01*
X20860465Y-11253434D01*
X20848193Y-11248437D01*
X20835540Y-11244028D01*
X20822504Y-11240206D01*
X20809087Y-11236973D01*
X20795287Y-11234327D01*
X20781106Y-11232270D01*
X20766542Y-11230800D01*
X20751597Y-11229918D01*
X20736269Y-11229624D01*
X20114256Y-11229624D01*
X20114256Y-11467443D01*
X20626409Y-11467443D01*
X20639645Y-11468594D01*
X20653160Y-11472641D01*
X20665219Y-11479601D01*
X20672448Y-11485859D01*
X20681197Y-11496793D01*
X20687083Y-11509234D01*
X20690105Y-11523182D01*
X20690547Y-11531581D01*
X20689416Y-11544679D01*
X20685439Y-11558085D01*
X20678599Y-11570085D01*
X20672448Y-11577304D01*
X20661361Y-11586052D01*
X20648817Y-11591938D01*
X20634816Y-11594960D01*
X20626409Y-11595402D01*
X20297145Y-11595402D01*
X20281819Y-11595696D01*
X20266877Y-11596578D01*
X20252319Y-11598048D01*
X20238147Y-11600105D01*
X20224358Y-11602751D01*
X20210954Y-11605984D01*
X20197935Y-11609806D01*
X20185300Y-11614215D01*
X20173050Y-11619212D01*
X20161184Y-11624797D01*
X20149702Y-11630970D01*
X20138605Y-11637731D01*
X20127893Y-11645080D01*
X20117565Y-11653016D01*
X20107622Y-11661541D01*
X20098063Y-11670653D01*
X20088950Y-11680212D01*
X20080426Y-11690156D01*
X20072489Y-11700484D01*
X20065140Y-11711196D01*
X20058379Y-11722293D01*
X20052206Y-11733775D01*
X20046621Y-11745640D01*
X20041624Y-11757891D01*
X20037215Y-11770526D01*
X20033394Y-11783545D01*
X20030160Y-11796949D01*
X20027515Y-11810737D01*
X20025457Y-11824910D01*
X20023987Y-11839468D01*
X20023105Y-11854409D01*
X20022811Y-11869736D01*
X20022811Y-11943082D01*
X20023105Y-11958409D01*
X20023987Y-11973355D01*
X20025457Y-11987919D01*
X20027515Y-12002100D01*
X20030160Y-12015900D01*
X20033394Y-12029317D01*
X20037215Y-12042353D01*
X20041624Y-12055006D01*
X20046621Y-12067278D01*
X20052206Y-12079167D01*
X20058379Y-12090675D01*
X20065140Y-12101800D01*
X20072489Y-12112543D01*
X20080426Y-12122905D01*
X20088950Y-12132884D01*
X20098063Y-12142482D01*
X20107622Y-12151556D01*
X20117565Y-12160044D01*
X20127893Y-12167947D01*
X20138605Y-12175265D01*
X20149702Y-12181998D01*
X20161184Y-12188144D01*
X20173050Y-12193706D01*
X20185300Y-12198682D01*
X20197935Y-12203073D01*
X20210954Y-12206878D01*
X20224358Y-12210098D01*
X20238147Y-12212732D01*
X20252319Y-12214781D01*
X20266877Y-12216245D01*
X20281819Y-12217123D01*
X20297145Y-12217415D01*
X20317433Y-12217379D01*
X20337813Y-12217272D01*
X20358286Y-12217092D01*
X20378851Y-12216840D01*
X20399508Y-12216516D01*
X20420258Y-12216121D01*
X20441100Y-12215653D01*
X20462035Y-12215113D01*
X20483062Y-12214502D01*
X20504181Y-12213819D01*
X20525393Y-12213063D01*
X20546697Y-12212236D01*
X20568094Y-12211337D01*
X20589583Y-12210366D01*
X20611165Y-12209322D01*
X20632838Y-12208207D01*
X20654605Y-12207020D01*
X20676463Y-12205762D01*
X20698414Y-12204431D01*
X20720458Y-12203028D01*
X20742594Y-12201553D01*
X20764822Y-12200007D01*
X20787143Y-12198388D01*
X20809556Y-12196698D01*
X20832061Y-12194935D01*
X20854659Y-12193101D01*
X20877349Y-12191194D01*
X20900132Y-12189216D01*
X20923007Y-12187166D01*
X20945975Y-12185044D01*
X20969034Y-12182850D01*
X20992187Y-12180584D01*
X20992187Y-11943082D01*
G37*
G36*
X19515739Y-11266138D02*
G01*
X19515739Y-12199000D01*
X19835795Y-12199000D01*
X19835795Y-11513166D01*
X19972961Y-11513166D01*
X19972961Y-11266138D01*
X19515739Y-11266138D01*
G37*
G36*
X19835795Y-10900360D02*
G01*
X19515739Y-10900360D01*
X19515739Y-11156595D01*
X19835795Y-11156595D01*
X19835795Y-10900360D01*
G37*
G36*
X19078923Y-11211830D02*
G01*
X19095373Y-11212741D01*
X19111359Y-11214261D01*
X19126881Y-11216388D01*
X19141940Y-11219122D01*
X19156534Y-11222465D01*
X19170665Y-11226415D01*
X19184332Y-11230974D01*
X19197535Y-11236139D01*
X19210274Y-11241913D01*
X19222549Y-11248294D01*
X19234360Y-11255283D01*
X19245708Y-11262880D01*
X19256591Y-11271085D01*
X19267011Y-11279897D01*
X19276967Y-11289317D01*
X19286387Y-11299234D01*
X19295199Y-11309618D01*
X19303404Y-11320468D01*
X19311001Y-11331785D01*
X19317990Y-11343568D01*
X19324371Y-11355817D01*
X19330145Y-11368532D01*
X19335310Y-11381714D01*
X19339869Y-11395362D01*
X19343819Y-11409477D01*
X19347161Y-11424058D01*
X19349896Y-11439105D01*
X19352023Y-11454619D01*
X19353543Y-11470599D01*
X19354454Y-11487045D01*
X19354758Y-11503958D01*
X19354758Y-11924666D01*
X19354454Y-11941580D01*
X19353543Y-11958030D01*
X19352023Y-11974016D01*
X19349896Y-11989538D01*
X19347161Y-12004597D01*
X19343819Y-12019191D01*
X19339869Y-12033322D01*
X19335310Y-12046989D01*
X19330145Y-12060192D01*
X19324371Y-12072931D01*
X19317990Y-12085206D01*
X19311001Y-12097017D01*
X19303404Y-12108365D01*
X19295199Y-12119248D01*
X19286387Y-12129668D01*
X19276967Y-12139624D01*
X19267011Y-12149044D01*
X19256591Y-12157856D01*
X19245708Y-12166061D01*
X19234360Y-12173658D01*
X19222549Y-12180647D01*
X19210274Y-12187028D01*
X19197535Y-12192802D01*
X19184332Y-12197968D01*
X19170665Y-12202526D01*
X19156534Y-12206476D01*
X19141940Y-12209819D01*
X19126881Y-12212553D01*
X19111359Y-12214681D01*
X19095373Y-12216200D01*
X19078923Y-12217112D01*
X19062009Y-12217415D01*
X18641301Y-12217415D01*
X18624388Y-12217112D01*
X18607942Y-12216200D01*
X18591962Y-12214681D01*
X18576448Y-12212553D01*
X18561401Y-12209819D01*
X18546820Y-12206476D01*
X18532705Y-12202526D01*
X18519057Y-12197968D01*
X18505875Y-12192802D01*
X18493160Y-12187028D01*
X18480910Y-12180647D01*
X18469128Y-12173658D01*
X18457811Y-12166061D01*
X18446961Y-12157856D01*
X18436577Y-12149044D01*
X18426660Y-12139624D01*
X18417240Y-12129668D01*
X18408428Y-12119248D01*
X18400223Y-12108365D01*
X18392626Y-12097017D01*
X18385637Y-12085206D01*
X18379256Y-12072931D01*
X18373482Y-12060192D01*
X18368316Y-12046989D01*
X18363758Y-12033322D01*
X18359808Y-12019191D01*
X18356465Y-12004597D01*
X18353731Y-11989538D01*
X18351603Y-11974016D01*
X18350084Y-11958030D01*
X18349172Y-11941580D01*
X18348869Y-11924666D01*
X18348869Y-11897360D01*
X18668924Y-11897360D01*
X18668996Y-11901853D01*
X18670707Y-11918398D01*
X18674701Y-11932662D01*
X18680977Y-11944643D01*
X18689535Y-11954342D01*
X18700375Y-11961759D01*
X18713498Y-11966894D01*
X18728902Y-11969746D01*
X18741953Y-11970388D01*
X18961356Y-11970388D01*
X18965869Y-11970317D01*
X18982486Y-11968605D01*
X18996812Y-11964612D01*
X19008845Y-11958336D01*
X19018586Y-11949778D01*
X19026036Y-11938937D01*
X19031193Y-11925815D01*
X19034058Y-11910411D01*
X19034702Y-11897360D01*
X19034702Y-11531581D01*
X19034631Y-11527069D01*
X19032912Y-11510452D01*
X19028901Y-11496126D01*
X19022597Y-11484093D01*
X19014002Y-11474351D01*
X19003115Y-11466902D01*
X18989936Y-11461745D01*
X18974464Y-11458880D01*
X18961356Y-11458235D01*
X18741953Y-11458235D01*
X18737460Y-11458307D01*
X18720914Y-11460026D01*
X18706651Y-11464037D01*
X18694670Y-11470340D01*
X18684971Y-11478936D01*
X18677554Y-11489823D01*
X18672419Y-11503002D01*
X18669566Y-11518474D01*
X18668924Y-11531581D01*
X18668924Y-11897360D01*
X18348869Y-11897360D01*
X18348869Y-11503958D01*
X18349172Y-11487045D01*
X18350084Y-11470599D01*
X18351603Y-11454619D01*
X18353731Y-11439105D01*
X18356465Y-11424058D01*
X18359808Y-11409477D01*
X18363758Y-11395362D01*
X18368316Y-11381714D01*
X18373482Y-11368532D01*
X18379256Y-11355817D01*
X18385637Y-11343568D01*
X18392626Y-11331785D01*
X18400223Y-11320468D01*
X18408428Y-11309618D01*
X18417240Y-11299234D01*
X18426660Y-11289317D01*
X18436577Y-11279897D01*
X18446961Y-11271085D01*
X18457811Y-11262880D01*
X18469128Y-11255283D01*
X18480910Y-11248294D01*
X18493160Y-11241913D01*
X18505875Y-11236139D01*
X18519057Y-11230974D01*
X18532705Y-11226415D01*
X18546820Y-11222465D01*
X18561401Y-11219122D01*
X18576448Y-11216388D01*
X18591962Y-11214261D01*
X18607942Y-11212741D01*
X18624388Y-11211830D01*
X18641301Y-11211526D01*
X19062009Y-11211526D01*
X19078923Y-11211830D01*
G37*
G36*
X17651287Y-11476651D02*
G01*
X17669671Y-11476972D01*
X17688507Y-11477935D01*
X17701315Y-11478933D01*
X17714325Y-11480217D01*
X17727535Y-11481786D01*
X17740946Y-11483640D01*
X17754559Y-11485780D01*
X17768372Y-11488205D01*
X17782386Y-11490915D01*
X17796601Y-11493910D01*
X17811017Y-11497191D01*
X17825634Y-11500756D01*
X17840452Y-11504608D01*
X17855470Y-11508744D01*
X17870690Y-11513166D01*
X17870690Y-12199000D01*
X18190746Y-12199000D01*
X18190746Y-11229624D01*
X17907204Y-11229624D01*
X17889106Y-11321069D01*
X17878333Y-11314122D01*
X17867525Y-11307410D01*
X17851248Y-11297785D01*
X17834892Y-11288691D01*
X17818459Y-11280126D01*
X17801948Y-11272092D01*
X17785358Y-11264588D01*
X17768690Y-11257614D01*
X17751945Y-11251170D01*
X17735121Y-11245257D01*
X17718219Y-11239874D01*
X17712567Y-11238197D01*
X17695848Y-11233431D01*
X17679626Y-11229133D01*
X17663901Y-11225304D01*
X17648672Y-11221944D01*
X17633940Y-11219053D01*
X17619705Y-11216631D01*
X17605966Y-11214677D01*
X17592725Y-11213193D01*
X17579980Y-11212177D01*
X17563759Y-11211552D01*
X17559842Y-11211526D01*
X17477605Y-11211526D01*
X17462241Y-11211818D01*
X17447263Y-11212697D01*
X17432672Y-11214160D01*
X17418468Y-11216209D01*
X17404651Y-11218843D01*
X17391221Y-11222063D01*
X17378178Y-11225868D01*
X17365522Y-11230259D01*
X17353253Y-11235235D01*
X17341371Y-11240797D01*
X17329876Y-11246944D01*
X17318768Y-11253676D01*
X17308047Y-11260994D01*
X17297713Y-11268897D01*
X17287766Y-11277385D01*
X17278206Y-11286459D01*
X17269132Y-11296020D01*
X17260643Y-11305967D01*
X17252740Y-11316301D01*
X17245422Y-11327022D01*
X17238690Y-11338130D01*
X17232543Y-11349625D01*
X17226981Y-11361507D01*
X17222005Y-11373776D01*
X17217615Y-11386432D01*
X17213809Y-11399475D01*
X17210590Y-11412905D01*
X17207955Y-11426722D01*
X17205906Y-11440926D01*
X17204443Y-11455517D01*
X17203565Y-11470494D01*
X17203272Y-11485859D01*
X17203272Y-12199000D01*
X17523328Y-12199000D01*
X17523328Y-11540472D01*
X17524479Y-11527394D01*
X17528525Y-11514058D01*
X17535485Y-11502178D01*
X17541744Y-11495067D01*
X17552652Y-11486165D01*
X17565018Y-11480176D01*
X17578840Y-11477101D01*
X17587148Y-11476651D01*
X17651287Y-11476651D01*
G37*
G36*
X15877326Y-12217415D02*
G01*
X15896481Y-12217379D01*
X15915764Y-12217272D01*
X15935176Y-12217092D01*
X15954716Y-12216840D01*
X15974384Y-12216516D01*
X15994181Y-12216121D01*
X16014106Y-12215653D01*
X16034159Y-12215113D01*
X16054341Y-12214502D01*
X16074651Y-12213819D01*
X16095090Y-12213063D01*
X16115657Y-12212236D01*
X16136352Y-12211337D01*
X16157176Y-12210366D01*
X16178128Y-12209322D01*
X16199208Y-12208207D01*
X16220417Y-12207020D01*
X16241754Y-12205762D01*
X16263219Y-12204431D01*
X16284813Y-12203028D01*
X16306535Y-12201553D01*
X16328386Y-12200007D01*
X16350365Y-12198388D01*
X16372472Y-12196698D01*
X16394708Y-12194935D01*
X16417072Y-12193101D01*
X16439564Y-12191194D01*
X16462185Y-12189216D01*
X16484934Y-12187166D01*
X16507812Y-12185044D01*
X16530818Y-12182850D01*
X16553952Y-12180584D01*
X16553952Y-11933874D01*
X16528890Y-11935554D01*
X16504228Y-11937181D01*
X16479965Y-11938754D01*
X16456103Y-11940274D01*
X16432641Y-11941740D01*
X16409578Y-11943154D01*
X16386916Y-11944514D01*
X16364653Y-11945820D01*
X16342791Y-11947074D01*
X16321329Y-11948274D01*
X16300266Y-11949420D01*
X16279604Y-11950514D01*
X16259341Y-11951554D01*
X16239479Y-11952540D01*
X16220017Y-11953474D01*
X16200954Y-11954354D01*
X16182292Y-11955180D01*
X16164029Y-11955954D01*
X16146167Y-11956674D01*
X16128705Y-11957340D01*
X16111642Y-11957954D01*
X16094980Y-11958514D01*
X16078717Y-11959020D01*
X16062855Y-11959474D01*
X16047392Y-11959874D01*
X16032330Y-11960220D01*
X16017667Y-11960514D01*
X16003405Y-11960754D01*
X15989542Y-11960940D01*
X15976080Y-11961074D01*
X15963017Y-11961154D01*
X15950355Y-11961180D01*
X15935241Y-11960321D01*
X15921332Y-11957742D01*
X15908629Y-11953445D01*
X15897131Y-11947428D01*
X15886839Y-11939692D01*
X15883677Y-11936732D01*
X15875260Y-11926830D01*
X15868585Y-11915701D01*
X15863651Y-11903344D01*
X15860458Y-11889759D01*
X15859007Y-11874946D01*
X15858910Y-11869736D01*
X15858910Y-11796707D01*
X15859340Y-11783404D01*
X15861593Y-11765058D01*
X15865777Y-11748643D01*
X15871892Y-11734160D01*
X15879938Y-11721607D01*
X15889916Y-11710986D01*
X15901825Y-11702296D01*
X15915665Y-11695537D01*
X15931435Y-11690709D01*
X15949138Y-11687812D01*
X15962012Y-11686954D01*
X15968771Y-11686847D01*
X16352647Y-11686847D01*
X16352647Y-11430929D01*
X16005285Y-11430929D01*
X15991982Y-11430500D01*
X15973636Y-11428247D01*
X15957221Y-11424063D01*
X15942738Y-11417947D01*
X15930185Y-11409901D01*
X15919564Y-11399923D01*
X15910874Y-11388015D01*
X15904115Y-11374175D01*
X15899287Y-11358404D01*
X15896390Y-11340702D01*
X15895532Y-11327828D01*
X15895425Y-11321069D01*
X15895425Y-11284554D01*
X15895854Y-11271251D01*
X15898107Y-11252905D01*
X15902291Y-11236490D01*
X15908406Y-11222007D01*
X15916453Y-11209454D01*
X15926430Y-11198833D01*
X15938339Y-11190143D01*
X15952179Y-11183384D01*
X15967950Y-11178556D01*
X15985652Y-11175659D01*
X15998526Y-11174801D01*
X16005285Y-11174694D01*
X16535536Y-11174694D01*
X16535536Y-10918776D01*
X15913841Y-10918776D01*
X15891788Y-10919095D01*
X15870480Y-10920051D01*
X15849916Y-10921645D01*
X15830096Y-10923876D01*
X15811020Y-10926745D01*
X15792689Y-10930251D01*
X15775101Y-10934395D01*
X15758258Y-10939177D01*
X15742159Y-10944595D01*
X15726804Y-10950652D01*
X15712193Y-10957346D01*
X15698327Y-10964677D01*
X15685205Y-10972646D01*
X15672826Y-10981252D01*
X15661192Y-10990496D01*
X15650303Y-11000378D01*
X15640114Y-11010871D01*
X15630582Y-11022028D01*
X15621708Y-11033851D01*
X15613491Y-11046338D01*
X15605931Y-11059490D01*
X15599029Y-11073307D01*
X15592784Y-11087789D01*
X15587196Y-11102935D01*
X15582266Y-11118747D01*
X15577993Y-11135223D01*
X15574378Y-11152364D01*
X15571420Y-11170169D01*
X15569119Y-11188640D01*
X15567476Y-11207775D01*
X15566490Y-11227575D01*
X15566161Y-11248040D01*
X15566358Y-11261573D01*
X15566950Y-11274786D01*
X15567936Y-11287679D01*
X15570154Y-11306418D01*
X15573260Y-11324437D01*
X15577254Y-11341737D01*
X15582135Y-11358316D01*
X15587903Y-11374175D01*
X15594559Y-11389315D01*
X15602102Y-11403734D01*
X15610533Y-11417433D01*
X15616646Y-11426166D01*
X15626334Y-11438666D01*
X15636586Y-11450445D01*
X15647402Y-11461504D01*
X15658781Y-11471844D01*
X15670724Y-11481463D01*
X15683231Y-11490363D01*
X15696302Y-11498542D01*
X15709936Y-11506002D01*
X15724134Y-11512741D01*
X15738896Y-11518761D01*
X15749050Y-11522374D01*
X15730926Y-11527871D01*
X15713543Y-11534280D01*
X15696902Y-11541603D01*
X15681002Y-11549839D01*
X15665845Y-11558987D01*
X15651429Y-11569048D01*
X15637755Y-11580022D01*
X15624822Y-11591909D01*
X15612631Y-11604709D01*
X15601182Y-11618422D01*
X15590474Y-11633048D01*
X15580509Y-11648586D01*
X15571285Y-11665037D01*
X15562802Y-11682401D01*
X15555062Y-11700678D01*
X15548063Y-11719868D01*
X15543746Y-11734290D01*
X15540006Y-11749298D01*
X15536840Y-11764891D01*
X15534251Y-11781069D01*
X15532236Y-11797833D01*
X15531103Y-11810790D01*
X15530294Y-11824077D01*
X15529809Y-11837692D01*
X15529647Y-11851637D01*
X15529647Y-11869736D01*
X15529975Y-11891788D01*
X15530961Y-11913096D01*
X15532605Y-11933661D01*
X15534906Y-11953480D01*
X15537864Y-11972556D01*
X15541479Y-11990888D01*
X15545752Y-12008475D01*
X15550682Y-12025318D01*
X15556270Y-12041417D01*
X15562514Y-12056772D01*
X15569417Y-12071383D01*
X15576976Y-12085250D01*
X15585193Y-12098372D01*
X15594068Y-12110750D01*
X15603599Y-12122384D01*
X15613788Y-12133274D01*
X15624678Y-12143463D01*
X15636312Y-12152994D01*
X15648690Y-12161869D01*
X15661813Y-12170086D01*
X15675679Y-12177645D01*
X15690290Y-12184548D01*
X15705645Y-12190792D01*
X15721744Y-12196380D01*
X15738587Y-12201310D01*
X15756174Y-12205583D01*
X15774506Y-12209198D01*
X15793582Y-12212157D01*
X15813401Y-12214457D01*
X15833966Y-12216101D01*
X15855274Y-12217087D01*
X15877326Y-12217415D01*
G37*
G36*
X15425501Y-11924666D02*
G01*
X15096238Y-11924666D01*
X15096238Y-12199000D01*
X15425501Y-12199000D01*
X15425501Y-11924666D01*
G37*
G36*
X14741890Y-12199000D02*
G01*
X14741890Y-11202318D01*
X14952086Y-11275346D01*
X15043530Y-11065151D01*
X14705058Y-10918776D01*
X14412626Y-10918776D01*
X14412626Y-12199000D01*
X14741890Y-12199000D01*
G37*
G36*
X14251963Y-11924666D02*
G01*
X13922700Y-11924666D01*
X13922700Y-12199000D01*
X14251963Y-12199000D01*
X14251963Y-11924666D01*
G37*
G36*
X12845686Y-11321069D02*
G01*
X12846201Y-11340351D01*
X12847745Y-11359304D01*
X12850319Y-11377927D01*
X12853922Y-11396221D01*
X12858554Y-11414184D01*
X12864216Y-11431817D01*
X12870908Y-11449120D01*
X12878629Y-11466094D01*
X12887379Y-11482737D01*
X12897159Y-11499051D01*
X12907968Y-11515035D01*
X12919806Y-11530688D01*
X12932675Y-11546012D01*
X12946572Y-11561006D01*
X12961499Y-11575670D01*
X12977455Y-11590004D01*
X12987651Y-11598662D01*
X12998074Y-11607329D01*
X13008726Y-11616006D01*
X13019606Y-11624693D01*
X13030714Y-11633390D01*
X13042050Y-11642097D01*
X13053615Y-11650814D01*
X13065407Y-11659540D01*
X13458492Y-11943082D01*
X12845686Y-11943082D01*
X12845686Y-12199000D01*
X13833478Y-12199000D01*
X13833478Y-11851637D01*
X13174950Y-11375999D01*
X13174950Y-11284554D01*
X13175379Y-11271251D01*
X13177632Y-11252905D01*
X13181816Y-11236490D01*
X13187932Y-11222007D01*
X13195978Y-11209454D01*
X13205956Y-11198833D01*
X13217864Y-11190143D01*
X13231704Y-11183384D01*
X13247475Y-11178556D01*
X13265177Y-11175659D01*
X13278052Y-11174801D01*
X13284811Y-11174694D01*
X13796963Y-11174694D01*
X13796963Y-10918776D01*
X13211465Y-10918776D01*
X13187901Y-10919116D01*
X13165157Y-10920136D01*
X13143231Y-10921835D01*
X13122124Y-10924214D01*
X13101835Y-10927272D01*
X13082365Y-10931010D01*
X13063713Y-10935428D01*
X13045880Y-10940526D01*
X13028866Y-10946303D01*
X13012670Y-10952760D01*
X12997293Y-10959897D01*
X12982734Y-10967713D01*
X12968994Y-10976209D01*
X12956073Y-10985385D01*
X12943970Y-10995240D01*
X12932686Y-11005775D01*
X12922151Y-11017022D01*
X12912295Y-11029093D01*
X12903120Y-11041987D01*
X12894624Y-11055705D01*
X12886807Y-11070246D01*
X12879671Y-11085611D01*
X12873214Y-11101799D01*
X12867436Y-11118811D01*
X12862339Y-11136647D01*
X12857921Y-11155306D01*
X12854182Y-11174788D01*
X12851124Y-11195094D01*
X12848745Y-11216224D01*
X12847046Y-11238177D01*
X12846026Y-11260954D01*
X12845686Y-11284554D01*
X12845686Y-11321069D01*
G37*
D11*
G36*
X42310676Y-9988916D02*
G01*
X42341282Y-9995979D01*
X42372918Y-10011429D01*
X42397196Y-10034236D01*
X42414117Y-10064400D01*
X42422357Y-10093828D01*
X42425889Y-10127965D01*
X42426036Y-10137235D01*
X42426036Y-11009475D01*
X42423682Y-11044612D01*
X42416619Y-11075064D01*
X42401169Y-11106540D01*
X42378362Y-11130697D01*
X42348198Y-11147533D01*
X42318769Y-11155732D01*
X42284632Y-11159245D01*
X42275362Y-11159392D01*
X41752170Y-11159392D01*
X41717033Y-11157049D01*
X41686581Y-11150022D01*
X41655105Y-11134650D01*
X41630948Y-11111957D01*
X41614112Y-11081945D01*
X41605914Y-11052664D01*
X41602400Y-11018699D01*
X41602254Y-11009475D01*
X41602254Y-10137235D01*
X41604596Y-10101921D01*
X41611623Y-10071316D01*
X41626996Y-10039680D01*
X41649688Y-10015402D01*
X41679700Y-9998480D01*
X41708981Y-9990241D01*
X41742946Y-9986709D01*
X41752170Y-9986562D01*
X42275362Y-9986562D01*
X42310676Y-9988916D01*
G37*
G36*
X48805136Y-9269350D02*
G01*
X48843444Y-9275598D01*
X48877574Y-9286013D01*
X48907524Y-9300593D01*
X48933296Y-9319340D01*
X48954888Y-9342252D01*
X48972301Y-9369329D01*
X48985535Y-9400573D01*
X48994589Y-9435982D01*
X48999465Y-9475558D01*
X49000394Y-9504256D01*
X49000394Y-10900445D01*
X48998304Y-10942798D01*
X48992036Y-10980985D01*
X48981588Y-11015005D01*
X48966961Y-11044860D01*
X48948155Y-11070550D01*
X48925169Y-11092073D01*
X48898005Y-11109431D01*
X48866662Y-11122622D01*
X48831139Y-11131648D01*
X48791437Y-11136509D01*
X48762648Y-11137434D01*
X48021395Y-11137434D01*
X47978907Y-11135351D01*
X47940599Y-11129103D01*
X47906469Y-11118688D01*
X47876519Y-11104108D01*
X47850747Y-11085362D01*
X47829155Y-11062450D01*
X47811742Y-11035372D01*
X47798508Y-11004128D01*
X47789454Y-10968719D01*
X47784578Y-10929143D01*
X47783649Y-10900445D01*
X47783649Y-9504256D01*
X47785739Y-9461903D01*
X47792007Y-9423716D01*
X47802455Y-9389696D01*
X47817082Y-9359841D01*
X47835888Y-9334151D01*
X47858874Y-9312628D01*
X47886038Y-9295270D01*
X47917381Y-9282079D01*
X47952904Y-9273053D01*
X47992606Y-9268193D01*
X48021395Y-9267267D01*
X48762648Y-9267267D01*
X48805136Y-9269350D01*
G37*
G36*
X59380882Y-12239771D02*
G01*
X36328761Y-12239771D01*
X36328761Y-11753000D01*
X36771618Y-11753000D01*
X37583286Y-11753000D01*
X37583286Y-10158436D01*
X37586909Y-10125739D01*
X37597779Y-10096740D01*
X37615894Y-10071437D01*
X37620387Y-10066820D01*
X37644950Y-10047655D01*
X37673210Y-10035588D01*
X37705167Y-10030619D01*
X37712002Y-10030477D01*
X37733960Y-10030477D01*
X37770960Y-10031189D01*
X37809557Y-10033325D01*
X37849751Y-10036885D01*
X37891542Y-10041870D01*
X37934931Y-10048278D01*
X37979916Y-10056111D01*
X38010794Y-10062123D01*
X38042381Y-10068769D01*
X38074678Y-10076048D01*
X38107686Y-10083960D01*
X38141403Y-10092504D01*
X38175829Y-10101682D01*
X38210966Y-10111492D01*
X38210966Y-11753000D01*
X39022634Y-11753000D01*
X39022634Y-10158436D01*
X39026183Y-10125739D01*
X39036830Y-10096740D01*
X39054576Y-10071437D01*
X39058977Y-10066820D01*
X39083614Y-10047655D01*
X39112096Y-10035588D01*
X39144423Y-10030619D01*
X39151350Y-10030477D01*
X39173307Y-10030477D01*
X39210307Y-10031189D01*
X39248904Y-10033325D01*
X39289098Y-10036885D01*
X39330890Y-10041870D01*
X39374278Y-10048278D01*
X39419264Y-10056111D01*
X39450141Y-10062123D01*
X39481729Y-10068769D01*
X39514026Y-10076048D01*
X39547033Y-10083960D01*
X39580750Y-10092504D01*
X39615177Y-10101682D01*
X39650314Y-10111492D01*
X39650314Y-11753000D01*
X40461981Y-11753000D01*
X40461981Y-11074591D01*
X40790586Y-11074591D01*
X40791337Y-11116145D01*
X40793591Y-11156576D01*
X40797347Y-11195883D01*
X40802605Y-11234066D01*
X40809367Y-11271125D01*
X40817630Y-11307060D01*
X40827396Y-11341871D01*
X40838665Y-11375559D01*
X40851436Y-11408122D01*
X40865709Y-11439562D01*
X40881485Y-11469878D01*
X40898764Y-11499069D01*
X40917545Y-11527137D01*
X40937828Y-11554081D01*
X40959614Y-11579901D01*
X40982903Y-11604598D01*
X41007507Y-11627886D01*
X41033241Y-11649672D01*
X41060105Y-11669955D01*
X41088099Y-11688736D01*
X41117223Y-11706015D01*
X41147477Y-11721791D01*
X41178860Y-11736064D01*
X41211373Y-11748835D01*
X41245016Y-11760104D01*
X41279789Y-11769870D01*
X41315692Y-11778133D01*
X41352724Y-11784895D01*
X41390887Y-11790153D01*
X41430179Y-11793909D01*
X41470601Y-11796163D01*
X41512152Y-11796914D01*
X42515380Y-11796914D01*
X42556934Y-11796163D01*
X42597365Y-11793909D01*
X42636672Y-11790153D01*
X42674855Y-11784895D01*
X42711914Y-11778133D01*
X42747849Y-11769870D01*
X42782661Y-11760104D01*
X42816348Y-11748835D01*
X42848912Y-11736064D01*
X42880351Y-11721791D01*
X42910667Y-11706015D01*
X42939859Y-11688736D01*
X42967927Y-11669955D01*
X42994871Y-11649672D01*
X43020691Y-11627886D01*
X43045387Y-11604598D01*
X43068675Y-11579901D01*
X43090461Y-11554081D01*
X43110744Y-11527137D01*
X43129525Y-11499069D01*
X43146804Y-11469878D01*
X43162580Y-11439562D01*
X43176853Y-11408122D01*
X43189624Y-11375559D01*
X43200893Y-11341871D01*
X43210659Y-11307060D01*
X43218923Y-11271125D01*
X43225684Y-11234066D01*
X43230942Y-11195883D01*
X43234699Y-11156576D01*
X43236952Y-11116145D01*
X43237704Y-11074591D01*
X43237704Y-10071363D01*
X43236952Y-10029811D01*
X43234699Y-9989389D01*
X43230942Y-9950097D01*
X43225684Y-9911935D01*
X43218923Y-9874903D01*
X43210659Y-9839000D01*
X43200893Y-9804227D01*
X43189624Y-9770584D01*
X43176853Y-9738071D01*
X43162580Y-9706688D01*
X43146804Y-9676434D01*
X43129525Y-9647310D01*
X43110744Y-9619316D01*
X43090461Y-9592452D01*
X43068675Y-9566718D01*
X43045387Y-9542113D01*
X43020691Y-9518825D01*
X42994871Y-9497039D01*
X42967927Y-9476756D01*
X42939859Y-9457975D01*
X42910667Y-9440696D01*
X42880351Y-9424920D01*
X42848912Y-9410647D01*
X42816348Y-9397876D01*
X42801634Y-9392954D01*
X43482264Y-9392954D01*
X43482264Y-10030477D01*
X44661908Y-10030477D01*
X44697222Y-10032819D01*
X44727828Y-10039847D01*
X44759463Y-10055219D01*
X44783742Y-10077911D01*
X44800663Y-10107924D01*
X44808903Y-10137204D01*
X44812434Y-10171170D01*
X44812581Y-10180393D01*
X44812581Y-11030676D01*
X44809032Y-11063772D01*
X44798385Y-11093023D01*
X44780639Y-11118429D01*
X44776238Y-11123048D01*
X44751276Y-11142214D01*
X44722764Y-11154281D01*
X44690704Y-11159250D01*
X44683866Y-11159392D01*
X44633299Y-11159128D01*
X44579461Y-11158339D01*
X44522352Y-11157023D01*
X44461972Y-11155180D01*
X44430556Y-11154061D01*
X44398321Y-11152811D01*
X44365269Y-11151429D01*
X44331399Y-11149915D01*
X44296711Y-11148270D01*
X44261206Y-11146493D01*
X44224882Y-11144585D01*
X44187741Y-11142545D01*
X44149782Y-11140373D01*
X44111005Y-11138070D01*
X44071411Y-11135635D01*
X44030999Y-11133069D01*
X43989769Y-11130371D01*
X43947721Y-11127541D01*
X43904855Y-11124580D01*
X43861172Y-11121487D01*
X43816670Y-11118262D01*
X43771351Y-11114906D01*
X43725215Y-11111418D01*
X43678260Y-11107799D01*
X43630488Y-11104048D01*
X43581898Y-11100165D01*
X43532490Y-11096151D01*
X43482264Y-11092005D01*
X43482264Y-11706813D01*
X43534442Y-11712357D01*
X43586204Y-11717724D01*
X43637551Y-11722915D01*
X43688482Y-11727931D01*
X43738997Y-11732770D01*
X43789097Y-11737434D01*
X43838782Y-11741921D01*
X43888051Y-11746232D01*
X43936904Y-11750368D01*
X43985342Y-11754327D01*
X44033364Y-11758111D01*
X44080971Y-11761719D01*
X44128162Y-11765150D01*
X44174938Y-11768406D01*
X44221298Y-11771485D01*
X44267242Y-11774389D01*
X44312771Y-11777117D01*
X44357885Y-11779668D01*
X44402583Y-11782044D01*
X44446865Y-11784244D01*
X44490732Y-11786268D01*
X44534183Y-11788115D01*
X44577219Y-11789787D01*
X44619839Y-11791283D01*
X44662043Y-11792603D01*
X44703832Y-11793747D01*
X44745206Y-11794715D01*
X44786164Y-11795507D01*
X44826706Y-11796122D01*
X44866833Y-11796562D01*
X44906545Y-11796826D01*
X44945840Y-11796914D01*
X44983609Y-11796187D01*
X45020444Y-11794004D01*
X45056343Y-11790366D01*
X45091308Y-11785273D01*
X45125339Y-11778725D01*
X45158435Y-11770722D01*
X45190596Y-11761263D01*
X45221823Y-11750349D01*
X45252115Y-11737981D01*
X45281472Y-11724157D01*
X45309895Y-11708878D01*
X45337383Y-11692143D01*
X45363937Y-11673954D01*
X45389556Y-11654309D01*
X45414240Y-11633210D01*
X45437990Y-11610655D01*
X45460545Y-11586905D01*
X45481644Y-11562221D01*
X45501289Y-11536602D01*
X45519478Y-11510048D01*
X45536213Y-11482560D01*
X45551492Y-11454137D01*
X45565316Y-11424780D01*
X45577684Y-11394488D01*
X45588598Y-11363261D01*
X45598057Y-11331100D01*
X45606060Y-11298004D01*
X45612608Y-11263973D01*
X45617701Y-11229008D01*
X45621339Y-11193109D01*
X45623522Y-11156274D01*
X45624249Y-11118505D01*
X45624249Y-11050362D01*
X45875624Y-11050362D01*
X45875624Y-11753000D01*
X46709249Y-11753000D01*
X46709249Y-11050362D01*
X45875624Y-11050362D01*
X45624249Y-11050362D01*
X45624249Y-10900445D01*
X46950781Y-10900445D01*
X46951618Y-10957856D01*
X46954129Y-11013297D01*
X46958314Y-11066768D01*
X46964173Y-11118269D01*
X46971706Y-11167800D01*
X46980913Y-11215362D01*
X46991795Y-11260954D01*
X47004350Y-11304576D01*
X47018579Y-11346228D01*
X47034482Y-11385911D01*
X47052059Y-11423623D01*
X47071310Y-11459366D01*
X47092236Y-11493139D01*
X47114835Y-11524943D01*
X47139108Y-11554776D01*
X47165055Y-11582640D01*
X47192830Y-11608587D01*
X47222587Y-11632861D01*
X47254325Y-11655460D01*
X47288045Y-11676385D01*
X47323747Y-11695636D01*
X47361430Y-11713213D01*
X47401095Y-11729117D01*
X47442741Y-11743346D01*
X47486369Y-11755901D01*
X47531979Y-11766782D01*
X47579570Y-11775989D01*
X47629143Y-11783522D01*
X47680697Y-11789381D01*
X47734233Y-11793566D01*
X47789751Y-11796077D01*
X47847250Y-11796914D01*
X48937550Y-11796914D01*
X48994961Y-11796077D01*
X49050401Y-11793566D01*
X49103872Y-11789381D01*
X49155373Y-11783522D01*
X49204905Y-11775989D01*
X49252467Y-11766782D01*
X49298058Y-11755901D01*
X49341680Y-11743346D01*
X49383333Y-11729117D01*
X49423015Y-11713213D01*
X49460728Y-11695636D01*
X49496471Y-11676385D01*
X49530244Y-11655460D01*
X49562047Y-11632861D01*
X49591881Y-11608587D01*
X49619745Y-11582640D01*
X49645692Y-11554776D01*
X49669965Y-11524943D01*
X49692565Y-11493139D01*
X49713490Y-11459366D01*
X49732741Y-11423623D01*
X49750318Y-11385911D01*
X49766221Y-11346228D01*
X49780450Y-11304576D01*
X49793006Y-11260954D01*
X49803887Y-11215362D01*
X49813094Y-11167800D01*
X49820627Y-11118269D01*
X49826486Y-11066768D01*
X49830671Y-11013297D01*
X49833182Y-10957856D01*
X49834019Y-10900445D01*
X49834019Y-9504256D01*
X49833182Y-9446848D01*
X49830671Y-9391416D01*
X49826486Y-9337960D01*
X49820627Y-9286480D01*
X49813094Y-9236975D01*
X49803887Y-9189446D01*
X49793006Y-9143892D01*
X49780450Y-9100315D01*
X49766221Y-9058713D01*
X49750318Y-9019086D01*
X49732741Y-8981436D01*
X49713490Y-8945761D01*
X49692565Y-8912062D01*
X49669965Y-8880338D01*
X49645692Y-8850590D01*
X49619745Y-8822818D01*
X49591881Y-8796779D01*
X49562047Y-8772420D01*
X49530244Y-8749741D01*
X49496471Y-8728742D01*
X49460728Y-8709423D01*
X49423015Y-8691783D01*
X49383333Y-8675824D01*
X49341680Y-8661545D01*
X49307603Y-8651702D01*
X50079337Y-8651702D01*
X50079337Y-9310424D01*
X50471542Y-9310424D01*
X50471542Y-11094277D01*
X50079337Y-11094277D01*
X50079337Y-11753000D01*
X51697372Y-11753000D01*
X51938904Y-11753000D01*
X52750572Y-11753000D01*
X52750572Y-10158436D01*
X52754121Y-10125739D01*
X52764768Y-10096740D01*
X52782514Y-10071437D01*
X52786915Y-10066820D01*
X52811478Y-10047655D01*
X52839738Y-10035588D01*
X52871695Y-10030619D01*
X52878531Y-10030477D01*
X53031475Y-10030477D01*
X53074458Y-10031189D01*
X53118226Y-10033325D01*
X53162779Y-10036885D01*
X53192917Y-10040050D01*
X53223404Y-10043848D01*
X53254240Y-10048278D01*
X53285426Y-10053342D01*
X53316960Y-10059038D01*
X53348843Y-10065367D01*
X53381075Y-10072329D01*
X53413656Y-10079925D01*
X53446587Y-10088153D01*
X53479866Y-10097014D01*
X53513494Y-10106508D01*
X53530439Y-10111492D01*
X53530439Y-11753000D01*
X54342107Y-11753000D01*
X54342107Y-9480027D01*
X54721441Y-9480027D01*
X54721441Y-11753000D01*
X55533108Y-11753000D01*
X55533108Y-10117549D01*
X55860198Y-10117549D01*
X55860198Y-9480027D01*
X54721441Y-9480027D01*
X54342107Y-9480027D01*
X54342107Y-9392954D01*
X53622055Y-9392954D01*
X53581926Y-9595114D01*
X53548204Y-9573710D01*
X53513764Y-9553225D01*
X53478605Y-9533658D01*
X53442728Y-9515010D01*
X53406132Y-9497279D01*
X53368817Y-9480467D01*
X53330783Y-9464574D01*
X53292031Y-9449599D01*
X53252560Y-9435542D01*
X53212370Y-9422403D01*
X53185177Y-9414154D01*
X53144600Y-9402653D01*
X53105206Y-9392283D01*
X53066997Y-9383044D01*
X53029973Y-9374936D01*
X52994133Y-9367960D01*
X52959478Y-9362115D01*
X52926007Y-9357401D01*
X52893721Y-9353819D01*
X52862619Y-9351368D01*
X52822993Y-9349859D01*
X52813415Y-9349796D01*
X52617313Y-9349796D01*
X52579455Y-9350524D01*
X52542544Y-9352707D01*
X52506579Y-9356345D01*
X52471561Y-9361438D01*
X52437489Y-9367986D01*
X52404364Y-9375989D01*
X52372185Y-9385448D01*
X52340952Y-9396361D01*
X52310666Y-9408730D01*
X52281326Y-9422554D01*
X52252933Y-9437833D01*
X52225486Y-9454567D01*
X52198986Y-9472757D01*
X52173432Y-9492401D01*
X52148825Y-9513501D01*
X52125163Y-9536056D01*
X52102609Y-9559717D01*
X52081509Y-9584325D01*
X52061864Y-9609878D01*
X52043675Y-9636379D01*
X52026941Y-9663826D01*
X52011662Y-9692219D01*
X51997838Y-9721558D01*
X51985469Y-9751845D01*
X51974555Y-9783077D01*
X51965097Y-9815256D01*
X51957093Y-9848382D01*
X51950545Y-9882453D01*
X51945452Y-9917472D01*
X51941814Y-9953437D01*
X51939631Y-9990348D01*
X51938904Y-10028205D01*
X51938904Y-11753000D01*
X51697372Y-11753000D01*
X51697372Y-11094277D01*
X51305167Y-11094277D01*
X51305167Y-9310424D01*
X51697372Y-9310424D01*
X51697372Y-8651702D01*
X50079337Y-8651702D01*
X49307603Y-8651702D01*
X49298058Y-8648945D01*
X49252467Y-8638025D01*
X49204905Y-8628786D01*
X49155373Y-8621226D01*
X49103872Y-8615346D01*
X49050401Y-8611147D01*
X48994961Y-8608627D01*
X48937550Y-8607787D01*
X54721441Y-8607787D01*
X54721441Y-9267267D01*
X55533108Y-9267267D01*
X55533108Y-8651702D01*
X56142616Y-8651702D01*
X56142616Y-10900445D01*
X56143453Y-10957856D01*
X56145964Y-11013297D01*
X56150149Y-11066768D01*
X56156009Y-11118269D01*
X56163542Y-11167800D01*
X56172749Y-11215362D01*
X56183630Y-11260954D01*
X56196185Y-11304576D01*
X56210414Y-11346228D01*
X56226317Y-11385911D01*
X56243894Y-11423623D01*
X56263146Y-11459366D01*
X56284071Y-11493139D01*
X56306670Y-11524943D01*
X56330943Y-11554776D01*
X56356891Y-11582640D01*
X56384666Y-11608587D01*
X56414422Y-11632861D01*
X56446161Y-11655460D01*
X56479881Y-11676385D01*
X56515582Y-11695636D01*
X56553265Y-11713213D01*
X56592930Y-11729117D01*
X56634576Y-11743346D01*
X56678204Y-11755901D01*
X56723814Y-11766782D01*
X56771405Y-11775989D01*
X56820978Y-11783522D01*
X56872532Y-11789381D01*
X56926068Y-11793566D01*
X56981586Y-11796077D01*
X57039085Y-11796914D01*
X58041556Y-11796914D01*
X58099055Y-11796077D01*
X58154573Y-11793566D01*
X58208109Y-11789381D01*
X58259663Y-11783522D01*
X58309236Y-11775989D01*
X58356827Y-11766782D01*
X58402437Y-11755901D01*
X58446065Y-11743346D01*
X58487711Y-11729117D01*
X58527376Y-11713213D01*
X58565059Y-11695636D01*
X58600760Y-11676385D01*
X58634480Y-11655460D01*
X58666219Y-11632861D01*
X58695975Y-11608587D01*
X58723750Y-11582640D01*
X58749698Y-11554776D01*
X58773971Y-11524943D01*
X58796570Y-11493139D01*
X58817495Y-11459366D01*
X58836747Y-11423623D01*
X58854324Y-11385911D01*
X58870227Y-11346228D01*
X58884456Y-11304576D01*
X58897011Y-11260954D01*
X58907892Y-11215362D01*
X58917099Y-11167800D01*
X58924632Y-11118269D01*
X58930492Y-11066768D01*
X58934677Y-11013297D01*
X58937188Y-10957856D01*
X58938025Y-10900445D01*
X58938025Y-8651702D01*
X58105157Y-8651702D01*
X58105157Y-10900445D01*
X58103067Y-10942798D01*
X58096798Y-10980985D01*
X58086350Y-11015005D01*
X58071723Y-11044860D01*
X58052917Y-11070550D01*
X58029932Y-11092073D01*
X58002768Y-11109431D01*
X57971424Y-11122622D01*
X57935902Y-11131648D01*
X57896200Y-11136509D01*
X57867411Y-11137434D01*
X57213230Y-11137434D01*
X57170743Y-11135351D01*
X57132434Y-11129103D01*
X57098304Y-11118688D01*
X57068354Y-11104108D01*
X57042583Y-11085362D01*
X57020991Y-11062450D01*
X57003578Y-11035372D01*
X56990344Y-11004128D01*
X56981289Y-10968719D01*
X56976413Y-10929143D01*
X56975484Y-10900445D01*
X56975484Y-8651702D01*
X56142616Y-8651702D01*
X55533108Y-8651702D01*
X55533108Y-8607787D01*
X54721441Y-8607787D01*
X48937550Y-8607787D01*
X47847250Y-8607787D01*
X47789751Y-8608627D01*
X47734233Y-8611147D01*
X47680697Y-8615346D01*
X47629143Y-8621226D01*
X47579570Y-8628786D01*
X47531979Y-8638025D01*
X47486369Y-8648945D01*
X47442741Y-8661545D01*
X47401095Y-8675824D01*
X47361430Y-8691783D01*
X47323747Y-8709423D01*
X47288045Y-8728742D01*
X47254325Y-8749741D01*
X47222587Y-8772420D01*
X47192830Y-8796779D01*
X47165055Y-8822818D01*
X47139108Y-8850590D01*
X47114835Y-8880338D01*
X47092236Y-8912062D01*
X47071310Y-8945761D01*
X47052059Y-8981436D01*
X47034482Y-9019086D01*
X47018579Y-9058713D01*
X47004350Y-9100315D01*
X46991795Y-9143892D01*
X46980913Y-9189446D01*
X46971706Y-9236975D01*
X46964173Y-9286480D01*
X46958314Y-9337960D01*
X46954129Y-9391416D01*
X46951618Y-9446848D01*
X46950781Y-9504256D01*
X46950781Y-10900445D01*
X45624249Y-10900445D01*
X45624249Y-10115278D01*
X45623498Y-10073726D01*
X45621244Y-10033304D01*
X45617488Y-9994012D01*
X45612230Y-9955850D01*
X45605468Y-9918817D01*
X45597205Y-9882915D01*
X45587439Y-9848142D01*
X45576170Y-9814499D01*
X45563399Y-9781986D01*
X45549126Y-9750602D01*
X45533350Y-9720349D01*
X45516071Y-9691225D01*
X45497290Y-9663231D01*
X45477007Y-9636367D01*
X45455221Y-9610633D01*
X45431933Y-9586028D01*
X45407236Y-9562648D01*
X45381416Y-9540776D01*
X45354472Y-9520413D01*
X45326404Y-9501558D01*
X45297213Y-9484212D01*
X45266897Y-9468374D01*
X45235457Y-9454044D01*
X45202894Y-9441223D01*
X45169206Y-9429910D01*
X45134395Y-9420105D01*
X45098460Y-9411809D01*
X45061401Y-9405021D01*
X45023218Y-9399742D01*
X44983911Y-9395971D01*
X44943480Y-9393708D01*
X44901926Y-9392954D01*
X43482264Y-9392954D01*
X42801634Y-9392954D01*
X42782661Y-9386607D01*
X42747849Y-9376841D01*
X42711914Y-9368577D01*
X42674855Y-9361816D01*
X42636672Y-9356558D01*
X42597365Y-9352801D01*
X42556934Y-9350548D01*
X42515380Y-9349796D01*
X41512152Y-9349796D01*
X41470601Y-9350548D01*
X41430179Y-9352801D01*
X41390887Y-9356558D01*
X41352724Y-9361816D01*
X41315692Y-9368577D01*
X41279789Y-9376841D01*
X41245016Y-9386607D01*
X41211373Y-9397876D01*
X41178860Y-9410647D01*
X41147477Y-9424920D01*
X41117223Y-9440696D01*
X41088099Y-9457975D01*
X41060105Y-9476756D01*
X41033241Y-9497039D01*
X41007507Y-9518825D01*
X40982903Y-9542113D01*
X40959614Y-9566718D01*
X40937828Y-9592452D01*
X40917545Y-9619316D01*
X40898764Y-9647310D01*
X40881485Y-9676434D01*
X40865709Y-9706688D01*
X40851436Y-9738071D01*
X40838665Y-9770584D01*
X40827396Y-9804227D01*
X40817630Y-9839000D01*
X40809367Y-9874903D01*
X40802605Y-9911935D01*
X40797347Y-9950097D01*
X40793591Y-9989389D01*
X40791337Y-10029811D01*
X40790586Y-10071363D01*
X40790586Y-11009475D01*
X40790586Y-11074591D01*
X40461981Y-11074591D01*
X40461981Y-9392954D01*
X39741929Y-9392954D01*
X39701800Y-9595114D01*
X39668079Y-9573710D01*
X39633638Y-9553225D01*
X39598480Y-9533658D01*
X39562602Y-9515010D01*
X39526006Y-9497279D01*
X39488691Y-9480467D01*
X39450657Y-9464574D01*
X39411905Y-9449599D01*
X39372434Y-9435542D01*
X39332244Y-9422403D01*
X39305052Y-9414154D01*
X39264474Y-9402653D01*
X39225081Y-9392283D01*
X39186872Y-9383044D01*
X39149847Y-9374936D01*
X39114008Y-9367960D01*
X39079352Y-9362115D01*
X39045882Y-9357401D01*
X39013595Y-9353819D01*
X38982494Y-9351368D01*
X38942867Y-9349859D01*
X38933290Y-9349796D01*
X38889375Y-9349796D01*
X38844454Y-9350781D01*
X38800930Y-9353736D01*
X38758802Y-9358660D01*
X38718069Y-9365555D01*
X38678733Y-9374419D01*
X38640792Y-9385252D01*
X38604248Y-9398056D01*
X38569099Y-9412829D01*
X38535347Y-9429573D01*
X38502990Y-9448285D01*
X38472030Y-9468968D01*
X38442465Y-9491621D01*
X38414297Y-9516243D01*
X38387525Y-9542835D01*
X38362148Y-9571397D01*
X38338168Y-9601928D01*
X38303075Y-9579178D01*
X38267078Y-9557493D01*
X38230176Y-9536872D01*
X38192368Y-9517316D01*
X38153656Y-9498825D01*
X38114039Y-9481399D01*
X38073516Y-9465037D01*
X38032089Y-9449741D01*
X37989756Y-9435508D01*
X37946519Y-9422341D01*
X37917191Y-9414154D01*
X37887765Y-9406361D01*
X37844370Y-9395614D01*
X37801867Y-9385998D01*
X37760255Y-9377513D01*
X37719535Y-9370160D01*
X37679707Y-9363938D01*
X37640771Y-9358847D01*
X37602726Y-9354887D01*
X37565573Y-9352059D01*
X37529312Y-9350362D01*
X37493942Y-9349796D01*
X37450027Y-9349796D01*
X37412259Y-9350524D01*
X37375424Y-9352707D01*
X37339525Y-9356345D01*
X37304559Y-9361438D01*
X37270529Y-9367986D01*
X37237433Y-9375989D01*
X37205272Y-9385448D01*
X37174045Y-9396361D01*
X37143753Y-9408730D01*
X37114396Y-9422554D01*
X37085973Y-9437833D01*
X37058485Y-9454567D01*
X37031931Y-9472757D01*
X37006312Y-9492401D01*
X36981628Y-9513501D01*
X36957878Y-9536056D01*
X36935323Y-9559717D01*
X36914223Y-9584325D01*
X36894579Y-9609878D01*
X36876390Y-9636379D01*
X36859655Y-9663826D01*
X36844376Y-9692219D01*
X36830552Y-9721558D01*
X36818183Y-9751845D01*
X36807270Y-9783077D01*
X36797811Y-9815256D01*
X36789808Y-9848382D01*
X36783260Y-9882453D01*
X36778167Y-9917472D01*
X36774529Y-9953437D01*
X36772346Y-9990348D01*
X36771618Y-10028205D01*
X36771618Y-11753000D01*
X36328761Y-11753000D01*
X36328761Y-8164930D01*
X59380882Y-8164930D01*
X59380882Y-12239771D01*
G37*
D10*
G36*
X34528346Y-8441383D02*
G01*
X34072882Y-8441383D01*
X34072882Y-9733036D01*
X34073352Y-9765662D01*
X34074764Y-9797155D01*
X34077117Y-9827514D01*
X34080410Y-9856739D01*
X34084645Y-9884832D01*
X34089821Y-9911790D01*
X34095938Y-9937615D01*
X34102997Y-9962307D01*
X34110996Y-9985866D01*
X34119936Y-10008291D01*
X34129818Y-10029582D01*
X34140641Y-10049740D01*
X34152404Y-10068765D01*
X34165109Y-10086656D01*
X34178755Y-10103414D01*
X34193342Y-10119038D01*
X34208915Y-10133625D01*
X34225628Y-10147271D01*
X34243481Y-10159976D01*
X34262475Y-10171739D01*
X34282609Y-10182562D01*
X34303883Y-10192444D01*
X34326298Y-10201384D01*
X34349853Y-10209383D01*
X34374548Y-10216442D01*
X34400384Y-10222559D01*
X34427360Y-10227735D01*
X34455476Y-10231970D01*
X34484732Y-10235264D01*
X34515129Y-10237616D01*
X34546666Y-10239028D01*
X34579344Y-10239498D01*
X35161423Y-10239498D01*
X35194102Y-10239028D01*
X35225644Y-10237616D01*
X35256050Y-10235264D01*
X35285318Y-10231970D01*
X35313450Y-10227735D01*
X35340445Y-10222559D01*
X35366303Y-10216442D01*
X35391024Y-10209383D01*
X35414608Y-10201384D01*
X35437055Y-10192444D01*
X35458365Y-10182562D01*
X35478539Y-10171739D01*
X35497575Y-10159976D01*
X35515475Y-10147271D01*
X35532238Y-10133625D01*
X35547864Y-10119038D01*
X35562398Y-10103414D01*
X35575994Y-10086656D01*
X35588652Y-10068765D01*
X35600373Y-10049740D01*
X35611156Y-10029582D01*
X35621002Y-10008291D01*
X35629910Y-9985866D01*
X35637880Y-9962307D01*
X35644912Y-9937615D01*
X35651007Y-9911790D01*
X35656164Y-9884832D01*
X35660384Y-9856739D01*
X35663666Y-9827514D01*
X35666010Y-9797155D01*
X35667416Y-9765662D01*
X35667885Y-9733036D01*
X35667885Y-8441383D01*
X35212421Y-8441383D01*
X35212421Y-9733036D01*
X35211827Y-9751403D01*
X35208707Y-9776732D01*
X35202914Y-9799394D01*
X35194447Y-9819390D01*
X35183305Y-9836720D01*
X35169490Y-9851384D01*
X35153001Y-9863382D01*
X35133838Y-9872714D01*
X35112002Y-9879379D01*
X35087491Y-9883378D01*
X35069665Y-9884563D01*
X35060307Y-9884711D01*
X34680460Y-9884711D01*
X34662040Y-9884119D01*
X34636638Y-9881008D01*
X34613910Y-9875232D01*
X34593856Y-9866789D01*
X34576476Y-9855680D01*
X34561769Y-9841905D01*
X34549737Y-9825463D01*
X34540378Y-9806356D01*
X34533693Y-9784582D01*
X34529683Y-9760142D01*
X34528494Y-9742368D01*
X34528346Y-9733036D01*
X34528346Y-8441383D01*
G37*
G36*
X32943893Y-10214000D02*
G01*
X33855261Y-10214000D01*
X33855261Y-9859652D01*
X33627529Y-9859652D01*
X33627529Y-8795730D01*
X33855261Y-8795730D01*
X33855261Y-8441383D01*
X32943893Y-8441383D01*
X32943893Y-8795730D01*
X33171625Y-8795730D01*
X33171625Y-9859652D01*
X32943893Y-9859652D01*
X32943893Y-10214000D01*
G37*
G36*
X31177871Y-10214000D02*
G01*
X31658834Y-10214000D01*
X32266852Y-9150517D01*
X32266852Y-10214000D01*
X32722316Y-10214000D01*
X32722316Y-8441383D01*
X32241353Y-8441383D01*
X31633775Y-9504865D01*
X31633775Y-8441383D01*
X31177871Y-8441383D01*
X31177871Y-10214000D01*
G37*
G36*
X30047564Y-10214000D02*
G01*
X30958932Y-10214000D01*
X30958932Y-9859652D01*
X30731200Y-9859652D01*
X30731200Y-8795730D01*
X30958932Y-8795730D01*
X30958932Y-8441383D01*
X30047564Y-8441383D01*
X30047564Y-8795730D01*
X30275296Y-8795730D01*
X30275296Y-9859652D01*
X30047564Y-9859652D01*
X30047564Y-10214000D01*
G37*
G36*
X29403149Y-8416354D02*
G01*
X29434641Y-8417766D01*
X29465000Y-8420119D01*
X29494226Y-8423412D01*
X29522318Y-8427647D01*
X29549277Y-8432823D01*
X29575102Y-8438941D01*
X29599794Y-8445999D01*
X29623352Y-8453998D01*
X29645777Y-8462939D01*
X29667068Y-8472820D01*
X29687226Y-8483643D01*
X29706251Y-8495406D01*
X29724142Y-8508111D01*
X29740900Y-8521757D01*
X29756524Y-8536344D01*
X29771111Y-8551969D01*
X29784757Y-8568726D01*
X29797462Y-8586617D01*
X29809226Y-8605642D01*
X29820048Y-8625800D01*
X29829930Y-8647092D01*
X29838870Y-8669516D01*
X29846870Y-8693075D01*
X29853928Y-8717767D01*
X29860045Y-8743592D01*
X29865221Y-8770551D01*
X29869456Y-8798643D01*
X29872750Y-8827868D01*
X29875103Y-8858227D01*
X29876514Y-8889720D01*
X29876985Y-8922346D01*
X29876985Y-9733036D01*
X29876514Y-9765662D01*
X29875103Y-9797155D01*
X29872750Y-9827514D01*
X29869456Y-9856739D01*
X29865221Y-9884832D01*
X29860045Y-9911790D01*
X29853928Y-9937615D01*
X29846870Y-9962307D01*
X29838870Y-9985866D01*
X29829930Y-10008291D01*
X29820048Y-10029582D01*
X29809226Y-10049740D01*
X29797462Y-10068765D01*
X29784757Y-10086656D01*
X29771111Y-10103414D01*
X29756524Y-10119038D01*
X29740900Y-10133625D01*
X29724142Y-10147271D01*
X29706251Y-10159976D01*
X29687226Y-10171739D01*
X29667068Y-10182562D01*
X29645777Y-10192444D01*
X29623352Y-10201384D01*
X29599794Y-10209383D01*
X29575102Y-10216442D01*
X29549277Y-10222559D01*
X29522318Y-10227735D01*
X29494226Y-10231970D01*
X29465000Y-10235264D01*
X29434641Y-10237616D01*
X29403149Y-10239028D01*
X29370523Y-10239498D01*
X28737445Y-10239498D01*
X28704768Y-10239028D01*
X28673231Y-10237616D01*
X28642834Y-10235264D01*
X28613578Y-10231970D01*
X28585461Y-10227735D01*
X28558486Y-10222559D01*
X28532650Y-10216442D01*
X28507955Y-10209383D01*
X28484400Y-10201384D01*
X28461985Y-10192444D01*
X28440711Y-10182562D01*
X28420577Y-10171739D01*
X28401583Y-10159976D01*
X28383730Y-10147271D01*
X28367017Y-10133625D01*
X28351444Y-10119038D01*
X28336857Y-10103414D01*
X28323211Y-10086656D01*
X28310506Y-10068765D01*
X28298743Y-10049740D01*
X28287920Y-10029582D01*
X28278038Y-10008291D01*
X28269098Y-9985866D01*
X28261099Y-9962307D01*
X28254040Y-9937615D01*
X28247923Y-9911790D01*
X28242747Y-9884832D01*
X28238512Y-9856739D01*
X28235218Y-9827514D01*
X28232866Y-9797155D01*
X28231454Y-9765662D01*
X28230983Y-9733036D01*
X28686448Y-9733036D01*
X28686596Y-9742368D01*
X28687784Y-9760142D01*
X28691795Y-9784582D01*
X28698480Y-9806356D01*
X28707839Y-9825463D01*
X28719871Y-9841905D01*
X28734577Y-9855680D01*
X28751958Y-9866789D01*
X28772012Y-9875232D01*
X28794740Y-9881008D01*
X28820142Y-9884119D01*
X28838562Y-9884711D01*
X29268967Y-9884711D01*
X29278325Y-9884563D01*
X29296151Y-9883378D01*
X29320662Y-9879379D01*
X29342499Y-9872714D01*
X29361661Y-9863382D01*
X29378150Y-9851384D01*
X29391965Y-9836720D01*
X29403107Y-9819390D01*
X29411574Y-9799394D01*
X29417367Y-9776732D01*
X29420487Y-9751403D01*
X29421081Y-9733036D01*
X29421081Y-8922346D01*
X29420933Y-8913014D01*
X29419744Y-8895240D01*
X29415733Y-8870800D01*
X29409049Y-8849026D01*
X29399690Y-8829919D01*
X29387658Y-8813477D01*
X29372951Y-8799702D01*
X29355571Y-8788593D01*
X29335517Y-8780150D01*
X29312789Y-8774374D01*
X29287387Y-8771263D01*
X29268967Y-8770671D01*
X28838562Y-8770671D01*
X28829203Y-8770819D01*
X28811377Y-8772004D01*
X28786867Y-8776003D01*
X28765030Y-8782669D01*
X28745867Y-8792000D01*
X28729378Y-8803998D01*
X28715563Y-8818662D01*
X28704422Y-8835992D01*
X28695955Y-8855988D01*
X28690161Y-8878650D01*
X28687042Y-8903979D01*
X28686448Y-8922346D01*
X28686448Y-9733036D01*
X28230983Y-9733036D01*
X28230983Y-8922346D01*
X28231454Y-8889720D01*
X28232866Y-8858227D01*
X28235218Y-8827868D01*
X28238512Y-8798643D01*
X28242747Y-8770551D01*
X28247923Y-8743592D01*
X28254040Y-8717767D01*
X28261099Y-8693075D01*
X28269098Y-8669516D01*
X28278038Y-8647092D01*
X28287920Y-8625800D01*
X28298743Y-8605642D01*
X28310506Y-8586617D01*
X28323211Y-8568726D01*
X28336857Y-8551969D01*
X28351444Y-8536344D01*
X28367017Y-8521757D01*
X28383730Y-8508111D01*
X28401583Y-8495406D01*
X28420577Y-8483643D01*
X28440711Y-8472820D01*
X28461985Y-8462939D01*
X28484400Y-8453998D01*
X28507955Y-8445999D01*
X28532650Y-8438941D01*
X28558486Y-8432823D01*
X28585461Y-8427647D01*
X28613578Y-8423412D01*
X28642834Y-8420119D01*
X28673231Y-8417766D01*
X28704768Y-8416354D01*
X28737445Y-8415884D01*
X29370523Y-8415884D01*
X29403149Y-8416354D01*
G37*
G36*
X28062602Y-9504865D02*
G01*
X28062602Y-9150517D01*
X27024619Y-9150517D01*
X27024619Y-9504865D01*
X28062602Y-9504865D01*
G37*
G36*
X25283656Y-9226575D02*
G01*
X25638443Y-9859652D01*
X25992791Y-9859652D01*
X26347578Y-9226575D01*
X26347578Y-10214000D01*
X26803042Y-10214000D01*
X26803042Y-8441383D01*
X26322079Y-8441383D01*
X25815617Y-9378249D01*
X25309155Y-8441383D01*
X24828192Y-8441383D01*
X24828192Y-10214000D01*
X25283656Y-10214000D01*
X25283656Y-9226575D01*
G37*
G36*
X23169002Y-10188501D02*
G01*
X23204095Y-10191638D01*
X23238813Y-10194676D01*
X23273156Y-10197614D01*
X23307123Y-10200453D01*
X23340716Y-10203192D01*
X23373933Y-10205832D01*
X23406774Y-10208372D01*
X23439241Y-10210812D01*
X23471332Y-10213153D01*
X23503049Y-10215394D01*
X23534389Y-10217535D01*
X23565355Y-10219577D01*
X23595945Y-10221520D01*
X23626161Y-10223362D01*
X23656001Y-10225105D01*
X23685465Y-10226749D01*
X23714555Y-10228293D01*
X23743269Y-10229737D01*
X23771608Y-10231082D01*
X23799572Y-10232327D01*
X23827160Y-10233472D01*
X23854374Y-10234518D01*
X23881212Y-10235464D01*
X23907674Y-10236311D01*
X23933762Y-10237058D01*
X23959474Y-10237706D01*
X23984811Y-10238253D01*
X24009773Y-10238702D01*
X24034360Y-10239050D01*
X24058571Y-10239299D01*
X24082407Y-10239449D01*
X24105868Y-10239498D01*
X24136402Y-10239043D01*
X24165906Y-10237678D01*
X24194380Y-10235403D01*
X24221823Y-10232217D01*
X24248235Y-10228121D01*
X24273617Y-10223115D01*
X24297969Y-10217199D01*
X24321290Y-10210372D01*
X24343581Y-10202636D01*
X24364842Y-10193989D01*
X24385072Y-10184432D01*
X24404272Y-10173965D01*
X24422441Y-10162588D01*
X24439580Y-10150300D01*
X24455689Y-10137103D01*
X24470767Y-10122995D01*
X24484875Y-10107916D01*
X24498073Y-10091808D01*
X24510360Y-10074669D01*
X24521738Y-10056500D01*
X24532205Y-10037300D01*
X24541762Y-10017070D01*
X24550408Y-9995809D01*
X24558145Y-9973518D01*
X24564971Y-9950197D01*
X24570888Y-9925845D01*
X24575894Y-9900463D01*
X24579989Y-9874050D01*
X24583175Y-9846607D01*
X24585451Y-9818134D01*
X24586816Y-9788630D01*
X24587271Y-9758096D01*
X24587271Y-8947845D01*
X24586800Y-8915167D01*
X24585389Y-8883630D01*
X24583036Y-8853233D01*
X24579742Y-8823977D01*
X24575507Y-8795861D01*
X24570331Y-8768885D01*
X24564214Y-8743049D01*
X24557156Y-8718354D01*
X24549156Y-8694799D01*
X24540216Y-8672384D01*
X24530335Y-8651110D01*
X24519512Y-8630976D01*
X24507748Y-8611982D01*
X24495043Y-8594129D01*
X24481397Y-8577416D01*
X24466810Y-8561843D01*
X24451186Y-8547256D01*
X24434428Y-8533610D01*
X24416537Y-8520905D01*
X24397513Y-8509142D01*
X24377355Y-8498319D01*
X24356063Y-8488438D01*
X24333638Y-8479497D01*
X24310080Y-8471498D01*
X24285388Y-8464440D01*
X24259563Y-8458322D01*
X24232604Y-8453146D01*
X24204512Y-8448911D01*
X24175286Y-8445618D01*
X24144927Y-8443265D01*
X24113435Y-8441853D01*
X24080809Y-8441383D01*
X23169002Y-8441383D01*
X23169002Y-8795730D01*
X23979253Y-8795730D01*
X23997673Y-8796324D01*
X24023075Y-8799444D01*
X24045803Y-8805237D01*
X24065857Y-8813705D01*
X24083237Y-8824846D01*
X24097944Y-8838661D01*
X24109976Y-8855150D01*
X24119335Y-8874313D01*
X24126019Y-8896149D01*
X24130030Y-8920660D01*
X24131219Y-8938486D01*
X24131367Y-8947845D01*
X24131367Y-9758096D01*
X24130530Y-9775778D01*
X24127315Y-9795438D01*
X24121689Y-9813398D01*
X24113652Y-9829657D01*
X24103204Y-9844217D01*
X24097076Y-9850859D01*
X24083552Y-9862364D01*
X24066094Y-9872777D01*
X24049690Y-9879124D01*
X24031956Y-9883091D01*
X24012894Y-9884678D01*
X24009588Y-9884711D01*
X23989284Y-9884665D01*
X23968269Y-9884526D01*
X23950213Y-9884339D01*
X23931664Y-9884088D01*
X23912621Y-9883772D01*
X23893084Y-9883392D01*
X23873182Y-9882959D01*
X23853044Y-9882482D01*
X23832670Y-9881963D01*
X23812060Y-9881400D01*
X23791214Y-9880795D01*
X23770132Y-9880147D01*
X23761632Y-9879875D01*
X23740179Y-9879051D01*
X23718682Y-9878227D01*
X23697142Y-9877402D01*
X23675560Y-9876578D01*
X23653934Y-9875754D01*
X23632266Y-9874929D01*
X23623586Y-9874600D01*
X23605582Y-9873865D01*
X23586300Y-9872978D01*
X23565740Y-9871941D01*
X23543902Y-9870753D01*
X23520787Y-9869413D01*
X23502612Y-9868309D01*
X23483718Y-9867121D01*
X23464106Y-9865847D01*
X23443775Y-9864488D01*
X23422609Y-9863063D01*
X23400493Y-9861593D01*
X23377426Y-9860075D01*
X23353409Y-9858512D01*
X23328441Y-9856902D01*
X23302522Y-9855245D01*
X23284715Y-9854115D01*
X23266486Y-9852965D01*
X23247834Y-9851793D01*
X23228760Y-9850602D01*
X23209263Y-9849389D01*
X23189343Y-9848156D01*
X23169002Y-9846903D01*
X23169002Y-10188501D01*
G37*
G36*
X21835143Y-8441383D02*
G01*
X21379678Y-8441383D01*
X21379678Y-9733036D01*
X21380149Y-9765662D01*
X21381561Y-9797155D01*
X21383913Y-9827514D01*
X21387207Y-9856739D01*
X21391442Y-9884832D01*
X21396618Y-9911790D01*
X21402735Y-9937615D01*
X21409794Y-9962307D01*
X21417793Y-9985866D01*
X21426733Y-10008291D01*
X21436615Y-10029582D01*
X21447438Y-10049740D01*
X21459201Y-10068765D01*
X21471906Y-10086656D01*
X21485552Y-10103414D01*
X21500139Y-10119038D01*
X21515712Y-10133625D01*
X21532425Y-10147271D01*
X21550278Y-10159976D01*
X21569272Y-10171739D01*
X21589406Y-10182562D01*
X21610680Y-10192444D01*
X21633095Y-10201384D01*
X21656650Y-10209383D01*
X21681345Y-10216442D01*
X21707181Y-10222559D01*
X21734157Y-10227735D01*
X21762273Y-10231970D01*
X21791529Y-10235264D01*
X21821926Y-10237616D01*
X21853463Y-10239028D01*
X21886140Y-10239498D01*
X22468220Y-10239498D01*
X22500899Y-10239028D01*
X22532441Y-10237616D01*
X22562847Y-10235264D01*
X22592115Y-10231970D01*
X22620247Y-10227735D01*
X22647242Y-10222559D01*
X22673100Y-10216442D01*
X22697821Y-10209383D01*
X22721405Y-10201384D01*
X22743852Y-10192444D01*
X22765162Y-10182562D01*
X22785336Y-10171739D01*
X22804372Y-10159976D01*
X22822272Y-10147271D01*
X22839035Y-10133625D01*
X22854661Y-10119038D01*
X22869195Y-10103414D01*
X22882791Y-10086656D01*
X22895449Y-10068765D01*
X22907170Y-10049740D01*
X22917953Y-10029582D01*
X22927799Y-10008291D01*
X22936707Y-9985866D01*
X22944677Y-9962307D01*
X22951709Y-9937615D01*
X22957804Y-9911790D01*
X22962961Y-9884832D01*
X22967181Y-9856739D01*
X22970462Y-9827514D01*
X22972807Y-9797155D01*
X22974213Y-9765662D01*
X22974682Y-9733036D01*
X22974682Y-8441383D01*
X22519218Y-8441383D01*
X22519218Y-9733036D01*
X22518624Y-9751403D01*
X22515504Y-9776732D01*
X22509711Y-9799394D01*
X22501243Y-9819390D01*
X22490102Y-9836720D01*
X22476287Y-9851384D01*
X22459798Y-9863382D01*
X22440635Y-9872714D01*
X22418799Y-9879379D01*
X22394288Y-9883378D01*
X22376462Y-9884563D01*
X22367103Y-9884711D01*
X21987257Y-9884711D01*
X21968837Y-9884119D01*
X21943435Y-9881008D01*
X21920707Y-9875232D01*
X21900653Y-9866789D01*
X21883273Y-9855680D01*
X21868566Y-9841905D01*
X21856534Y-9825463D01*
X21847175Y-9806356D01*
X21840490Y-9784582D01*
X21836479Y-9760142D01*
X21835291Y-9742368D01*
X21835143Y-9733036D01*
X21835143Y-8441383D01*
G37*
G36*
X21162058Y-9504865D02*
G01*
X21162058Y-9150517D01*
X20124075Y-9150517D01*
X20124075Y-9504865D01*
X21162058Y-9504865D01*
G37*
G36*
X18383112Y-10176191D02*
G01*
X18420057Y-10180086D01*
X18456815Y-10183857D01*
X18493384Y-10187504D01*
X18529765Y-10191028D01*
X18565958Y-10194429D01*
X18601964Y-10197705D01*
X18637781Y-10200858D01*
X18673410Y-10203888D01*
X18708851Y-10206794D01*
X18744104Y-10209576D01*
X18779169Y-10212234D01*
X18814046Y-10214769D01*
X18848734Y-10217180D01*
X18883235Y-10219467D01*
X18917548Y-10221631D01*
X18951673Y-10223672D01*
X18985609Y-10225588D01*
X19019358Y-10227381D01*
X19052918Y-10229050D01*
X19086291Y-10230596D01*
X19119475Y-10232018D01*
X19152472Y-10233316D01*
X19185280Y-10234491D01*
X19217900Y-10235542D01*
X19250333Y-10236469D01*
X19282577Y-10237273D01*
X19314633Y-10237953D01*
X19346501Y-10238509D01*
X19378181Y-10238942D01*
X19409673Y-10239251D01*
X19440977Y-10239437D01*
X19472093Y-10239498D01*
X19502627Y-10239043D01*
X19532131Y-10237678D01*
X19560604Y-10235403D01*
X19588047Y-10232217D01*
X19614460Y-10228121D01*
X19639842Y-10223115D01*
X19664194Y-10217199D01*
X19687515Y-10210372D01*
X19709806Y-10202636D01*
X19731067Y-10193989D01*
X19751297Y-10184432D01*
X19770497Y-10173965D01*
X19788666Y-10162588D01*
X19805805Y-10150300D01*
X19821914Y-10137103D01*
X19836992Y-10122995D01*
X19851100Y-10107916D01*
X19864297Y-10091808D01*
X19876585Y-10074669D01*
X19887962Y-10056500D01*
X19898429Y-10037300D01*
X19907986Y-10017070D01*
X19916633Y-9995809D01*
X19924370Y-9973518D01*
X19931196Y-9950197D01*
X19937112Y-9925845D01*
X19942118Y-9900463D01*
X19946214Y-9874050D01*
X19949400Y-9846607D01*
X19951675Y-9818134D01*
X19953041Y-9788630D01*
X19953496Y-9758096D01*
X19953496Y-8947845D01*
X19953025Y-8915167D01*
X19951613Y-8883630D01*
X19949261Y-8853233D01*
X19945967Y-8823977D01*
X19941732Y-8795861D01*
X19936556Y-8768885D01*
X19930439Y-8743049D01*
X19923381Y-8718354D01*
X19915381Y-8694799D01*
X19906441Y-8672384D01*
X19896559Y-8651110D01*
X19885737Y-8630976D01*
X19873973Y-8611982D01*
X19861268Y-8594129D01*
X19847622Y-8577416D01*
X19833035Y-8561843D01*
X19817411Y-8547256D01*
X19800653Y-8533610D01*
X19782762Y-8520905D01*
X19763737Y-8509142D01*
X19743579Y-8498319D01*
X19722288Y-8488438D01*
X19699863Y-8479497D01*
X19676304Y-8471498D01*
X19651613Y-8464440D01*
X19625787Y-8458322D01*
X19598829Y-8453146D01*
X19570737Y-8448911D01*
X19541511Y-8445618D01*
X19511152Y-8443265D01*
X19479660Y-8441853D01*
X19447034Y-8441383D01*
X18535226Y-8441383D01*
X18535226Y-8795730D01*
X19345478Y-8795730D01*
X19363898Y-8796324D01*
X19389300Y-8799444D01*
X19412028Y-8805237D01*
X19432082Y-8813705D01*
X19449462Y-8824846D01*
X19464168Y-8838661D01*
X19476201Y-8855150D01*
X19485559Y-8874313D01*
X19492244Y-8896149D01*
X19496255Y-8920660D01*
X19497443Y-8938486D01*
X19497592Y-8947845D01*
X19497592Y-9758096D01*
X19496755Y-9775778D01*
X19493540Y-9795438D01*
X19487914Y-9813398D01*
X19479877Y-9829657D01*
X19469429Y-9844217D01*
X19463300Y-9850859D01*
X19449606Y-9862364D01*
X19434243Y-9871488D01*
X19417210Y-9878232D01*
X19398509Y-9882596D01*
X19378138Y-9884579D01*
X19370976Y-9884711D01*
X19352809Y-9884699D01*
X19334741Y-9884661D01*
X19316772Y-9884599D01*
X19298903Y-9884512D01*
X19281134Y-9884400D01*
X19263465Y-9884263D01*
X19228424Y-9883914D01*
X19193782Y-9883466D01*
X19159538Y-9882918D01*
X19125693Y-9882271D01*
X19092247Y-9881524D01*
X19059198Y-9880677D01*
X19026548Y-9879731D01*
X18994297Y-9878685D01*
X18962444Y-9877540D01*
X18930989Y-9876295D01*
X18899933Y-9874950D01*
X18869275Y-9873506D01*
X18839016Y-9871962D01*
X18839016Y-9504865D01*
X19168304Y-9504865D01*
X19168304Y-9201076D01*
X18383112Y-9201076D01*
X18383112Y-10176191D01*
G37*
G36*
X18138674Y-10214000D02*
G01*
X17151249Y-10214000D01*
X17116012Y-10213421D01*
X17081855Y-10211685D01*
X17048775Y-10208791D01*
X17016775Y-10204740D01*
X16985852Y-10199531D01*
X16956009Y-10193165D01*
X16927243Y-10185641D01*
X16899556Y-10176960D01*
X16872948Y-10167121D01*
X16847418Y-10156125D01*
X16822967Y-10143972D01*
X16799594Y-10130661D01*
X16777299Y-10116192D01*
X16756084Y-10100566D01*
X16735946Y-10083783D01*
X16716887Y-10065842D01*
X16707772Y-10056447D01*
X16690410Y-10036849D01*
X16674205Y-10016172D01*
X16659158Y-9994417D01*
X16645268Y-9971583D01*
X16632536Y-9947671D01*
X16620961Y-9922681D01*
X16610543Y-9896612D01*
X16601284Y-9869464D01*
X16593181Y-9841238D01*
X16586236Y-9811933D01*
X16580449Y-9781550D01*
X16575819Y-9750089D01*
X16572347Y-9717549D01*
X16570032Y-9683930D01*
X16568874Y-9649233D01*
X16568729Y-9631480D01*
X17024633Y-9631480D01*
X17025523Y-9659110D01*
X17028191Y-9684958D01*
X17032639Y-9709023D01*
X17038866Y-9731305D01*
X17046873Y-9751805D01*
X17056658Y-9770522D01*
X17068222Y-9787457D01*
X17081566Y-9802609D01*
X17096689Y-9815978D01*
X17113591Y-9827565D01*
X17132272Y-9837370D01*
X17152732Y-9845391D01*
X17174972Y-9851630D01*
X17198990Y-9856087D01*
X17224788Y-9858761D01*
X17252365Y-9859652D01*
X17683210Y-9859652D01*
X17683210Y-8795730D01*
X17252365Y-8795730D01*
X17224788Y-8796621D01*
X17198990Y-8799295D01*
X17174972Y-8803752D01*
X17152732Y-8809991D01*
X17132272Y-8818013D01*
X17113591Y-8827817D01*
X17096689Y-8839404D01*
X17081566Y-8852773D01*
X17068222Y-8867925D01*
X17056658Y-8884860D01*
X17046873Y-8903577D01*
X17038866Y-8924077D01*
X17032639Y-8946359D01*
X17028191Y-8970424D01*
X17025523Y-8996272D01*
X17024633Y-9023902D01*
X17024633Y-9631480D01*
X16568729Y-9631480D01*
X16568729Y-9023902D01*
X16569308Y-8988666D01*
X16571044Y-8954508D01*
X16573938Y-8921429D01*
X16577989Y-8889428D01*
X16583198Y-8858506D01*
X16589564Y-8828662D01*
X16597088Y-8799896D01*
X16605769Y-8772210D01*
X16615607Y-8745601D01*
X16626604Y-8720071D01*
X16638757Y-8695620D01*
X16652068Y-8672247D01*
X16666537Y-8649953D01*
X16682163Y-8628737D01*
X16698946Y-8608599D01*
X16716887Y-8589540D01*
X16726282Y-8580425D01*
X16745880Y-8563063D01*
X16766557Y-8546858D01*
X16788312Y-8531811D01*
X16811146Y-8517921D01*
X16835058Y-8505189D01*
X16860048Y-8493614D01*
X16886117Y-8483197D01*
X16913265Y-8473937D01*
X16941491Y-8465834D01*
X16970796Y-8458890D01*
X17001179Y-8453102D01*
X17032640Y-8448472D01*
X17065180Y-8445000D01*
X17098799Y-8442685D01*
X17133496Y-8441527D01*
X17151249Y-8441383D01*
X18138674Y-8441383D01*
X18138674Y-10214000D01*
G37*
G36*
X15490300Y-10239498D02*
G01*
X15516822Y-10239449D01*
X15543521Y-10239299D01*
X15570399Y-10239050D01*
X15597454Y-10238702D01*
X15624687Y-10238253D01*
X15652098Y-10237706D01*
X15679687Y-10237058D01*
X15707453Y-10236311D01*
X15735397Y-10235464D01*
X15763519Y-10234518D01*
X15791818Y-10233472D01*
X15820295Y-10232327D01*
X15848950Y-10231082D01*
X15877783Y-10229737D01*
X15906793Y-10228293D01*
X15935982Y-10226749D01*
X15965348Y-10225105D01*
X15994891Y-10223362D01*
X16024613Y-10221520D01*
X16054512Y-10219577D01*
X16084589Y-10217535D01*
X16114844Y-10215394D01*
X16145276Y-10213153D01*
X16175886Y-10210812D01*
X16206674Y-10208372D01*
X16237640Y-10205832D01*
X16268783Y-10203192D01*
X16300104Y-10200453D01*
X16331603Y-10197614D01*
X16363280Y-10194676D01*
X16395134Y-10191638D01*
X16427166Y-10188501D01*
X16427166Y-9846903D01*
X16392465Y-9849229D01*
X16358317Y-9851481D01*
X16324723Y-9853659D01*
X16291682Y-9855764D01*
X16259196Y-9857795D01*
X16227264Y-9859752D01*
X16195885Y-9861635D01*
X16165060Y-9863444D01*
X16134789Y-9865179D01*
X16105072Y-9866841D01*
X16075909Y-9868428D01*
X16047299Y-9869942D01*
X16019244Y-9871382D01*
X15991742Y-9872748D01*
X15964794Y-9874041D01*
X15938400Y-9875259D01*
X15912559Y-9876404D01*
X15887273Y-9877474D01*
X15862540Y-9878471D01*
X15838362Y-9879394D01*
X15814737Y-9880244D01*
X15791666Y-9881019D01*
X15769148Y-9881721D01*
X15747185Y-9882348D01*
X15725775Y-9882902D01*
X15704920Y-9883382D01*
X15684618Y-9883788D01*
X15664870Y-9884121D01*
X15645676Y-9884379D01*
X15627035Y-9884564D01*
X15608949Y-9884674D01*
X15591416Y-9884711D01*
X15570489Y-9883521D01*
X15551231Y-9879951D01*
X15533642Y-9874000D01*
X15517722Y-9865670D01*
X15503472Y-9854959D01*
X15499092Y-9850859D01*
X15487438Y-9837150D01*
X15478196Y-9821740D01*
X15471364Y-9804630D01*
X15466944Y-9785820D01*
X15464935Y-9765310D01*
X15464801Y-9758096D01*
X15464801Y-9656979D01*
X15465395Y-9638559D01*
X15468514Y-9613157D01*
X15474308Y-9590429D01*
X15482775Y-9570375D01*
X15493916Y-9552995D01*
X15507731Y-9538288D01*
X15524220Y-9526256D01*
X15543383Y-9516897D01*
X15565220Y-9510213D01*
X15589731Y-9506202D01*
X15607556Y-9505013D01*
X15616915Y-9504865D01*
X16148436Y-9504865D01*
X16148436Y-9150517D01*
X15667473Y-9150517D01*
X15649053Y-9149923D01*
X15623651Y-9146804D01*
X15600923Y-9141010D01*
X15580869Y-9132543D01*
X15563489Y-9121402D01*
X15548782Y-9107587D01*
X15536750Y-9091098D01*
X15527391Y-9071935D01*
X15520707Y-9050098D01*
X15516696Y-9025587D01*
X15515507Y-9007761D01*
X15515359Y-8998403D01*
X15515359Y-8947845D01*
X15515953Y-8929424D01*
X15519073Y-8904023D01*
X15524866Y-8881295D01*
X15533333Y-8861240D01*
X15544475Y-8843860D01*
X15558290Y-8829154D01*
X15574779Y-8817121D01*
X15593941Y-8807763D01*
X15615778Y-8801078D01*
X15640289Y-8797067D01*
X15658115Y-8795879D01*
X15667473Y-8795730D01*
X16401667Y-8795730D01*
X16401667Y-8441383D01*
X15540858Y-8441383D01*
X15510324Y-8441824D01*
X15480820Y-8443148D01*
X15452347Y-8445355D01*
X15424904Y-8448444D01*
X15398491Y-8452416D01*
X15373109Y-8457271D01*
X15348757Y-8463009D01*
X15325436Y-8469629D01*
X15303145Y-8477132D01*
X15281884Y-8485518D01*
X15261654Y-8494787D01*
X15242454Y-8504938D01*
X15224285Y-8515972D01*
X15207146Y-8527888D01*
X15191037Y-8540687D01*
X15175959Y-8554369D01*
X15161851Y-8568898D01*
X15148653Y-8584347D01*
X15136366Y-8600717D01*
X15124989Y-8618007D01*
X15114521Y-8636217D01*
X15104964Y-8655349D01*
X15096318Y-8675400D01*
X15088581Y-8696372D01*
X15081755Y-8718265D01*
X15075839Y-8741078D01*
X15070833Y-8764811D01*
X15066737Y-8789465D01*
X15063551Y-8815040D01*
X15061276Y-8841535D01*
X15059910Y-8868950D01*
X15059455Y-8897286D01*
X15059728Y-8916024D01*
X15060547Y-8934319D01*
X15061913Y-8952171D01*
X15064985Y-8978117D01*
X15069285Y-9003067D01*
X15074815Y-9027020D01*
X15081573Y-9049976D01*
X15089560Y-9071935D01*
X15098775Y-9092897D01*
X15109220Y-9112863D01*
X15120893Y-9131831D01*
X15129357Y-9143923D01*
X15142772Y-9161230D01*
X15156967Y-9177540D01*
X15171943Y-9192853D01*
X15187699Y-9207169D01*
X15204235Y-9220488D01*
X15221552Y-9232810D01*
X15239650Y-9244136D01*
X15258528Y-9254464D01*
X15278187Y-9263796D01*
X15298626Y-9272130D01*
X15312686Y-9277133D01*
X15287591Y-9284744D01*
X15263522Y-9293619D01*
X15240481Y-9303758D01*
X15218466Y-9315161D01*
X15197479Y-9327828D01*
X15177518Y-9341759D01*
X15158585Y-9356954D01*
X15140678Y-9373413D01*
X15123798Y-9391136D01*
X15107946Y-9410123D01*
X15093120Y-9430374D01*
X15079321Y-9451889D01*
X15066549Y-9474667D01*
X15054805Y-9498710D01*
X15044087Y-9524017D01*
X15034396Y-9550587D01*
X15028420Y-9570556D01*
X15023240Y-9591336D01*
X15018857Y-9612926D01*
X15015272Y-9635327D01*
X15012483Y-9658539D01*
X15010914Y-9676479D01*
X15009793Y-9694876D01*
X15009121Y-9713728D01*
X15008897Y-9733036D01*
X15008897Y-9758096D01*
X15009352Y-9788630D01*
X15010717Y-9818134D01*
X15012993Y-9846607D01*
X15016178Y-9874050D01*
X15020274Y-9900463D01*
X15025280Y-9925845D01*
X15031196Y-9950197D01*
X15038023Y-9973518D01*
X15045759Y-9995809D01*
X15054406Y-10017070D01*
X15063963Y-10037300D01*
X15074430Y-10056500D01*
X15085808Y-10074669D01*
X15098095Y-10091808D01*
X15111293Y-10107916D01*
X15125401Y-10122995D01*
X15140479Y-10137103D01*
X15156588Y-10150300D01*
X15173726Y-10162588D01*
X15191896Y-10173965D01*
X15211096Y-10184432D01*
X15231326Y-10193989D01*
X15252586Y-10202636D01*
X15274877Y-10210372D01*
X15298199Y-10217199D01*
X15322551Y-10223115D01*
X15347933Y-10228121D01*
X15374345Y-10232217D01*
X15401788Y-10235403D01*
X15430262Y-10237678D01*
X15459765Y-10239043D01*
X15490300Y-10239498D01*
G37*
G36*
X13522484Y-8998403D02*
G01*
X13523196Y-9025102D01*
X13525335Y-9051345D01*
X13528898Y-9077131D01*
X13533887Y-9102459D01*
X13540301Y-9127332D01*
X13548141Y-9151747D01*
X13557406Y-9175705D01*
X13568096Y-9199207D01*
X13580212Y-9222252D01*
X13593753Y-9244840D01*
X13608720Y-9266971D01*
X13625112Y-9288646D01*
X13642929Y-9309863D01*
X13662172Y-9330624D01*
X13682840Y-9350928D01*
X13704933Y-9370775D01*
X13719050Y-9382762D01*
X13733482Y-9394763D01*
X13748231Y-9406778D01*
X13763295Y-9418806D01*
X13778675Y-9430848D01*
X13794372Y-9442903D01*
X13810384Y-9454973D01*
X13826713Y-9467056D01*
X14370983Y-9859652D01*
X13522484Y-9859652D01*
X13522484Y-10214000D01*
X14890195Y-10214000D01*
X14890195Y-9733036D01*
X13978387Y-9074460D01*
X13978387Y-8947845D01*
X13978982Y-8929424D01*
X13982101Y-8904023D01*
X13987895Y-8881295D01*
X13996362Y-8861240D01*
X14007503Y-8843860D01*
X14021318Y-8829154D01*
X14037807Y-8817121D01*
X14056970Y-8807763D01*
X14078807Y-8801078D01*
X14103317Y-8797067D01*
X14121143Y-8795879D01*
X14130502Y-8795730D01*
X14839637Y-8795730D01*
X14839637Y-8441383D01*
X14028946Y-8441383D01*
X13996320Y-8441853D01*
X13964827Y-8443265D01*
X13934468Y-8445618D01*
X13905243Y-8448911D01*
X13877151Y-8453146D01*
X13850192Y-8458322D01*
X13824367Y-8464440D01*
X13799675Y-8471498D01*
X13776117Y-8479497D01*
X13753692Y-8488438D01*
X13732400Y-8498319D01*
X13712242Y-8509142D01*
X13693218Y-8520905D01*
X13675326Y-8533610D01*
X13658569Y-8547256D01*
X13642944Y-8561843D01*
X13628357Y-8577416D01*
X13614711Y-8594129D01*
X13602007Y-8611982D01*
X13590243Y-8630976D01*
X13579420Y-8651110D01*
X13569539Y-8672384D01*
X13560598Y-8694799D01*
X13552599Y-8718354D01*
X13545541Y-8743049D01*
X13539424Y-8768885D01*
X13534248Y-8795861D01*
X13530013Y-8823977D01*
X13526719Y-8853233D01*
X13524366Y-8883630D01*
X13522954Y-8915167D01*
X13522484Y-8947845D01*
X13522484Y-8998403D01*
G37*
G36*
X12847201Y-10214000D02*
G01*
X13302665Y-10214000D01*
X13302665Y-8441383D01*
X11897585Y-8441383D01*
X11897585Y-8795730D01*
X12847201Y-8795730D01*
X12847201Y-9213825D01*
X12099818Y-9213825D01*
X12099818Y-9568173D01*
X12847201Y-9568173D01*
X12847201Y-10214000D01*
G37*
G36*
X11463224Y-10214000D02*
G01*
X11463224Y-8833979D01*
X11754263Y-8935095D01*
X11880879Y-8644055D01*
X11412226Y-8441383D01*
X11007320Y-8441383D01*
X11007320Y-10214000D01*
X11463224Y-10214000D01*
G37*
G36*
X10285968Y-8416354D02*
G01*
X10317460Y-8417766D01*
X10347819Y-8420119D01*
X10377045Y-8423412D01*
X10405137Y-8427647D01*
X10432096Y-8432823D01*
X10457921Y-8438941D01*
X10482613Y-8445999D01*
X10506171Y-8453998D01*
X10528596Y-8462939D01*
X10549888Y-8472820D01*
X10570046Y-8483643D01*
X10589070Y-8495406D01*
X10606962Y-8508111D01*
X10623719Y-8521757D01*
X10639344Y-8536344D01*
X10653931Y-8551969D01*
X10667576Y-8568726D01*
X10680281Y-8586617D01*
X10692045Y-8605642D01*
X10702868Y-8625800D01*
X10712749Y-8647092D01*
X10721690Y-8669516D01*
X10729689Y-8693075D01*
X10736747Y-8717767D01*
X10742864Y-8743592D01*
X10748040Y-8770551D01*
X10752275Y-8798643D01*
X10755569Y-8827868D01*
X10757922Y-8858227D01*
X10759334Y-8889720D01*
X10759804Y-8922346D01*
X10759804Y-9733036D01*
X10759334Y-9765662D01*
X10757922Y-9797155D01*
X10755569Y-9827514D01*
X10752275Y-9856739D01*
X10748040Y-9884832D01*
X10742864Y-9911790D01*
X10736747Y-9937615D01*
X10729689Y-9962307D01*
X10721690Y-9985866D01*
X10712749Y-10008291D01*
X10702868Y-10029582D01*
X10692045Y-10049740D01*
X10680281Y-10068765D01*
X10667576Y-10086656D01*
X10653931Y-10103414D01*
X10639344Y-10119038D01*
X10623719Y-10133625D01*
X10606962Y-10147271D01*
X10589070Y-10159976D01*
X10570046Y-10171739D01*
X10549888Y-10182562D01*
X10528596Y-10192444D01*
X10506171Y-10201384D01*
X10482613Y-10209383D01*
X10457921Y-10216442D01*
X10432096Y-10222559D01*
X10405137Y-10227735D01*
X10377045Y-10231970D01*
X10347819Y-10235264D01*
X10317460Y-10237616D01*
X10285968Y-10239028D01*
X10253342Y-10239498D01*
X9771939Y-10239498D01*
X9739262Y-10239028D01*
X9707725Y-10237616D01*
X9677328Y-10235264D01*
X9648072Y-10231970D01*
X9619956Y-10227735D01*
X9592980Y-10222559D01*
X9567144Y-10216442D01*
X9542449Y-10209383D01*
X9518894Y-10201384D01*
X9496479Y-10192444D01*
X9475205Y-10182562D01*
X9455071Y-10171739D01*
X9436077Y-10159976D01*
X9418224Y-10147271D01*
X9401511Y-10133625D01*
X9385938Y-10119038D01*
X9371351Y-10103414D01*
X9357705Y-10086656D01*
X9345000Y-10068765D01*
X9333237Y-10049740D01*
X9322414Y-10029582D01*
X9312532Y-10008291D01*
X9303592Y-9985866D01*
X9295593Y-9962307D01*
X9288534Y-9937615D01*
X9282417Y-9911790D01*
X9277241Y-9884832D01*
X9273006Y-9856739D01*
X9269712Y-9827514D01*
X9267360Y-9797155D01*
X9265948Y-9765662D01*
X9265478Y-9733036D01*
X9721381Y-9733036D01*
X9721530Y-9742368D01*
X9722718Y-9760142D01*
X9726729Y-9784582D01*
X9733414Y-9806356D01*
X9742772Y-9825463D01*
X9754805Y-9841905D01*
X9769511Y-9855680D01*
X9786891Y-9866789D01*
X9806946Y-9875232D01*
X9829674Y-9881008D01*
X9855076Y-9884119D01*
X9873496Y-9884711D01*
X10151786Y-9884711D01*
X10161145Y-9884563D01*
X10178970Y-9883378D01*
X10203481Y-9879379D01*
X10225318Y-9872714D01*
X10244481Y-9863382D01*
X10260970Y-9851384D01*
X10274785Y-9836720D01*
X10285926Y-9819390D01*
X10294393Y-9799394D01*
X10300187Y-9776732D01*
X10303306Y-9751403D01*
X10303900Y-9733036D01*
X10303900Y-8922346D01*
X10303752Y-8913014D01*
X10302563Y-8895240D01*
X10298553Y-8870800D01*
X10291868Y-8849026D01*
X10282509Y-8829919D01*
X10270477Y-8813477D01*
X10255770Y-8799702D01*
X10238390Y-8788593D01*
X10218336Y-8780150D01*
X10195608Y-8774374D01*
X10170206Y-8771263D01*
X10151786Y-8770671D01*
X9873496Y-8770671D01*
X9864137Y-8770819D01*
X9846311Y-8772004D01*
X9821801Y-8776003D01*
X9799964Y-8782669D01*
X9780801Y-8792000D01*
X9764312Y-8803998D01*
X9750497Y-8818662D01*
X9739356Y-8835992D01*
X9730888Y-8855988D01*
X9725095Y-8878650D01*
X9721975Y-8903979D01*
X9721381Y-8922346D01*
X9721381Y-9733036D01*
X9265478Y-9733036D01*
X9265478Y-8922346D01*
X9265948Y-8889720D01*
X9267360Y-8858227D01*
X9269712Y-8827868D01*
X9273006Y-8798643D01*
X9277241Y-8770551D01*
X9282417Y-8743592D01*
X9288534Y-8717767D01*
X9295593Y-8693075D01*
X9303592Y-8669516D01*
X9312532Y-8647092D01*
X9322414Y-8625800D01*
X9333237Y-8605642D01*
X9345000Y-8586617D01*
X9357705Y-8568726D01*
X9371351Y-8551969D01*
X9385938Y-8536344D01*
X9401511Y-8521757D01*
X9418224Y-8508111D01*
X9436077Y-8495406D01*
X9455071Y-8483643D01*
X9475205Y-8472820D01*
X9496479Y-8462939D01*
X9518894Y-8453998D01*
X9542449Y-8445999D01*
X9567144Y-8438941D01*
X9592980Y-8432823D01*
X9619956Y-8427647D01*
X9648072Y-8423412D01*
X9677328Y-8420119D01*
X9707725Y-8417766D01*
X9739262Y-8416354D01*
X9771939Y-8415884D01*
X10253342Y-8415884D01*
X10285968Y-8416354D01*
G37*
G36*
X8185289Y-10239498D02*
G01*
X8211811Y-10239449D01*
X8238511Y-10239299D01*
X8265388Y-10239050D01*
X8292444Y-10238702D01*
X8319677Y-10238253D01*
X8347088Y-10237706D01*
X8374676Y-10237058D01*
X8402442Y-10236311D01*
X8430386Y-10235464D01*
X8458508Y-10234518D01*
X8486808Y-10233472D01*
X8515285Y-10232327D01*
X8543940Y-10231082D01*
X8572773Y-10229737D01*
X8601783Y-10228293D01*
X8630971Y-10226749D01*
X8660337Y-10225105D01*
X8689881Y-10223362D01*
X8719602Y-10221520D01*
X8749502Y-10219577D01*
X8779578Y-10217535D01*
X8809833Y-10215394D01*
X8840266Y-10213153D01*
X8870876Y-10210812D01*
X8901664Y-10208372D01*
X8932629Y-10205832D01*
X8963773Y-10203192D01*
X8995094Y-10200453D01*
X9026593Y-10197614D01*
X9058269Y-10194676D01*
X9090124Y-10191638D01*
X9122156Y-10188501D01*
X9122156Y-9846903D01*
X9087454Y-9849229D01*
X9053306Y-9851481D01*
X9019712Y-9853659D01*
X8986672Y-9855764D01*
X8954186Y-9857795D01*
X8922253Y-9859752D01*
X8890874Y-9861635D01*
X8860050Y-9863444D01*
X8829779Y-9865179D01*
X8800062Y-9866841D01*
X8770898Y-9868428D01*
X8742289Y-9869942D01*
X8714233Y-9871382D01*
X8686731Y-9872748D01*
X8659783Y-9874041D01*
X8633389Y-9875259D01*
X8607549Y-9876404D01*
X8582263Y-9877474D01*
X8557530Y-9878471D01*
X8533351Y-9879394D01*
X8509726Y-9880244D01*
X8486655Y-9881019D01*
X8464138Y-9881721D01*
X8442175Y-9882348D01*
X8420765Y-9882902D01*
X8399909Y-9883382D01*
X8379607Y-9883788D01*
X8359859Y-9884121D01*
X8340665Y-9884379D01*
X8322025Y-9884564D01*
X8303938Y-9884674D01*
X8286406Y-9884711D01*
X8265478Y-9883521D01*
X8246220Y-9879951D01*
X8228631Y-9874000D01*
X8212711Y-9865670D01*
X8198461Y-9854959D01*
X8194082Y-9850859D01*
X8182428Y-9837150D01*
X8173185Y-9821740D01*
X8166354Y-9804630D01*
X8161933Y-9785820D01*
X8159924Y-9765310D01*
X8159790Y-9758096D01*
X8159790Y-9656979D01*
X8160384Y-9638559D01*
X8163504Y-9613157D01*
X8169297Y-9590429D01*
X8177765Y-9570375D01*
X8188906Y-9552995D01*
X8202721Y-9538288D01*
X8219210Y-9526256D01*
X8238373Y-9516897D01*
X8260209Y-9510213D01*
X8284720Y-9506202D01*
X8302546Y-9505013D01*
X8311905Y-9504865D01*
X8843426Y-9504865D01*
X8843426Y-9150517D01*
X8362463Y-9150517D01*
X8344043Y-9149923D01*
X8318641Y-9146804D01*
X8295913Y-9141010D01*
X8275859Y-9132543D01*
X8258478Y-9121402D01*
X8243772Y-9107587D01*
X8231740Y-9091098D01*
X8222381Y-9071935D01*
X8215696Y-9050098D01*
X8211685Y-9025587D01*
X8210497Y-9007761D01*
X8210348Y-8998403D01*
X8210348Y-8947845D01*
X8210943Y-8929424D01*
X8214062Y-8904023D01*
X8219856Y-8881295D01*
X8228323Y-8861240D01*
X8239464Y-8843860D01*
X8253279Y-8829154D01*
X8269768Y-8817121D01*
X8288931Y-8807763D01*
X8310768Y-8801078D01*
X8335278Y-8797067D01*
X8353104Y-8795879D01*
X8362463Y-8795730D01*
X9096657Y-8795730D01*
X9096657Y-8441383D01*
X8235847Y-8441383D01*
X8205313Y-8441824D01*
X8175809Y-8443148D01*
X8147336Y-8445355D01*
X8119893Y-8448444D01*
X8093481Y-8452416D01*
X8068098Y-8457271D01*
X8043747Y-8463009D01*
X8020425Y-8469629D01*
X7998134Y-8477132D01*
X7976874Y-8485518D01*
X7956643Y-8494787D01*
X7937444Y-8504938D01*
X7919274Y-8515972D01*
X7902135Y-8527888D01*
X7886027Y-8540687D01*
X7870949Y-8554369D01*
X7856841Y-8568898D01*
X7843643Y-8584347D01*
X7831355Y-8600717D01*
X7819978Y-8618007D01*
X7809511Y-8636217D01*
X7799954Y-8655349D01*
X7791307Y-8675400D01*
X7783571Y-8696372D01*
X7776744Y-8718265D01*
X7770828Y-8741078D01*
X7765822Y-8764811D01*
X7761726Y-8789465D01*
X7758541Y-8815040D01*
X7756265Y-8841535D01*
X7754900Y-8868950D01*
X7754445Y-8897286D01*
X7754718Y-8916024D01*
X7755537Y-8934319D01*
X7756902Y-8952171D01*
X7759974Y-8978117D01*
X7764275Y-9003067D01*
X7769804Y-9027020D01*
X7776562Y-9049976D01*
X7784549Y-9071935D01*
X7793765Y-9092897D01*
X7804209Y-9112863D01*
X7815882Y-9131831D01*
X7824347Y-9143923D01*
X7837762Y-9161230D01*
X7851957Y-9177540D01*
X7866932Y-9192853D01*
X7882688Y-9207169D01*
X7899225Y-9220488D01*
X7916542Y-9232810D01*
X7934640Y-9244136D01*
X7953518Y-9254464D01*
X7973177Y-9263796D01*
X7993616Y-9272130D01*
X8007676Y-9277133D01*
X7982580Y-9284744D01*
X7958512Y-9293619D01*
X7935470Y-9303758D01*
X7913456Y-9315161D01*
X7892468Y-9327828D01*
X7872508Y-9341759D01*
X7853574Y-9356954D01*
X7835668Y-9373413D01*
X7818788Y-9391136D01*
X7802935Y-9410123D01*
X7788110Y-9430374D01*
X7774311Y-9451889D01*
X7761539Y-9474667D01*
X7749794Y-9498710D01*
X7739076Y-9524017D01*
X7729385Y-9550587D01*
X7723409Y-9570556D01*
X7718230Y-9591336D01*
X7713847Y-9612926D01*
X7710261Y-9635327D01*
X7707472Y-9658539D01*
X7705903Y-9676479D01*
X7704783Y-9694876D01*
X7704111Y-9713728D01*
X7703886Y-9733036D01*
X7703886Y-9758096D01*
X7704342Y-9788630D01*
X7705707Y-9818134D01*
X7707982Y-9846607D01*
X7711168Y-9874050D01*
X7715264Y-9900463D01*
X7720270Y-9925845D01*
X7726186Y-9950197D01*
X7733012Y-9973518D01*
X7740749Y-9995809D01*
X7749396Y-10017070D01*
X7758953Y-10037300D01*
X7769420Y-10056500D01*
X7780797Y-10074669D01*
X7793085Y-10091808D01*
X7806282Y-10107916D01*
X7820390Y-10122995D01*
X7835468Y-10137103D01*
X7851577Y-10150300D01*
X7868716Y-10162588D01*
X7886885Y-10173965D01*
X7906085Y-10184432D01*
X7926315Y-10193989D01*
X7947576Y-10202636D01*
X7969867Y-10210372D01*
X7993188Y-10217199D01*
X8017540Y-10223115D01*
X8042922Y-10228121D01*
X8069335Y-10232217D01*
X8096778Y-10235403D01*
X8125251Y-10237678D01*
X8154755Y-10239043D01*
X8185289Y-10239498D01*
G37*
G36*
X6116357Y-10188501D02*
G01*
X6151450Y-10191638D01*
X6186168Y-10194676D01*
X6220511Y-10197614D01*
X6254478Y-10200453D01*
X6288071Y-10203192D01*
X6321288Y-10205832D01*
X6354130Y-10208372D01*
X6386596Y-10210812D01*
X6418688Y-10213153D01*
X6450404Y-10215394D01*
X6481745Y-10217535D01*
X6512710Y-10219577D01*
X6543301Y-10221520D01*
X6573516Y-10223362D01*
X6603356Y-10225105D01*
X6632821Y-10226749D01*
X6661910Y-10228293D01*
X6690624Y-10229737D01*
X6718963Y-10231082D01*
X6746927Y-10232327D01*
X6774515Y-10233472D01*
X6801729Y-10234518D01*
X6828567Y-10235464D01*
X6855030Y-10236311D01*
X6881117Y-10237058D01*
X6906829Y-10237706D01*
X6932167Y-10238253D01*
X6957128Y-10238702D01*
X6981715Y-10239050D01*
X7005926Y-10239299D01*
X7029763Y-10239449D01*
X7053224Y-10239498D01*
X7083758Y-10239043D01*
X7113261Y-10237678D01*
X7141735Y-10235403D01*
X7169178Y-10232217D01*
X7195590Y-10228121D01*
X7220973Y-10223115D01*
X7245324Y-10217199D01*
X7268646Y-10210372D01*
X7290937Y-10202636D01*
X7312197Y-10193989D01*
X7332427Y-10184432D01*
X7351627Y-10173965D01*
X7369797Y-10162588D01*
X7386936Y-10150300D01*
X7403044Y-10137103D01*
X7418122Y-10122995D01*
X7432230Y-10107916D01*
X7445428Y-10091808D01*
X7457715Y-10074669D01*
X7469093Y-10056500D01*
X7479560Y-10037300D01*
X7489117Y-10017070D01*
X7497764Y-9995809D01*
X7505500Y-9973518D01*
X7512327Y-9950197D01*
X7518243Y-9925845D01*
X7523249Y-9900463D01*
X7527345Y-9874050D01*
X7530530Y-9846607D01*
X7532806Y-9818134D01*
X7534171Y-9788630D01*
X7534626Y-9758096D01*
X7534626Y-8947845D01*
X7534156Y-8915167D01*
X7532744Y-8883630D01*
X7530391Y-8853233D01*
X7527097Y-8823977D01*
X7522862Y-8795861D01*
X7517686Y-8768885D01*
X7511569Y-8743049D01*
X7504511Y-8718354D01*
X7496512Y-8694799D01*
X7487571Y-8672384D01*
X7477690Y-8651110D01*
X7466867Y-8630976D01*
X7455103Y-8611982D01*
X7442399Y-8594129D01*
X7428753Y-8577416D01*
X7414166Y-8561843D01*
X7398541Y-8547256D01*
X7381784Y-8533610D01*
X7363892Y-8520905D01*
X7344868Y-8509142D01*
X7324710Y-8498319D01*
X7303418Y-8488438D01*
X7280993Y-8479497D01*
X7257435Y-8471498D01*
X7232743Y-8464440D01*
X7206918Y-8458322D01*
X7179959Y-8453146D01*
X7151867Y-8448911D01*
X7122642Y-8445618D01*
X7092283Y-8443265D01*
X7060790Y-8441853D01*
X7028164Y-8441383D01*
X6116357Y-8441383D01*
X6116357Y-8795730D01*
X6926608Y-8795730D01*
X6945028Y-8796324D01*
X6970430Y-8799444D01*
X6993158Y-8805237D01*
X7013212Y-8813705D01*
X7030592Y-8824846D01*
X7045299Y-8838661D01*
X7057331Y-8855150D01*
X7066690Y-8874313D01*
X7073375Y-8896149D01*
X7077386Y-8920660D01*
X7078574Y-8938486D01*
X7078722Y-8947845D01*
X7078722Y-9758096D01*
X7077885Y-9775778D01*
X7074670Y-9795438D01*
X7069044Y-9813398D01*
X7061007Y-9829657D01*
X7050559Y-9844217D01*
X7044431Y-9850859D01*
X7030907Y-9862364D01*
X7013449Y-9872777D01*
X6997045Y-9879124D01*
X6979312Y-9883091D01*
X6960249Y-9884678D01*
X6956943Y-9884711D01*
X6936639Y-9884665D01*
X6915624Y-9884526D01*
X6897568Y-9884339D01*
X6879019Y-9884088D01*
X6859976Y-9883772D01*
X6840439Y-9883392D01*
X6820537Y-9882959D01*
X6800400Y-9882482D01*
X6780026Y-9881963D01*
X6759415Y-9881400D01*
X6738569Y-9880795D01*
X6717487Y-9880147D01*
X6708988Y-9879875D01*
X6687534Y-9879051D01*
X6666037Y-9878227D01*
X6644498Y-9877402D01*
X6622915Y-9876578D01*
X6601289Y-9875754D01*
X6579621Y-9874929D01*
X6570942Y-9874600D01*
X6552937Y-9873865D01*
X6533655Y-9872978D01*
X6513095Y-9871941D01*
X6491257Y-9870753D01*
X6468142Y-9869413D01*
X6449967Y-9868309D01*
X6431073Y-9867121D01*
X6411461Y-9865847D01*
X6391130Y-9864488D01*
X6369964Y-9863063D01*
X6347848Y-9861593D01*
X6324781Y-9860075D01*
X6300764Y-9858512D01*
X6275796Y-9856902D01*
X6249878Y-9855245D01*
X6232071Y-9854115D01*
X6213841Y-9852965D01*
X6195189Y-9851793D01*
X6176115Y-9850602D01*
X6156618Y-9849389D01*
X6136699Y-9848156D01*
X6116357Y-9846903D01*
X6116357Y-10188501D01*
G37*
G36*
X5922037Y-10214000D02*
G01*
X4833496Y-10214000D01*
X4802961Y-10213544D01*
X4773458Y-10212179D01*
X4744984Y-10209904D01*
X4717541Y-10206718D01*
X4691129Y-10202622D01*
X4665747Y-10197616D01*
X4641395Y-10191700D01*
X4618073Y-10184874D01*
X4595782Y-10177137D01*
X4574522Y-10168490D01*
X4554292Y-10158933D01*
X4535092Y-10148466D01*
X4516923Y-10137089D01*
X4499784Y-10124801D01*
X4483675Y-10111604D01*
X4468597Y-10097496D01*
X4454489Y-10082419D01*
X4441291Y-10066316D01*
X4429004Y-10049185D01*
X4417626Y-10031028D01*
X4407159Y-10011844D01*
X4397602Y-9991632D01*
X4388956Y-9970394D01*
X4381219Y-9948129D01*
X4374393Y-9924837D01*
X4368476Y-9900518D01*
X4363470Y-9875172D01*
X4359375Y-9848798D01*
X4356189Y-9821398D01*
X4353913Y-9792971D01*
X4352548Y-9763517D01*
X4352093Y-9733036D01*
X4352317Y-9713728D01*
X4352538Y-9707538D01*
X4807997Y-9707538D01*
X4808145Y-9716896D01*
X4809334Y-9734722D01*
X4813344Y-9759233D01*
X4820029Y-9781069D01*
X4829388Y-9800232D01*
X4841420Y-9816721D01*
X4856127Y-9830536D01*
X4873507Y-9841678D01*
X4893561Y-9850145D01*
X4916289Y-9855938D01*
X4941691Y-9859058D01*
X4960111Y-9859652D01*
X5466573Y-9859652D01*
X5466573Y-9504865D01*
X4960111Y-9504865D01*
X4950753Y-9505013D01*
X4932927Y-9506202D01*
X4908416Y-9510213D01*
X4886579Y-9516897D01*
X4867416Y-9526256D01*
X4850927Y-9538288D01*
X4837112Y-9552995D01*
X4825971Y-9570375D01*
X4817504Y-9590429D01*
X4811710Y-9613157D01*
X4808591Y-9638559D01*
X4807997Y-9656979D01*
X4807997Y-9707538D01*
X4352538Y-9707538D01*
X4352989Y-9694876D01*
X4354110Y-9676479D01*
X4355679Y-9658539D01*
X4358468Y-9635327D01*
X4362054Y-9612926D01*
X4366436Y-9591336D01*
X4371616Y-9570556D01*
X4377592Y-9550587D01*
X4387283Y-9524017D01*
X4398001Y-9498710D01*
X4409746Y-9474667D01*
X4422517Y-9451889D01*
X4436316Y-9430374D01*
X4451142Y-9410123D01*
X4466995Y-9391136D01*
X4483874Y-9373413D01*
X4501781Y-9356954D01*
X4520714Y-9341759D01*
X4540675Y-9327828D01*
X4561663Y-9315161D01*
X4583677Y-9303758D01*
X4606718Y-9293619D01*
X4630787Y-9284744D01*
X4655882Y-9277133D01*
X4644019Y-9272130D01*
X4626662Y-9263796D01*
X4609830Y-9254464D01*
X4593524Y-9244136D01*
X4577744Y-9232810D01*
X4562489Y-9220488D01*
X4547759Y-9207169D01*
X4533555Y-9192853D01*
X4519876Y-9177540D01*
X4506723Y-9161230D01*
X4494096Y-9143923D01*
X4486110Y-9131831D01*
X4475098Y-9112863D01*
X4465245Y-9092897D01*
X4456551Y-9071935D01*
X4449016Y-9049976D01*
X4442640Y-9027020D01*
X4437424Y-9003067D01*
X4436666Y-8998403D01*
X4884054Y-8998403D01*
X4884202Y-9007761D01*
X4885387Y-9025587D01*
X4889386Y-9050098D01*
X4896052Y-9071935D01*
X4905383Y-9091098D01*
X4917381Y-9107587D01*
X4932045Y-9121402D01*
X4949375Y-9132543D01*
X4969371Y-9141010D01*
X4992033Y-9146804D01*
X5017362Y-9149923D01*
X5035729Y-9150517D01*
X5466573Y-9150517D01*
X5466573Y-8795730D01*
X5035729Y-8795730D01*
X5026397Y-8795879D01*
X5008623Y-8797067D01*
X4984183Y-8801078D01*
X4962409Y-8807763D01*
X4943302Y-8817121D01*
X4926861Y-8829154D01*
X4913085Y-8843860D01*
X4901976Y-8861240D01*
X4893534Y-8881295D01*
X4887757Y-8904023D01*
X4884646Y-8929424D01*
X4884054Y-8947845D01*
X4884054Y-8998403D01*
X4436666Y-8998403D01*
X4433367Y-8978117D01*
X4430469Y-8952171D01*
X4429181Y-8934319D01*
X4428408Y-8916024D01*
X4428150Y-8897286D01*
X4428605Y-8868950D01*
X4429971Y-8841535D01*
X4432246Y-8815040D01*
X4435432Y-8789465D01*
X4439528Y-8764811D01*
X4444534Y-8741078D01*
X4450450Y-8718265D01*
X4457276Y-8696372D01*
X4465013Y-8675400D01*
X4473660Y-8655349D01*
X4483216Y-8636217D01*
X4493684Y-8618007D01*
X4505061Y-8600717D01*
X4517348Y-8584347D01*
X4530546Y-8568898D01*
X4544654Y-8554369D01*
X4559731Y-8540687D01*
X4575834Y-8527888D01*
X4592964Y-8515972D01*
X4611122Y-8504938D01*
X4630306Y-8494787D01*
X4650517Y-8485518D01*
X4671756Y-8477132D01*
X4694021Y-8469629D01*
X4717313Y-8463009D01*
X4741632Y-8457271D01*
X4766978Y-8452416D01*
X4793351Y-8448444D01*
X4820751Y-8445355D01*
X4849178Y-8443148D01*
X4878632Y-8441824D01*
X4909113Y-8441383D01*
X5922037Y-8441383D01*
X5922037Y-10214000D01*
G37*
G36*
X3323782Y-10214000D02*
G01*
X3779685Y-10214000D01*
X3779685Y-8795730D01*
X4311207Y-8795730D01*
X4311207Y-8441383D01*
X2791821Y-8441383D01*
X2791821Y-8795730D01*
X3323782Y-8795730D01*
X3323782Y-10214000D01*
G37*
G36*
X2223130Y-8416339D02*
G01*
X2252633Y-8417704D01*
X2281107Y-8419979D01*
X2308550Y-8423165D01*
X2334962Y-8427261D01*
X2360344Y-8432267D01*
X2384696Y-8438183D01*
X2408018Y-8445010D01*
X2430309Y-8452746D01*
X2451569Y-8461393D01*
X2471799Y-8470950D01*
X2490999Y-8481417D01*
X2509169Y-8492794D01*
X2526308Y-8505082D01*
X2542416Y-8518280D01*
X2557494Y-8532387D01*
X2571602Y-8547466D01*
X2584800Y-8563574D01*
X2597087Y-8580713D01*
X2608465Y-8598883D01*
X2618932Y-8618082D01*
X2628489Y-8638313D01*
X2637136Y-8659573D01*
X2644872Y-8681864D01*
X2651699Y-8705185D01*
X2657615Y-8729537D01*
X2662621Y-8754919D01*
X2666717Y-8781332D01*
X2669902Y-8808775D01*
X2672178Y-8837248D01*
X2673543Y-8866752D01*
X2673998Y-8897286D01*
X2673998Y-9783595D01*
X2673543Y-9811932D01*
X2672178Y-9839353D01*
X2669902Y-9865857D01*
X2666717Y-9891443D01*
X2662621Y-9916113D01*
X2657615Y-9939865D01*
X2651699Y-9962701D01*
X2644872Y-9984619D01*
X2637136Y-10005620D01*
X2628489Y-10025704D01*
X2618932Y-10044871D01*
X2608465Y-10063122D01*
X2597087Y-10080455D01*
X2584800Y-10096871D01*
X2571602Y-10112369D01*
X2557494Y-10126951D01*
X2542416Y-10140580D01*
X2526308Y-10153330D01*
X2509169Y-10165200D01*
X2490999Y-10176191D01*
X2471799Y-10186302D01*
X2451569Y-10195535D01*
X2430309Y-10203888D01*
X2408018Y-10211362D01*
X2384696Y-10217956D01*
X2360344Y-10223672D01*
X2334962Y-10228508D01*
X2308550Y-10232464D01*
X2281107Y-10235542D01*
X2252633Y-10237740D01*
X2223130Y-10239059D01*
X2192595Y-10239498D01*
X1711632Y-10239498D01*
X1681098Y-10239059D01*
X1651594Y-10237740D01*
X1623121Y-10235542D01*
X1595678Y-10232464D01*
X1569266Y-10228508D01*
X1543883Y-10223672D01*
X1519532Y-10217956D01*
X1496210Y-10211362D01*
X1473919Y-10203888D01*
X1452659Y-10195535D01*
X1432429Y-10186302D01*
X1413229Y-10176191D01*
X1395059Y-10165200D01*
X1377920Y-10153330D01*
X1361812Y-10140580D01*
X1346734Y-10126951D01*
X1332626Y-10112369D01*
X1319428Y-10096871D01*
X1307141Y-10080455D01*
X1295763Y-10063122D01*
X1285296Y-10044871D01*
X1275739Y-10025704D01*
X1267092Y-10005620D01*
X1259356Y-9984619D01*
X1252529Y-9962701D01*
X1246613Y-9939865D01*
X1241607Y-9916113D01*
X1237511Y-9891443D01*
X1234326Y-9865857D01*
X1232050Y-9839353D01*
X1230685Y-9811932D01*
X1230230Y-9783595D01*
X1230230Y-9733036D01*
X1686133Y-9733036D01*
X1686282Y-9742368D01*
X1687470Y-9760142D01*
X1691481Y-9784582D01*
X1698166Y-9806356D01*
X1707525Y-9825463D01*
X1719557Y-9841905D01*
X1734263Y-9855680D01*
X1751644Y-9866789D01*
X1771698Y-9875232D01*
X1794426Y-9881008D01*
X1819828Y-9884119D01*
X1838248Y-9884711D01*
X2065980Y-9884711D01*
X2075339Y-9884563D01*
X2093164Y-9883378D01*
X2117675Y-9879379D01*
X2139512Y-9872714D01*
X2158675Y-9863382D01*
X2175164Y-9851384D01*
X2188979Y-9836720D01*
X2200120Y-9819390D01*
X2208587Y-9799394D01*
X2214381Y-9776732D01*
X2217500Y-9751403D01*
X2218094Y-9733036D01*
X2218094Y-9454307D01*
X2205517Y-9452912D01*
X2184821Y-9450537D01*
X2165898Y-9448298D01*
X2145451Y-9445823D01*
X2127996Y-9443673D01*
X2109566Y-9441372D01*
X2090160Y-9438919D01*
X2085144Y-9438297D01*
X2064769Y-9436006D01*
X2043900Y-9434031D01*
X2022537Y-9432372D01*
X2000678Y-9431029D01*
X1978326Y-9430002D01*
X1955478Y-9429291D01*
X1932136Y-9428896D01*
X1914305Y-9428808D01*
X1774940Y-9428808D01*
X1763310Y-9429430D01*
X1743997Y-9433688D01*
X1726772Y-9441980D01*
X1711632Y-9454307D01*
X1702967Y-9464301D01*
X1693330Y-9480917D01*
X1687727Y-9499479D01*
X1686133Y-9517614D01*
X1686133Y-9733036D01*
X1230230Y-9733036D01*
X1230230Y-9454307D01*
X1230637Y-9433032D01*
X1231858Y-9412294D01*
X1233893Y-9392091D01*
X1236742Y-9372424D01*
X1240405Y-9353293D01*
X1244882Y-9334698D01*
X1250173Y-9316638D01*
X1256278Y-9299115D01*
X1263197Y-9282127D01*
X1270931Y-9265675D01*
X1279478Y-9249759D01*
X1288839Y-9234378D01*
X1299014Y-9219533D01*
X1310003Y-9205225D01*
X1321807Y-9191452D01*
X1334424Y-9178214D01*
X1347659Y-9165650D01*
X1361427Y-9153897D01*
X1375727Y-9142954D01*
X1390560Y-9132822D01*
X1405925Y-9123500D01*
X1421822Y-9114989D01*
X1438252Y-9107289D01*
X1455214Y-9100399D01*
X1472709Y-9094319D01*
X1490735Y-9089051D01*
X1509295Y-9084592D01*
X1528386Y-9080945D01*
X1548010Y-9078108D01*
X1568166Y-9076081D01*
X1588855Y-9074865D01*
X1610076Y-9074460D01*
X1787690Y-9074460D01*
X1811009Y-9074658D01*
X1834806Y-9075250D01*
X1859081Y-9076238D01*
X1883833Y-9077620D01*
X1909062Y-9079397D01*
X1934769Y-9081570D01*
X1960953Y-9084137D01*
X1987615Y-9087100D01*
X2014754Y-9090457D01*
X2042370Y-9094209D01*
X2070464Y-9098357D01*
X2099035Y-9102899D01*
X2128084Y-9107836D01*
X2157610Y-9113169D01*
X2187613Y-9118896D01*
X2218094Y-9125018D01*
X2218094Y-8897286D01*
X2217943Y-8889496D01*
X2215676Y-8867611D01*
X2210689Y-8847951D01*
X2202982Y-8830516D01*
X2192554Y-8815308D01*
X2179406Y-8802325D01*
X2163538Y-8791567D01*
X2144950Y-8783036D01*
X2123641Y-8776730D01*
X2099612Y-8772649D01*
X2082082Y-8771165D01*
X2063342Y-8770671D01*
X2057969Y-8770676D01*
X2036165Y-8770789D01*
X2013868Y-8771053D01*
X1991075Y-8771469D01*
X1967788Y-8772036D01*
X1949998Y-8772560D01*
X1931930Y-8773169D01*
X1913584Y-8773863D01*
X1894959Y-8774643D01*
X1876057Y-8775507D01*
X1868468Y-8776161D01*
X1849451Y-8777752D01*
X1830369Y-8779278D01*
X1811223Y-8780740D01*
X1792012Y-8782137D01*
X1772737Y-8783471D01*
X1753398Y-8784739D01*
X1737344Y-8785667D01*
X1715712Y-8786961D01*
X1697155Y-8788105D01*
X1677485Y-8789345D01*
X1656701Y-8790681D01*
X1634805Y-8792113D01*
X1611797Y-8793641D01*
X1593810Y-8794851D01*
X1581447Y-8795625D01*
X1562290Y-8796806D01*
X1542400Y-8798011D01*
X1521775Y-8799238D01*
X1500416Y-8800489D01*
X1478323Y-8801763D01*
X1455496Y-8803060D01*
X1431934Y-8804380D01*
X1407639Y-8805723D01*
X1382609Y-8807090D01*
X1356845Y-8808480D01*
X1356845Y-8466882D01*
X1387261Y-8463744D01*
X1417400Y-8460706D01*
X1447262Y-8457768D01*
X1476846Y-8454929D01*
X1506152Y-8452190D01*
X1535182Y-8449550D01*
X1563934Y-8447010D01*
X1592408Y-8444570D01*
X1620606Y-8442229D01*
X1648526Y-8439988D01*
X1676168Y-8437847D01*
X1703533Y-8435805D01*
X1730621Y-8433862D01*
X1757432Y-8432020D01*
X1783965Y-8430277D01*
X1810221Y-8428633D01*
X1836200Y-8427089D01*
X1861901Y-8425645D01*
X1887325Y-8424300D01*
X1912471Y-8423055D01*
X1937340Y-8421910D01*
X1961932Y-8420864D01*
X1986246Y-8419918D01*
X2010283Y-8419071D01*
X2034043Y-8418324D01*
X2057526Y-8417677D01*
X2080731Y-8417129D01*
X2103658Y-8416681D01*
X2126309Y-8416332D01*
X2148682Y-8416083D01*
X2170777Y-8415933D01*
X2192595Y-8415884D01*
X2223130Y-8416339D01*
G37*
D12*
%TO.C,HOLE\u002A\u002A*%
X-20940Y-2552130D02*
G75*
G03*
X-1820940Y-2552130I-900000J0D01*
G01*
X-1820940Y-2552130D02*
G75*
G03*
X-20940Y-2552130I900000J0D01*
G01*
X64239060Y-2552130D02*
G75*
G03*
X62439060Y-2552130I-900000J0D01*
G01*
X62439060Y-2552130D02*
G75*
G03*
X64239060Y-2552130I900000J0D01*
G01*
X64239060Y-17762130D02*
G75*
G03*
X62439060Y-17762130I-900000J0D01*
G01*
X62439060Y-17762130D02*
G75*
G03*
X64239060Y-17762130I900000J0D01*
G01*
X-20940Y-17772130D02*
G75*
G03*
X-1820940Y-17772130I-900000J0D01*
G01*
X-1820940Y-17772130D02*
G75*
G03*
X-20940Y-17772130I900000J0D01*
G01*
D13*
%TO.C,J1*%
X61749060Y-12130D02*
X61749060Y-2672130D01*
X3269060Y-12130D02*
X61749060Y-12130D01*
X3269060Y-12130D02*
X3269060Y-2672130D01*
X1999060Y-12130D02*
X669060Y-12130D01*
X669060Y-12130D02*
X669060Y-1342130D01*
X3269060Y-2672130D02*
X61749060Y-2672130D01*
%TO.C,J2*%
X61749060Y-17652130D02*
X61749060Y-20312130D01*
X3269060Y-17652130D02*
X61749060Y-17652130D01*
X3269060Y-17652130D02*
X3269060Y-20312130D01*
X1999060Y-17652130D02*
X669060Y-17652130D01*
X669060Y-17652130D02*
X669060Y-18982130D01*
X3269060Y-20312130D02*
X61749060Y-20312130D01*
%TD*%
%LPC*%
D14*
%TO.C,J3*%
X63629060Y-6372130D03*
D15*
X63629060Y-8912130D03*
X63629060Y-11452130D03*
X63629060Y-13992130D03*
%TD*%
D16*
%TO.C,HOLE\u002A\u002A*%
X-920940Y-2552130D03*
%TD*%
%TO.C,HOLE\u002A\u002A*%
X63339060Y-2552130D03*
%TD*%
%TO.C,HOLE\u002A\u002A*%
X63339060Y-17762130D03*
%TD*%
D17*
%TO.C,USB1*%
X2568060Y-7282130D03*
X2568060Y-13062130D03*
D18*
X3068060Y-5847130D03*
X3068060Y-14497130D03*
D19*
X-1131940Y-5847130D03*
X-1131940Y-14497130D03*
%TD*%
D16*
%TO.C,HOLE\u002A\u002A*%
X-920940Y-17772130D03*
%TD*%
D14*
%TO.C,J1*%
X1999060Y-1342130D03*
D15*
X4539060Y-1342130D03*
X7079060Y-1342130D03*
X9619060Y-1342130D03*
X12159060Y-1342130D03*
X14699060Y-1342130D03*
X17239060Y-1342130D03*
X19779060Y-1342130D03*
X22319060Y-1342130D03*
X24859060Y-1342130D03*
X27399060Y-1342130D03*
X29939060Y-1342130D03*
X32479060Y-1342130D03*
X35019060Y-1342130D03*
X37559060Y-1342130D03*
X40099060Y-1342130D03*
X42639060Y-1342130D03*
X45179060Y-1342130D03*
X47719060Y-1342130D03*
X50259060Y-1342130D03*
X52799060Y-1342130D03*
X55339060Y-1342130D03*
X57879060Y-1342130D03*
X60419060Y-1342130D03*
%TD*%
D14*
%TO.C,J2*%
X1999060Y-18982130D03*
D15*
X4539060Y-18982130D03*
X7079060Y-18982130D03*
X9619060Y-18982130D03*
X12159060Y-18982130D03*
X14699060Y-18982130D03*
X17239060Y-18982130D03*
X19779060Y-18982130D03*
X22319060Y-18982130D03*
X24859060Y-18982130D03*
X27399060Y-18982130D03*
X29939060Y-18982130D03*
X32479060Y-18982130D03*
X35019060Y-18982130D03*
X37559060Y-18982130D03*
X40099060Y-18982130D03*
X42639060Y-18982130D03*
X45179060Y-18982130D03*
X47719060Y-18982130D03*
X50259060Y-18982130D03*
X52799060Y-18982130D03*
X55339060Y-18982130D03*
X57879060Y-18982130D03*
X60419060Y-18982130D03*
%TD*%
%LPD*%
M02*
