%TF.GenerationSoftware,KiCad,Pcbnew,7.0.5*%
%TF.CreationDate,2023-07-06T11:55:11+08:00*%
%TF.ProjectId,UINIO-MCU-GD32F103C,55494e49-4f2d-44d4-9355-2d4744333246,Version 2.0.0*%
%TF.SameCoordinates,PX92f3a10PY5584170*%
%TF.FileFunction,Soldermask,Bot*%
%TF.FilePolarity,Negative*%
%FSLAX46Y46*%
G04 Gerber Fmt 4.6, Leading zero omitted, Abs format (unit mm)*
G04 Created by KiCad (PCBNEW 7.0.5) date 2023-07-06 11:55:11*
%MOMM*%
%LPD*%
G01*
G04 APERTURE LIST*
%ADD10R,1.700000X1.700000*%
%ADD11O,1.700000X1.700000*%
%ADD12C,1.200000*%
%ADD13C,0.650000*%
%ADD14O,2.100000X1.000000*%
%ADD15O,1.900000X1.000000*%
G04 APERTURE END LIST*
D10*
%TO.C,J3*%
X29869060Y-6372130D03*
D11*
X29869060Y-8912130D03*
X29869060Y-11452130D03*
X29869060Y-13992130D03*
%TD*%
D12*
%TO.C,HOLE\u002A\u002A*%
X-34680940Y-2552130D03*
%TD*%
%TO.C,HOLE\u002A\u002A*%
X29579060Y-2552130D03*
%TD*%
%TO.C,HOLE\u002A\u002A*%
X29579060Y-17762130D03*
%TD*%
D13*
%TO.C,USB1*%
X-31191940Y-7282130D03*
X-31191940Y-13062130D03*
D14*
X-30691940Y-5847130D03*
X-30691940Y-14497130D03*
D15*
X-34891940Y-5847130D03*
X-34891940Y-14497130D03*
%TD*%
D12*
%TO.C,HOLE\u002A\u002A*%
X-34680940Y-17772130D03*
%TD*%
D10*
%TO.C,J1*%
X-31760940Y-1342130D03*
D11*
X-29220940Y-1342130D03*
X-26680940Y-1342130D03*
X-24140940Y-1342130D03*
X-21600940Y-1342130D03*
X-19060940Y-1342130D03*
X-16520940Y-1342130D03*
X-13980940Y-1342130D03*
X-11440940Y-1342130D03*
X-8900940Y-1342130D03*
X-6360940Y-1342130D03*
X-3820940Y-1342130D03*
X-1280940Y-1342130D03*
X1259060Y-1342130D03*
X3799060Y-1342130D03*
X6339060Y-1342130D03*
X8879060Y-1342130D03*
X11419060Y-1342130D03*
X13959060Y-1342130D03*
X16499060Y-1342130D03*
X19039060Y-1342130D03*
X21579060Y-1342130D03*
X24119060Y-1342130D03*
X26659060Y-1342130D03*
%TD*%
D10*
%TO.C,J2*%
X-31760940Y-18982130D03*
D11*
X-29220940Y-18982130D03*
X-26680940Y-18982130D03*
X-24140940Y-18982130D03*
X-21600940Y-18982130D03*
X-19060940Y-18982130D03*
X-16520940Y-18982130D03*
X-13980940Y-18982130D03*
X-11440940Y-18982130D03*
X-8900940Y-18982130D03*
X-6360940Y-18982130D03*
X-3820940Y-18982130D03*
X-1280940Y-18982130D03*
X1259060Y-18982130D03*
X3799060Y-18982130D03*
X6339060Y-18982130D03*
X8879060Y-18982130D03*
X11419060Y-18982130D03*
X13959060Y-18982130D03*
X16499060Y-18982130D03*
X19039060Y-18982130D03*
X21579060Y-18982130D03*
X24119060Y-18982130D03*
X26659060Y-18982130D03*
%TD*%
M02*
