%TF.GenerationSoftware,KiCad,Pcbnew,7.0.5*%
%TF.CreationDate,2023-06-29T00:31:54+08:00*%
%TF.ProjectId,UINIO-MCU-GD32F103C,55494e49-4f2d-44d4-9355-2d4744333246,Version 2.0.0*%
%TF.SameCoordinates,PX9357ba0PY5667240*%
%TF.FileFunction,Paste,Top*%
%TF.FilePolarity,Positive*%
%FSLAX46Y46*%
G04 Gerber Fmt 4.6, Leading zero omitted, Abs format (unit mm)*
G04 Created by KiCad (PCBNEW 7.0.5) date 2023-06-29 00:31:54*
%MOMM*%
%LPD*%
G01*
G04 APERTURE LIST*
G04 Aperture macros list*
%AMRoundRect*
0 Rectangle with rounded corners*
0 $1 Rounding radius*
0 $2 $3 $4 $5 $6 $7 $8 $9 X,Y pos of 4 corners*
0 Add a 4 corners polygon primitive as box body*
4,1,4,$2,$3,$4,$5,$6,$7,$8,$9,$2,$3,0*
0 Add four circle primitives for the rounded corners*
1,1,$1+$1,$2,$3*
1,1,$1+$1,$4,$5*
1,1,$1+$1,$6,$7*
1,1,$1+$1,$8,$9*
0 Add four rect primitives between the rounded corners*
20,1,$1+$1,$2,$3,$4,$5,0*
20,1,$1+$1,$4,$5,$6,$7,0*
20,1,$1+$1,$6,$7,$8,$9,0*
20,1,$1+$1,$8,$9,$2,$3,0*%
%AMHorizOval*
0 Thick line with rounded ends*
0 $1 width*
0 $2 $3 position (X,Y) of the first rounded end (center of the circle)*
0 $4 $5 position (X,Y) of the second rounded end (center of the circle)*
0 Add line between two ends*
20,1,$1,$2,$3,$4,$5,0*
0 Add two circle primitives to create the rounded ends*
1,1,$1,$2,$3*
1,1,$1,$4,$5*%
G04 Aperture macros list end*
%ADD10C,0.120000*%
%ADD11RoundRect,0.135000X-0.135000X-0.185000X0.135000X-0.185000X0.135000X0.185000X-0.135000X0.185000X0*%
%ADD12RoundRect,0.140000X-0.140000X-0.170000X0.140000X-0.170000X0.140000X0.170000X-0.140000X0.170000X0*%
%ADD13RoundRect,0.135000X0.135000X0.185000X-0.135000X0.185000X-0.135000X-0.185000X0.135000X-0.185000X0*%
%ADD14R,0.650000X1.200000*%
%ADD15R,1.800000X1.000000*%
%ADD16R,1.000000X0.600000*%
%ADD17RoundRect,0.140000X0.140000X0.170000X-0.140000X0.170000X-0.140000X-0.170000X0.140000X-0.170000X0*%
%ADD18RoundRect,0.218750X0.218750X0.256250X-0.218750X0.256250X-0.218750X-0.256250X0.218750X-0.256250X0*%
%ADD19R,1.200000X0.650000*%
%ADD20RoundRect,0.140000X0.170000X-0.140000X0.170000X0.140000X-0.170000X0.140000X-0.170000X-0.140000X0*%
%ADD21R,1.150000X0.600000*%
%ADD22R,1.150000X0.300000*%
%ADD23RoundRect,0.140000X-0.170000X0.140000X-0.170000X-0.140000X0.170000X-0.140000X0.170000X0.140000X0*%
%ADD24R,1.400000X1.200000*%
%ADD25RoundRect,0.135000X-0.185000X0.135000X-0.185000X-0.135000X0.185000X-0.135000X0.185000X0.135000X0*%
%ADD26HorizOval,0.280000X-0.537401X0.537401X0.537401X-0.537401X0*%
%ADD27HorizOval,0.280000X-0.537401X-0.537401X0.537401X0.537401X0*%
%ADD28RoundRect,0.218750X-0.218750X-0.256250X0.218750X-0.256250X0.218750X0.256250X-0.218750X0.256250X0*%
G04 APERTURE END LIST*
%TO.C,USB1*%
D10*
X26674000Y-13620000D02*
X25524000Y-13620000D01*
X25524000Y-13020000D01*
X26674000Y-13020000D01*
X26674000Y-13620000D01*
G36*
X26674000Y-13620000D02*
G01*
X25524000Y-13620000D01*
X25524000Y-13020000D01*
X26674000Y-13020000D01*
X26674000Y-13620000D01*
G37*
X26674000Y-12820000D02*
X25524000Y-12820000D01*
X25524000Y-12220000D01*
X26674000Y-12220000D01*
X26674000Y-12820000D01*
G36*
X26674000Y-12820000D02*
G01*
X25524000Y-12820000D01*
X25524000Y-12220000D01*
X26674000Y-12220000D01*
X26674000Y-12820000D01*
G37*
X26674000Y-12020000D02*
X25524000Y-12020000D01*
X25524000Y-11720000D01*
X26674000Y-11720000D01*
X26674000Y-12020000D01*
G36*
X26674000Y-12020000D02*
G01*
X25524000Y-12020000D01*
X25524000Y-11720000D01*
X26674000Y-11720000D01*
X26674000Y-12020000D01*
G37*
X26674000Y-11520000D02*
X25524000Y-11520000D01*
X25524000Y-11220000D01*
X26674000Y-11220000D01*
X26674000Y-11520000D01*
G36*
X26674000Y-11520000D02*
G01*
X25524000Y-11520000D01*
X25524000Y-11220000D01*
X26674000Y-11220000D01*
X26674000Y-11520000D01*
G37*
X26674000Y-11020000D02*
X25524000Y-11020000D01*
X25524000Y-10720000D01*
X26674000Y-10720000D01*
X26674000Y-11020000D01*
G36*
X26674000Y-11020000D02*
G01*
X25524000Y-11020000D01*
X25524000Y-10720000D01*
X26674000Y-10720000D01*
X26674000Y-11020000D01*
G37*
X26674000Y-10520000D02*
X25524000Y-10520000D01*
X25524000Y-10220000D01*
X26674000Y-10220000D01*
X26674000Y-10520000D01*
G36*
X26674000Y-10520000D02*
G01*
X25524000Y-10520000D01*
X25524000Y-10220000D01*
X26674000Y-10220000D01*
X26674000Y-10520000D01*
G37*
X26674000Y-10020000D02*
X25524000Y-10020000D01*
X25524000Y-9720000D01*
X26674000Y-9720000D01*
X26674000Y-10020000D01*
G36*
X26674000Y-10020000D02*
G01*
X25524000Y-10020000D01*
X25524000Y-9720000D01*
X26674000Y-9720000D01*
X26674000Y-10020000D01*
G37*
X26674000Y-9520000D02*
X25524000Y-9520000D01*
X25524000Y-9220000D01*
X26674000Y-9220000D01*
X26674000Y-9520000D01*
G36*
X26674000Y-9520000D02*
G01*
X25524000Y-9520000D01*
X25524000Y-9220000D01*
X26674000Y-9220000D01*
X26674000Y-9520000D01*
G37*
X26674000Y-9020000D02*
X25524000Y-9020000D01*
X25524000Y-8720000D01*
X26674000Y-8720000D01*
X26674000Y-9020000D01*
G36*
X26674000Y-9020000D02*
G01*
X25524000Y-9020000D01*
X25524000Y-8720000D01*
X26674000Y-8720000D01*
X26674000Y-9020000D01*
G37*
X26674000Y-8520000D02*
X25524000Y-8520000D01*
X25524000Y-8220000D01*
X26674000Y-8220000D01*
X26674000Y-8520000D01*
G36*
X26674000Y-8520000D02*
G01*
X25524000Y-8520000D01*
X25524000Y-8220000D01*
X26674000Y-8220000D01*
X26674000Y-8520000D01*
G37*
X26674000Y-8020000D02*
X25524000Y-8020000D01*
X25524000Y-7420000D01*
X26674000Y-7420000D01*
X26674000Y-8020000D01*
G36*
X26674000Y-8020000D02*
G01*
X25524000Y-8020000D01*
X25524000Y-7420000D01*
X26674000Y-7420000D01*
X26674000Y-8020000D01*
G37*
X26674000Y-7220000D02*
X25524000Y-7220000D01*
X25524000Y-6620000D01*
X26674000Y-6620000D01*
X26674000Y-7220000D01*
G36*
X26674000Y-7220000D02*
G01*
X25524000Y-7220000D01*
X25524000Y-6620000D01*
X26674000Y-6620000D01*
X26674000Y-7220000D01*
G37*
X27509000Y-13955000D02*
X27603000Y-13983000D01*
X27689000Y-14029000D01*
X27765000Y-14091000D01*
X27827000Y-14167000D01*
X27873000Y-14254000D01*
X27902000Y-14347000D01*
X27911000Y-14445000D01*
X27902000Y-14543000D01*
X27873000Y-14636000D01*
X27827000Y-14723000D01*
X27765000Y-14799000D01*
X27689000Y-14861000D01*
X27603000Y-14907000D01*
X27509000Y-14935000D01*
X27411000Y-14945000D01*
X26311000Y-14945000D01*
X26214000Y-14935000D01*
X26120000Y-14907000D01*
X26034000Y-14861000D01*
X25958000Y-14799000D01*
X25896000Y-14723000D01*
X25849000Y-14636000D01*
X25821000Y-14543000D01*
X25811000Y-14445000D01*
X25821000Y-14347000D01*
X25849000Y-14254000D01*
X25896000Y-14167000D01*
X25958000Y-14091000D01*
X26034000Y-14029000D01*
X26120000Y-13983000D01*
X26214000Y-13955000D01*
X26311000Y-13945000D01*
X27411000Y-13945000D01*
X27509000Y-13955000D01*
G36*
X27509000Y-13955000D02*
G01*
X27603000Y-13983000D01*
X27689000Y-14029000D01*
X27765000Y-14091000D01*
X27827000Y-14167000D01*
X27873000Y-14254000D01*
X27902000Y-14347000D01*
X27911000Y-14445000D01*
X27902000Y-14543000D01*
X27873000Y-14636000D01*
X27827000Y-14723000D01*
X27765000Y-14799000D01*
X27689000Y-14861000D01*
X27603000Y-14907000D01*
X27509000Y-14935000D01*
X27411000Y-14945000D01*
X26311000Y-14945000D01*
X26214000Y-14935000D01*
X26120000Y-14907000D01*
X26034000Y-14861000D01*
X25958000Y-14799000D01*
X25896000Y-14723000D01*
X25849000Y-14636000D01*
X25821000Y-14543000D01*
X25811000Y-14445000D01*
X25821000Y-14347000D01*
X25849000Y-14254000D01*
X25896000Y-14167000D01*
X25958000Y-14091000D01*
X26034000Y-14029000D01*
X26120000Y-13983000D01*
X26214000Y-13955000D01*
X26311000Y-13945000D01*
X27411000Y-13945000D01*
X27509000Y-13955000D01*
G37*
X31609000Y-13955000D02*
X31703000Y-13983000D01*
X31789000Y-14029000D01*
X31865000Y-14091000D01*
X31927000Y-14167000D01*
X31973000Y-14254000D01*
X32002000Y-14347000D01*
X32011000Y-14445000D01*
X32002000Y-14543000D01*
X31973000Y-14636000D01*
X31927000Y-14723000D01*
X31865000Y-14799000D01*
X31789000Y-14861000D01*
X31703000Y-14907000D01*
X31609000Y-14935000D01*
X31511000Y-14945000D01*
X30611000Y-14945000D01*
X30514000Y-14935000D01*
X30420000Y-14907000D01*
X30334000Y-14861000D01*
X30258000Y-14799000D01*
X30196000Y-14723000D01*
X30149000Y-14636000D01*
X30121000Y-14543000D01*
X30111000Y-14445000D01*
X30121000Y-14347000D01*
X30149000Y-14254000D01*
X30196000Y-14167000D01*
X30258000Y-14091000D01*
X30334000Y-14029000D01*
X30420000Y-13983000D01*
X30514000Y-13955000D01*
X30611000Y-13945000D01*
X31511000Y-13945000D01*
X31609000Y-13955000D01*
G36*
X31609000Y-13955000D02*
G01*
X31703000Y-13983000D01*
X31789000Y-14029000D01*
X31865000Y-14091000D01*
X31927000Y-14167000D01*
X31973000Y-14254000D01*
X32002000Y-14347000D01*
X32011000Y-14445000D01*
X32002000Y-14543000D01*
X31973000Y-14636000D01*
X31927000Y-14723000D01*
X31865000Y-14799000D01*
X31789000Y-14861000D01*
X31703000Y-14907000D01*
X31609000Y-14935000D01*
X31511000Y-14945000D01*
X30611000Y-14945000D01*
X30514000Y-14935000D01*
X30420000Y-14907000D01*
X30334000Y-14861000D01*
X30258000Y-14799000D01*
X30196000Y-14723000D01*
X30149000Y-14636000D01*
X30121000Y-14543000D01*
X30111000Y-14445000D01*
X30121000Y-14347000D01*
X30149000Y-14254000D01*
X30196000Y-14167000D01*
X30258000Y-14091000D01*
X30334000Y-14029000D01*
X30420000Y-13983000D01*
X30514000Y-13955000D01*
X30611000Y-13945000D01*
X31511000Y-13945000D01*
X31609000Y-13955000D01*
G37*
X27509000Y-5305000D02*
X27603000Y-5333000D01*
X27689000Y-5379000D01*
X27765000Y-5441000D01*
X27827000Y-5517000D01*
X27873000Y-5604000D01*
X27902000Y-5697000D01*
X27911000Y-5795000D01*
X27902000Y-5893000D01*
X27873000Y-5986000D01*
X27827000Y-6073000D01*
X27765000Y-6149000D01*
X27689000Y-6211000D01*
X27603000Y-6257000D01*
X27509000Y-6285000D01*
X27411000Y-6295000D01*
X26311000Y-6295000D01*
X26214000Y-6285000D01*
X26120000Y-6257000D01*
X26034000Y-6211000D01*
X25958000Y-6149000D01*
X25896000Y-6073000D01*
X25849000Y-5986000D01*
X25821000Y-5893000D01*
X25811000Y-5795000D01*
X25821000Y-5697000D01*
X25849000Y-5604000D01*
X25896000Y-5517000D01*
X25958000Y-5441000D01*
X26034000Y-5379000D01*
X26120000Y-5333000D01*
X26214000Y-5305000D01*
X26311000Y-5295000D01*
X27411000Y-5295000D01*
X27509000Y-5305000D01*
G36*
X27509000Y-5305000D02*
G01*
X27603000Y-5333000D01*
X27689000Y-5379000D01*
X27765000Y-5441000D01*
X27827000Y-5517000D01*
X27873000Y-5604000D01*
X27902000Y-5697000D01*
X27911000Y-5795000D01*
X27902000Y-5893000D01*
X27873000Y-5986000D01*
X27827000Y-6073000D01*
X27765000Y-6149000D01*
X27689000Y-6211000D01*
X27603000Y-6257000D01*
X27509000Y-6285000D01*
X27411000Y-6295000D01*
X26311000Y-6295000D01*
X26214000Y-6285000D01*
X26120000Y-6257000D01*
X26034000Y-6211000D01*
X25958000Y-6149000D01*
X25896000Y-6073000D01*
X25849000Y-5986000D01*
X25821000Y-5893000D01*
X25811000Y-5795000D01*
X25821000Y-5697000D01*
X25849000Y-5604000D01*
X25896000Y-5517000D01*
X25958000Y-5441000D01*
X26034000Y-5379000D01*
X26120000Y-5333000D01*
X26214000Y-5305000D01*
X26311000Y-5295000D01*
X27411000Y-5295000D01*
X27509000Y-5305000D01*
G37*
X31609000Y-5305000D02*
X31703000Y-5333000D01*
X31789000Y-5379000D01*
X31865000Y-5441000D01*
X31927000Y-5517000D01*
X31973000Y-5604000D01*
X32002000Y-5697000D01*
X32011000Y-5795000D01*
X32002000Y-5893000D01*
X31973000Y-5986000D01*
X31927000Y-6073000D01*
X31865000Y-6149000D01*
X31789000Y-6211000D01*
X31703000Y-6257000D01*
X31609000Y-6285000D01*
X31511000Y-6295000D01*
X30611000Y-6295000D01*
X30514000Y-6285000D01*
X30420000Y-6257000D01*
X30334000Y-6211000D01*
X30258000Y-6149000D01*
X30196000Y-6073000D01*
X30149000Y-5986000D01*
X30121000Y-5893000D01*
X30111000Y-5795000D01*
X30121000Y-5697000D01*
X30149000Y-5604000D01*
X30196000Y-5517000D01*
X30258000Y-5441000D01*
X30334000Y-5379000D01*
X30420000Y-5333000D01*
X30514000Y-5305000D01*
X30611000Y-5295000D01*
X31511000Y-5295000D01*
X31609000Y-5305000D01*
G36*
X31609000Y-5305000D02*
G01*
X31703000Y-5333000D01*
X31789000Y-5379000D01*
X31865000Y-5441000D01*
X31927000Y-5517000D01*
X31973000Y-5604000D01*
X32002000Y-5697000D01*
X32011000Y-5795000D01*
X32002000Y-5893000D01*
X31973000Y-5986000D01*
X31927000Y-6073000D01*
X31865000Y-6149000D01*
X31789000Y-6211000D01*
X31703000Y-6257000D01*
X31609000Y-6285000D01*
X31511000Y-6295000D01*
X30611000Y-6295000D01*
X30514000Y-6285000D01*
X30420000Y-6257000D01*
X30334000Y-6211000D01*
X30258000Y-6149000D01*
X30196000Y-6073000D01*
X30149000Y-5986000D01*
X30121000Y-5893000D01*
X30111000Y-5795000D01*
X30121000Y-5697000D01*
X30149000Y-5604000D01*
X30196000Y-5517000D01*
X30258000Y-5441000D01*
X30334000Y-5379000D01*
X30420000Y-5333000D01*
X30514000Y-5305000D01*
X30611000Y-5295000D01*
X31511000Y-5295000D01*
X31609000Y-5305000D01*
G37*
%TD*%
D11*
%TO.C,R1*%
X17600000Y-12840000D03*
X18620000Y-12840000D03*
%TD*%
D12*
%TO.C,C7*%
X-16480000Y-6565000D03*
X-15520000Y-6565000D03*
%TD*%
D13*
%TO.C,R8*%
X-26910000Y-11380000D03*
X-27930000Y-11380000D03*
%TD*%
D14*
%TO.C,SW2*%
X10265000Y-12220000D03*
X10265000Y-7920000D03*
X12415000Y-12220000D03*
X12415000Y-7920000D03*
%TD*%
D15*
%TO.C,Y1*%
X-10870000Y-8280000D03*
X-10870000Y-5780000D03*
%TD*%
D16*
%TO.C,U1*%
X19400000Y-7716000D03*
X19400000Y-6766000D03*
X19400000Y-5816000D03*
X16800000Y-5816000D03*
X16800000Y-7716000D03*
%TD*%
D17*
%TO.C,C11*%
X-8310000Y-8320000D03*
X-9270000Y-8320000D03*
%TD*%
D18*
%TO.C,D1*%
X19177500Y-14230000D03*
X17602500Y-14230000D03*
%TD*%
D19*
%TO.C,SW3*%
X-20760000Y-8340000D03*
X-25060000Y-8340000D03*
X-20760000Y-6190000D03*
X-25060000Y-6190000D03*
%TD*%
D20*
%TO.C,C2*%
X20500000Y-6780000D03*
X20500000Y-5820000D03*
%TD*%
D13*
%TO.C,R10*%
X-15490000Y-8115000D03*
X-16510000Y-8115000D03*
%TD*%
%TO.C,R4*%
X18620000Y-9410000D03*
X17600000Y-9410000D03*
%TD*%
D12*
%TO.C,C4*%
X100000Y-16120000D03*
X1060000Y-16120000D03*
%TD*%
D17*
%TO.C,C10*%
X-8310000Y-5750000D03*
X-9270000Y-5750000D03*
%TD*%
D21*
%TO.C,USB1*%
X26099000Y-13320000D03*
X26099000Y-12520000D03*
D22*
X26099000Y-11370000D03*
X26099000Y-10370000D03*
X26099000Y-9870000D03*
X26099000Y-8870000D03*
D21*
X26099000Y-6920000D03*
X26099000Y-7720000D03*
D22*
X26099000Y-8370000D03*
X26099000Y-9370000D03*
X26099000Y-10870000D03*
X26099000Y-11870000D03*
%TD*%
D23*
%TO.C,C5*%
X15690000Y-6760000D03*
X15690000Y-7720000D03*
%TD*%
D11*
%TO.C,R9*%
X-27940000Y-8840000D03*
X-26920000Y-8840000D03*
%TD*%
D24*
%TO.C,Y2*%
X-10830000Y-12960000D03*
X-8630000Y-12960000D03*
X-8630000Y-11260000D03*
X-10830000Y-11260000D03*
%TD*%
D13*
%TO.C,R5*%
X-15490000Y-12215000D03*
X-16510000Y-12215000D03*
%TD*%
D17*
%TO.C,C6*%
X1070000Y-4140000D03*
X110000Y-4140000D03*
%TD*%
D25*
%TO.C,R7*%
X-7160000Y-11180000D03*
X-7160000Y-12200000D03*
%TD*%
D26*
%TO.C,U2*%
X-339239Y-5316674D03*
X-692792Y-5670227D03*
X-1046346Y-6023781D03*
X-1399899Y-6377334D03*
X-1753452Y-6730887D03*
X-2107006Y-7084441D03*
X-2460559Y-7437994D03*
X-2814113Y-7791548D03*
X-3167666Y-8145101D03*
X-3521219Y-8498654D03*
X-3874773Y-8852208D03*
X-4228326Y-9205761D03*
D27*
X-4228326Y-11044239D03*
X-3874773Y-11397792D03*
X-3521219Y-11751346D03*
X-3167666Y-12104899D03*
X-2814113Y-12458452D03*
X-2460559Y-12812006D03*
X-2107006Y-13165559D03*
X-1753452Y-13519113D03*
X-1399899Y-13872666D03*
X-1046346Y-14226219D03*
X-692792Y-14579773D03*
X-339239Y-14933326D03*
D26*
X1499239Y-14933326D03*
X1852792Y-14579773D03*
X2206346Y-14226219D03*
X2559899Y-13872666D03*
X2913452Y-13519113D03*
X3267006Y-13165559D03*
X3620559Y-12812006D03*
X3974113Y-12458452D03*
X4327666Y-12104899D03*
X4681219Y-11751346D03*
X5034773Y-11397792D03*
X5388326Y-11044239D03*
D27*
X5388326Y-9205761D03*
X5034773Y-8852208D03*
X4681219Y-8498654D03*
X4327666Y-8145101D03*
X3974113Y-7791548D03*
X3620559Y-7437994D03*
X3267006Y-7084441D03*
X2913452Y-6730887D03*
X2559899Y-6377334D03*
X2206346Y-6023781D03*
X1852792Y-5670227D03*
X1499239Y-5316674D03*
%TD*%
D12*
%TO.C,C8*%
X-11400000Y-9950000D03*
X-10440000Y-9950000D03*
%TD*%
D11*
%TO.C,R3*%
X17600000Y-11590000D03*
X18620000Y-11590000D03*
%TD*%
%TO.C,R2*%
X17600000Y-10500000D03*
X18620000Y-10500000D03*
%TD*%
D12*
%TO.C,C1*%
X-16480000Y-13715000D03*
X-15520000Y-13715000D03*
%TD*%
D28*
%TO.C,L1*%
X-16787500Y-10115000D03*
X-15212500Y-10115000D03*
%TD*%
D12*
%TO.C,C9*%
X10260000Y-13710000D03*
X11220000Y-13710000D03*
%TD*%
D17*
%TO.C,C3*%
X7230000Y-10160000D03*
X6270000Y-10160000D03*
%TD*%
D13*
%TO.C,R6*%
X11270000Y-6460000D03*
X10250000Y-6460000D03*
%TD*%
D12*
%TO.C,C12*%
X-11400000Y-14270000D03*
X-10440000Y-14270000D03*
%TD*%
D19*
%TO.C,SW1*%
X-25060000Y-11940000D03*
X-20760000Y-11940000D03*
X-25060000Y-14090000D03*
X-20760000Y-14090000D03*
%TD*%
M02*
