M48
; DRILL file {KiCad 7.0.5} date Thu Jun 29 00:32:09 2023
; FORMAT={-:-/ absolute / metric / decimal}
; #@! TF.CreationDate,2023-06-29T00:32:09+08:00
; #@! TF.GenerationSoftware,Kicad,Pcbnew,7.0.5
; #@! TF.FileFunction,MixedPlating,1,2
FMAT,2
METRIC
; #@! TA.AperFunction,Plated,PTH,ViaDrill
T1C0.300
; #@! TA.AperFunction,Plated,PTH,ViaDrill
T2C0.400
; #@! TA.AperFunction,Plated,PTH,ViaDrill
T3C0.500
; #@! TA.AperFunction,Plated,PTH,ComponentDrill
T4C0.600
; #@! TA.AperFunction,Plated,PTH,ComponentDrill
T5C1.000
; #@! TA.AperFunction,Plated,PTH,ComponentDrill
T6C1.200
; #@! TA.AperFunction,NonPlated,NPTH,ComponentDrill
T7C0.650
%
G90
G05
T1
X-30.323Y-8.833
X-28.75Y-7.485
X-28.75Y-10.1
X-28.75Y-11.38
X-27.21Y-16.97
X-25.86Y-4.78
X-25.66Y-9.32
X-24.652Y-16.97
X-23.21Y-4.78
X-22.095Y-16.97
X-19.537Y-16.97
X-16.98Y-16.97
X-16.48Y-4.9
X-15.52Y-5.66
X-14.46Y-16.97
X-14.1Y-10.1
X-12.71Y-14.48
X-12.54Y-4.9
X-12.54Y-13.13
X-10.275Y-3.745
X-6.77Y-3.42
X-5.23Y-8.27
X-5.22Y-9.21
X-5.22Y-7.61
X-5.21Y-10.83
X-3.95Y-6.31
X-2.18Y-16.09
X-1.889Y-9.585
X-0.9Y-9.11
X-0.82Y-3.18
X0.397Y-8.637
X0.58Y-7.34
X0.6Y-12.85
X2.145Y-4.085
X2.71Y-10.83
X3.99Y-3.64
X5.9Y-3.64
X6.205Y-8.415
X6.388Y-14.262
X6.4Y-13.43
X7.23Y-11.73
X8.97Y-12.22
X9.19Y-10.04
X11.55Y-3.64
X12.43Y-10.04
X14.0Y-3.64
X14.73Y-5.82
X16.47Y-3.64
X18.73Y-16.11
X19.11Y-3.64
X19.31Y-12.88
X20.506Y-8.85
X21.49Y-3.64
X27.03Y-9.87
X27.03Y-10.87
T2
X23.76Y-7.73
X23.76Y-12.53
T3
X14.14Y-7.7
T5
X-33.7Y-6.3
X-33.7Y-8.84
X-33.7Y-11.38
X-33.7Y-13.92
X-30.49Y-1.31
X-30.49Y-18.95
X-27.95Y-1.31
X-27.95Y-18.95
X-25.41Y-1.31
X-25.41Y-18.95
X-22.87Y-1.31
X-22.87Y-18.95
X-20.33Y-1.31
X-20.33Y-18.95
X-17.79Y-1.31
X-17.79Y-18.95
X-15.25Y-1.31
X-15.25Y-18.95
X-12.71Y-1.31
X-12.71Y-18.95
X-10.17Y-1.31
X-10.17Y-18.95
X-7.63Y-1.31
X-7.63Y-18.95
X-5.09Y-1.31
X-5.09Y-18.95
X-2.55Y-1.31
X-2.55Y-18.95
X-0.01Y-1.31
X-0.01Y-18.95
X2.53Y-1.31
X2.53Y-18.95
X5.07Y-1.31
X5.07Y-18.95
X7.61Y-1.31
X7.61Y-18.95
X10.15Y-1.31
X10.15Y-18.95
X12.69Y-1.31
X12.69Y-18.95
X15.23Y-1.31
X15.23Y-18.95
X17.77Y-1.31
X17.77Y-18.95
X20.31Y-1.31
X20.31Y-18.95
X22.85Y-1.31
X22.85Y-18.95
X25.39Y-1.31
X25.39Y-18.95
X27.93Y-1.31
X27.93Y-18.95
T6
X-33.41Y-2.53
X-33.41Y-17.74
X30.85Y-2.52
X30.85Y-17.74
T7
X27.361Y-7.23
X27.361Y-13.01
T4
G00X26.261Y-5.795
M15
G01X27.461Y-5.795
M16
G05
G00X26.261Y-14.445
M15
G01X27.461Y-14.445
M16
G05
G00X30.611Y-5.795
M15
G01X31.511Y-5.795
M16
G05
G00X30.611Y-14.445
M15
G01X31.511Y-14.445
M16
G05
T0
M30
