%TF.GenerationSoftware,KiCad,Pcbnew,7.0.9*%
%TF.CreationDate,2024-01-12T00:39:35+08:00*%
%TF.ProjectId,UINIO-MCU-GD32F103CBT6,55494e49-4f2d-44d4-9355-2d4744333246,Version 3.1.0*%
%TF.SameCoordinates,PX72c1710PY5584170*%
%TF.FileFunction,Copper,L2,Bot*%
%TF.FilePolarity,Positive*%
%FSLAX46Y46*%
G04 Gerber Fmt 4.6, Leading zero omitted, Abs format (unit mm)*
G04 Created by KiCad (PCBNEW 7.0.9) date 2024-01-12 00:39:35*
%MOMM*%
%LPD*%
G01*
G04 APERTURE LIST*
%TA.AperFunction,ComponentPad*%
%ADD10R,1.700000X1.700000*%
%TD*%
%TA.AperFunction,ComponentPad*%
%ADD11O,1.700000X1.700000*%
%TD*%
%TA.AperFunction,ComponentPad*%
%ADD12C,1.200000*%
%TD*%
%TA.AperFunction,ComponentPad*%
%ADD13O,2.100000X1.000000*%
%TD*%
%TA.AperFunction,ComponentPad*%
%ADD14O,1.900000X1.000000*%
%TD*%
%TA.AperFunction,ViaPad*%
%ADD15C,0.700000*%
%TD*%
%TA.AperFunction,ViaPad*%
%ADD16C,0.500000*%
%TD*%
%TA.AperFunction,ViaPad*%
%ADD17C,0.900000*%
%TD*%
%TA.AperFunction,ViaPad*%
%ADD18C,1.100000*%
%TD*%
%TA.AperFunction,Conductor*%
%ADD19C,0.300000*%
%TD*%
%TA.AperFunction,Conductor*%
%ADD20C,0.200000*%
%TD*%
%TA.AperFunction,Conductor*%
%ADD21C,0.500000*%
%TD*%
G04 APERTURE END LIST*
D10*
%TO.P,J3,1,Pin_1*%
%TO.N,GND*%
X63629060Y-6372130D03*
D11*
%TO.P,J3,2,Pin_2*%
%TO.N,/PA14{slash}SWCLK*%
X63629060Y-8912130D03*
%TO.P,J3,3,Pin_3*%
%TO.N,/PA13{slash}SWDIO*%
X63629060Y-11452130D03*
%TO.P,J3,4,Pin_4*%
%TO.N,/VDD_3.3V*%
X63629060Y-13992130D03*
%TD*%
D12*
%TO.P,HOLE\u002A\u002A,*%
%TO.N,*%
X-920940Y-2552130D03*
%TD*%
%TO.P,HOLE\u002A\u002A,*%
%TO.N,*%
X63339060Y-2552130D03*
%TD*%
%TO.P,HOLE\u002A\u002A,*%
%TO.N,*%
X63339060Y-17762130D03*
%TD*%
D13*
%TO.P,USB1,13,GND*%
%TO.N,GND*%
X3068060Y-5847130D03*
%TO.P,USB1,14,GND*%
X3068060Y-14497130D03*
D14*
%TO.P,USB1,15,GND*%
X-1131940Y-5847130D03*
%TO.P,USB1,16,GND*%
X-1131940Y-14497130D03*
%TD*%
D12*
%TO.P,HOLE\u002A\u002A,*%
%TO.N,*%
X-920940Y-17772130D03*
%TD*%
D10*
%TO.P,J1,1,Pin_1*%
%TO.N,GND*%
X1999060Y-1342130D03*
D11*
%TO.P,J1,2,Pin_2*%
%TO.N,/VDD_3.3V*%
X4539060Y-1342130D03*
%TO.P,J1,3,Pin_3*%
%TO.N,/PA13{slash}SWDIO*%
X7079060Y-1342130D03*
%TO.P,J1,4,Pin_4*%
%TO.N,/PA12*%
X9619060Y-1342130D03*
%TO.P,J1,5,Pin_5*%
%TO.N,/PA11*%
X12159060Y-1342130D03*
%TO.P,J1,6,Pin_6*%
%TO.N,/PA10*%
X14699060Y-1342130D03*
%TO.P,J1,7,Pin_7*%
%TO.N,/PA9*%
X17239060Y-1342130D03*
%TO.P,J1,8,Pin_8*%
%TO.N,/PA8*%
X19779060Y-1342130D03*
%TO.P,J1,9,Pin_9*%
%TO.N,/PB15*%
X22319060Y-1342130D03*
%TO.P,J1,10,Pin_10*%
%TO.N,/PB14*%
X24859060Y-1342130D03*
%TO.P,J1,11,Pin_11*%
%TO.N,/PB13*%
X27399060Y-1342130D03*
%TO.P,J1,12,Pin_12*%
%TO.N,/PB12*%
X29939060Y-1342130D03*
%TO.P,J1,13,Pin_13*%
%TO.N,GND*%
X32479060Y-1342130D03*
%TO.P,J1,14,Pin_14*%
%TO.N,/VDD_3.3V*%
X35019060Y-1342130D03*
%TO.P,J1,15,Pin_15*%
%TO.N,/PB11*%
X37559060Y-1342130D03*
%TO.P,J1,16,Pin_16*%
%TO.N,/PB10*%
X40099060Y-1342130D03*
%TO.P,J1,17,Pin_17*%
%TO.N,/PB2{slash}BOOT1*%
X42639060Y-1342130D03*
%TO.P,J1,18,Pin_18*%
%TO.N,/PB1*%
X45179060Y-1342130D03*
%TO.P,J1,19,Pin_19*%
%TO.N,/PB0*%
X47719060Y-1342130D03*
%TO.P,J1,20,Pin_20*%
%TO.N,/PA7*%
X50259060Y-1342130D03*
%TO.P,J1,21,Pin_21*%
%TO.N,/PA6*%
X52799060Y-1342130D03*
%TO.P,J1,22,Pin_22*%
%TO.N,/PA5*%
X55339060Y-1342130D03*
%TO.P,J1,23,Pin_23*%
%TO.N,/PA4*%
X57879060Y-1342130D03*
%TO.P,J1,24,Pin_24*%
%TO.N,/PA3*%
X60419060Y-1342130D03*
%TD*%
D10*
%TO.P,J2,1,Pin_1*%
%TO.N,GND*%
X1999060Y-18982130D03*
D11*
%TO.P,J2,2,Pin_2*%
%TO.N,/VDD_5V*%
X4539060Y-18982130D03*
%TO.P,J2,3,Pin_3*%
%TO.N,/PA14{slash}SWCLK*%
X7079060Y-18982130D03*
%TO.P,J2,4,Pin_4*%
%TO.N,/PA15*%
X9619060Y-18982130D03*
%TO.P,J2,5,Pin_5*%
%TO.N,/PB3*%
X12159060Y-18982130D03*
%TO.P,J2,6,Pin_6*%
%TO.N,/PB4*%
X14699060Y-18982130D03*
%TO.P,J2,7,Pin_7*%
%TO.N,/PB5*%
X17239060Y-18982130D03*
%TO.P,J2,8,Pin_8*%
%TO.N,/PB6*%
X19779060Y-18982130D03*
%TO.P,J2,9,Pin_9*%
%TO.N,/PB7*%
X22319060Y-18982130D03*
%TO.P,J2,10,Pin_10*%
%TO.N,/BOOT0*%
X24859060Y-18982130D03*
%TO.P,J2,11,Pin_11*%
%TO.N,/PB8*%
X27399060Y-18982130D03*
%TO.P,J2,12,Pin_12*%
%TO.N,/PB9*%
X29939060Y-18982130D03*
%TO.P,J2,13,Pin_13*%
%TO.N,GND*%
X32479060Y-18982130D03*
%TO.P,J2,14,Pin_14*%
%TO.N,/VDD_3.3V*%
X35019060Y-18982130D03*
%TO.P,J2,15,Pin_15*%
%TO.N,/VBAT*%
X37559060Y-18982130D03*
%TO.P,J2,16,Pin_16*%
%TO.N,/PC13*%
X40099060Y-18982130D03*
%TO.P,J2,17,Pin_17*%
%TO.N,/VDD_3.3V*%
X42639060Y-18982130D03*
%TO.P,J2,18,Pin_18*%
%TO.N,GND*%
X45179060Y-18982130D03*
%TO.P,J2,19,Pin_19*%
%TO.N,/NRST*%
X47719060Y-18982130D03*
%TO.P,J2,20,Pin_20*%
%TO.N,/VDD_3.3V*%
X50259060Y-18982130D03*
%TO.P,J2,21,Pin_21*%
%TO.N,GND*%
X52799060Y-18982130D03*
%TO.P,J2,22,Pin_22*%
%TO.N,/PA0*%
X55339060Y-18982130D03*
%TO.P,J2,23,Pin_23*%
%TO.N,/PA1*%
X57879060Y-18982130D03*
%TO.P,J2,24,Pin_24*%
%TO.N,/PA2*%
X60419060Y-18982130D03*
%TD*%
D15*
%TO.N,GND*%
X20739060Y-10252130D03*
D16*
X18379060Y-16652130D03*
X58679060Y-12806836D03*
X10819060Y-16652130D03*
X55789060Y-15512130D03*
D15*
X29329060Y-7442130D03*
D16*
X10910000Y-3410000D03*
X32109060Y-4202130D03*
X15929060Y-16652130D03*
X15199060Y-14472130D03*
X9610000Y-10350000D03*
X46909060Y-3322130D03*
X44389060Y-3322130D03*
D15*
X29349060Y-12952130D03*
D16*
X53139060Y-15512130D03*
X36699060Y-16872130D03*
X57139060Y-3322130D03*
X8439060Y-16652130D03*
D15*
X17499060Y-10252130D03*
X42469060Y-7162130D03*
D16*
X49466560Y-3322130D03*
X24029060Y-16652130D03*
X52024060Y-3322130D03*
D15*
X27784060Y-16207130D03*
X46409060Y-15392130D03*
D16*
X25939060Y-16652130D03*
X58679060Y-10192130D03*
X11309060Y-4630000D03*
D15*
X42469060Y-15392130D03*
X35139060Y-9462130D03*
D16*
X9610000Y-8150000D03*
D15*
X27219060Y-9461630D03*
D16*
X55589060Y-10972130D03*
D15*
X22699060Y-8562130D03*
D16*
X54581560Y-3322130D03*
X13459060Y-16652130D03*
%TO.N,/PB2{slash}BOOT1*%
X42639060Y-5811630D03*
D17*
%TO.N,/VDD_5V*%
X6169060Y-7762130D03*
X6169060Y-12562130D03*
D15*
%TO.N,/VDD_3.3V*%
X30749060Y-17112130D03*
X33879060Y-13982130D03*
X10619060Y-7412130D03*
X40204060Y-16547130D03*
D18*
X15789060Y-12592130D03*
D16*
%TO.N,/BOOT0*%
X31818560Y-10706736D03*
X45449060Y-14632130D03*
%TO.N,/NRST*%
X20959060Y-8072130D03*
X29532236Y-11655305D03*
%TO.N,/PA13{slash}SWDIO*%
X23529060Y-6862130D03*
X60251719Y-11459471D03*
%TO.N,/PA12*%
X23540885Y-6030306D03*
%TO.N,/PA14{slash}SWCLK*%
X23724060Y-11877130D03*
X58679060Y-8912130D03*
%TO.N,/PA0*%
X35148768Y-12681838D03*
%TO.N,/PA1*%
X35159060Y-12022130D03*
%TO.N,/PA2*%
X35149060Y-11082130D03*
%TO.N,Net-(U2-VSSA)*%
X44029060Y-10192130D03*
X30829060Y-11182130D03*
%TO.N,/USB_Data-*%
X2899060Y-9422130D03*
X2899060Y-10422130D03*
%TO.N,Net-(USB1-CC2)*%
X13620000Y-11450000D03*
X9610000Y-11450000D03*
%TD*%
D19*
%TO.N,GND*%
X35139060Y-9462130D02*
X27219560Y-9462130D01*
X23819060Y-7442130D02*
X22699060Y-8562130D01*
D20*
X27219560Y-9462130D02*
X27219060Y-9461630D01*
D19*
X20739060Y-11442130D02*
X20739060Y-10252130D01*
D21*
X20739060Y-10252130D02*
X17499060Y-10252130D01*
D19*
X22249060Y-12952130D02*
X20739060Y-11442130D01*
X29349060Y-12952130D02*
X22249060Y-12952130D01*
X29329060Y-7442130D02*
X23819060Y-7442130D01*
D20*
%TO.N,/PB2{slash}BOOT1*%
X42639060Y-5811630D02*
X42639060Y-1342130D01*
D21*
%TO.N,/VDD_5V*%
X6169060Y-7782130D02*
X6169060Y-12562130D01*
D19*
%TO.N,/VDD_3.3V*%
X15789060Y-12582130D02*
X15789060Y-12592130D01*
X37639060Y-13982130D02*
X40204060Y-16547130D01*
X33879060Y-13982130D02*
X30749060Y-17112130D01*
X33879060Y-13982130D02*
X17179060Y-13982130D01*
X10619060Y-7412130D02*
X15789060Y-12582130D01*
X10619060Y-7412130D02*
X4549060Y-1342130D01*
X33879060Y-13982130D02*
X37639060Y-13982130D01*
X17179060Y-13982130D02*
X15789060Y-12592130D01*
X40204060Y-16547130D02*
X42639060Y-18982130D01*
D20*
%TO.N,/BOOT0*%
X43979060Y-13162130D02*
X45449060Y-14632130D01*
X31818560Y-10706736D02*
X34273954Y-13162130D01*
X34273954Y-13162130D02*
X43979060Y-13162130D01*
%TO.N,/NRST*%
X29532236Y-11655305D02*
X27455885Y-11655305D01*
X27455885Y-11655305D02*
X26599060Y-12512130D01*
X23239060Y-12512130D02*
X21769060Y-11042130D01*
X32342865Y-11655305D02*
X34149690Y-13462130D01*
X29532236Y-11655305D02*
X32342865Y-11655305D01*
X42199060Y-13462130D02*
X47719060Y-18982130D01*
X34149690Y-13462130D02*
X42199060Y-13462130D01*
X26599060Y-12512130D02*
X23239060Y-12512130D01*
X21769060Y-8882130D02*
X20959060Y-8072130D01*
X21769060Y-11042130D02*
X21769060Y-8882130D01*
%TO.N,/PA13{slash}SWDIO*%
X60251719Y-11459471D02*
X60279060Y-11432130D01*
X59088560Y-6261630D02*
X24129560Y-6261630D01*
X60279060Y-7452130D02*
X59088560Y-6261630D01*
X12639060Y-6892130D02*
X7089060Y-1342130D01*
X23549060Y-6892130D02*
X12639060Y-6892130D01*
X60279060Y-11432130D02*
X60279060Y-7452130D01*
X24129560Y-6261630D02*
X23529060Y-6862130D01*
%TO.N,/PA12*%
X14319060Y-6032130D02*
X9629060Y-1342130D01*
X23540885Y-6030306D02*
X23539061Y-6032130D01*
X23539061Y-6032130D02*
X14319060Y-6032130D01*
%TO.N,/PA14{slash}SWCLK*%
X57949060Y-8182130D02*
X58679060Y-8912130D01*
X27419060Y-8182130D02*
X57949060Y-8182130D01*
X23724060Y-11877130D02*
X27419060Y-8182130D01*
%TO.N,/PA0*%
X49038768Y-12681838D02*
X55339060Y-18982130D01*
X35148768Y-12681838D02*
X49038768Y-12681838D01*
%TO.N,/PA1*%
X35159060Y-12022130D02*
X50919060Y-12022130D01*
X50919060Y-12022130D02*
X57879060Y-18982130D01*
%TO.N,/PA2*%
X52519060Y-11082130D02*
X60419060Y-18982130D01*
X35149060Y-11082130D02*
X52519060Y-11082130D01*
%TO.N,Net-(U2-VSSA)*%
X30829060Y-11182130D02*
X30829060Y-10602130D01*
X30829060Y-10602130D02*
X31249060Y-10182130D01*
X44019060Y-10182130D02*
X44029060Y-10192130D01*
X31249060Y-10182130D02*
X44019060Y-10182130D01*
%TO.N,/USB_Data-*%
X2899060Y-10422130D02*
X2899060Y-9422130D01*
%TO.N,Net-(USB1-CC2)*%
X9610000Y-11450000D02*
X13620000Y-11450000D01*
%TD*%
%TA.AperFunction,Conductor*%
%TO.N,GND*%
G36*
X598660Y-272315D02*
G01*
X644415Y-325119D01*
X654910Y-389886D01*
X649060Y-444285D01*
X649060Y-1092130D01*
X1565374Y-1092130D01*
X1539567Y-1132286D01*
X1499060Y-1270241D01*
X1499060Y-1414019D01*
X1539567Y-1551974D01*
X1565374Y-1592130D01*
X649060Y-1592130D01*
X649060Y-2239974D01*
X655461Y-2299502D01*
X655463Y-2299509D01*
X705705Y-2434216D01*
X705709Y-2434223D01*
X791869Y-2549317D01*
X791872Y-2549320D01*
X906966Y-2635480D01*
X906973Y-2635484D01*
X1041680Y-2685726D01*
X1041687Y-2685728D01*
X1101215Y-2692129D01*
X1101232Y-2692130D01*
X1749060Y-2692130D01*
X1749060Y-1777631D01*
X1856745Y-1826810D01*
X1963297Y-1842130D01*
X2034823Y-1842130D01*
X2141375Y-1826810D01*
X2249060Y-1777631D01*
X2249060Y-2692130D01*
X2896888Y-2692130D01*
X2896904Y-2692129D01*
X2956432Y-2685728D01*
X2956439Y-2685726D01*
X3091146Y-2635484D01*
X3091153Y-2635480D01*
X3206247Y-2549320D01*
X3206250Y-2549317D01*
X3292410Y-2434223D01*
X3292414Y-2434216D01*
X3338741Y-2310007D01*
X3380612Y-2254073D01*
X3446076Y-2229656D01*
X3514349Y-2244507D01*
X3546149Y-2269353D01*
X3615820Y-2345036D01*
X3793484Y-2483319D01*
X3793485Y-2483319D01*
X3793487Y-2483321D01*
X3915438Y-2549317D01*
X3991486Y-2590472D01*
X4007539Y-2595982D01*
X4021433Y-2600753D01*
X4039596Y-2608661D01*
X4050214Y-2614334D01*
X5286416Y-3062616D01*
X5341881Y-3082729D01*
X5387290Y-3111620D01*
X9579429Y-7303758D01*
X9601261Y-7333277D01*
X9837218Y-7777560D01*
X9851934Y-7803427D01*
X9854960Y-7807821D01*
X9854893Y-7807866D01*
X9862860Y-7819355D01*
X9920691Y-7919521D01*
X10041441Y-8053629D01*
X10041444Y-8053631D01*
X10041447Y-8053634D01*
X10187445Y-8159708D01*
X10224772Y-8176327D01*
X10247484Y-8189481D01*
X10253626Y-8193968D01*
X10253629Y-8193970D01*
X10384240Y-8263337D01*
X10697908Y-8429925D01*
X10727427Y-8451757D01*
X12905489Y-10629819D01*
X12938974Y-10691142D01*
X12933990Y-10760834D01*
X12892118Y-10816767D01*
X12826654Y-10841184D01*
X12817808Y-10841500D01*
X10226112Y-10841500D01*
X10187901Y-10835466D01*
X10088712Y-10803337D01*
X9874149Y-10733836D01*
X9864982Y-10731195D01*
X9841808Y-10724519D01*
X9836465Y-10723477D01*
X9836540Y-10723090D01*
X9815933Y-10718463D01*
X9795515Y-10711319D01*
X9779850Y-10705838D01*
X9779848Y-10705837D01*
X9779843Y-10705836D01*
X9610004Y-10686701D01*
X9609996Y-10686701D01*
X9440155Y-10705836D01*
X9440150Y-10705837D01*
X9278816Y-10762291D01*
X9134091Y-10853228D01*
X9013228Y-10974091D01*
X8922291Y-11118816D01*
X8865837Y-11280150D01*
X8865836Y-11280155D01*
X8846701Y-11449996D01*
X8846701Y-11450003D01*
X8865836Y-11619844D01*
X8865837Y-11619849D01*
X8922291Y-11781183D01*
X8993646Y-11894744D01*
X9013229Y-11925909D01*
X9134091Y-12046771D01*
X9278817Y-12137709D01*
X9433914Y-12191980D01*
X9440150Y-12194162D01*
X9440155Y-12194163D01*
X9609996Y-12213299D01*
X9610000Y-12213299D01*
X9610004Y-12213299D01*
X9779843Y-12194163D01*
X9779843Y-12194162D01*
X9779850Y-12194162D01*
X9836302Y-12174407D01*
X9856209Y-12169250D01*
X9874149Y-12166163D01*
X10187899Y-12064534D01*
X10226110Y-12058500D01*
X13003889Y-12058500D01*
X13042100Y-12064534D01*
X13355849Y-12166163D01*
X13388194Y-12175480D01*
X13388207Y-12175481D01*
X13393540Y-12176522D01*
X13393463Y-12176913D01*
X13414064Y-12181534D01*
X13450150Y-12194162D01*
X13450154Y-12194162D01*
X13450156Y-12194163D01*
X13619996Y-12213299D01*
X13620000Y-12213299D01*
X13620004Y-12213299D01*
X13789844Y-12194163D01*
X13789847Y-12194162D01*
X13789850Y-12194162D01*
X13951183Y-12137709D01*
X14095909Y-12046771D01*
X14121494Y-12021186D01*
X14182817Y-11987701D01*
X14252509Y-11992685D01*
X14296856Y-12021186D01*
X14453942Y-12178272D01*
X14480700Y-12218207D01*
X14579511Y-12455037D01*
X14802385Y-12989224D01*
X14802546Y-12989608D01*
X14803900Y-12992632D01*
X14805797Y-12997703D01*
X14806401Y-12999161D01*
X14813639Y-13012703D01*
X14825852Y-13038131D01*
X14828466Y-13042440D01*
X14835119Y-13052888D01*
X14904687Y-13183041D01*
X14904691Y-13183048D01*
X15036965Y-13344224D01*
X15194609Y-13473599D01*
X15198143Y-13476499D01*
X15382029Y-13574789D01*
X15382031Y-13574789D01*
X15382032Y-13574790D01*
X15384779Y-13575928D01*
X15385950Y-13576353D01*
X15388005Y-13577228D01*
X15388008Y-13577230D01*
X16158275Y-13905294D01*
X16197367Y-13931697D01*
X16652340Y-14386670D01*
X16662490Y-14399338D01*
X16662666Y-14399194D01*
X16667640Y-14405206D01*
X16720745Y-14455076D01*
X16742721Y-14477052D01*
X16748611Y-14481621D01*
X16753054Y-14485416D01*
X16788924Y-14519100D01*
X16788926Y-14519101D01*
X16788927Y-14519102D01*
X16807863Y-14529512D01*
X16824109Y-14540183D01*
X16841192Y-14553434D01*
X16841197Y-14553436D01*
X16886356Y-14572978D01*
X16891604Y-14575550D01*
X16923294Y-14592970D01*
X16934723Y-14599254D01*
X16950883Y-14603402D01*
X16955643Y-14604625D01*
X16974046Y-14610925D01*
X16993884Y-14619510D01*
X17031020Y-14625391D01*
X17042491Y-14627208D01*
X17048206Y-14628391D01*
X17095872Y-14640630D01*
X17117479Y-14640630D01*
X17136876Y-14642156D01*
X17158212Y-14645536D01*
X17207204Y-14640904D01*
X17213041Y-14640630D01*
X31989939Y-14640630D01*
X32056978Y-14660315D01*
X32102733Y-14713119D01*
X32112677Y-14782277D01*
X32083652Y-14845833D01*
X32077623Y-14852306D01*
X31821892Y-15108038D01*
X30857430Y-16072498D01*
X30827911Y-16094330D01*
X30663406Y-16181699D01*
X30383628Y-16330289D01*
X30373804Y-16335878D01*
X30353082Y-16347667D01*
X30352906Y-16347359D01*
X30340717Y-16354190D01*
X30317444Y-16364552D01*
X30171448Y-16470624D01*
X30171441Y-16470630D01*
X30050692Y-16604738D01*
X29960460Y-16761024D01*
X29904695Y-16932653D01*
X29885831Y-17112130D01*
X29904695Y-17291606D01*
X29925879Y-17356804D01*
X29953095Y-17440567D01*
X29959836Y-17461312D01*
X29961831Y-17531153D01*
X29925750Y-17590986D01*
X29863049Y-17621814D01*
X29841905Y-17623630D01*
X29826491Y-17623630D01*
X29604422Y-17660686D01*
X29391490Y-17733786D01*
X29391479Y-17733791D01*
X29193487Y-17840938D01*
X29193482Y-17840942D01*
X29015821Y-17979222D01*
X29015816Y-17979227D01*
X28863344Y-18144853D01*
X28863336Y-18144864D01*
X28772868Y-18283336D01*
X28719722Y-18328692D01*
X28650491Y-18338116D01*
X28587155Y-18308614D01*
X28565252Y-18283336D01*
X28494193Y-18174573D01*
X28474782Y-18144862D01*
X28474779Y-18144859D01*
X28474775Y-18144853D01*
X28322303Y-17979227D01*
X28322298Y-17979222D01*
X28203857Y-17887035D01*
X28144636Y-17840941D01*
X28144635Y-17840940D01*
X28144632Y-17840938D01*
X27946640Y-17733791D01*
X27946637Y-17733789D01*
X27946634Y-17733788D01*
X27946631Y-17733787D01*
X27946629Y-17733786D01*
X27733697Y-17660686D01*
X27511629Y-17623630D01*
X27286491Y-17623630D01*
X27064422Y-17660686D01*
X26851490Y-17733786D01*
X26851479Y-17733791D01*
X26653487Y-17840938D01*
X26653482Y-17840942D01*
X26475821Y-17979222D01*
X26475816Y-17979227D01*
X26323344Y-18144853D01*
X26323336Y-18144864D01*
X26232868Y-18283336D01*
X26179722Y-18328692D01*
X26110491Y-18338116D01*
X26047155Y-18308614D01*
X26025252Y-18283336D01*
X25954193Y-18174573D01*
X25934782Y-18144862D01*
X25934779Y-18144859D01*
X25934775Y-18144853D01*
X25782303Y-17979227D01*
X25782298Y-17979222D01*
X25663857Y-17887035D01*
X25604636Y-17840941D01*
X25604635Y-17840940D01*
X25604632Y-17840938D01*
X25406640Y-17733791D01*
X25406637Y-17733789D01*
X25406634Y-17733788D01*
X25406631Y-17733787D01*
X25406629Y-17733786D01*
X25193697Y-17660686D01*
X24971629Y-17623630D01*
X24746491Y-17623630D01*
X24524422Y-17660686D01*
X24311490Y-17733786D01*
X24311479Y-17733791D01*
X24113487Y-17840938D01*
X24113482Y-17840942D01*
X23935821Y-17979222D01*
X23935816Y-17979227D01*
X23783344Y-18144853D01*
X23783336Y-18144864D01*
X23692868Y-18283336D01*
X23639722Y-18328692D01*
X23570491Y-18338116D01*
X23507155Y-18308614D01*
X23485252Y-18283336D01*
X23414193Y-18174573D01*
X23394782Y-18144862D01*
X23394779Y-18144859D01*
X23394775Y-18144853D01*
X23242303Y-17979227D01*
X23242298Y-17979222D01*
X23123857Y-17887035D01*
X23064636Y-17840941D01*
X23064635Y-17840940D01*
X23064632Y-17840938D01*
X22866640Y-17733791D01*
X22866637Y-17733789D01*
X22866634Y-17733788D01*
X22866631Y-17733787D01*
X22866629Y-17733786D01*
X22653697Y-17660686D01*
X22431629Y-17623630D01*
X22206491Y-17623630D01*
X21984422Y-17660686D01*
X21771490Y-17733786D01*
X21771479Y-17733791D01*
X21573487Y-17840938D01*
X21573482Y-17840942D01*
X21395821Y-17979222D01*
X21395816Y-17979227D01*
X21243344Y-18144853D01*
X21243336Y-18144864D01*
X21152868Y-18283336D01*
X21099722Y-18328692D01*
X21030491Y-18338116D01*
X20967155Y-18308614D01*
X20945252Y-18283336D01*
X20874193Y-18174573D01*
X20854782Y-18144862D01*
X20854779Y-18144859D01*
X20854775Y-18144853D01*
X20702303Y-17979227D01*
X20702298Y-17979222D01*
X20583857Y-17887035D01*
X20524636Y-17840941D01*
X20524635Y-17840940D01*
X20524632Y-17840938D01*
X20326640Y-17733791D01*
X20326637Y-17733789D01*
X20326634Y-17733788D01*
X20326631Y-17733787D01*
X20326629Y-17733786D01*
X20113697Y-17660686D01*
X19891629Y-17623630D01*
X19666491Y-17623630D01*
X19444422Y-17660686D01*
X19231490Y-17733786D01*
X19231479Y-17733791D01*
X19033487Y-17840938D01*
X19033482Y-17840942D01*
X18855821Y-17979222D01*
X18855816Y-17979227D01*
X18703344Y-18144853D01*
X18703336Y-18144864D01*
X18612868Y-18283336D01*
X18559722Y-18328692D01*
X18490491Y-18338116D01*
X18427155Y-18308614D01*
X18405252Y-18283336D01*
X18334193Y-18174573D01*
X18314782Y-18144862D01*
X18314779Y-18144859D01*
X18314775Y-18144853D01*
X18162303Y-17979227D01*
X18162298Y-17979222D01*
X18043857Y-17887035D01*
X17984636Y-17840941D01*
X17984635Y-17840940D01*
X17984632Y-17840938D01*
X17786640Y-17733791D01*
X17786637Y-17733789D01*
X17786634Y-17733788D01*
X17786631Y-17733787D01*
X17786629Y-17733786D01*
X17573697Y-17660686D01*
X17351629Y-17623630D01*
X17126491Y-17623630D01*
X16904422Y-17660686D01*
X16691490Y-17733786D01*
X16691479Y-17733791D01*
X16493487Y-17840938D01*
X16493482Y-17840942D01*
X16315821Y-17979222D01*
X16315816Y-17979227D01*
X16163344Y-18144853D01*
X16163336Y-18144864D01*
X16072868Y-18283336D01*
X16019722Y-18328692D01*
X15950491Y-18338116D01*
X15887155Y-18308614D01*
X15865252Y-18283336D01*
X15794193Y-18174573D01*
X15774782Y-18144862D01*
X15774779Y-18144859D01*
X15774775Y-18144853D01*
X15622303Y-17979227D01*
X15622298Y-17979222D01*
X15503857Y-17887035D01*
X15444636Y-17840941D01*
X15444635Y-17840940D01*
X15444632Y-17840938D01*
X15246640Y-17733791D01*
X15246637Y-17733789D01*
X15246634Y-17733788D01*
X15246631Y-17733787D01*
X15246629Y-17733786D01*
X15033697Y-17660686D01*
X14811629Y-17623630D01*
X14586491Y-17623630D01*
X14364422Y-17660686D01*
X14151490Y-17733786D01*
X14151479Y-17733791D01*
X13953487Y-17840938D01*
X13953482Y-17840942D01*
X13775821Y-17979222D01*
X13775816Y-17979227D01*
X13623344Y-18144853D01*
X13623336Y-18144864D01*
X13532868Y-18283336D01*
X13479722Y-18328692D01*
X13410491Y-18338116D01*
X13347155Y-18308614D01*
X13325252Y-18283336D01*
X13254193Y-18174573D01*
X13234782Y-18144862D01*
X13234779Y-18144859D01*
X13234775Y-18144853D01*
X13082303Y-17979227D01*
X13082298Y-17979222D01*
X12963857Y-17887035D01*
X12904636Y-17840941D01*
X12904635Y-17840940D01*
X12904632Y-17840938D01*
X12706640Y-17733791D01*
X12706637Y-17733789D01*
X12706634Y-17733788D01*
X12706631Y-17733787D01*
X12706629Y-17733786D01*
X12493697Y-17660686D01*
X12271629Y-17623630D01*
X12046491Y-17623630D01*
X11824422Y-17660686D01*
X11611490Y-17733786D01*
X11611479Y-17733791D01*
X11413487Y-17840938D01*
X11413482Y-17840942D01*
X11235821Y-17979222D01*
X11235816Y-17979227D01*
X11083344Y-18144853D01*
X11083336Y-18144864D01*
X10992868Y-18283336D01*
X10939722Y-18328692D01*
X10870491Y-18338116D01*
X10807155Y-18308614D01*
X10785252Y-18283336D01*
X10714193Y-18174573D01*
X10694782Y-18144862D01*
X10694779Y-18144859D01*
X10694775Y-18144853D01*
X10542303Y-17979227D01*
X10542298Y-17979222D01*
X10423857Y-17887035D01*
X10364636Y-17840941D01*
X10364635Y-17840940D01*
X10364632Y-17840938D01*
X10166640Y-17733791D01*
X10166637Y-17733789D01*
X10166634Y-17733788D01*
X10166631Y-17733787D01*
X10166629Y-17733786D01*
X9953697Y-17660686D01*
X9731629Y-17623630D01*
X9506491Y-17623630D01*
X9284422Y-17660686D01*
X9071490Y-17733786D01*
X9071479Y-17733791D01*
X8873487Y-17840938D01*
X8873482Y-17840942D01*
X8695821Y-17979222D01*
X8695816Y-17979227D01*
X8543344Y-18144853D01*
X8543336Y-18144864D01*
X8452868Y-18283336D01*
X8399722Y-18328692D01*
X8330491Y-18338116D01*
X8267155Y-18308614D01*
X8245252Y-18283336D01*
X8174193Y-18174573D01*
X8154782Y-18144862D01*
X8154779Y-18144859D01*
X8154775Y-18144853D01*
X8002303Y-17979227D01*
X8002298Y-17979222D01*
X7883857Y-17887035D01*
X7824636Y-17840941D01*
X7824635Y-17840940D01*
X7824632Y-17840938D01*
X7626640Y-17733791D01*
X7626637Y-17733789D01*
X7626634Y-17733788D01*
X7626631Y-17733787D01*
X7626629Y-17733786D01*
X7413697Y-17660686D01*
X7191629Y-17623630D01*
X6966491Y-17623630D01*
X6744422Y-17660686D01*
X6531490Y-17733786D01*
X6531479Y-17733791D01*
X6333487Y-17840938D01*
X6333482Y-17840942D01*
X6155821Y-17979222D01*
X6155816Y-17979227D01*
X6003344Y-18144853D01*
X6003336Y-18144864D01*
X5912868Y-18283336D01*
X5859722Y-18328692D01*
X5790491Y-18338116D01*
X5727155Y-18308614D01*
X5705252Y-18283336D01*
X5634193Y-18174573D01*
X5614782Y-18144862D01*
X5614779Y-18144859D01*
X5614775Y-18144853D01*
X5462303Y-17979227D01*
X5462298Y-17979222D01*
X5343857Y-17887035D01*
X5284636Y-17840941D01*
X5284635Y-17840940D01*
X5284632Y-17840938D01*
X5086640Y-17733791D01*
X5086637Y-17733789D01*
X5086634Y-17733788D01*
X5086631Y-17733787D01*
X5086629Y-17733786D01*
X4873697Y-17660686D01*
X4651629Y-17623630D01*
X4426491Y-17623630D01*
X4204422Y-17660686D01*
X3991490Y-17733786D01*
X3991479Y-17733791D01*
X3793487Y-17840938D01*
X3793482Y-17840942D01*
X3615821Y-17979222D01*
X3564792Y-18034655D01*
X3546436Y-18054595D01*
X3546152Y-18054903D01*
X3486265Y-18090893D01*
X3416427Y-18088792D01*
X3358811Y-18049267D01*
X3338741Y-18014252D01*
X3292414Y-17890043D01*
X3292410Y-17890036D01*
X3206250Y-17774942D01*
X3206247Y-17774939D01*
X3091153Y-17688779D01*
X3091146Y-17688775D01*
X2956439Y-17638533D01*
X2956432Y-17638531D01*
X2896904Y-17632130D01*
X2249060Y-17632130D01*
X2249060Y-18546628D01*
X2141375Y-18497450D01*
X2034823Y-18482130D01*
X1963297Y-18482130D01*
X1856745Y-18497450D01*
X1749060Y-18546628D01*
X1749060Y-17632130D01*
X1101215Y-17632130D01*
X1041687Y-17638531D01*
X1041680Y-17638533D01*
X906973Y-17688775D01*
X906966Y-17688779D01*
X791872Y-17774939D01*
X791869Y-17774942D01*
X705709Y-17890036D01*
X705705Y-17890043D01*
X655463Y-18024750D01*
X655461Y-18024757D01*
X649060Y-18084285D01*
X649060Y-18732130D01*
X1565374Y-18732130D01*
X1539567Y-18772286D01*
X1499060Y-18910241D01*
X1499060Y-19054019D01*
X1539567Y-19191974D01*
X1565374Y-19232130D01*
X649060Y-19232130D01*
X649060Y-19879974D01*
X655985Y-19944374D01*
X643580Y-20013134D01*
X595970Y-20064271D01*
X532696Y-20081630D01*
X-19195Y-20081630D01*
X-22673Y-20081532D01*
X-325303Y-20064533D01*
X-332217Y-20063754D01*
X-629325Y-20013269D01*
X-636105Y-20011722D01*
X-780895Y-19970007D01*
X-925680Y-19928294D01*
X-932247Y-19925996D01*
X-1210679Y-19810663D01*
X-1216948Y-19807644D01*
X-1456078Y-19675480D01*
X-1480704Y-19661869D01*
X-1486586Y-19658174D01*
X-1641183Y-19548480D01*
X-1732367Y-19483780D01*
X-1737807Y-19479442D01*
X-1962517Y-19278629D01*
X-1967437Y-19273709D01*
X-2168248Y-19049001D01*
X-2172586Y-19043561D01*
X-2346977Y-18797780D01*
X-2350678Y-18791889D01*
X-2402071Y-18698902D01*
X-2496457Y-18528125D01*
X-2499470Y-18521867D01*
X-2506383Y-18505177D01*
X-2614803Y-18243430D01*
X-2617095Y-18236878D01*
X-2700525Y-17947292D01*
X-2702073Y-17940509D01*
X-2710649Y-17890036D01*
X-2730683Y-17772133D01*
X-2034189Y-17772133D01*
X-2027133Y-17848288D01*
X-2026939Y-17851057D01*
X-2023149Y-17930600D01*
X-2023148Y-17930605D01*
X-2019385Y-17946116D01*
X-2016419Y-17963904D01*
X-2015235Y-17976687D01*
X-1993068Y-18054595D01*
X-1973239Y-18136331D01*
X-1973238Y-18136336D01*
X-1968049Y-18147698D01*
X-1961581Y-18165264D01*
X-1959018Y-18174271D01*
X-1959012Y-18174287D01*
X-1921529Y-18249561D01*
X-1885301Y-18328892D01*
X-1885293Y-18328906D01*
X-1880061Y-18336253D01*
X-1870072Y-18352901D01*
X-1867444Y-18358178D01*
X-1867442Y-18358182D01*
X-1854298Y-18375587D01*
X-1814897Y-18427762D01*
X-1764459Y-18498592D01*
X-1762495Y-18501350D01*
X-1758481Y-18505177D01*
X-1745103Y-18520187D01*
X-1743648Y-18522113D01*
X-1743640Y-18522123D01*
X-1676901Y-18582963D01*
X-1609293Y-18647427D01*
X-1609292Y-18647428D01*
X-1609290Y-18647429D01*
X-1609286Y-18647433D01*
X-1607542Y-18648554D01*
X-1596421Y-18657100D01*
X-1596396Y-18657068D01*
X-1591821Y-18660523D01*
X-1576434Y-18670050D01*
X-1512386Y-18709707D01*
X-1431194Y-18761886D01*
X-1431192Y-18761887D01*
X-1425940Y-18764595D01*
X-1425974Y-18764659D01*
X-1422452Y-18766438D01*
X-1422290Y-18766114D01*
X-1417167Y-18768664D01*
X-1417158Y-18768670D01*
X-1327158Y-18803535D01*
X-1234661Y-18840566D01*
X-1234423Y-18840612D01*
X-1229188Y-18841859D01*
X-1225604Y-18842878D01*
X-1225602Y-18842878D01*
X-1225595Y-18842881D01*
X-1127711Y-18861178D01*
X-1077343Y-18870886D01*
X-1026795Y-18880629D01*
X-1026794Y-18880629D01*
X-1026789Y-18880630D01*
X-1026784Y-18880630D01*
X-818224Y-18880630D01*
X-818222Y-18880630D01*
X-768808Y-18871392D01*
X-763365Y-18870624D01*
X-710201Y-18865549D01*
X-665272Y-18852355D01*
X-659220Y-18850906D01*
X-616285Y-18842881D01*
X-566380Y-18823547D01*
X-561453Y-18821873D01*
X-520456Y-18809835D01*
X-507078Y-18805907D01*
X-468396Y-18785964D01*
X-462390Y-18783261D01*
X-424722Y-18768670D01*
X-376414Y-18738757D01*
X-372192Y-18736366D01*
X-318914Y-18708901D01*
X-287284Y-18684026D01*
X-281604Y-18680053D01*
X-250058Y-18660522D01*
X-205630Y-18620019D01*
X-202219Y-18617130D01*
X-152508Y-18578038D01*
X-128313Y-18550114D01*
X-123232Y-18544904D01*
X-98239Y-18522121D01*
X-60047Y-18471544D01*
X-57426Y-18468307D01*
X-50128Y-18459885D01*
X-13875Y-18418048D01*
X2957Y-18388891D01*
X7171Y-18382533D01*
X25563Y-18358180D01*
X55281Y-18298496D01*
X57082Y-18295144D01*
X58850Y-18292082D01*
X91973Y-18234712D01*
X101906Y-18206011D01*
X104985Y-18198677D01*
X117134Y-18174282D01*
X136284Y-18106972D01*
X137308Y-18103723D01*
X161213Y-18034657D01*
X165066Y-18007852D01*
X166798Y-17999727D01*
X173354Y-17976689D01*
X180111Y-17903766D01*
X180476Y-17900680D01*
X180520Y-17900367D01*
X191341Y-17825114D01*
X190209Y-17801366D01*
X190402Y-17792694D01*
X192309Y-17772130D01*
X185251Y-17695969D01*
X185056Y-17693197D01*
X184845Y-17688775D01*
X181268Y-17613656D01*
X177501Y-17598132D01*
X174538Y-17580359D01*
X173354Y-17567571D01*
X151187Y-17489664D01*
X131358Y-17407926D01*
X126167Y-17396560D01*
X119696Y-17378983D01*
X117136Y-17369986D01*
X117134Y-17369978D01*
X90342Y-17316173D01*
X79648Y-17294697D01*
X43414Y-17215355D01*
X38181Y-17208007D01*
X28189Y-17191354D01*
X25563Y-17186080D01*
X-26984Y-17116497D01*
X-79381Y-17042915D01*
X-79386Y-17042910D01*
X-83394Y-17039088D01*
X-96787Y-17024061D01*
X-98232Y-17022148D01*
X-98234Y-17022146D01*
X-98239Y-17022139D01*
X-128957Y-16994136D01*
X-164981Y-16961295D01*
X-232597Y-16896824D01*
X-234339Y-16895705D01*
X-245460Y-16887159D01*
X-245484Y-16887192D01*
X-250060Y-16883736D01*
X-300712Y-16852374D01*
X-329495Y-16834552D01*
X-390261Y-16795500D01*
X-410680Y-16782377D01*
X-415941Y-16779665D01*
X-415908Y-16779600D01*
X-419428Y-16777822D01*
X-419589Y-16778146D01*
X-424718Y-16775592D01*
X-424721Y-16775591D01*
X-424722Y-16775590D01*
X-514723Y-16740724D01*
X-587333Y-16711655D01*
X-607213Y-16703696D01*
X-607226Y-16703692D01*
X-607470Y-16703645D01*
X-612683Y-16702403D01*
X-616273Y-16701382D01*
X-616282Y-16701380D01*
X-616285Y-16701379D01*
X-714170Y-16683081D01*
X-788728Y-16668711D01*
X-815090Y-16663630D01*
X-815091Y-16663630D01*
X-818222Y-16663630D01*
X-1023658Y-16663630D01*
X-1023664Y-16663630D01*
X-1073055Y-16672862D01*
X-1078554Y-16673637D01*
X-1131675Y-16678710D01*
X-1131679Y-16678710D01*
X-1131679Y-16678711D01*
X-1142533Y-16681898D01*
X-1176592Y-16691898D01*
X-1182669Y-16693354D01*
X-1225589Y-16701377D01*
X-1225602Y-16701380D01*
X-1275502Y-16720712D01*
X-1280431Y-16722387D01*
X-1334800Y-16738352D01*
X-1373481Y-16758292D01*
X-1379495Y-16760998D01*
X-1417159Y-16775590D01*
X-1417160Y-16775590D01*
X-1465466Y-16805500D01*
X-1469695Y-16807894D01*
X-1522963Y-16835356D01*
X-1554586Y-16860224D01*
X-1560275Y-16864203D01*
X-1591824Y-16883739D01*
X-1636232Y-16924221D01*
X-1639674Y-16927136D01*
X-1689375Y-16966223D01*
X-1713563Y-16994136D01*
X-1718650Y-16999354D01*
X-1743639Y-17022136D01*
X-1781829Y-17072706D01*
X-1784449Y-17075943D01*
X-1828004Y-17126209D01*
X-1844836Y-17155363D01*
X-1849056Y-17161731D01*
X-1867444Y-17186081D01*
X-1867449Y-17186090D01*
X-1897159Y-17245752D01*
X-1898964Y-17249115D01*
X-1933852Y-17309545D01*
X-1943782Y-17338233D01*
X-1946873Y-17345593D01*
X-1959012Y-17369972D01*
X-1959017Y-17369986D01*
X-1978158Y-17437258D01*
X-1979201Y-17440567D01*
X-2003094Y-17509605D01*
X-2006946Y-17536388D01*
X-2008682Y-17544534D01*
X-2015234Y-17567567D01*
X-2021991Y-17640481D01*
X-2022358Y-17643583D01*
X-2033221Y-17719140D01*
X-2033221Y-17719145D01*
X-2032091Y-17742899D01*
X-2032285Y-17751575D01*
X-2034189Y-17772133D01*
X-2730683Y-17772133D01*
X-2752557Y-17643397D01*
X-2753335Y-17636491D01*
X-2753580Y-17632130D01*
X-2765087Y-17427258D01*
X-2770342Y-17333687D01*
X-2770440Y-17330209D01*
X-2770440Y-14859238D01*
X-2750755Y-14792199D01*
X-2697951Y-14746444D01*
X-2628793Y-14736500D01*
X-2565237Y-14765525D01*
X-2530158Y-14816173D01*
X-2484375Y-14939795D01*
X-2376791Y-15112397D01*
X-2236676Y-15259798D01*
X-2236674Y-15259799D01*
X-2069745Y-15375986D01*
X-1882848Y-15456189D01*
X-1683630Y-15497130D01*
X-1381940Y-15497130D01*
X-1381940Y-14797130D01*
X-881940Y-14797130D01*
X-881940Y-15497130D01*
X-631227Y-15497130D01*
X-479602Y-15481711D01*
X-285559Y-15420830D01*
X-285549Y-15420825D01*
X-107725Y-15322124D01*
X-107724Y-15322124D01*
X46590Y-15189651D01*
X46591Y-15189650D01*
X171078Y-15028825D01*
X260648Y-14846223D01*
X286306Y-14747130D01*
X1544694Y-14747130D01*
X1544991Y-14749076D01*
X1544993Y-14749082D01*
X1615622Y-14939787D01*
X1615625Y-14939794D01*
X1723209Y-15112397D01*
X1863324Y-15259798D01*
X1863326Y-15259799D01*
X2030255Y-15375986D01*
X2217152Y-15456189D01*
X2416370Y-15497130D01*
X2818060Y-15497130D01*
X2818060Y-14797130D01*
X3318060Y-14797130D01*
X3318060Y-15497130D01*
X3668773Y-15497130D01*
X3820398Y-15481711D01*
X4014441Y-15420830D01*
X4014451Y-15420825D01*
X4192275Y-15322124D01*
X4192276Y-15322124D01*
X4346590Y-15189651D01*
X4346591Y-15189650D01*
X4471078Y-15028825D01*
X4560648Y-14846223D01*
X4586306Y-14747130D01*
X3834171Y-14747130D01*
X3873670Y-14722673D01*
X3941261Y-14633168D01*
X3971955Y-14525290D01*
X3961606Y-14413609D01*
X3911612Y-14313208D01*
X3839129Y-14247130D01*
X4591426Y-14247130D01*
X4591128Y-14245183D01*
X4591126Y-14245177D01*
X4520497Y-14054472D01*
X4520494Y-14054465D01*
X4412910Y-13881862D01*
X4272795Y-13734461D01*
X4272793Y-13734460D01*
X4105864Y-13618273D01*
X3918967Y-13538070D01*
X3719750Y-13497130D01*
X3318060Y-13497130D01*
X3318060Y-14197130D01*
X2818060Y-14197130D01*
X2818060Y-13595154D01*
X2837745Y-13528115D01*
X2863802Y-13498969D01*
X2955725Y-13424184D01*
X3039031Y-13306167D01*
X3082787Y-13183048D01*
X3087405Y-13170055D01*
X3087405Y-13170053D01*
X3087406Y-13170051D01*
X3097264Y-13025931D01*
X3067874Y-12884496D01*
X3001414Y-12756235D01*
X3001411Y-12756232D01*
X3001410Y-12756230D01*
X2902814Y-12650660D01*
X2779390Y-12575605D01*
X2779389Y-12575604D01*
X2779388Y-12575604D01*
X2731299Y-12562130D01*
X5205922Y-12562130D01*
X5224428Y-12750031D01*
X5279237Y-12930708D01*
X5368236Y-13097215D01*
X5368240Y-13097222D01*
X5488018Y-13243171D01*
X5633967Y-13362949D01*
X5633974Y-13362953D01*
X5748532Y-13424185D01*
X5800483Y-13451953D01*
X5981161Y-13506762D01*
X6169060Y-13525268D01*
X6356959Y-13506762D01*
X6537637Y-13451953D01*
X6704151Y-13362950D01*
X6850101Y-13243171D01*
X6969880Y-13097221D01*
X7058883Y-12930707D01*
X7113692Y-12750029D01*
X7132198Y-12562130D01*
X7113692Y-12374231D01*
X7088010Y-12289572D01*
X7084404Y-12270591D01*
X7083968Y-12270659D01*
X7083298Y-12266303D01*
X7083297Y-12266290D01*
X7019852Y-11987701D01*
X6930656Y-11596038D01*
X6927560Y-11568504D01*
X6927560Y-8755754D01*
X6930656Y-8728219D01*
X6931782Y-8723278D01*
X7041391Y-8241979D01*
X7083297Y-8057971D01*
X7086654Y-8042457D01*
X7086765Y-8042481D01*
X7089656Y-8029262D01*
X7113692Y-7950029D01*
X7132198Y-7762130D01*
X7113692Y-7574231D01*
X7058883Y-7393553D01*
X7035927Y-7350605D01*
X6969883Y-7227044D01*
X6969879Y-7227037D01*
X6850101Y-7081088D01*
X6704152Y-6961310D01*
X6704145Y-6961306D01*
X6537638Y-6872307D01*
X6356961Y-6817498D01*
X6169060Y-6798992D01*
X5981158Y-6817498D01*
X5800481Y-6872307D01*
X5633974Y-6961306D01*
X5633967Y-6961310D01*
X5488018Y-7081088D01*
X5368240Y-7227037D01*
X5368236Y-7227044D01*
X5279237Y-7393551D01*
X5224428Y-7574228D01*
X5205922Y-7762130D01*
X5224427Y-7950027D01*
X5250106Y-8034679D01*
X5253715Y-8053652D01*
X5254148Y-8053586D01*
X5254822Y-8057971D01*
X5281776Y-8176325D01*
X5407463Y-8728219D01*
X5407464Y-8728221D01*
X5410560Y-8755756D01*
X5410560Y-11568502D01*
X5407464Y-11596037D01*
X5254822Y-12266289D01*
X5251464Y-12281803D01*
X5251355Y-12281779D01*
X5248458Y-12295011D01*
X5224428Y-12374230D01*
X5205922Y-12562130D01*
X2731299Y-12562130D01*
X2640288Y-12536630D01*
X2532111Y-12536630D01*
X2532110Y-12536630D01*
X2424949Y-12551359D01*
X2292449Y-12608911D01*
X2292449Y-12608912D01*
X2180398Y-12700073D01*
X2180393Y-12700078D01*
X2097088Y-12818093D01*
X2048714Y-12954204D01*
X2048714Y-12954207D01*
X2042535Y-13044549D01*
X2038856Y-13098329D01*
X2068246Y-13239764D01*
X2068247Y-13239766D01*
X2134705Y-13368023D01*
X2134709Y-13368029D01*
X2148248Y-13382526D01*
X2179619Y-13444957D01*
X2172257Y-13514438D01*
X2128499Y-13568908D01*
X2117801Y-13575580D01*
X1943844Y-13672134D01*
X1943843Y-13672135D01*
X1789529Y-13804608D01*
X1789528Y-13804609D01*
X1665041Y-13965434D01*
X1575471Y-14148036D01*
X1549814Y-14247130D01*
X2301949Y-14247130D01*
X2262450Y-14271587D01*
X2194859Y-14361092D01*
X2164165Y-14468970D01*
X2174514Y-14580651D01*
X2224508Y-14681052D01*
X2296991Y-14747130D01*
X1544694Y-14747130D01*
X286306Y-14747130D01*
X-515829Y-14747130D01*
X-476330Y-14722673D01*
X-408739Y-14633168D01*
X-378045Y-14525290D01*
X-388394Y-14413609D01*
X-438388Y-14313208D01*
X-510871Y-14247130D01*
X291426Y-14247130D01*
X291128Y-14245183D01*
X291126Y-14245177D01*
X220497Y-14054472D01*
X220494Y-14054465D01*
X112910Y-13881862D01*
X-27205Y-13734461D01*
X-27207Y-13734460D01*
X-194136Y-13618273D01*
X-381033Y-13538070D01*
X-580250Y-13497130D01*
X-881940Y-13497130D01*
X-881940Y-14197130D01*
X-1381940Y-14197130D01*
X-1381940Y-13497130D01*
X-1632653Y-13497130D01*
X-1784279Y-13512548D01*
X-1978322Y-13573429D01*
X-1978332Y-13573434D01*
X-2156156Y-13672135D01*
X-2156157Y-13672135D01*
X-2310471Y-13804608D01*
X-2310472Y-13804609D01*
X-2434959Y-13965434D01*
X-2524529Y-14148035D01*
X-2526399Y-14155260D01*
X-2562260Y-14215225D01*
X-2624848Y-14246283D01*
X-2694291Y-14238572D01*
X-2748541Y-14194543D01*
X-2770376Y-14128172D01*
X-2770440Y-14124177D01*
X-2770440Y-10422133D01*
X2135761Y-10422133D01*
X2154896Y-10591974D01*
X2154897Y-10591979D01*
X2211351Y-10753313D01*
X2290985Y-10880050D01*
X2302289Y-10898039D01*
X2423151Y-11018901D01*
X2567877Y-11109839D01*
X2721791Y-11163696D01*
X2729210Y-11166292D01*
X2729215Y-11166293D01*
X2899056Y-11185429D01*
X2899060Y-11185429D01*
X2899064Y-11185429D01*
X3068904Y-11166293D01*
X3068907Y-11166292D01*
X3068910Y-11166292D01*
X3230243Y-11109839D01*
X3374969Y-11018901D01*
X3495831Y-10898039D01*
X3586769Y-10753313D01*
X3643222Y-10591980D01*
X3643223Y-10591974D01*
X3662359Y-10422133D01*
X3662359Y-10422126D01*
X3643223Y-10252287D01*
X3643221Y-10252279D01*
X3623473Y-10195841D01*
X3618311Y-10175919D01*
X3615224Y-10157985D01*
X3615223Y-10157979D01*
X3551202Y-9960338D01*
X3549271Y-9890498D01*
X3551196Y-9883940D01*
X3615223Y-9686279D01*
X3624540Y-9653935D01*
X3624540Y-9653928D01*
X3625582Y-9648590D01*
X3625973Y-9648666D01*
X3630594Y-9628063D01*
X3643222Y-9591980D01*
X3643525Y-9589291D01*
X3662359Y-9422133D01*
X3662359Y-9422126D01*
X3643223Y-9252285D01*
X3643222Y-9252280D01*
X3619869Y-9185541D01*
X3586769Y-9090947D01*
X3495831Y-8946221D01*
X3374969Y-8825359D01*
X3374968Y-8825358D01*
X3230243Y-8734421D01*
X3068909Y-8677967D01*
X3068904Y-8677966D01*
X2899064Y-8658831D01*
X2899056Y-8658831D01*
X2729215Y-8677966D01*
X2729210Y-8677967D01*
X2567876Y-8734421D01*
X2423151Y-8825358D01*
X2302288Y-8946221D01*
X2211351Y-9090946D01*
X2154897Y-9252280D01*
X2154896Y-9252285D01*
X2135761Y-9422126D01*
X2135761Y-9422133D01*
X2154897Y-9591977D01*
X2174646Y-9648418D01*
X2179806Y-9668333D01*
X2182895Y-9686277D01*
X2182896Y-9686280D01*
X2246914Y-9883919D01*
X2248845Y-9953762D01*
X2246914Y-9960341D01*
X2182896Y-10157979D01*
X2173578Y-10190324D01*
X2172537Y-10195665D01*
X2172150Y-10195589D01*
X2167523Y-10216196D01*
X2154898Y-10252279D01*
X2154896Y-10252286D01*
X2135761Y-10422126D01*
X2135761Y-10422133D01*
X-2770440Y-10422133D01*
X-2770440Y-6209238D01*
X-2750755Y-6142199D01*
X-2697951Y-6096444D01*
X-2628793Y-6086500D01*
X-2565237Y-6115525D01*
X-2530158Y-6166173D01*
X-2484375Y-6289795D01*
X-2376791Y-6462397D01*
X-2236676Y-6609798D01*
X-2236674Y-6609799D01*
X-2069745Y-6725986D01*
X-1882848Y-6806189D01*
X-1683630Y-6847130D01*
X-1381940Y-6847130D01*
X-1381940Y-6147130D01*
X-881940Y-6147130D01*
X-881940Y-6847130D01*
X-631227Y-6847130D01*
X-479602Y-6831711D01*
X-285559Y-6770830D01*
X-285549Y-6770825D01*
X-107725Y-6672124D01*
X-107724Y-6672124D01*
X46590Y-6539651D01*
X46591Y-6539650D01*
X171078Y-6378825D01*
X260648Y-6196223D01*
X286306Y-6097130D01*
X1544694Y-6097130D01*
X1544991Y-6099076D01*
X1544993Y-6099082D01*
X1615622Y-6289787D01*
X1615625Y-6289794D01*
X1723209Y-6462397D01*
X1863324Y-6609798D01*
X1863326Y-6609799D01*
X2030256Y-6725987D01*
X2109942Y-6760182D01*
X2163786Y-6804708D01*
X2185010Y-6871276D01*
X2166875Y-6938751D01*
X2162348Y-6945641D01*
X2097088Y-7038093D01*
X2048714Y-7174204D01*
X2048714Y-7174207D01*
X2039853Y-7303758D01*
X2038856Y-7318329D01*
X2060743Y-7423656D01*
X2068246Y-7459764D01*
X2068247Y-7459766D01*
X2134705Y-7588023D01*
X2134709Y-7588029D01*
X2230507Y-7690603D01*
X2233305Y-7693599D01*
X2356732Y-7768656D01*
X2495832Y-7807630D01*
X2495833Y-7807630D01*
X2604010Y-7807630D01*
X2615562Y-7806041D01*
X2711171Y-7792901D01*
X2843669Y-7735349D01*
X2955725Y-7644184D01*
X3039031Y-7526167D01*
X3079516Y-7412252D01*
X3087405Y-7390055D01*
X3087405Y-7390053D01*
X3087406Y-7390051D01*
X3097264Y-7245931D01*
X3067874Y-7104496D01*
X3001414Y-6976235D01*
X3001411Y-6976232D01*
X3001410Y-6976230D01*
X2902815Y-6870661D01*
X2877631Y-6855346D01*
X2830579Y-6803694D01*
X2818060Y-6749398D01*
X2818060Y-6147130D01*
X3318060Y-6147130D01*
X3318060Y-6847130D01*
X3668773Y-6847130D01*
X3820398Y-6831711D01*
X4014441Y-6770830D01*
X4014451Y-6770825D01*
X4192275Y-6672124D01*
X4192276Y-6672124D01*
X4346590Y-6539651D01*
X4346591Y-6539650D01*
X4471078Y-6378825D01*
X4560648Y-6196223D01*
X4586306Y-6097130D01*
X3834171Y-6097130D01*
X3873670Y-6072673D01*
X3941261Y-5983168D01*
X3971955Y-5875290D01*
X3961606Y-5763609D01*
X3911612Y-5663208D01*
X3839129Y-5597130D01*
X4591426Y-5597130D01*
X4591128Y-5595183D01*
X4591126Y-5595177D01*
X4520497Y-5404472D01*
X4520494Y-5404465D01*
X4412910Y-5231862D01*
X4272795Y-5084461D01*
X4272793Y-5084460D01*
X4105864Y-4968273D01*
X3918967Y-4888070D01*
X3719750Y-4847130D01*
X3318060Y-4847130D01*
X3318060Y-5547130D01*
X2818060Y-5547130D01*
X2818060Y-4847130D01*
X2467347Y-4847130D01*
X2315721Y-4862548D01*
X2121678Y-4923429D01*
X2121668Y-4923434D01*
X1943844Y-5022135D01*
X1943843Y-5022135D01*
X1789529Y-5154608D01*
X1789528Y-5154609D01*
X1665041Y-5315434D01*
X1575471Y-5498036D01*
X1549814Y-5597130D01*
X2301949Y-5597130D01*
X2262450Y-5621587D01*
X2194859Y-5711092D01*
X2164165Y-5818970D01*
X2174514Y-5930651D01*
X2224508Y-6031052D01*
X2296991Y-6097130D01*
X1544694Y-6097130D01*
X286306Y-6097130D01*
X-515829Y-6097130D01*
X-476330Y-6072673D01*
X-408739Y-5983168D01*
X-378045Y-5875290D01*
X-388394Y-5763609D01*
X-438388Y-5663208D01*
X-510871Y-5597130D01*
X291426Y-5597130D01*
X291128Y-5595183D01*
X291126Y-5595177D01*
X220497Y-5404472D01*
X220494Y-5404465D01*
X112910Y-5231862D01*
X-27205Y-5084461D01*
X-27207Y-5084460D01*
X-194136Y-4968273D01*
X-381033Y-4888070D01*
X-580250Y-4847130D01*
X-881940Y-4847130D01*
X-881940Y-5547130D01*
X-1381940Y-5547130D01*
X-1381940Y-4847130D01*
X-1632653Y-4847130D01*
X-1784279Y-4862548D01*
X-1978322Y-4923429D01*
X-1978332Y-4923434D01*
X-2156156Y-5022135D01*
X-2156157Y-5022135D01*
X-2310471Y-5154608D01*
X-2310472Y-5154609D01*
X-2434959Y-5315434D01*
X-2524529Y-5498035D01*
X-2526399Y-5505260D01*
X-2562260Y-5565225D01*
X-2624848Y-5596283D01*
X-2694291Y-5588572D01*
X-2748541Y-5544543D01*
X-2770376Y-5478172D01*
X-2770440Y-5474177D01*
X-2770440Y-3003866D01*
X-2770342Y-3000390D01*
X-2761034Y-2834595D01*
X-2753350Y-2697742D01*
X-2752574Y-2690854D01*
X-2729006Y-2552133D01*
X-2034189Y-2552133D01*
X-2027133Y-2628288D01*
X-2026939Y-2631057D01*
X-2023149Y-2710600D01*
X-2023148Y-2710605D01*
X-2019385Y-2726116D01*
X-2016419Y-2743904D01*
X-2015235Y-2756687D01*
X-1993068Y-2834595D01*
X-1973239Y-2916331D01*
X-1973238Y-2916336D01*
X-1968049Y-2927698D01*
X-1961581Y-2945264D01*
X-1959018Y-2954271D01*
X-1959012Y-2954287D01*
X-1921529Y-3029561D01*
X-1885301Y-3108892D01*
X-1885293Y-3108906D01*
X-1880061Y-3116253D01*
X-1870072Y-3132901D01*
X-1867444Y-3138178D01*
X-1867442Y-3138182D01*
X-1860838Y-3146927D01*
X-1814897Y-3207762D01*
X-1786025Y-3248307D01*
X-1762495Y-3281350D01*
X-1758481Y-3285177D01*
X-1745103Y-3300187D01*
X-1743648Y-3302113D01*
X-1743640Y-3302123D01*
X-1676901Y-3362963D01*
X-1609293Y-3427427D01*
X-1609292Y-3427428D01*
X-1609290Y-3427429D01*
X-1609286Y-3427433D01*
X-1607542Y-3428554D01*
X-1596421Y-3437100D01*
X-1596396Y-3437068D01*
X-1591821Y-3440523D01*
X-1569914Y-3454087D01*
X-1512386Y-3489707D01*
X-1431194Y-3541886D01*
X-1431192Y-3541887D01*
X-1425940Y-3544595D01*
X-1425974Y-3544659D01*
X-1422452Y-3546438D01*
X-1422290Y-3546114D01*
X-1417167Y-3548664D01*
X-1417158Y-3548670D01*
X-1327158Y-3583535D01*
X-1234661Y-3620566D01*
X-1234423Y-3620612D01*
X-1229188Y-3621859D01*
X-1225604Y-3622878D01*
X-1225602Y-3622878D01*
X-1225595Y-3622881D01*
X-1127711Y-3641178D01*
X-1105038Y-3645548D01*
X-1026795Y-3660629D01*
X-1026794Y-3660629D01*
X-1026789Y-3660630D01*
X-1026784Y-3660630D01*
X-818224Y-3660630D01*
X-818222Y-3660630D01*
X-768808Y-3651392D01*
X-763365Y-3650624D01*
X-710201Y-3645549D01*
X-665272Y-3632355D01*
X-659220Y-3630906D01*
X-616285Y-3622881D01*
X-566380Y-3603547D01*
X-561453Y-3601873D01*
X-523337Y-3590680D01*
X-507078Y-3585907D01*
X-468396Y-3565964D01*
X-462390Y-3563261D01*
X-424722Y-3548670D01*
X-376414Y-3518757D01*
X-372192Y-3516366D01*
X-318914Y-3488901D01*
X-287284Y-3464026D01*
X-281604Y-3460053D01*
X-250058Y-3440522D01*
X-205630Y-3400019D01*
X-202219Y-3397130D01*
X-152508Y-3358038D01*
X-128313Y-3330114D01*
X-123232Y-3324904D01*
X-98239Y-3302121D01*
X-60047Y-3251544D01*
X-57426Y-3248307D01*
X-13875Y-3198048D01*
X2957Y-3168891D01*
X7171Y-3162533D01*
X25563Y-3138180D01*
X55281Y-3078496D01*
X57082Y-3075144D01*
X64315Y-3062616D01*
X91973Y-3014712D01*
X101906Y-2986011D01*
X104985Y-2978677D01*
X117134Y-2954282D01*
X136284Y-2886972D01*
X137308Y-2883723D01*
X161213Y-2814657D01*
X165066Y-2787852D01*
X166798Y-2779727D01*
X173354Y-2756689D01*
X180111Y-2683766D01*
X180476Y-2680680D01*
X181614Y-2672763D01*
X191341Y-2605114D01*
X190209Y-2581366D01*
X190402Y-2572694D01*
X192309Y-2552130D01*
X185251Y-2475969D01*
X185056Y-2473197D01*
X182619Y-2422035D01*
X181268Y-2393656D01*
X177501Y-2378132D01*
X174538Y-2360359D01*
X173354Y-2347571D01*
X151187Y-2269664D01*
X131358Y-2187926D01*
X126167Y-2176560D01*
X119696Y-2158983D01*
X117136Y-2149986D01*
X117134Y-2149978D01*
X89270Y-2094021D01*
X79648Y-2074697D01*
X43414Y-1995355D01*
X38181Y-1988007D01*
X28189Y-1971354D01*
X25563Y-1966080D01*
X-26984Y-1896497D01*
X-79381Y-1822915D01*
X-79386Y-1822910D01*
X-83394Y-1819088D01*
X-96787Y-1804061D01*
X-98232Y-1802148D01*
X-98234Y-1802146D01*
X-98239Y-1802139D01*
X-136695Y-1767082D01*
X-164981Y-1741295D01*
X-232597Y-1676824D01*
X-234339Y-1675705D01*
X-245460Y-1667159D01*
X-245484Y-1667192D01*
X-250060Y-1663736D01*
X-288034Y-1640224D01*
X-329495Y-1614552D01*
X-374701Y-1585500D01*
X-410680Y-1562377D01*
X-415941Y-1559665D01*
X-415908Y-1559600D01*
X-419428Y-1557822D01*
X-419589Y-1558146D01*
X-424718Y-1555592D01*
X-424721Y-1555591D01*
X-424722Y-1555590D01*
X-514723Y-1520724D01*
X-564710Y-1500712D01*
X-607213Y-1483696D01*
X-607226Y-1483692D01*
X-607470Y-1483645D01*
X-612683Y-1482403D01*
X-616273Y-1481382D01*
X-616282Y-1481380D01*
X-616285Y-1481379D01*
X-714170Y-1463081D01*
X-767191Y-1452862D01*
X-815090Y-1443630D01*
X-815091Y-1443630D01*
X-818222Y-1443630D01*
X-1023658Y-1443630D01*
X-1023664Y-1443630D01*
X-1073055Y-1452862D01*
X-1078554Y-1453637D01*
X-1131675Y-1458710D01*
X-1131679Y-1458710D01*
X-1131679Y-1458711D01*
X-1146562Y-1463081D01*
X-1176592Y-1471898D01*
X-1182669Y-1473354D01*
X-1225589Y-1481377D01*
X-1225602Y-1481380D01*
X-1275502Y-1500712D01*
X-1280431Y-1502387D01*
X-1334800Y-1518352D01*
X-1373481Y-1538292D01*
X-1379495Y-1540998D01*
X-1417159Y-1555590D01*
X-1417160Y-1555590D01*
X-1465466Y-1585500D01*
X-1469695Y-1587894D01*
X-1522963Y-1615356D01*
X-1554586Y-1640224D01*
X-1560275Y-1644203D01*
X-1591824Y-1663739D01*
X-1636232Y-1704221D01*
X-1639674Y-1707136D01*
X-1689375Y-1746223D01*
X-1713563Y-1774136D01*
X-1718650Y-1779354D01*
X-1743639Y-1802136D01*
X-1781829Y-1852706D01*
X-1784449Y-1855943D01*
X-1828004Y-1906209D01*
X-1844836Y-1935363D01*
X-1849056Y-1941731D01*
X-1867444Y-1966081D01*
X-1867449Y-1966090D01*
X-1897159Y-2025752D01*
X-1898964Y-2029115D01*
X-1933852Y-2089545D01*
X-1943782Y-2118233D01*
X-1946873Y-2125593D01*
X-1959012Y-2149972D01*
X-1959017Y-2149986D01*
X-1978158Y-2217258D01*
X-1979201Y-2220567D01*
X-2003094Y-2289605D01*
X-2006946Y-2316388D01*
X-2008682Y-2324534D01*
X-2015234Y-2347567D01*
X-2021991Y-2420481D01*
X-2022358Y-2423583D01*
X-2033221Y-2499140D01*
X-2033221Y-2499145D01*
X-2032091Y-2522899D01*
X-2032285Y-2531575D01*
X-2033928Y-2549320D01*
X-2034189Y-2552133D01*
X-2729006Y-2552133D01*
X-2702093Y-2393726D01*
X-2700550Y-2386962D01*
X-2617118Y-2097353D01*
X-2614824Y-2090799D01*
X-2499493Y-1812358D01*
X-2496478Y-1806096D01*
X-2350703Y-1542330D01*
X-2347006Y-1536447D01*
X-2322320Y-1501655D01*
X-2259808Y-1413548D01*
X-2172609Y-1290650D01*
X-2168287Y-1285228D01*
X-1967460Y-1060498D01*
X-1962547Y-1055586D01*
X-1913028Y-1011332D01*
X-1737824Y-854755D01*
X-1732413Y-850439D01*
X-1486603Y-676024D01*
X-1480731Y-672335D01*
X-1216937Y-526537D01*
X-1210710Y-523538D01*
X-932250Y-408192D01*
X-925713Y-405905D01*
X-636098Y-322465D01*
X-629338Y-320922D01*
X-332211Y-270434D01*
X-325319Y-269658D01*
X-184316Y-261737D01*
X-23916Y-252728D01*
X-20439Y-252630D01*
X531621Y-252630D01*
X598660Y-272315D01*
G37*
%TD.AperFunction*%
%TA.AperFunction,Conductor*%
G36*
X62410800Y-252728D02*
G01*
X62536306Y-259774D01*
X62713443Y-269719D01*
X62720333Y-270495D01*
X63017139Y-320922D01*
X63017451Y-320975D01*
X63024231Y-322522D01*
X63258064Y-389886D01*
X63313818Y-405948D01*
X63320385Y-408246D01*
X63598817Y-523573D01*
X63605086Y-526592D01*
X63868849Y-672366D01*
X63874736Y-676066D01*
X63909190Y-700512D01*
X64120525Y-850461D01*
X64125949Y-854787D01*
X64176001Y-899515D01*
X64350667Y-1055606D01*
X64355587Y-1060526D01*
X64556400Y-1285235D01*
X64560738Y-1290676D01*
X64735128Y-1536456D01*
X64738830Y-1542348D01*
X64884607Y-1806112D01*
X64887625Y-1812380D01*
X65002950Y-2090803D01*
X65005246Y-2097365D01*
X65088674Y-2386956D01*
X65090222Y-2393740D01*
X65131294Y-2635480D01*
X65137628Y-2672764D01*
X65140700Y-2690842D01*
X65141479Y-2697756D01*
X65158462Y-3000211D01*
X65158560Y-3003688D01*
X65158560Y-5226683D01*
X65138875Y-5293722D01*
X65086071Y-5339477D01*
X65016913Y-5349421D01*
X64953357Y-5320396D01*
X64925730Y-5286114D01*
X64922412Y-5280039D01*
X64836250Y-5164942D01*
X64836247Y-5164939D01*
X64721153Y-5078779D01*
X64721146Y-5078775D01*
X64586439Y-5028533D01*
X64586432Y-5028531D01*
X64526904Y-5022130D01*
X63879060Y-5022130D01*
X63879060Y-5936628D01*
X63771375Y-5887450D01*
X63664823Y-5872130D01*
X63593297Y-5872130D01*
X63486745Y-5887450D01*
X63379060Y-5936628D01*
X63379060Y-5022130D01*
X62731215Y-5022130D01*
X62671687Y-5028531D01*
X62671680Y-5028533D01*
X62536973Y-5078775D01*
X62536966Y-5078779D01*
X62421872Y-5164939D01*
X62421869Y-5164942D01*
X62335709Y-5280036D01*
X62335705Y-5280043D01*
X62285463Y-5414750D01*
X62285461Y-5414757D01*
X62279060Y-5474285D01*
X62279060Y-6122130D01*
X63195374Y-6122130D01*
X63169567Y-6162286D01*
X63129060Y-6300241D01*
X63129060Y-6444019D01*
X63169567Y-6581974D01*
X63195374Y-6622130D01*
X62279060Y-6622130D01*
X62279060Y-7269974D01*
X62285461Y-7329502D01*
X62285463Y-7329509D01*
X62335705Y-7464216D01*
X62335709Y-7464223D01*
X62421869Y-7579317D01*
X62421872Y-7579320D01*
X62536966Y-7665480D01*
X62536973Y-7665484D01*
X62656870Y-7710203D01*
X62712804Y-7752074D01*
X62737221Y-7817539D01*
X62722369Y-7885812D01*
X62704766Y-7910368D01*
X62553344Y-8074853D01*
X62553336Y-8074864D01*
X62430200Y-8263337D01*
X62339763Y-8469515D01*
X62284496Y-8687758D01*
X62284494Y-8687770D01*
X62265904Y-8912124D01*
X62265904Y-8912135D01*
X62284494Y-9136489D01*
X62284496Y-9136501D01*
X62339763Y-9354744D01*
X62430200Y-9560922D01*
X62553336Y-9749395D01*
X62553344Y-9749406D01*
X62705816Y-9915032D01*
X62705820Y-9915036D01*
X62883484Y-10053319D01*
X62883489Y-10053321D01*
X62883491Y-10053323D01*
X62919990Y-10073076D01*
X62969580Y-10122295D01*
X62984688Y-10190512D01*
X62960517Y-10256067D01*
X62919990Y-10291184D01*
X62883491Y-10310936D01*
X62883482Y-10310942D01*
X62705821Y-10449222D01*
X62705816Y-10449227D01*
X62553344Y-10614853D01*
X62553336Y-10614864D01*
X62430200Y-10803337D01*
X62339763Y-11009515D01*
X62284496Y-11227758D01*
X62284494Y-11227770D01*
X62265904Y-11452124D01*
X62265904Y-11452135D01*
X62284494Y-11676489D01*
X62284496Y-11676501D01*
X62339763Y-11894744D01*
X62430200Y-12100922D01*
X62553336Y-12289395D01*
X62553344Y-12289406D01*
X62703859Y-12452906D01*
X62705820Y-12455036D01*
X62883484Y-12593319D01*
X62883489Y-12593321D01*
X62883491Y-12593323D01*
X62919990Y-12613076D01*
X62969580Y-12662295D01*
X62984688Y-12730512D01*
X62960517Y-12796067D01*
X62919990Y-12831184D01*
X62883491Y-12850936D01*
X62883482Y-12850942D01*
X62705821Y-12989222D01*
X62705816Y-12989227D01*
X62553344Y-13154853D01*
X62553336Y-13154864D01*
X62430200Y-13343337D01*
X62339763Y-13549515D01*
X62284496Y-13767758D01*
X62284494Y-13767770D01*
X62265904Y-13992124D01*
X62265904Y-13992135D01*
X62284494Y-14216489D01*
X62284496Y-14216501D01*
X62339763Y-14434744D01*
X62430200Y-14640922D01*
X62553336Y-14829395D01*
X62553344Y-14829406D01*
X62705816Y-14995032D01*
X62705820Y-14995036D01*
X62883484Y-15133319D01*
X62883485Y-15133319D01*
X62883487Y-15133321D01*
X62987575Y-15189650D01*
X63081486Y-15240472D01*
X63294425Y-15313574D01*
X63516491Y-15350630D01*
X63741629Y-15350630D01*
X63963695Y-15313574D01*
X64176634Y-15240472D01*
X64374636Y-15133319D01*
X64552300Y-14995036D01*
X64687222Y-14848473D01*
X64704775Y-14829406D01*
X64704776Y-14829404D01*
X64704782Y-14829398D01*
X64827920Y-14640921D01*
X64918356Y-14434746D01*
X64918356Y-14434744D01*
X64920416Y-14430049D01*
X64922257Y-14430856D01*
X64957661Y-14380871D01*
X65022459Y-14354738D01*
X65091100Y-14367786D01*
X65141789Y-14415873D01*
X65158560Y-14478146D01*
X65158560Y-17330384D01*
X65158462Y-17333861D01*
X65141464Y-17636490D01*
X65140685Y-17643404D01*
X65090201Y-17940509D01*
X65088653Y-17947293D01*
X65005226Y-18236862D01*
X65002928Y-18243430D01*
X64887595Y-18521858D01*
X64884576Y-18528127D01*
X64738804Y-18791875D01*
X64735102Y-18797767D01*
X64560708Y-19043547D01*
X64556370Y-19048987D01*
X64355561Y-19273684D01*
X64350641Y-19278604D01*
X64125933Y-19479413D01*
X64120492Y-19483751D01*
X63874714Y-19658135D01*
X63868823Y-19661836D01*
X63605069Y-19807605D01*
X63598800Y-19810624D01*
X63320372Y-19925948D01*
X63313804Y-19928246D01*
X63024225Y-20011668D01*
X63017442Y-20013216D01*
X62868892Y-20038454D01*
X62720343Y-20063692D01*
X62713429Y-20064471D01*
X62409558Y-20081532D01*
X62406082Y-20081630D01*
X61536071Y-20081630D01*
X61469032Y-20061945D01*
X61423277Y-20009141D01*
X61413333Y-19939983D01*
X61442358Y-19876427D01*
X61444818Y-19873672D01*
X61494782Y-19819398D01*
X61617920Y-19630921D01*
X61708356Y-19424746D01*
X61763624Y-19206498D01*
X61782216Y-18982130D01*
X61773805Y-18880630D01*
X61763625Y-18757770D01*
X61763623Y-18757758D01*
X61736467Y-18650522D01*
X61708356Y-18539514D01*
X61617920Y-18333339D01*
X61613290Y-18326253D01*
X61553483Y-18234711D01*
X61494782Y-18144862D01*
X61494779Y-18144859D01*
X61494775Y-18144853D01*
X61342303Y-17979227D01*
X61342298Y-17979222D01*
X61223857Y-17887035D01*
X61164636Y-17840941D01*
X61164635Y-17840940D01*
X61164632Y-17840938D01*
X61019012Y-17762133D01*
X62225811Y-17762133D01*
X62232867Y-17838288D01*
X62233061Y-17841057D01*
X62236851Y-17920600D01*
X62236852Y-17920605D01*
X62240615Y-17936116D01*
X62243581Y-17953904D01*
X62244765Y-17966687D01*
X62266932Y-18044595D01*
X62286761Y-18126331D01*
X62286762Y-18126336D01*
X62291951Y-18137698D01*
X62298419Y-18155264D01*
X62300982Y-18164271D01*
X62300988Y-18164287D01*
X62338471Y-18239561D01*
X62374699Y-18318892D01*
X62374707Y-18318906D01*
X62379939Y-18326253D01*
X62389927Y-18342899D01*
X62390569Y-18344187D01*
X62392558Y-18348182D01*
X62400110Y-18358182D01*
X62445103Y-18417762D01*
X62497501Y-18491345D01*
X62497505Y-18491350D01*
X62501519Y-18495177D01*
X62514897Y-18510187D01*
X62516352Y-18512113D01*
X62516360Y-18512123D01*
X62583099Y-18572963D01*
X62650707Y-18637427D01*
X62650708Y-18637428D01*
X62650710Y-18637429D01*
X62650714Y-18637433D01*
X62652458Y-18638554D01*
X62663579Y-18647100D01*
X62663604Y-18647068D01*
X62668179Y-18650523D01*
X62684322Y-18660518D01*
X62747614Y-18699707D01*
X62828806Y-18751886D01*
X62828808Y-18751887D01*
X62834060Y-18754595D01*
X62834026Y-18754659D01*
X62837548Y-18756438D01*
X62837710Y-18756114D01*
X62842833Y-18758664D01*
X62842842Y-18758670D01*
X62932842Y-18793535D01*
X63025339Y-18830566D01*
X63025577Y-18830612D01*
X63030812Y-18831859D01*
X63034396Y-18832878D01*
X63034398Y-18832878D01*
X63034405Y-18832881D01*
X63132289Y-18851178D01*
X63138422Y-18852360D01*
X63233205Y-18870629D01*
X63233206Y-18870629D01*
X63233211Y-18870630D01*
X63233216Y-18870630D01*
X63441776Y-18870630D01*
X63441778Y-18870630D01*
X63491192Y-18861392D01*
X63496635Y-18860624D01*
X63549799Y-18855549D01*
X63594728Y-18842355D01*
X63600780Y-18840906D01*
X63643715Y-18832881D01*
X63693620Y-18813547D01*
X63698547Y-18811873D01*
X63736663Y-18800680D01*
X63752922Y-18795907D01*
X63760716Y-18791889D01*
X63791602Y-18775965D01*
X63797610Y-18773261D01*
X63835278Y-18758670D01*
X63883586Y-18728757D01*
X63887808Y-18726366D01*
X63941086Y-18698901D01*
X63972716Y-18674026D01*
X63978396Y-18670053D01*
X64009942Y-18650522D01*
X64054370Y-18610019D01*
X64057781Y-18607130D01*
X64107492Y-18568038D01*
X64131687Y-18540114D01*
X64136768Y-18534904D01*
X64161761Y-18512121D01*
X64199953Y-18461544D01*
X64202574Y-18458307D01*
X64229043Y-18427761D01*
X64246125Y-18408048D01*
X64262957Y-18378891D01*
X64267171Y-18372533D01*
X64285563Y-18348180D01*
X64315281Y-18288496D01*
X64317082Y-18285144D01*
X64337626Y-18249561D01*
X64351973Y-18224712D01*
X64361906Y-18196011D01*
X64364985Y-18188677D01*
X64377134Y-18164282D01*
X64396284Y-18096972D01*
X64397308Y-18093723D01*
X64421213Y-18024657D01*
X64425066Y-17997852D01*
X64426798Y-17989727D01*
X64433354Y-17966689D01*
X64440111Y-17893766D01*
X64440476Y-17890680D01*
X64447627Y-17840942D01*
X64451341Y-17815114D01*
X64450209Y-17791366D01*
X64450402Y-17782694D01*
X64452309Y-17762130D01*
X64445251Y-17685969D01*
X64445056Y-17683197D01*
X64443532Y-17651204D01*
X64441268Y-17603656D01*
X64437501Y-17588132D01*
X64434538Y-17570359D01*
X64433354Y-17557571D01*
X64411187Y-17479664D01*
X64391358Y-17397926D01*
X64386167Y-17386560D01*
X64379696Y-17368983D01*
X64377136Y-17359986D01*
X64377134Y-17359978D01*
X64347041Y-17299545D01*
X64339648Y-17284697D01*
X64303414Y-17205355D01*
X64298181Y-17198007D01*
X64288189Y-17181354D01*
X64285563Y-17176080D01*
X64233016Y-17106497D01*
X64180619Y-17032915D01*
X64180614Y-17032910D01*
X64176606Y-17029088D01*
X64163213Y-17014061D01*
X64161768Y-17012148D01*
X64161766Y-17012146D01*
X64161761Y-17012139D01*
X64131043Y-16984136D01*
X64095019Y-16951295D01*
X64027403Y-16886824D01*
X64025661Y-16885705D01*
X64014540Y-16877159D01*
X64014516Y-16877192D01*
X64009940Y-16873736D01*
X63971966Y-16850224D01*
X63930505Y-16824552D01*
X63885299Y-16795500D01*
X63849320Y-16772377D01*
X63844059Y-16769665D01*
X63844092Y-16769600D01*
X63840572Y-16767822D01*
X63840411Y-16768146D01*
X63835282Y-16765592D01*
X63835279Y-16765591D01*
X63835278Y-16765590D01*
X63745277Y-16730724D01*
X63677755Y-16703692D01*
X63652787Y-16693696D01*
X63652774Y-16693692D01*
X63652530Y-16693645D01*
X63647317Y-16692403D01*
X63643727Y-16691382D01*
X63643718Y-16691380D01*
X63643715Y-16691379D01*
X63545830Y-16673081D01*
X63492809Y-16662862D01*
X63444910Y-16653630D01*
X63444909Y-16653630D01*
X63441778Y-16653630D01*
X63236342Y-16653630D01*
X63236336Y-16653630D01*
X63186945Y-16662862D01*
X63181446Y-16663637D01*
X63128325Y-16668710D01*
X63128321Y-16668710D01*
X63128321Y-16668711D01*
X63113438Y-16673081D01*
X63083408Y-16681898D01*
X63077331Y-16683354D01*
X63034411Y-16691377D01*
X63034398Y-16691380D01*
X62984498Y-16710712D01*
X62979569Y-16712387D01*
X62925200Y-16728352D01*
X62886519Y-16748292D01*
X62880505Y-16750998D01*
X62842841Y-16765590D01*
X62842840Y-16765590D01*
X62794534Y-16795500D01*
X62790305Y-16797894D01*
X62737037Y-16825356D01*
X62705414Y-16850224D01*
X62699725Y-16854203D01*
X62668176Y-16873739D01*
X62623768Y-16914221D01*
X62620326Y-16917136D01*
X62570625Y-16956223D01*
X62546437Y-16984136D01*
X62541350Y-16989354D01*
X62516361Y-17012136D01*
X62478171Y-17062706D01*
X62475551Y-17065943D01*
X62431996Y-17116209D01*
X62415164Y-17145363D01*
X62410944Y-17151731D01*
X62392556Y-17176081D01*
X62392551Y-17176090D01*
X62362841Y-17235752D01*
X62361036Y-17239115D01*
X62326148Y-17299545D01*
X62316218Y-17328233D01*
X62313127Y-17335593D01*
X62300988Y-17359972D01*
X62300983Y-17359986D01*
X62281842Y-17427258D01*
X62280799Y-17430567D01*
X62256906Y-17499605D01*
X62253054Y-17526388D01*
X62251318Y-17534534D01*
X62244766Y-17557567D01*
X62238009Y-17630481D01*
X62237642Y-17633583D01*
X62226779Y-17709140D01*
X62226779Y-17709145D01*
X62227909Y-17732899D01*
X62227715Y-17741575D01*
X62225811Y-17762133D01*
X61019012Y-17762133D01*
X60966640Y-17733791D01*
X60966637Y-17733789D01*
X60966634Y-17733788D01*
X60966631Y-17733787D01*
X60966629Y-17733786D01*
X60920989Y-17718117D01*
X60913272Y-17714871D01*
X60904983Y-17710705D01*
X60895430Y-17705903D01*
X60895421Y-17705899D01*
X59582357Y-17266459D01*
X59534029Y-17236550D01*
X52980414Y-10682935D01*
X52975061Y-10676832D01*
X52972276Y-10673203D01*
X52953047Y-10648143D01*
X52953045Y-10648141D01*
X52953044Y-10648140D01*
X52921135Y-10623656D01*
X52921134Y-10623655D01*
X52921132Y-10623653D01*
X52875788Y-10588859D01*
X52825937Y-10550606D01*
X52825933Y-10550604D01*
X52677910Y-10489291D01*
X52658517Y-10486738D01*
X52556764Y-10473342D01*
X52556738Y-10473340D01*
X52519061Y-10468380D01*
X52519059Y-10468380D01*
X52508587Y-10469758D01*
X52483211Y-10473099D01*
X52475114Y-10473630D01*
X44899398Y-10473630D01*
X44832359Y-10453945D01*
X44786604Y-10401141D01*
X44776178Y-10335747D01*
X44792359Y-10192133D01*
X44792359Y-10192126D01*
X44773223Y-10022285D01*
X44773222Y-10022280D01*
X44716769Y-9860947D01*
X44625831Y-9716221D01*
X44504969Y-9595359D01*
X44504968Y-9595358D01*
X44360243Y-9504421D01*
X44198909Y-9447967D01*
X44198904Y-9447966D01*
X44029064Y-9428831D01*
X44029056Y-9428831D01*
X43859216Y-9447966D01*
X43859205Y-9447969D01*
X43810685Y-9464946D01*
X43788180Y-9470524D01*
X43781926Y-9471464D01*
X43775448Y-9472439D01*
X43775443Y-9472440D01*
X43456355Y-9568379D01*
X43420652Y-9573630D01*
X31293013Y-9573630D01*
X31284914Y-9573099D01*
X31262933Y-9570205D01*
X31249061Y-9568379D01*
X31249059Y-9568379D01*
X31090210Y-9589291D01*
X31090205Y-9589293D01*
X30942188Y-9650603D01*
X30942183Y-9650606D01*
X30856673Y-9716221D01*
X30846989Y-9723652D01*
X30846985Y-9723655D01*
X30828822Y-9737591D01*
X30815070Y-9748145D01*
X30793056Y-9776833D01*
X30787705Y-9782935D01*
X30429861Y-10140779D01*
X30423758Y-10146130D01*
X30395073Y-10168142D01*
X30370582Y-10200059D01*
X30297536Y-10295253D01*
X30297534Y-10295256D01*
X30236222Y-10443276D01*
X30236222Y-10443279D01*
X30235152Y-10451409D01*
X30232227Y-10473630D01*
X30220250Y-10564596D01*
X30220248Y-10564619D01*
X30216861Y-10590345D01*
X30211888Y-10612371D01*
X30114848Y-10911953D01*
X30075463Y-10969664D01*
X30011129Y-10996921D01*
X29958671Y-10991708D01*
X29830918Y-10950327D01*
X29796385Y-10939141D01*
X29785655Y-10936050D01*
X29764044Y-10929824D01*
X29758701Y-10928782D01*
X29758776Y-10928395D01*
X29738169Y-10923768D01*
X29705335Y-10912280D01*
X29702086Y-10911143D01*
X29702084Y-10911142D01*
X29702079Y-10911141D01*
X29532240Y-10892006D01*
X29532232Y-10892006D01*
X29362387Y-10911142D01*
X29362386Y-10911142D01*
X29305945Y-10930891D01*
X29286036Y-10936050D01*
X29268093Y-10939139D01*
X29268086Y-10939141D01*
X28954334Y-11040771D01*
X28916123Y-11046805D01*
X27499838Y-11046805D01*
X27491739Y-11046274D01*
X27469758Y-11043380D01*
X27455886Y-11041554D01*
X27455884Y-11041554D01*
X27297035Y-11062466D01*
X27297030Y-11062468D01*
X27149013Y-11123778D01*
X27149008Y-11123781D01*
X27063464Y-11189422D01*
X27053814Y-11196827D01*
X27053810Y-11196830D01*
X27044189Y-11204213D01*
X27021895Y-11221320D01*
X26999881Y-11250008D01*
X26994529Y-11256110D01*
X26682137Y-11568504D01*
X26383330Y-11867311D01*
X26322007Y-11900796D01*
X26295649Y-11903630D01*
X24857470Y-11903630D01*
X24790431Y-11883945D01*
X24744676Y-11831141D01*
X24734732Y-11761983D01*
X24763757Y-11698427D01*
X24769789Y-11691949D01*
X26125992Y-10335747D01*
X27634790Y-8826949D01*
X27696113Y-8793464D01*
X27722471Y-8790630D01*
X57645649Y-8790630D01*
X57712688Y-8810315D01*
X57733330Y-8826949D01*
X57813126Y-8906745D01*
X57835879Y-8938031D01*
X57988498Y-9236893D01*
X57990422Y-9241384D01*
X57991352Y-9243315D01*
X57997996Y-9253889D01*
X57999756Y-9256872D01*
X58002146Y-9261195D01*
X58002850Y-9262239D01*
X58006097Y-9266782D01*
X58082287Y-9388037D01*
X58082288Y-9388038D01*
X58082289Y-9388039D01*
X58203151Y-9508901D01*
X58347877Y-9599839D01*
X58502474Y-9653935D01*
X58509210Y-9656292D01*
X58509215Y-9656293D01*
X58679056Y-9675429D01*
X58679060Y-9675429D01*
X58679064Y-9675429D01*
X58848904Y-9656293D01*
X58848907Y-9656292D01*
X58848910Y-9656292D01*
X59010243Y-9599839D01*
X59154969Y-9508901D01*
X59275831Y-9388039D01*
X59366769Y-9243313D01*
X59423222Y-9081980D01*
X59423223Y-9081974D01*
X59423340Y-9080939D01*
X59423601Y-9080315D01*
X59424771Y-9075193D01*
X59425668Y-9075397D01*
X59450406Y-9016525D01*
X59508000Y-8976969D01*
X59577837Y-8974830D01*
X59637744Y-9010788D01*
X59668700Y-9073425D01*
X59670560Y-9094821D01*
X59670560Y-10830427D01*
X59661815Y-10876169D01*
X59640934Y-10928782D01*
X59581354Y-11078907D01*
X59547703Y-11163696D01*
X59547702Y-11163697D01*
X59531482Y-11211218D01*
X59530892Y-11215495D01*
X59525100Y-11239482D01*
X59507556Y-11289621D01*
X59507556Y-11289622D01*
X59488420Y-11459467D01*
X59488420Y-11459474D01*
X59507555Y-11629315D01*
X59507556Y-11629320D01*
X59564010Y-11790654D01*
X59653769Y-11933505D01*
X59654948Y-11935380D01*
X59775810Y-12056242D01*
X59920536Y-12147180D01*
X60081869Y-12203633D01*
X60081874Y-12203634D01*
X60251715Y-12222770D01*
X60251719Y-12222770D01*
X60251723Y-12222770D01*
X60421563Y-12203634D01*
X60421566Y-12203633D01*
X60421569Y-12203633D01*
X60582902Y-12147180D01*
X60727628Y-12056242D01*
X60848490Y-11935380D01*
X60939428Y-11790654D01*
X60995881Y-11629321D01*
X60996948Y-11619850D01*
X61015018Y-11459474D01*
X61015018Y-11459467D01*
X60995882Y-11289627D01*
X60995881Y-11289624D01*
X60995881Y-11289621D01*
X60983610Y-11254555D01*
X60977421Y-11227382D01*
X60977140Y-11224863D01*
X60895638Y-10911143D01*
X60891544Y-10895385D01*
X60887560Y-10864206D01*
X60887560Y-7496074D01*
X60888091Y-7487973D01*
X60892810Y-7452130D01*
X60887799Y-7414069D01*
X60887795Y-7414035D01*
X60887560Y-7412250D01*
X60887560Y-7412245D01*
X60871898Y-7293280D01*
X60844460Y-7227039D01*
X60820659Y-7169576D01*
X60810586Y-7145258D01*
X60810583Y-7145252D01*
X60735066Y-7046838D01*
X60720066Y-7027291D01*
X60713047Y-7018143D01*
X60684353Y-6996125D01*
X60678263Y-6990784D01*
X59549914Y-5862435D01*
X59544561Y-5856332D01*
X59541776Y-5852703D01*
X59522547Y-5827643D01*
X59522545Y-5827641D01*
X59522544Y-5827640D01*
X59490635Y-5803156D01*
X59490634Y-5803155D01*
X59490632Y-5803153D01*
X59439098Y-5763609D01*
X59395437Y-5730106D01*
X59395433Y-5730104D01*
X59247410Y-5668791D01*
X59228017Y-5666238D01*
X59126264Y-5652842D01*
X59126238Y-5652840D01*
X59088561Y-5647880D01*
X59088559Y-5647880D01*
X59078087Y-5649258D01*
X59052711Y-5652599D01*
X59044614Y-5653130D01*
X43477888Y-5653130D01*
X43410849Y-5633445D01*
X43365094Y-5580641D01*
X43355684Y-5550159D01*
X43355223Y-5547479D01*
X43253594Y-5233729D01*
X43247560Y-5195519D01*
X43247560Y-3202249D01*
X43260584Y-3146928D01*
X43802401Y-2060029D01*
X43849926Y-2008816D01*
X43917597Y-1991425D01*
X43983928Y-2013380D01*
X44017184Y-2047531D01*
X44103336Y-2179395D01*
X44103344Y-2179406D01*
X44255816Y-2345032D01*
X44255821Y-2345037D01*
X44259072Y-2347567D01*
X44433484Y-2483319D01*
X44433485Y-2483319D01*
X44433487Y-2483321D01*
X44555438Y-2549317D01*
X44631486Y-2590472D01*
X44844425Y-2663574D01*
X45066491Y-2700630D01*
X45291629Y-2700630D01*
X45513695Y-2663574D01*
X45726634Y-2590472D01*
X45924636Y-2483319D01*
X46102300Y-2345036D01*
X46223654Y-2213212D01*
X46254775Y-2179406D01*
X46254775Y-2179405D01*
X46254782Y-2179398D01*
X46345253Y-2040920D01*
X46398398Y-1995567D01*
X46467629Y-1986143D01*
X46530965Y-2015645D01*
X46552864Y-2040917D01*
X46643338Y-2179398D01*
X46643343Y-2179403D01*
X46643344Y-2179406D01*
X46795816Y-2345032D01*
X46795821Y-2345037D01*
X46799072Y-2347567D01*
X46973484Y-2483319D01*
X46973485Y-2483319D01*
X46973487Y-2483321D01*
X47095438Y-2549317D01*
X47171486Y-2590472D01*
X47384425Y-2663574D01*
X47606491Y-2700630D01*
X47831629Y-2700630D01*
X48053695Y-2663574D01*
X48266634Y-2590472D01*
X48464636Y-2483319D01*
X48642300Y-2345036D01*
X48763654Y-2213212D01*
X48794775Y-2179406D01*
X48794775Y-2179405D01*
X48794782Y-2179398D01*
X48885253Y-2040920D01*
X48938398Y-1995567D01*
X49007629Y-1986143D01*
X49070965Y-2015645D01*
X49092864Y-2040917D01*
X49183338Y-2179398D01*
X49183343Y-2179403D01*
X49183344Y-2179406D01*
X49335816Y-2345032D01*
X49335821Y-2345037D01*
X49339072Y-2347567D01*
X49513484Y-2483319D01*
X49513485Y-2483319D01*
X49513487Y-2483321D01*
X49635438Y-2549317D01*
X49711486Y-2590472D01*
X49924425Y-2663574D01*
X50146491Y-2700630D01*
X50371629Y-2700630D01*
X50593695Y-2663574D01*
X50806634Y-2590472D01*
X51004636Y-2483319D01*
X51182300Y-2345036D01*
X51303654Y-2213212D01*
X51334775Y-2179406D01*
X51334775Y-2179405D01*
X51334782Y-2179398D01*
X51425253Y-2040920D01*
X51478398Y-1995567D01*
X51547629Y-1986143D01*
X51610965Y-2015645D01*
X51632864Y-2040917D01*
X51723338Y-2179398D01*
X51723343Y-2179403D01*
X51723344Y-2179406D01*
X51875816Y-2345032D01*
X51875821Y-2345037D01*
X51879072Y-2347567D01*
X52053484Y-2483319D01*
X52053485Y-2483319D01*
X52053487Y-2483321D01*
X52175438Y-2549317D01*
X52251486Y-2590472D01*
X52464425Y-2663574D01*
X52686491Y-2700630D01*
X52911629Y-2700630D01*
X53133695Y-2663574D01*
X53346634Y-2590472D01*
X53544636Y-2483319D01*
X53722300Y-2345036D01*
X53843654Y-2213212D01*
X53874775Y-2179406D01*
X53874775Y-2179405D01*
X53874782Y-2179398D01*
X53965253Y-2040920D01*
X54018398Y-1995567D01*
X54087629Y-1986143D01*
X54150965Y-2015645D01*
X54172864Y-2040917D01*
X54263338Y-2179398D01*
X54263343Y-2179403D01*
X54263344Y-2179406D01*
X54415816Y-2345032D01*
X54415821Y-2345037D01*
X54419072Y-2347567D01*
X54593484Y-2483319D01*
X54593485Y-2483319D01*
X54593487Y-2483321D01*
X54715438Y-2549317D01*
X54791486Y-2590472D01*
X55004425Y-2663574D01*
X55226491Y-2700630D01*
X55451629Y-2700630D01*
X55673695Y-2663574D01*
X55886634Y-2590472D01*
X56084636Y-2483319D01*
X56262300Y-2345036D01*
X56383654Y-2213212D01*
X56414775Y-2179406D01*
X56414775Y-2179405D01*
X56414782Y-2179398D01*
X56505253Y-2040920D01*
X56558398Y-1995567D01*
X56627629Y-1986143D01*
X56690965Y-2015645D01*
X56712864Y-2040917D01*
X56803338Y-2179398D01*
X56803343Y-2179403D01*
X56803344Y-2179406D01*
X56955816Y-2345032D01*
X56955821Y-2345037D01*
X56959072Y-2347567D01*
X57133484Y-2483319D01*
X57133485Y-2483319D01*
X57133487Y-2483321D01*
X57255438Y-2549317D01*
X57331486Y-2590472D01*
X57544425Y-2663574D01*
X57766491Y-2700630D01*
X57991629Y-2700630D01*
X58213695Y-2663574D01*
X58426634Y-2590472D01*
X58624636Y-2483319D01*
X58802300Y-2345036D01*
X58923654Y-2213212D01*
X58954775Y-2179406D01*
X58954775Y-2179405D01*
X58954782Y-2179398D01*
X59045253Y-2040920D01*
X59098398Y-1995567D01*
X59167629Y-1986143D01*
X59230965Y-2015645D01*
X59252864Y-2040917D01*
X59343338Y-2179398D01*
X59343343Y-2179403D01*
X59343344Y-2179406D01*
X59495816Y-2345032D01*
X59495821Y-2345037D01*
X59499072Y-2347567D01*
X59673484Y-2483319D01*
X59673485Y-2483319D01*
X59673487Y-2483321D01*
X59795438Y-2549317D01*
X59871486Y-2590472D01*
X60084425Y-2663574D01*
X60306491Y-2700630D01*
X60531629Y-2700630D01*
X60753695Y-2663574D01*
X60966634Y-2590472D01*
X61037478Y-2552133D01*
X62225811Y-2552133D01*
X62232867Y-2628288D01*
X62233061Y-2631057D01*
X62236851Y-2710600D01*
X62236852Y-2710605D01*
X62240615Y-2726116D01*
X62243581Y-2743904D01*
X62244765Y-2756687D01*
X62266932Y-2834595D01*
X62286761Y-2916331D01*
X62286762Y-2916336D01*
X62291951Y-2927698D01*
X62298419Y-2945264D01*
X62300982Y-2954271D01*
X62300988Y-2954287D01*
X62338471Y-3029561D01*
X62374699Y-3108892D01*
X62374707Y-3108906D01*
X62379939Y-3116253D01*
X62389928Y-3132901D01*
X62392556Y-3138178D01*
X62392558Y-3138182D01*
X62399162Y-3146927D01*
X62445103Y-3207762D01*
X62473975Y-3248307D01*
X62497505Y-3281350D01*
X62501519Y-3285177D01*
X62514897Y-3300187D01*
X62516352Y-3302113D01*
X62516360Y-3302123D01*
X62583099Y-3362963D01*
X62650707Y-3427427D01*
X62650708Y-3427428D01*
X62650710Y-3427429D01*
X62650714Y-3427433D01*
X62652458Y-3428554D01*
X62663579Y-3437100D01*
X62663604Y-3437068D01*
X62668179Y-3440523D01*
X62690086Y-3454087D01*
X62747614Y-3489707D01*
X62828806Y-3541886D01*
X62828808Y-3541887D01*
X62834060Y-3544595D01*
X62834026Y-3544659D01*
X62837548Y-3546438D01*
X62837710Y-3546114D01*
X62842833Y-3548664D01*
X62842842Y-3548670D01*
X62932842Y-3583535D01*
X63025339Y-3620566D01*
X63025577Y-3620612D01*
X63030812Y-3621859D01*
X63034396Y-3622878D01*
X63034398Y-3622878D01*
X63034405Y-3622881D01*
X63132289Y-3641178D01*
X63154962Y-3645548D01*
X63233205Y-3660629D01*
X63233206Y-3660629D01*
X63233211Y-3660630D01*
X63233216Y-3660630D01*
X63441776Y-3660630D01*
X63441778Y-3660630D01*
X63491192Y-3651392D01*
X63496635Y-3650624D01*
X63549799Y-3645549D01*
X63594728Y-3632355D01*
X63600780Y-3630906D01*
X63643715Y-3622881D01*
X63693620Y-3603547D01*
X63698547Y-3601873D01*
X63736663Y-3590680D01*
X63752922Y-3585907D01*
X63791604Y-3565964D01*
X63797610Y-3563261D01*
X63835278Y-3548670D01*
X63883586Y-3518757D01*
X63887808Y-3516366D01*
X63941086Y-3488901D01*
X63972716Y-3464026D01*
X63978396Y-3460053D01*
X64009942Y-3440522D01*
X64054370Y-3400019D01*
X64057781Y-3397130D01*
X64107492Y-3358038D01*
X64131687Y-3330114D01*
X64136768Y-3324904D01*
X64161761Y-3302121D01*
X64199953Y-3251544D01*
X64202574Y-3248307D01*
X64246125Y-3198048D01*
X64262957Y-3168891D01*
X64267171Y-3162533D01*
X64285563Y-3138180D01*
X64315281Y-3078496D01*
X64317082Y-3075144D01*
X64324315Y-3062616D01*
X64351973Y-3014712D01*
X64361906Y-2986011D01*
X64364985Y-2978677D01*
X64377134Y-2954282D01*
X64396284Y-2886972D01*
X64397308Y-2883723D01*
X64421213Y-2814657D01*
X64425066Y-2787852D01*
X64426798Y-2779727D01*
X64433354Y-2756689D01*
X64440111Y-2683766D01*
X64440476Y-2680680D01*
X64441614Y-2672763D01*
X64451341Y-2605114D01*
X64450209Y-2581366D01*
X64450402Y-2572694D01*
X64452309Y-2552130D01*
X64445251Y-2475969D01*
X64445056Y-2473197D01*
X64442619Y-2422035D01*
X64441268Y-2393656D01*
X64437501Y-2378132D01*
X64434538Y-2360359D01*
X64433354Y-2347571D01*
X64411187Y-2269664D01*
X64391358Y-2187926D01*
X64386167Y-2176560D01*
X64379696Y-2158983D01*
X64377136Y-2149986D01*
X64377134Y-2149978D01*
X64349270Y-2094021D01*
X64339648Y-2074697D01*
X64303414Y-1995355D01*
X64298181Y-1988007D01*
X64288189Y-1971354D01*
X64285563Y-1966080D01*
X64233016Y-1896497D01*
X64180619Y-1822915D01*
X64180614Y-1822910D01*
X64176606Y-1819088D01*
X64163213Y-1804061D01*
X64161768Y-1802148D01*
X64161766Y-1802146D01*
X64161761Y-1802139D01*
X64123305Y-1767082D01*
X64095019Y-1741295D01*
X64027403Y-1676824D01*
X64025661Y-1675705D01*
X64014540Y-1667159D01*
X64014516Y-1667192D01*
X64009940Y-1663736D01*
X63971966Y-1640224D01*
X63930505Y-1614552D01*
X63885299Y-1585500D01*
X63849320Y-1562377D01*
X63844059Y-1559665D01*
X63844092Y-1559600D01*
X63840572Y-1557822D01*
X63840411Y-1558146D01*
X63835282Y-1555592D01*
X63835279Y-1555591D01*
X63835278Y-1555590D01*
X63745277Y-1520724D01*
X63695290Y-1500712D01*
X63652787Y-1483696D01*
X63652774Y-1483692D01*
X63652530Y-1483645D01*
X63647317Y-1482403D01*
X63643727Y-1481382D01*
X63643718Y-1481380D01*
X63643715Y-1481379D01*
X63545830Y-1463081D01*
X63492809Y-1452862D01*
X63444910Y-1443630D01*
X63444909Y-1443630D01*
X63441778Y-1443630D01*
X63236342Y-1443630D01*
X63236336Y-1443630D01*
X63186945Y-1452862D01*
X63181446Y-1453637D01*
X63128325Y-1458710D01*
X63128321Y-1458710D01*
X63128321Y-1458711D01*
X63113438Y-1463081D01*
X63083408Y-1471898D01*
X63077331Y-1473354D01*
X63034411Y-1481377D01*
X63034398Y-1481380D01*
X62984498Y-1500712D01*
X62979569Y-1502387D01*
X62925200Y-1518352D01*
X62886519Y-1538292D01*
X62880505Y-1540998D01*
X62842841Y-1555590D01*
X62842840Y-1555590D01*
X62794534Y-1585500D01*
X62790305Y-1587894D01*
X62737037Y-1615356D01*
X62705414Y-1640224D01*
X62699725Y-1644203D01*
X62668176Y-1663739D01*
X62623768Y-1704221D01*
X62620326Y-1707136D01*
X62570625Y-1746223D01*
X62546437Y-1774136D01*
X62541350Y-1779354D01*
X62516361Y-1802136D01*
X62478171Y-1852706D01*
X62475551Y-1855943D01*
X62431996Y-1906209D01*
X62415164Y-1935363D01*
X62410944Y-1941731D01*
X62392556Y-1966081D01*
X62392551Y-1966090D01*
X62362841Y-2025752D01*
X62361036Y-2029115D01*
X62326148Y-2089545D01*
X62316218Y-2118233D01*
X62313127Y-2125593D01*
X62300988Y-2149972D01*
X62300983Y-2149986D01*
X62281842Y-2217258D01*
X62280799Y-2220567D01*
X62256906Y-2289605D01*
X62253054Y-2316388D01*
X62251318Y-2324534D01*
X62244766Y-2347567D01*
X62238009Y-2420481D01*
X62237642Y-2423583D01*
X62226779Y-2499140D01*
X62226779Y-2499145D01*
X62227909Y-2522899D01*
X62227715Y-2531575D01*
X62226072Y-2549320D01*
X62225811Y-2552133D01*
X61037478Y-2552133D01*
X61164636Y-2483319D01*
X61342300Y-2345036D01*
X61463654Y-2213212D01*
X61494775Y-2179406D01*
X61494777Y-2179403D01*
X61494782Y-2179398D01*
X61617920Y-1990921D01*
X61708356Y-1784746D01*
X61763624Y-1566498D01*
X61763625Y-1566489D01*
X61782216Y-1342135D01*
X61782216Y-1342124D01*
X61763625Y-1117770D01*
X61763623Y-1117758D01*
X61708356Y-899515D01*
X61688739Y-854793D01*
X61617920Y-693339D01*
X61604216Y-672364D01*
X61508950Y-526548D01*
X61494782Y-504862D01*
X61454047Y-460612D01*
X61423125Y-397959D01*
X61430985Y-328533D01*
X61475132Y-274377D01*
X61541549Y-252686D01*
X61545277Y-252630D01*
X62364893Y-252630D01*
X62407324Y-252630D01*
X62410800Y-252728D01*
G37*
%TD.AperFunction*%
%TA.AperFunction,Conductor*%
G36*
X37381977Y-14660315D02*
G01*
X37402619Y-14676949D01*
X39164430Y-16438760D01*
X39186262Y-16468279D01*
X39422218Y-16912560D01*
X39436934Y-16938427D01*
X39439960Y-16942821D01*
X39439893Y-16942866D01*
X39447860Y-16954355D01*
X39505691Y-17054521D01*
X39626441Y-17188629D01*
X39626444Y-17188631D01*
X39626447Y-17188634D01*
X39772445Y-17294708D01*
X39809772Y-17311327D01*
X39832484Y-17324481D01*
X39837620Y-17328233D01*
X39838629Y-17328970D01*
X39897003Y-17359972D01*
X39973035Y-17400353D01*
X40023010Y-17449183D01*
X40038651Y-17517279D01*
X40014994Y-17583022D01*
X39959549Y-17625538D01*
X39935283Y-17632175D01*
X39764421Y-17660686D01*
X39551490Y-17733786D01*
X39551479Y-17733791D01*
X39353487Y-17840938D01*
X39353482Y-17840942D01*
X39175821Y-17979222D01*
X39175816Y-17979227D01*
X39023344Y-18144853D01*
X39023336Y-18144864D01*
X38932868Y-18283336D01*
X38879722Y-18328692D01*
X38810491Y-18338116D01*
X38747155Y-18308614D01*
X38725252Y-18283336D01*
X38654193Y-18174573D01*
X38634782Y-18144862D01*
X38634779Y-18144859D01*
X38634775Y-18144853D01*
X38482303Y-17979227D01*
X38482298Y-17979222D01*
X38363857Y-17887035D01*
X38304636Y-17840941D01*
X38304635Y-17840940D01*
X38304632Y-17840938D01*
X38106640Y-17733791D01*
X38106637Y-17733789D01*
X38106634Y-17733788D01*
X38106631Y-17733787D01*
X38106629Y-17733786D01*
X37893697Y-17660686D01*
X37671629Y-17623630D01*
X37446491Y-17623630D01*
X37224422Y-17660686D01*
X37011490Y-17733786D01*
X37011479Y-17733791D01*
X36813487Y-17840938D01*
X36813482Y-17840942D01*
X36635821Y-17979222D01*
X36635816Y-17979227D01*
X36483344Y-18144853D01*
X36483336Y-18144864D01*
X36392868Y-18283336D01*
X36339722Y-18328692D01*
X36270491Y-18338116D01*
X36207155Y-18308614D01*
X36185252Y-18283336D01*
X36114193Y-18174573D01*
X36094782Y-18144862D01*
X36094779Y-18144859D01*
X36094775Y-18144853D01*
X35942303Y-17979227D01*
X35942298Y-17979222D01*
X35823857Y-17887035D01*
X35764636Y-17840941D01*
X35764635Y-17840940D01*
X35764632Y-17840938D01*
X35566640Y-17733791D01*
X35566637Y-17733789D01*
X35566634Y-17733788D01*
X35566631Y-17733787D01*
X35566629Y-17733786D01*
X35353697Y-17660686D01*
X35131629Y-17623630D01*
X34906491Y-17623630D01*
X34684422Y-17660686D01*
X34471490Y-17733786D01*
X34471479Y-17733791D01*
X34273487Y-17840938D01*
X34273482Y-17840942D01*
X34095821Y-17979222D01*
X34095816Y-17979227D01*
X33943344Y-18144853D01*
X33943336Y-18144864D01*
X33849311Y-18288780D01*
X33796165Y-18334137D01*
X33726933Y-18343560D01*
X33663598Y-18314058D01*
X33643928Y-18292081D01*
X33517173Y-18111056D01*
X33517168Y-18111050D01*
X33350142Y-17944024D01*
X33156638Y-17808529D01*
X32942552Y-17708700D01*
X32942546Y-17708697D01*
X32729060Y-17651494D01*
X32729060Y-18546628D01*
X32621375Y-18497450D01*
X32514823Y-18482130D01*
X32443297Y-18482130D01*
X32336745Y-18497450D01*
X32229060Y-18546628D01*
X32229060Y-17651494D01*
X32229059Y-17651494D01*
X32015573Y-17708697D01*
X32015567Y-17708700D01*
X31801482Y-17808529D01*
X31801480Y-17808530D01*
X31607986Y-17944016D01*
X31607980Y-17944021D01*
X31440951Y-18111050D01*
X31440950Y-18111052D01*
X31314191Y-18292082D01*
X31259614Y-18335707D01*
X31190115Y-18342899D01*
X31127761Y-18311377D01*
X31108812Y-18288786D01*
X31014782Y-18144862D01*
X31014775Y-18144855D01*
X31014775Y-18144853D01*
X30993761Y-18122026D01*
X30962839Y-18059371D01*
X30970700Y-17989945D01*
X31014847Y-17935790D01*
X31034545Y-17924769D01*
X31180675Y-17859708D01*
X31326673Y-17753634D01*
X31332431Y-17747240D01*
X31357727Y-17719145D01*
X31447427Y-17619523D01*
X31522047Y-17490275D01*
X31525657Y-17484734D01*
X31530900Y-17477560D01*
X31539530Y-17461312D01*
X31607218Y-17333861D01*
X31766857Y-17033276D01*
X31788684Y-17003764D01*
X33770693Y-15021754D01*
X33800205Y-14999927D01*
X34199916Y-14787642D01*
X34221746Y-14778599D01*
X34654509Y-14646064D01*
X34690814Y-14640630D01*
X37314938Y-14640630D01*
X37381977Y-14660315D01*
G37*
%TD.AperFunction*%
%TA.AperFunction,Conductor*%
G36*
X41962688Y-14090315D02*
G01*
X41983330Y-14106949D01*
X45392741Y-17516360D01*
X45426226Y-17577683D01*
X45429060Y-17604041D01*
X45429060Y-18546628D01*
X45321375Y-18497450D01*
X45214823Y-18482130D01*
X45143297Y-18482130D01*
X45036745Y-18497450D01*
X44929060Y-18546628D01*
X44929060Y-17651494D01*
X44929059Y-17651494D01*
X44715573Y-17708697D01*
X44715567Y-17708700D01*
X44501482Y-17808529D01*
X44501480Y-17808530D01*
X44307986Y-17944016D01*
X44307980Y-17944021D01*
X44140951Y-18111050D01*
X44140950Y-18111052D01*
X44014191Y-18292082D01*
X43959614Y-18335707D01*
X43890115Y-18342899D01*
X43827761Y-18311377D01*
X43808812Y-18288786D01*
X43714782Y-18144862D01*
X43714775Y-18144855D01*
X43714775Y-18144853D01*
X43562303Y-17979227D01*
X43562298Y-17979222D01*
X43443857Y-17887035D01*
X43384636Y-17840941D01*
X43384635Y-17840940D01*
X43384632Y-17840938D01*
X43186640Y-17733791D01*
X43186637Y-17733790D01*
X43186634Y-17733788D01*
X43158721Y-17724205D01*
X43140050Y-17716023D01*
X43130207Y-17710705D01*
X41840704Y-17236338D01*
X41795834Y-17207644D01*
X41243687Y-16655497D01*
X41221855Y-16625978D01*
X41073881Y-16347359D01*
X40985900Y-16181699D01*
X40971182Y-16155827D01*
X40971181Y-16155826D01*
X40971179Y-16155822D01*
X40968161Y-16151440D01*
X40968226Y-16151394D01*
X40960259Y-16139905D01*
X40902427Y-16039737D01*
X40894397Y-16030819D01*
X40781678Y-15905630D01*
X40781675Y-15905628D01*
X40781674Y-15905627D01*
X40781673Y-15905626D01*
X40708674Y-15852589D01*
X40635673Y-15799550D01*
X40598352Y-15782934D01*
X40575635Y-15769778D01*
X40569493Y-15765290D01*
X40125210Y-15529333D01*
X40095691Y-15507501D01*
X38870501Y-14282311D01*
X38837016Y-14220988D01*
X38842000Y-14151296D01*
X38883872Y-14095363D01*
X38949336Y-14070946D01*
X38958182Y-14070630D01*
X41895649Y-14070630D01*
X41962688Y-14090315D01*
G37*
%TD.AperFunction*%
%TA.AperFunction,Conductor*%
G36*
X48802396Y-13310023D02*
G01*
X48823038Y-13326657D01*
X53012741Y-17516360D01*
X53046226Y-17577683D01*
X53049060Y-17604041D01*
X53049060Y-18546628D01*
X52941375Y-18497450D01*
X52834823Y-18482130D01*
X52763297Y-18482130D01*
X52656745Y-18497450D01*
X52549060Y-18546628D01*
X52549060Y-17651494D01*
X52549059Y-17651494D01*
X52335573Y-17708697D01*
X52335567Y-17708700D01*
X52121482Y-17808529D01*
X52121480Y-17808530D01*
X51927986Y-17944016D01*
X51927980Y-17944021D01*
X51760951Y-18111050D01*
X51760950Y-18111052D01*
X51634191Y-18292082D01*
X51579614Y-18335707D01*
X51510115Y-18342899D01*
X51447761Y-18311377D01*
X51428812Y-18288786D01*
X51334782Y-18144862D01*
X51334775Y-18144855D01*
X51334775Y-18144853D01*
X51182303Y-17979227D01*
X51182298Y-17979222D01*
X51063857Y-17887035D01*
X51004636Y-17840941D01*
X51004635Y-17840940D01*
X51004632Y-17840938D01*
X50806640Y-17733791D01*
X50806637Y-17733789D01*
X50806634Y-17733788D01*
X50806631Y-17733787D01*
X50806629Y-17733786D01*
X50593697Y-17660686D01*
X50371629Y-17623630D01*
X50146491Y-17623630D01*
X49924422Y-17660686D01*
X49711490Y-17733786D01*
X49711479Y-17733791D01*
X49513487Y-17840938D01*
X49513482Y-17840942D01*
X49335821Y-17979222D01*
X49335816Y-17979227D01*
X49183344Y-18144853D01*
X49183336Y-18144864D01*
X49092868Y-18283336D01*
X49039722Y-18328692D01*
X48970491Y-18338116D01*
X48907155Y-18308614D01*
X48885252Y-18283336D01*
X48814193Y-18174573D01*
X48794782Y-18144862D01*
X48794779Y-18144859D01*
X48794775Y-18144853D01*
X48642303Y-17979227D01*
X48642298Y-17979222D01*
X48523857Y-17887035D01*
X48464636Y-17840941D01*
X48464635Y-17840940D01*
X48464632Y-17840938D01*
X48266640Y-17733791D01*
X48266637Y-17733789D01*
X48266634Y-17733788D01*
X48266631Y-17733787D01*
X48266629Y-17733786D01*
X48220989Y-17718117D01*
X48213272Y-17714871D01*
X48204983Y-17710705D01*
X48195430Y-17705903D01*
X48195421Y-17705899D01*
X46882357Y-17266459D01*
X46834029Y-17236550D01*
X45185564Y-15588085D01*
X45152079Y-15526762D01*
X45157063Y-15457070D01*
X45198935Y-15401137D01*
X45264399Y-15376720D01*
X45287126Y-15377183D01*
X45353329Y-15384643D01*
X45449057Y-15395429D01*
X45449060Y-15395429D01*
X45449064Y-15395429D01*
X45618904Y-15376293D01*
X45618907Y-15376292D01*
X45618910Y-15376292D01*
X45780243Y-15319839D01*
X45924969Y-15228901D01*
X46045831Y-15108039D01*
X46136769Y-14963313D01*
X46193222Y-14801980D01*
X46193223Y-14801974D01*
X46212359Y-14632133D01*
X46212359Y-14632126D01*
X46193223Y-14462285D01*
X46193222Y-14462280D01*
X46173251Y-14405206D01*
X46136769Y-14300947D01*
X46045831Y-14156221D01*
X45924969Y-14035359D01*
X45924968Y-14035358D01*
X45780243Y-13944420D01*
X45778303Y-13943486D01*
X45773839Y-13941576D01*
X45474961Y-13788949D01*
X45443675Y-13766196D01*
X45179498Y-13502019D01*
X45146013Y-13440696D01*
X45150997Y-13371004D01*
X45192869Y-13315071D01*
X45258333Y-13290654D01*
X45267179Y-13290338D01*
X48735357Y-13290338D01*
X48802396Y-13310023D01*
G37*
%TD.AperFunction*%
%TA.AperFunction,Conductor*%
G36*
X50682688Y-12650315D02*
G01*
X50703330Y-12666949D01*
X55333067Y-17296686D01*
X55366552Y-17358009D01*
X55361568Y-17427701D01*
X55319696Y-17483634D01*
X55254232Y-17508051D01*
X55206033Y-17501957D01*
X54502357Y-17266459D01*
X54454029Y-17236550D01*
X50059790Y-12842311D01*
X50026305Y-12780988D01*
X50031289Y-12711296D01*
X50073161Y-12655363D01*
X50138625Y-12630946D01*
X50147471Y-12630630D01*
X50615649Y-12630630D01*
X50682688Y-12650315D01*
G37*
%TD.AperFunction*%
%TA.AperFunction,Conductor*%
G36*
X52282688Y-11710315D02*
G01*
X52303330Y-11726949D01*
X57873067Y-17296686D01*
X57906552Y-17358009D01*
X57901568Y-17427701D01*
X57859696Y-17483634D01*
X57794232Y-17508051D01*
X57746033Y-17501957D01*
X57042357Y-17266459D01*
X56994029Y-17236550D01*
X51659790Y-11902311D01*
X51626305Y-11840988D01*
X51631289Y-11771296D01*
X51673161Y-11715363D01*
X51738625Y-11690946D01*
X51747471Y-11690630D01*
X52215649Y-11690630D01*
X52282688Y-11710315D01*
G37*
%TD.AperFunction*%
%TA.AperFunction,Conductor*%
G36*
X7327307Y-2857169D02*
G01*
X7541262Y-2927698D01*
X7920229Y-3052622D01*
X7969088Y-3082707D01*
X12177715Y-7291334D01*
X12183056Y-7297424D01*
X12187916Y-7303758D01*
X12205072Y-7326117D01*
X12236985Y-7350605D01*
X12281056Y-7384421D01*
X12332183Y-7423653D01*
X12332189Y-7423656D01*
X12400932Y-7452130D01*
X12480210Y-7484968D01*
X12599175Y-7500630D01*
X12599180Y-7500630D01*
X12600965Y-7500865D01*
X12600983Y-7500867D01*
X12624429Y-7503953D01*
X12639059Y-7505880D01*
X12639060Y-7505880D01*
X12639061Y-7505880D01*
X12650067Y-7504431D01*
X12674908Y-7501160D01*
X12683006Y-7500630D01*
X20197991Y-7500630D01*
X20265030Y-7520315D01*
X20310785Y-7573119D01*
X20320729Y-7642277D01*
X20302984Y-7690603D01*
X20271351Y-7740944D01*
X20214897Y-7902280D01*
X20214896Y-7902285D01*
X20195761Y-8072126D01*
X20195761Y-8072133D01*
X20214896Y-8241974D01*
X20214897Y-8241979D01*
X20271351Y-8403313D01*
X20319571Y-8480055D01*
X20362289Y-8548039D01*
X20483151Y-8668901D01*
X20627877Y-8759839D01*
X20627881Y-8759840D01*
X20629807Y-8760768D01*
X20634281Y-8762683D01*
X20639436Y-8765315D01*
X20639437Y-8765316D01*
X20933157Y-8915308D01*
X20964441Y-8938060D01*
X21124241Y-9097860D01*
X21157726Y-9159183D01*
X21160560Y-9185541D01*
X21160560Y-10998184D01*
X21160029Y-11006281D01*
X21156688Y-11031657D01*
X21155310Y-11042129D01*
X21155310Y-11042131D01*
X21160270Y-11079808D01*
X21160272Y-11079829D01*
X21172068Y-11169430D01*
X21176222Y-11200981D01*
X21237533Y-11349001D01*
X21237536Y-11349007D01*
X21263493Y-11382834D01*
X21310583Y-11444202D01*
X21310585Y-11444204D01*
X21315035Y-11450003D01*
X21335072Y-11476116D01*
X21363758Y-11498128D01*
X21369854Y-11503473D01*
X22777712Y-12911330D01*
X22783058Y-12917427D01*
X22805073Y-12946117D01*
X22815619Y-12954209D01*
X22836989Y-12970607D01*
X22932182Y-13043653D01*
X22932188Y-13043656D01*
X23032168Y-13085069D01*
X23086572Y-13128910D01*
X23108637Y-13195204D01*
X23091358Y-13262903D01*
X23040221Y-13310514D01*
X22984716Y-13323630D01*
X17503182Y-13323630D01*
X17436143Y-13303945D01*
X17415501Y-13287311D01*
X17128627Y-13000437D01*
X17102224Y-12961345D01*
X17095738Y-12946117D01*
X16774160Y-12191078D01*
X16774154Y-12191067D01*
X16773276Y-12189004D01*
X16772849Y-12187827D01*
X16771720Y-12185100D01*
X16766406Y-12175160D01*
X16762023Y-12166161D01*
X16751404Y-12144360D01*
X16751399Y-12144354D01*
X16748402Y-12139464D01*
X16741841Y-12129203D01*
X16684612Y-12022135D01*
X16673430Y-12001214D01*
X16673428Y-12001211D01*
X16541154Y-11840035D01*
X16379980Y-11707763D01*
X16379978Y-11707762D01*
X16379977Y-11707761D01*
X16196091Y-11609471D01*
X16196090Y-11609470D01*
X16196085Y-11609468D01*
X16192977Y-11608180D01*
X15426434Y-11275965D01*
X15388062Y-11249872D01*
X11658687Y-7520497D01*
X11636855Y-7490978D01*
X11620278Y-7459766D01*
X11400900Y-7046699D01*
X11386182Y-7020827D01*
X11386181Y-7020826D01*
X11386179Y-7020822D01*
X11383161Y-7016440D01*
X11383226Y-7016394D01*
X11375259Y-7004905D01*
X11317427Y-6904737D01*
X11286745Y-6870661D01*
X11196678Y-6770630D01*
X11196675Y-6770628D01*
X11196674Y-6770627D01*
X11196673Y-6770626D01*
X11103495Y-6702928D01*
X11050673Y-6664550D01*
X11013352Y-6647934D01*
X10990635Y-6634778D01*
X10984493Y-6630290D01*
X10540208Y-6394332D01*
X10510689Y-6372500D01*
X8985319Y-4847130D01*
X7200803Y-3062614D01*
X7167320Y-3001293D01*
X7172304Y-2931601D01*
X7214176Y-2875668D01*
X7279640Y-2851251D01*
X7327307Y-2857169D01*
G37*
%TD.AperFunction*%
%TA.AperFunction,Conductor*%
G36*
X28954336Y-12269839D02*
G01*
X29268085Y-12371468D01*
X29300430Y-12380785D01*
X29300443Y-12380786D01*
X29305776Y-12381827D01*
X29305699Y-12382218D01*
X29326300Y-12386839D01*
X29362386Y-12399467D01*
X29362390Y-12399467D01*
X29362392Y-12399468D01*
X29532232Y-12418604D01*
X29532236Y-12418604D01*
X29532240Y-12418604D01*
X29702079Y-12399468D01*
X29702079Y-12399467D01*
X29702086Y-12399467D01*
X29758538Y-12379712D01*
X29778445Y-12374555D01*
X29796385Y-12371468D01*
X30110135Y-12269839D01*
X30148346Y-12263805D01*
X32039454Y-12263805D01*
X32106493Y-12283490D01*
X32127135Y-12300124D01*
X32938960Y-13111949D01*
X32972445Y-13173272D01*
X32967461Y-13242964D01*
X32925589Y-13298897D01*
X32860125Y-13323314D01*
X32851279Y-13323630D01*
X26853405Y-13323630D01*
X26786366Y-13303945D01*
X26740611Y-13251141D01*
X26730667Y-13181983D01*
X26759692Y-13118427D01*
X26805952Y-13085069D01*
X26833185Y-13073788D01*
X26905936Y-13043654D01*
X27001132Y-12970607D01*
X27001133Y-12970605D01*
X27009224Y-12964397D01*
X27009231Y-12964391D01*
X27022504Y-12954207D01*
X27033047Y-12946117D01*
X27055070Y-12917415D01*
X27060398Y-12911339D01*
X27671615Y-12300124D01*
X27732938Y-12266639D01*
X27759296Y-12263805D01*
X28916125Y-12263805D01*
X28954336Y-12269839D01*
G37*
%TD.AperFunction*%
%TA.AperFunction,Conductor*%
G36*
X58852188Y-6889815D02*
G01*
X58872830Y-6906449D01*
X59634241Y-7667860D01*
X59667726Y-7729183D01*
X59670560Y-7755541D01*
X59670560Y-8729438D01*
X59650875Y-8796477D01*
X59598071Y-8842232D01*
X59528913Y-8852176D01*
X59465357Y-8823151D01*
X59427583Y-8764373D01*
X59423340Y-8743322D01*
X59423223Y-8742284D01*
X59423222Y-8742280D01*
X59418728Y-8729438D01*
X59366769Y-8580947D01*
X59275831Y-8436221D01*
X59154969Y-8315359D01*
X59154968Y-8315358D01*
X59010243Y-8224420D01*
X59008303Y-8223486D01*
X59003839Y-8221576D01*
X58704961Y-8068949D01*
X58673675Y-8046196D01*
X58410414Y-7782935D01*
X58405061Y-7776832D01*
X58398786Y-7768654D01*
X58383047Y-7748143D01*
X58383045Y-7748141D01*
X58383044Y-7748140D01*
X58357955Y-7728889D01*
X58351134Y-7723655D01*
X58351132Y-7723653D01*
X58278422Y-7667860D01*
X58255937Y-7650606D01*
X58255933Y-7650604D01*
X58107910Y-7589291D01*
X58088517Y-7586738D01*
X57986764Y-7573342D01*
X57986738Y-7573340D01*
X57949061Y-7568380D01*
X57949059Y-7568380D01*
X57938587Y-7569758D01*
X57913211Y-7573099D01*
X57905114Y-7573630D01*
X27463006Y-7573630D01*
X27454908Y-7573099D01*
X27429532Y-7569758D01*
X27419061Y-7568380D01*
X27419059Y-7568380D01*
X27381549Y-7573318D01*
X27381520Y-7573320D01*
X27279602Y-7586738D01*
X27260208Y-7589291D01*
X27112186Y-7650604D01*
X27089698Y-7667860D01*
X27016988Y-7723653D01*
X27016985Y-7723655D01*
X27001747Y-7735348D01*
X26985070Y-7748145D01*
X26963056Y-7776833D01*
X26957705Y-7782935D01*
X23729444Y-11011195D01*
X23698158Y-11033948D01*
X23399277Y-11186578D01*
X23394806Y-11188491D01*
X23392873Y-11189422D01*
X23382289Y-11196072D01*
X23379314Y-11197827D01*
X23374948Y-11200241D01*
X23373966Y-11200903D01*
X23369332Y-11204213D01*
X23248151Y-11280359D01*
X23145675Y-11382835D01*
X23084352Y-11416319D01*
X23014660Y-11411335D01*
X22970313Y-11382834D01*
X22413879Y-10826400D01*
X22380394Y-10765077D01*
X22377560Y-10738719D01*
X22377560Y-8926075D01*
X22378091Y-8917973D01*
X22378442Y-8915307D01*
X22382810Y-8882130D01*
X22377560Y-8842250D01*
X22377560Y-8842245D01*
X22362160Y-8725268D01*
X22361898Y-8723279D01*
X22300584Y-8575254D01*
X22300583Y-8575252D01*
X22225066Y-8476838D01*
X22203046Y-8448142D01*
X22179305Y-8429925D01*
X22174353Y-8426125D01*
X22168263Y-8420784D01*
X21824990Y-8077511D01*
X21802237Y-8046225D01*
X21649610Y-7747344D01*
X21647697Y-7742874D01*
X21646771Y-7740951D01*
X21646769Y-7740948D01*
X21646769Y-7740947D01*
X21640108Y-7730347D01*
X21638351Y-7727367D01*
X21636300Y-7723656D01*
X21635973Y-7723064D01*
X21635971Y-7723061D01*
X21635288Y-7722047D01*
X21632024Y-7717479D01*
X21615136Y-7690604D01*
X21596135Y-7623368D01*
X21616501Y-7556532D01*
X21669769Y-7511317D01*
X21720129Y-7500630D01*
X22935769Y-7500630D01*
X22966235Y-7504431D01*
X23297450Y-7588382D01*
X23307214Y-7590686D01*
X23318733Y-7593405D01*
X23318674Y-7593653D01*
X23334028Y-7597480D01*
X23359210Y-7606292D01*
X23359216Y-7606293D01*
X23529056Y-7625429D01*
X23529060Y-7625429D01*
X23529064Y-7625429D01*
X23698904Y-7606293D01*
X23698907Y-7606292D01*
X23698910Y-7606292D01*
X23860243Y-7549839D01*
X24004969Y-7458901D01*
X24125831Y-7338039D01*
X24216769Y-7193313D01*
X24216772Y-7193302D01*
X24217695Y-7191388D01*
X24219610Y-7186912D01*
X24222243Y-7181754D01*
X24222247Y-7181750D01*
X24346856Y-6937734D01*
X24394876Y-6886983D01*
X24457290Y-6870130D01*
X58785149Y-6870130D01*
X58852188Y-6889815D01*
G37*
%TD.AperFunction*%
%TA.AperFunction,Conductor*%
G36*
X9761824Y-2822396D02*
G01*
X10460229Y-3052622D01*
X10509088Y-3082707D01*
X13498330Y-6071949D01*
X13531815Y-6133272D01*
X13526831Y-6202964D01*
X13484959Y-6258897D01*
X13419495Y-6283314D01*
X13410649Y-6283630D01*
X12942471Y-6283630D01*
X12875432Y-6263945D01*
X12854790Y-6247311D01*
X9635323Y-3027844D01*
X9601838Y-2966521D01*
X9606822Y-2896829D01*
X9648694Y-2840896D01*
X9714158Y-2816479D01*
X9761824Y-2822396D01*
G37*
%TD.AperFunction*%
%TA.AperFunction,Conductor*%
G36*
X32729060Y-2672763D02*
G01*
X32942543Y-2615563D01*
X32942552Y-2615559D01*
X33156638Y-2515730D01*
X33350142Y-2380235D01*
X33517165Y-2213212D01*
X33643928Y-2032178D01*
X33698505Y-1988553D01*
X33768004Y-1981361D01*
X33830358Y-2012883D01*
X33849311Y-2035480D01*
X33943336Y-2179395D01*
X33943344Y-2179406D01*
X34095816Y-2345032D01*
X34095821Y-2345037D01*
X34099072Y-2347567D01*
X34273484Y-2483319D01*
X34273485Y-2483319D01*
X34273487Y-2483321D01*
X34395438Y-2549317D01*
X34471486Y-2590472D01*
X34684425Y-2663574D01*
X34906491Y-2700630D01*
X35131629Y-2700630D01*
X35353695Y-2663574D01*
X35566634Y-2590472D01*
X35764636Y-2483319D01*
X35942300Y-2345036D01*
X36063654Y-2213212D01*
X36094775Y-2179406D01*
X36094775Y-2179405D01*
X36094782Y-2179398D01*
X36185253Y-2040920D01*
X36238398Y-1995567D01*
X36307629Y-1986143D01*
X36370965Y-2015645D01*
X36392864Y-2040917D01*
X36483338Y-2179398D01*
X36483343Y-2179403D01*
X36483344Y-2179406D01*
X36635816Y-2345032D01*
X36635821Y-2345037D01*
X36639072Y-2347567D01*
X36813484Y-2483319D01*
X36813485Y-2483319D01*
X36813487Y-2483321D01*
X36935438Y-2549317D01*
X37011486Y-2590472D01*
X37224425Y-2663574D01*
X37446491Y-2700630D01*
X37671629Y-2700630D01*
X37893695Y-2663574D01*
X38106634Y-2590472D01*
X38304636Y-2483319D01*
X38482300Y-2345036D01*
X38603654Y-2213212D01*
X38634775Y-2179406D01*
X38634775Y-2179405D01*
X38634782Y-2179398D01*
X38725253Y-2040920D01*
X38778398Y-1995567D01*
X38847629Y-1986143D01*
X38910965Y-2015645D01*
X38932864Y-2040917D01*
X39023338Y-2179398D01*
X39023343Y-2179403D01*
X39023344Y-2179406D01*
X39175816Y-2345032D01*
X39175821Y-2345037D01*
X39179072Y-2347567D01*
X39353484Y-2483319D01*
X39353485Y-2483319D01*
X39353487Y-2483321D01*
X39475438Y-2549317D01*
X39551486Y-2590472D01*
X39764425Y-2663574D01*
X39986491Y-2700630D01*
X40211629Y-2700630D01*
X40433695Y-2663574D01*
X40646634Y-2590472D01*
X40844636Y-2483319D01*
X41022300Y-2345036D01*
X41143654Y-2213212D01*
X41174775Y-2179406D01*
X41174775Y-2179405D01*
X41174782Y-2179398D01*
X41260935Y-2047529D01*
X41314080Y-2002176D01*
X41383311Y-1992752D01*
X41446647Y-2022254D01*
X41475716Y-2060031D01*
X42013175Y-3138182D01*
X42017535Y-3146927D01*
X42030560Y-3202248D01*
X42030560Y-5195518D01*
X42024526Y-5233729D01*
X41922896Y-5547478D01*
X41918295Y-5563452D01*
X41880824Y-5622424D01*
X41817419Y-5651775D01*
X41799140Y-5653130D01*
X24268226Y-5653130D01*
X24201187Y-5633445D01*
X24163232Y-5595101D01*
X24137658Y-5554399D01*
X24016793Y-5433534D01*
X23872068Y-5342597D01*
X23710734Y-5286143D01*
X23710729Y-5286142D01*
X23540889Y-5267007D01*
X23540881Y-5267007D01*
X23371036Y-5286143D01*
X23371035Y-5286143D01*
X23312922Y-5306477D01*
X23293538Y-5311545D01*
X23274587Y-5314892D01*
X23274584Y-5314893D01*
X22970815Y-5414750D01*
X22962665Y-5417429D01*
X22923942Y-5423630D01*
X14622471Y-5423630D01*
X14555432Y-5403945D01*
X14534790Y-5387311D01*
X12059790Y-2912311D01*
X12026305Y-2850988D01*
X12031289Y-2781296D01*
X12073161Y-2725363D01*
X12138625Y-2700946D01*
X12147471Y-2700630D01*
X12271629Y-2700630D01*
X12493695Y-2663574D01*
X12706634Y-2590472D01*
X12904636Y-2483319D01*
X13082300Y-2345036D01*
X13203654Y-2213212D01*
X13234775Y-2179406D01*
X13234775Y-2179405D01*
X13234782Y-2179398D01*
X13325253Y-2040920D01*
X13378398Y-1995567D01*
X13447629Y-1986143D01*
X13510965Y-2015645D01*
X13532864Y-2040917D01*
X13623338Y-2179398D01*
X13623343Y-2179403D01*
X13623344Y-2179406D01*
X13775816Y-2345032D01*
X13775821Y-2345037D01*
X13779072Y-2347567D01*
X13953484Y-2483319D01*
X13953485Y-2483319D01*
X13953487Y-2483321D01*
X14075438Y-2549317D01*
X14151486Y-2590472D01*
X14364425Y-2663574D01*
X14586491Y-2700630D01*
X14811629Y-2700630D01*
X15033695Y-2663574D01*
X15246634Y-2590472D01*
X15444636Y-2483319D01*
X15622300Y-2345036D01*
X15743654Y-2213212D01*
X15774775Y-2179406D01*
X15774775Y-2179405D01*
X15774782Y-2179398D01*
X15865253Y-2040920D01*
X15918398Y-1995567D01*
X15987629Y-1986143D01*
X16050965Y-2015645D01*
X16072864Y-2040917D01*
X16163338Y-2179398D01*
X16163343Y-2179403D01*
X16163344Y-2179406D01*
X16315816Y-2345032D01*
X16315821Y-2345037D01*
X16319072Y-2347567D01*
X16493484Y-2483319D01*
X16493485Y-2483319D01*
X16493487Y-2483321D01*
X16615438Y-2549317D01*
X16691486Y-2590472D01*
X16904425Y-2663574D01*
X17126491Y-2700630D01*
X17351629Y-2700630D01*
X17573695Y-2663574D01*
X17786634Y-2590472D01*
X17984636Y-2483319D01*
X18162300Y-2345036D01*
X18283654Y-2213212D01*
X18314775Y-2179406D01*
X18314775Y-2179405D01*
X18314782Y-2179398D01*
X18405253Y-2040920D01*
X18458398Y-1995567D01*
X18527629Y-1986143D01*
X18590965Y-2015645D01*
X18612864Y-2040917D01*
X18703338Y-2179398D01*
X18703343Y-2179403D01*
X18703344Y-2179406D01*
X18855816Y-2345032D01*
X18855821Y-2345037D01*
X18859072Y-2347567D01*
X19033484Y-2483319D01*
X19033485Y-2483319D01*
X19033487Y-2483321D01*
X19155438Y-2549317D01*
X19231486Y-2590472D01*
X19444425Y-2663574D01*
X19666491Y-2700630D01*
X19891629Y-2700630D01*
X20113695Y-2663574D01*
X20326634Y-2590472D01*
X20524636Y-2483319D01*
X20702300Y-2345036D01*
X20823654Y-2213212D01*
X20854775Y-2179406D01*
X20854775Y-2179405D01*
X20854782Y-2179398D01*
X20945253Y-2040920D01*
X20998398Y-1995567D01*
X21067629Y-1986143D01*
X21130965Y-2015645D01*
X21152864Y-2040917D01*
X21243338Y-2179398D01*
X21243343Y-2179403D01*
X21243344Y-2179406D01*
X21395816Y-2345032D01*
X21395821Y-2345037D01*
X21399072Y-2347567D01*
X21573484Y-2483319D01*
X21573485Y-2483319D01*
X21573487Y-2483321D01*
X21695438Y-2549317D01*
X21771486Y-2590472D01*
X21984425Y-2663574D01*
X22206491Y-2700630D01*
X22431629Y-2700630D01*
X22653695Y-2663574D01*
X22866634Y-2590472D01*
X23064636Y-2483319D01*
X23242300Y-2345036D01*
X23363654Y-2213212D01*
X23394775Y-2179406D01*
X23394775Y-2179405D01*
X23394782Y-2179398D01*
X23485253Y-2040920D01*
X23538398Y-1995567D01*
X23607629Y-1986143D01*
X23670965Y-2015645D01*
X23692864Y-2040917D01*
X23783338Y-2179398D01*
X23783343Y-2179403D01*
X23783344Y-2179406D01*
X23935816Y-2345032D01*
X23935821Y-2345037D01*
X23939072Y-2347567D01*
X24113484Y-2483319D01*
X24113485Y-2483319D01*
X24113487Y-2483321D01*
X24235438Y-2549317D01*
X24311486Y-2590472D01*
X24524425Y-2663574D01*
X24746491Y-2700630D01*
X24971629Y-2700630D01*
X25193695Y-2663574D01*
X25406634Y-2590472D01*
X25604636Y-2483319D01*
X25782300Y-2345036D01*
X25903654Y-2213212D01*
X25934775Y-2179406D01*
X25934775Y-2179405D01*
X25934782Y-2179398D01*
X26025253Y-2040920D01*
X26078398Y-1995567D01*
X26147629Y-1986143D01*
X26210965Y-2015645D01*
X26232864Y-2040917D01*
X26323338Y-2179398D01*
X26323343Y-2179403D01*
X26323344Y-2179406D01*
X26475816Y-2345032D01*
X26475821Y-2345037D01*
X26479072Y-2347567D01*
X26653484Y-2483319D01*
X26653485Y-2483319D01*
X26653487Y-2483321D01*
X26775438Y-2549317D01*
X26851486Y-2590472D01*
X27064425Y-2663574D01*
X27286491Y-2700630D01*
X27511629Y-2700630D01*
X27733695Y-2663574D01*
X27946634Y-2590472D01*
X28144636Y-2483319D01*
X28322300Y-2345036D01*
X28443654Y-2213212D01*
X28474775Y-2179406D01*
X28474775Y-2179405D01*
X28474782Y-2179398D01*
X28565253Y-2040920D01*
X28618398Y-1995567D01*
X28687629Y-1986143D01*
X28750965Y-2015645D01*
X28772864Y-2040917D01*
X28863338Y-2179398D01*
X28863343Y-2179403D01*
X28863344Y-2179406D01*
X29015816Y-2345032D01*
X29015821Y-2345037D01*
X29019072Y-2347567D01*
X29193484Y-2483319D01*
X29193485Y-2483319D01*
X29193487Y-2483321D01*
X29315438Y-2549317D01*
X29391486Y-2590472D01*
X29604425Y-2663574D01*
X29826491Y-2700630D01*
X30051629Y-2700630D01*
X30273695Y-2663574D01*
X30486634Y-2590472D01*
X30684636Y-2483319D01*
X30862300Y-2345036D01*
X30983654Y-2213212D01*
X31014775Y-2179406D01*
X31014775Y-2179405D01*
X31014782Y-2179398D01*
X31108809Y-2035477D01*
X31161954Y-1990124D01*
X31231185Y-1980700D01*
X31294521Y-2010202D01*
X31314190Y-2032178D01*
X31440950Y-2213208D01*
X31607977Y-2380235D01*
X31801481Y-2515730D01*
X32015567Y-2615559D01*
X32015576Y-2615563D01*
X32229060Y-2672764D01*
X32229060Y-1777631D01*
X32336745Y-1826810D01*
X32443297Y-1842130D01*
X32514823Y-1842130D01*
X32621375Y-1826810D01*
X32729060Y-1777631D01*
X32729060Y-2672763D01*
G37*
%TD.AperFunction*%
%TD*%
%TA.AperFunction,Conductor*%
%TO.N,/PB2{slash}BOOT1*%
G36*
X42738824Y-5315057D02*
G01*
X42741682Y-5319725D01*
X42866712Y-5705717D01*
X42866001Y-5714643D01*
X42860098Y-5720115D01*
X42643577Y-5810739D01*
X42634623Y-5810772D01*
X42634543Y-5810739D01*
X42418021Y-5720115D01*
X42411712Y-5713759D01*
X42411407Y-5705718D01*
X42536438Y-5319725D01*
X42542248Y-5312910D01*
X42547569Y-5311630D01*
X42730551Y-5311630D01*
X42738824Y-5315057D01*
G37*
%TD.AperFunction*%
%TD*%
%TA.AperFunction,Conductor*%
%TO.N,/PB2{slash}BOOT1*%
G36*
X42643549Y-1342995D02*
G01*
X43412784Y-1662602D01*
X43419109Y-1668941D01*
X43419100Y-1677896D01*
X43418766Y-1678627D01*
X42742290Y-3035650D01*
X42735532Y-3041525D01*
X42731819Y-3042130D01*
X42546301Y-3042130D01*
X42538028Y-3038703D01*
X42535830Y-3035650D01*
X41859353Y-1678627D01*
X41858729Y-1669694D01*
X41864604Y-1662936D01*
X41865321Y-1662608D01*
X42634571Y-1342994D01*
X42643526Y-1342986D01*
X42643549Y-1342995D01*
G37*
%TD.AperFunction*%
%TD*%
%TA.AperFunction,Conductor*%
%TO.N,/VDD_5V*%
G36*
X6575709Y-7930548D02*
G01*
X6582028Y-7936893D01*
X6582617Y-7943946D01*
X6421133Y-8653028D01*
X6415955Y-8660334D01*
X6409725Y-8662130D01*
X5928395Y-8662130D01*
X5920122Y-8658703D01*
X5916987Y-8653028D01*
X5755502Y-7943946D01*
X5757006Y-7935118D01*
X5762409Y-7930548D01*
X6164561Y-7763003D01*
X6173512Y-7762985D01*
X6575709Y-7930548D01*
G37*
%TD.AperFunction*%
%TD*%
%TA.AperFunction,Conductor*%
%TO.N,/VDD_5V*%
G36*
X6417998Y-11665557D02*
G01*
X6421133Y-11671232D01*
X6582617Y-12380313D01*
X6581113Y-12389141D01*
X6575709Y-12393711D01*
X6173560Y-12561255D01*
X6164605Y-12561274D01*
X6164560Y-12561255D01*
X5762410Y-12393711D01*
X5756091Y-12387366D01*
X5755502Y-12380313D01*
X5916987Y-11671232D01*
X5922165Y-11663926D01*
X5928395Y-11662130D01*
X6409725Y-11662130D01*
X6417998Y-11665557D01*
G37*
%TD.AperFunction*%
%TD*%
%TA.AperFunction,Conductor*%
%TO.N,/VDD_3.3V*%
G36*
X39822791Y-15950147D02*
G01*
X40187595Y-16143893D01*
X40328633Y-16218798D01*
X40334332Y-16225705D01*
X40333966Y-16233580D01*
X40206623Y-16543321D01*
X40200308Y-16549670D01*
X40200251Y-16549693D01*
X39890510Y-16677036D01*
X39881555Y-16677013D01*
X39875728Y-16671703D01*
X39643042Y-16233580D01*
X39607077Y-16165862D01*
X39606224Y-16156950D01*
X39609136Y-16152105D01*
X39809034Y-15952207D01*
X39817306Y-15948781D01*
X39822791Y-15950147D01*
G37*
%TD.AperFunction*%
%TD*%
%TA.AperFunction,Conductor*%
%TO.N,/VDD_3.3V*%
G36*
X31144086Y-16517208D02*
G01*
X31343981Y-16717103D01*
X31347408Y-16725376D01*
X31346041Y-16730864D01*
X31077391Y-17236703D01*
X31070484Y-17242402D01*
X31062609Y-17242036D01*
X30752868Y-17114693D01*
X30746520Y-17108379D01*
X30619153Y-16798579D01*
X30619176Y-16789625D01*
X30624485Y-16783798D01*
X31130327Y-16515147D01*
X31139239Y-16514294D01*
X31144086Y-16517208D01*
G37*
%TD.AperFunction*%
%TD*%
%TA.AperFunction,Conductor*%
%TO.N,/VDD_3.3V*%
G36*
X33565509Y-13852222D02*
G01*
X33875251Y-13979566D01*
X33881600Y-13985881D01*
X33881623Y-13985938D01*
X34008966Y-14295679D01*
X34008943Y-14304634D01*
X34003633Y-14310461D01*
X33497794Y-14579111D01*
X33488880Y-14579965D01*
X33484033Y-14577051D01*
X33284138Y-14377156D01*
X33280711Y-14368883D01*
X33282076Y-14363399D01*
X33550728Y-13857555D01*
X33557635Y-13851857D01*
X33565509Y-13852222D01*
G37*
%TD.AperFunction*%
%TD*%
%TA.AperFunction,Conductor*%
%TO.N,/VDD_3.3V*%
G36*
X33743894Y-13662731D02*
G01*
X33749204Y-13668558D01*
X33878179Y-13977624D01*
X33878202Y-13986579D01*
X33878179Y-13986636D01*
X33749204Y-14295701D01*
X33742855Y-14302016D01*
X33734980Y-14302382D01*
X33187334Y-14134663D01*
X33180427Y-14128964D01*
X33179060Y-14123476D01*
X33179060Y-13840783D01*
X33182487Y-13832510D01*
X33187334Y-13829596D01*
X33734981Y-13661877D01*
X33743894Y-13662731D01*
G37*
%TD.AperFunction*%
%TD*%
%TA.AperFunction,Conductor*%
%TO.N,/VDD_3.3V*%
G36*
X10941564Y-7282246D02*
G01*
X10947391Y-7287556D01*
X11216041Y-7793395D01*
X11216895Y-7802309D01*
X11213981Y-7807156D01*
X11014086Y-8007051D01*
X11005813Y-8010478D01*
X11000325Y-8009111D01*
X10996446Y-8007051D01*
X10620065Y-7807156D01*
X10494486Y-7740461D01*
X10488787Y-7733554D01*
X10489152Y-7725681D01*
X10616497Y-7415936D01*
X10622808Y-7409591D01*
X10932610Y-7282223D01*
X10941564Y-7282246D01*
G37*
%TD.AperFunction*%
%TD*%
%TA.AperFunction,Conductor*%
%TO.N,/VDD_3.3V*%
G36*
X15130600Y-11707404D02*
G01*
X15988992Y-12079426D01*
X15995220Y-12085860D01*
X15995156Y-12094620D01*
X15791622Y-12588334D01*
X15785301Y-12594677D01*
X15785264Y-12594692D01*
X15291696Y-12798165D01*
X15282741Y-12798150D01*
X15276440Y-12791854D01*
X14914189Y-11923607D01*
X14914167Y-11914653D01*
X14916713Y-11910832D01*
X15117679Y-11709866D01*
X15125951Y-11706440D01*
X15130600Y-11707404D01*
G37*
%TD.AperFunction*%
%TD*%
%TA.AperFunction,Conductor*%
%TO.N,/VDD_3.3V*%
G36*
X10237791Y-6815147D02*
G01*
X10602595Y-7008893D01*
X10743633Y-7083798D01*
X10749332Y-7090705D01*
X10748966Y-7098580D01*
X10621623Y-7408321D01*
X10615308Y-7414670D01*
X10615251Y-7414693D01*
X10305510Y-7542036D01*
X10296555Y-7542013D01*
X10290728Y-7536703D01*
X10058042Y-7098580D01*
X10022077Y-7030862D01*
X10021224Y-7021950D01*
X10024136Y-7017105D01*
X10224034Y-6817207D01*
X10232306Y-6813781D01*
X10237791Y-6815147D01*
G37*
%TD.AperFunction*%
%TD*%
%TA.AperFunction,Conductor*%
%TO.N,/VDD_3.3V*%
G36*
X5322110Y-1021484D02*
G01*
X5328435Y-1027823D01*
X5328586Y-1028207D01*
X5848590Y-2425108D01*
X5848265Y-2434057D01*
X5845898Y-2437463D01*
X5644343Y-2639018D01*
X5636070Y-2642445D01*
X5632081Y-2641744D01*
X4225269Y-2131594D01*
X4218660Y-2125552D01*
X4218259Y-2116606D01*
X4218431Y-2116161D01*
X4536498Y-1345913D01*
X4542819Y-1339578D01*
X5313155Y-1021475D01*
X5322110Y-1021484D01*
G37*
%TD.AperFunction*%
%TD*%
%TA.AperFunction,Conductor*%
%TO.N,/VDD_3.3V*%
G36*
X34570786Y-13829596D02*
G01*
X34577693Y-13835295D01*
X34579060Y-13840783D01*
X34579060Y-14123476D01*
X34575633Y-14131749D01*
X34570786Y-14134663D01*
X34023139Y-14302382D01*
X34014225Y-14301528D01*
X34008915Y-14295701D01*
X33879940Y-13986636D01*
X33879917Y-13977681D01*
X33879940Y-13977624D01*
X33940656Y-13832130D01*
X34008915Y-13668557D01*
X34015264Y-13662243D01*
X34023137Y-13661877D01*
X34570786Y-13829596D01*
G37*
%TD.AperFunction*%
%TD*%
%TA.AperFunction,Conductor*%
%TO.N,/VDD_3.3V*%
G36*
X16295457Y-12386076D02*
G01*
X16301725Y-12392293D01*
X16669846Y-13256610D01*
X16669935Y-13265565D01*
X16667355Y-13269468D01*
X16466398Y-13470425D01*
X16458125Y-13473852D01*
X16453540Y-13472916D01*
X15589223Y-13104795D01*
X15582955Y-13098401D01*
X15582990Y-13089573D01*
X15786497Y-12595924D01*
X15792817Y-12589582D01*
X16286503Y-12386061D01*
X16295457Y-12386076D01*
G37*
%TD.AperFunction*%
%TD*%
%TA.AperFunction,Conductor*%
%TO.N,/VDD_3.3V*%
G36*
X40526564Y-16417246D02*
G01*
X40532391Y-16422556D01*
X40801041Y-16928395D01*
X40801895Y-16937309D01*
X40798981Y-16942156D01*
X40599086Y-17142051D01*
X40590813Y-17145478D01*
X40585325Y-17144111D01*
X40581446Y-17142051D01*
X40205065Y-16942156D01*
X40079486Y-16875461D01*
X40073787Y-16868554D01*
X40074152Y-16860681D01*
X40201497Y-16550936D01*
X40207808Y-16544591D01*
X40517610Y-16417223D01*
X40526564Y-16417246D01*
G37*
%TD.AperFunction*%
%TD*%
%TA.AperFunction,Conductor*%
%TO.N,/VDD_3.3V*%
G36*
X41550061Y-17676564D02*
G01*
X42870346Y-18162254D01*
X42952921Y-18192631D01*
X42959503Y-18198704D01*
X42959863Y-18207651D01*
X42959696Y-18208078D01*
X42641622Y-18978344D01*
X42635297Y-18984683D01*
X42635274Y-18984692D01*
X41865008Y-19302766D01*
X41856053Y-19302757D01*
X41849728Y-19296418D01*
X41849561Y-19295991D01*
X41732709Y-18978344D01*
X41333495Y-17893134D01*
X41333855Y-17884189D01*
X41336200Y-17880827D01*
X41537755Y-17679272D01*
X41546027Y-17675846D01*
X41550061Y-17676564D01*
G37*
%TD.AperFunction*%
%TD*%
%TA.AperFunction,Conductor*%
%TO.N,/BOOT0*%
G36*
X45173792Y-14211734D02*
G01*
X45535144Y-14396264D01*
X45540953Y-14403078D01*
X45540648Y-14411121D01*
X45451624Y-14628306D01*
X45445315Y-14634661D01*
X45445236Y-14634694D01*
X45228051Y-14723718D01*
X45219096Y-14723685D01*
X45213194Y-14718214D01*
X45028664Y-14356863D01*
X45027954Y-14347938D01*
X45030810Y-14343272D01*
X45160201Y-14213881D01*
X45168473Y-14210455D01*
X45173792Y-14211734D01*
G37*
%TD.AperFunction*%
%TD*%
%TA.AperFunction,Conductor*%
%TO.N,/BOOT0*%
G36*
X32048523Y-10615180D02*
G01*
X32054426Y-10620652D01*
X32238954Y-10982001D01*
X32239665Y-10990927D01*
X32236807Y-10995595D01*
X32107419Y-11124983D01*
X32099146Y-11128410D01*
X32093825Y-11127130D01*
X31824468Y-10989579D01*
X31732475Y-10942601D01*
X31726666Y-10935787D01*
X31726970Y-10927747D01*
X31815996Y-10710557D01*
X31822303Y-10704204D01*
X32039571Y-10615147D01*
X32048523Y-10615180D01*
G37*
%TD.AperFunction*%
%TD*%
%TA.AperFunction,Conductor*%
%TO.N,/NRST*%
G36*
X29435249Y-11428363D02*
G01*
X29440721Y-11434266D01*
X29531345Y-11650788D01*
X29531378Y-11659742D01*
X29531345Y-11659822D01*
X29440721Y-11876343D01*
X29434365Y-11882652D01*
X29426323Y-11882957D01*
X29040331Y-11757927D01*
X29033516Y-11752117D01*
X29032236Y-11746796D01*
X29032236Y-11563813D01*
X29035663Y-11555540D01*
X29040327Y-11552683D01*
X29426324Y-11427652D01*
X29435249Y-11428363D01*
G37*
%TD.AperFunction*%
%TD*%
%TA.AperFunction,Conductor*%
%TO.N,/NRST*%
G36*
X30024142Y-11552683D02*
G01*
X30030956Y-11558492D01*
X30032236Y-11563813D01*
X30032236Y-11746796D01*
X30028809Y-11755069D01*
X30024141Y-11757927D01*
X29638148Y-11882957D01*
X29629222Y-11882246D01*
X29623750Y-11876343D01*
X29533125Y-11659820D01*
X29533093Y-11650868D01*
X29623750Y-11434265D01*
X29630106Y-11427957D01*
X29638147Y-11427652D01*
X30024142Y-11552683D01*
G37*
%TD.AperFunction*%
%TD*%
%TA.AperFunction,Conductor*%
%TO.N,/NRST*%
G36*
X46594550Y-17711634D02*
G01*
X48032456Y-18192854D01*
X48039214Y-18198729D01*
X48039838Y-18207662D01*
X48039557Y-18208415D01*
X47721622Y-18978344D01*
X47715297Y-18984683D01*
X47715274Y-18984692D01*
X46945345Y-19302627D01*
X46936390Y-19302618D01*
X46930065Y-19296279D01*
X46929784Y-19295526D01*
X46825755Y-18984683D01*
X46448565Y-17857622D01*
X46449189Y-17848692D01*
X46451384Y-17845642D01*
X46582570Y-17714456D01*
X46590842Y-17711030D01*
X46594550Y-17711634D01*
G37*
%TD.AperFunction*%
%TD*%
%TA.AperFunction,Conductor*%
%TO.N,/NRST*%
G36*
X21189023Y-7980574D02*
G01*
X21194926Y-7986046D01*
X21379454Y-8347395D01*
X21380165Y-8356321D01*
X21377307Y-8360989D01*
X21247919Y-8490377D01*
X21239646Y-8493804D01*
X21234325Y-8492524D01*
X20964968Y-8354973D01*
X20872975Y-8307995D01*
X20867166Y-8301181D01*
X20867470Y-8293141D01*
X20956496Y-8075951D01*
X20962803Y-8069598D01*
X21180071Y-7980541D01*
X21189023Y-7980574D01*
G37*
%TD.AperFunction*%
%TD*%
%TA.AperFunction,Conductor*%
%TO.N,/PA13{slash}SWDIO*%
G36*
X7861772Y-1021623D02*
G01*
X7868097Y-1027962D01*
X7868364Y-1028674D01*
X8353523Y-2460620D01*
X8352932Y-2469555D01*
X8350715Y-2472647D01*
X8219530Y-2603832D01*
X8211257Y-2607259D01*
X8207594Y-2606671D01*
X6765735Y-2131369D01*
X6758951Y-2125524D01*
X6758286Y-2116594D01*
X6758584Y-2115791D01*
X7076498Y-1345913D01*
X7082819Y-1339578D01*
X7852818Y-1021614D01*
X7861772Y-1021623D01*
G37*
%TD.AperFunction*%
%TD*%
%TA.AperFunction,Conductor*%
%TO.N,/PA13{slash}SWDIO*%
G36*
X23431628Y-6635567D02*
G01*
X23437850Y-6641820D01*
X23528169Y-6857613D01*
X23528202Y-6866567D01*
X23528169Y-6866647D01*
X23437282Y-7083798D01*
X23430926Y-7090107D01*
X23423614Y-7090622D01*
X23043852Y-6994366D01*
X23036675Y-6989012D01*
X23035027Y-6983025D01*
X23035027Y-6800021D01*
X23038454Y-6791748D01*
X23042342Y-6789173D01*
X23422675Y-6635489D01*
X23431628Y-6635567D01*
G37*
%TD.AperFunction*%
%TD*%
%TA.AperFunction,Conductor*%
%TO.N,/PA13{slash}SWDIO*%
G36*
X60378284Y-10968336D02*
G01*
X60381335Y-10973667D01*
X60480138Y-11353981D01*
X60478902Y-11362850D01*
X60473331Y-11367716D01*
X60256236Y-11458580D01*
X60247282Y-11458613D01*
X60247202Y-11458580D01*
X60031343Y-11368234D01*
X60025034Y-11361878D01*
X60024985Y-11353126D01*
X60176129Y-10972292D01*
X60182366Y-10965867D01*
X60187004Y-10964909D01*
X60370011Y-10964909D01*
X60378284Y-10968336D01*
G37*
%TD.AperFunction*%
%TD*%
%TA.AperFunction,Conductor*%
%TO.N,/PA13{slash}SWDIO*%
G36*
X23817919Y-6443882D02*
G01*
X23947307Y-6573270D01*
X23950734Y-6581543D01*
X23949454Y-6586864D01*
X23764926Y-6948213D01*
X23758111Y-6954023D01*
X23750069Y-6953718D01*
X23532882Y-6864693D01*
X23526528Y-6858385D01*
X23437471Y-6641118D01*
X23437504Y-6632166D01*
X23442973Y-6626265D01*
X23804326Y-6441734D01*
X23813251Y-6441024D01*
X23817919Y-6443882D01*
G37*
%TD.AperFunction*%
%TD*%
%TA.AperFunction,Conductor*%
%TO.N,/PA12*%
G36*
X10401772Y-1021623D02*
G01*
X10408097Y-1027962D01*
X10408364Y-1028674D01*
X10893523Y-2460620D01*
X10892932Y-2469555D01*
X10890715Y-2472647D01*
X10759530Y-2603832D01*
X10751257Y-2607259D01*
X10747594Y-2606671D01*
X9305735Y-2131369D01*
X9298951Y-2125524D01*
X9298286Y-2116594D01*
X9298584Y-2115791D01*
X9616498Y-1345913D01*
X9622819Y-1339578D01*
X10392818Y-1021614D01*
X10401772Y-1021623D01*
G37*
%TD.AperFunction*%
%TD*%
%TA.AperFunction,Conductor*%
%TO.N,/PA12*%
G36*
X23443871Y-5803384D02*
G01*
X23449388Y-5809310D01*
X23539994Y-6025789D01*
X23540027Y-6034743D01*
X23539994Y-6034823D01*
X23449354Y-6251383D01*
X23442998Y-6257692D01*
X23434998Y-6258010D01*
X23049385Y-6134731D01*
X23042548Y-6128948D01*
X23041248Y-6123587D01*
X23041248Y-5940600D01*
X23044675Y-5932327D01*
X23049294Y-5929485D01*
X23434943Y-5802712D01*
X23443871Y-5803384D01*
G37*
%TD.AperFunction*%
%TD*%
%TA.AperFunction,Conductor*%
%TO.N,/PA14{slash}SWCLK*%
G36*
X58403792Y-8491734D02*
G01*
X58765144Y-8676264D01*
X58770953Y-8683078D01*
X58770648Y-8691121D01*
X58681624Y-8908306D01*
X58675315Y-8914661D01*
X58675236Y-8914694D01*
X58458051Y-9003718D01*
X58449096Y-9003685D01*
X58443194Y-8998214D01*
X58258664Y-8636863D01*
X58257954Y-8627938D01*
X58260810Y-8623272D01*
X58390201Y-8493881D01*
X58398473Y-8490455D01*
X58403792Y-8491734D01*
G37*
%TD.AperFunction*%
%TD*%
%TA.AperFunction,Conductor*%
%TO.N,/PA14{slash}SWCLK*%
G36*
X24012919Y-11458882D02*
G01*
X24142307Y-11588270D01*
X24145734Y-11596543D01*
X24144454Y-11601864D01*
X23959926Y-11963213D01*
X23953111Y-11969023D01*
X23945069Y-11968718D01*
X23727882Y-11879693D01*
X23721528Y-11873385D01*
X23632471Y-11656118D01*
X23632504Y-11647166D01*
X23637973Y-11641265D01*
X23999326Y-11456734D01*
X24008251Y-11456024D01*
X24012919Y-11458882D01*
G37*
%TD.AperFunction*%
%TD*%
%TA.AperFunction,Conductor*%
%TO.N,/PA0*%
G36*
X54214550Y-17711634D02*
G01*
X55652456Y-18192854D01*
X55659214Y-18198729D01*
X55659838Y-18207662D01*
X55659557Y-18208415D01*
X55341622Y-18978344D01*
X55335297Y-18984683D01*
X55335274Y-18984692D01*
X54565345Y-19302627D01*
X54556390Y-19302618D01*
X54550065Y-19296279D01*
X54549784Y-19295526D01*
X54445755Y-18984683D01*
X54068565Y-17857622D01*
X54069189Y-17848692D01*
X54071384Y-17845642D01*
X54202570Y-17714456D01*
X54210842Y-17711030D01*
X54214550Y-17711634D01*
G37*
%TD.AperFunction*%
%TD*%
%TA.AperFunction,Conductor*%
%TO.N,/PA0*%
G36*
X35640674Y-12579216D02*
G01*
X35647488Y-12585025D01*
X35648768Y-12590346D01*
X35648768Y-12773329D01*
X35645341Y-12781602D01*
X35640673Y-12784460D01*
X35254680Y-12909490D01*
X35245754Y-12908779D01*
X35240282Y-12902876D01*
X35149657Y-12686353D01*
X35149625Y-12677401D01*
X35240282Y-12460798D01*
X35246638Y-12454490D01*
X35254679Y-12454185D01*
X35640674Y-12579216D01*
G37*
%TD.AperFunction*%
%TD*%
%TA.AperFunction,Conductor*%
%TO.N,/PA1*%
G36*
X35650966Y-11919508D02*
G01*
X35657780Y-11925317D01*
X35659060Y-11930638D01*
X35659060Y-12113621D01*
X35655633Y-12121894D01*
X35650965Y-12124752D01*
X35264972Y-12249782D01*
X35256046Y-12249071D01*
X35250574Y-12243168D01*
X35159949Y-12026645D01*
X35159917Y-12017693D01*
X35250574Y-11801090D01*
X35256930Y-11794782D01*
X35264971Y-11794477D01*
X35650966Y-11919508D01*
G37*
%TD.AperFunction*%
%TD*%
%TA.AperFunction,Conductor*%
%TO.N,/PA1*%
G36*
X56754550Y-17711634D02*
G01*
X58192456Y-18192854D01*
X58199214Y-18198729D01*
X58199838Y-18207662D01*
X58199557Y-18208415D01*
X57881622Y-18978344D01*
X57875297Y-18984683D01*
X57875274Y-18984692D01*
X57105345Y-19302627D01*
X57096390Y-19302618D01*
X57090065Y-19296279D01*
X57089784Y-19295526D01*
X56985755Y-18984683D01*
X56608565Y-17857622D01*
X56609189Y-17848692D01*
X56611384Y-17845642D01*
X56742570Y-17714456D01*
X56750842Y-17711030D01*
X56754550Y-17711634D01*
G37*
%TD.AperFunction*%
%TD*%
%TA.AperFunction,Conductor*%
%TO.N,/PA2*%
G36*
X59294550Y-17711634D02*
G01*
X60732456Y-18192854D01*
X60739214Y-18198729D01*
X60739838Y-18207662D01*
X60739557Y-18208415D01*
X60421622Y-18978344D01*
X60415297Y-18984683D01*
X60415274Y-18984692D01*
X59645345Y-19302627D01*
X59636390Y-19302618D01*
X59630065Y-19296279D01*
X59629784Y-19295526D01*
X59525755Y-18984683D01*
X59148565Y-17857622D01*
X59149189Y-17848692D01*
X59151384Y-17845642D01*
X59282570Y-17714456D01*
X59290842Y-17711030D01*
X59294550Y-17711634D01*
G37*
%TD.AperFunction*%
%TD*%
%TA.AperFunction,Conductor*%
%TO.N,/PA2*%
G36*
X35640966Y-10979508D02*
G01*
X35647780Y-10985317D01*
X35649060Y-10990638D01*
X35649060Y-11173621D01*
X35645633Y-11181894D01*
X35640965Y-11184752D01*
X35254972Y-11309782D01*
X35246046Y-11309071D01*
X35240574Y-11303168D01*
X35149949Y-11086645D01*
X35149917Y-11077693D01*
X35240574Y-10861090D01*
X35246930Y-10854782D01*
X35254971Y-10854477D01*
X35640966Y-10979508D01*
G37*
%TD.AperFunction*%
%TD*%
%TA.AperFunction,Conductor*%
%TO.N,Net-(U2-VSSA)*%
G36*
X30928824Y-10685557D02*
G01*
X30931682Y-10690225D01*
X31056712Y-11076217D01*
X31056001Y-11085143D01*
X31050098Y-11090615D01*
X30833577Y-11181239D01*
X30824623Y-11181272D01*
X30824543Y-11181239D01*
X30608021Y-11090615D01*
X30601712Y-11084259D01*
X30601407Y-11076218D01*
X30726438Y-10690225D01*
X30732248Y-10683410D01*
X30737569Y-10682130D01*
X30920551Y-10682130D01*
X30928824Y-10685557D01*
G37*
%TD.AperFunction*%
%TD*%
%TA.AperFunction,Conductor*%
%TO.N,Net-(U2-VSSA)*%
G36*
X43932206Y-9965094D02*
G01*
X43937458Y-9970882D01*
X44028169Y-10187613D01*
X44028202Y-10196567D01*
X44028169Y-10196647D01*
X43937645Y-10412929D01*
X43931289Y-10419238D01*
X43922983Y-10419454D01*
X43538880Y-10284873D01*
X43532206Y-10278903D01*
X43531049Y-10273831D01*
X43531049Y-10090830D01*
X43534476Y-10082557D01*
X43539379Y-10079625D01*
X43923297Y-9964194D01*
X43932206Y-9965094D01*
G37*
%TD.AperFunction*%
%TD*%
%TA.AperFunction,Conductor*%
%TO.N,/USB_Data-*%
G36*
X3120098Y-9513644D02*
G01*
X3126407Y-9520000D01*
X3126712Y-9528042D01*
X3001682Y-9914035D01*
X2995872Y-9920850D01*
X2990551Y-9922130D01*
X2807569Y-9922130D01*
X2799296Y-9918703D01*
X2796438Y-9914035D01*
X2671407Y-9528042D01*
X2672118Y-9519116D01*
X2678020Y-9513644D01*
X2894544Y-9423019D01*
X2903497Y-9422987D01*
X3120098Y-9513644D01*
G37*
%TD.AperFunction*%
%TD*%
%TA.AperFunction,Conductor*%
%TO.N,/USB_Data-*%
G36*
X2998824Y-9925557D02*
G01*
X3001682Y-9930225D01*
X3126712Y-10316217D01*
X3126001Y-10325143D01*
X3120098Y-10330615D01*
X2903577Y-10421239D01*
X2894623Y-10421272D01*
X2894543Y-10421239D01*
X2678021Y-10330615D01*
X2671712Y-10324259D01*
X2671407Y-10316218D01*
X2796438Y-9930225D01*
X2802248Y-9923410D01*
X2807569Y-9922130D01*
X2990551Y-9922130D01*
X2998824Y-9925557D01*
G37*
%TD.AperFunction*%
%TD*%
%TA.AperFunction,Conductor*%
%TO.N,Net-(USB1-CC2)*%
G36*
X13523013Y-11223058D02*
G01*
X13528485Y-11228961D01*
X13619109Y-11445483D01*
X13619142Y-11454437D01*
X13619109Y-11454517D01*
X13528485Y-11671038D01*
X13522129Y-11677347D01*
X13514087Y-11677652D01*
X13128095Y-11552622D01*
X13121280Y-11546812D01*
X13120000Y-11541491D01*
X13120000Y-11358508D01*
X13123427Y-11350235D01*
X13128091Y-11347378D01*
X13514088Y-11222347D01*
X13523013Y-11223058D01*
G37*
%TD.AperFunction*%
%TD*%
%TA.AperFunction,Conductor*%
%TO.N,Net-(USB1-CC2)*%
G36*
X10101906Y-11347378D02*
G01*
X10108720Y-11353187D01*
X10110000Y-11358508D01*
X10110000Y-11541491D01*
X10106573Y-11549764D01*
X10101905Y-11552622D01*
X9715912Y-11677652D01*
X9706986Y-11676941D01*
X9701514Y-11671038D01*
X9610889Y-11454515D01*
X9610857Y-11445563D01*
X9701514Y-11228960D01*
X9707870Y-11222652D01*
X9715911Y-11222347D01*
X10101906Y-11347378D01*
G37*
%TD.AperFunction*%
%TD*%
M02*
