M48
; DRILL file {KiCad 7.0.5} date Thu Jul  6 11:55:16 2023
; FORMAT={-:-/ absolute / metric / decimal}
; #@! TF.CreationDate,2023-07-06T11:55:16+08:00
; #@! TF.GenerationSoftware,Kicad,Pcbnew,7.0.5
; #@! TF.FileFunction,MixedPlating,1,2
FMAT,2
METRIC
; #@! TA.AperFunction,Plated,PTH,ViaDrill
T1C0.300
; #@! TA.AperFunction,Plated,PTH,ViaDrill
T2C0.400
; #@! TA.AperFunction,Plated,PTH,ViaDrill
T3C0.500
; #@! TA.AperFunction,Plated,PTH,ComponentDrill
T4C0.600
; #@! TA.AperFunction,Plated,PTH,ComponentDrill
T5C1.000
; #@! TA.AperFunction,Plated,PTH,ComponentDrill
T6C1.200
; #@! TA.AperFunction,NonPlated,NPTH,ComponentDrill
T7C0.650
%
G90
G05
T1
X-30.861Y-9.422
X-30.861Y-10.422
X-25.321Y-16.652
X-24.337Y-11.442
X-23.141Y-7.412
X-22.941Y-16.652
X-22.561Y-4.182
X-20.301Y-16.652
X-18.561Y-14.472
X-17.831Y-16.652
X-16.261Y-10.252
X-15.381Y-16.652
X-13.021Y-10.252
X-12.801Y-8.072
X-11.061Y-8.562
X-10.231Y-6.862
X-10.219Y-6.03
X-10.036Y-11.877
X-9.731Y-16.652
X-7.821Y-16.652
X-6.541Y-9.462
X-5.976Y-16.207
X-4.431Y-7.442
X-4.411Y-12.952
X-4.228Y-11.655
X-3.011Y-17.112
X-2.931Y-11.182
X-1.941Y-10.707
X-1.651Y-4.202
X0.119Y-13.982
X1.379Y-9.462
X1.389Y-12.682
X1.389Y-11.082
X1.399Y-12.022
X2.939Y-16.872
X6.444Y-16.547
X8.709Y-7.162
X8.709Y-15.392
X8.879Y-5.812
X10.269Y-10.192
X10.629Y-3.322
X11.689Y-14.632
X12.649Y-15.392
X13.149Y-3.322
X15.707Y-3.322
X18.264Y-3.322
X19.379Y-15.512
X20.822Y-3.322
X21.829Y-10.972
X22.029Y-15.512
X23.379Y-3.322
X24.919Y-8.912
X24.919Y-10.192
X24.919Y-12.807
X26.492Y-11.459
T2
X-27.591Y-7.762
X-27.591Y-12.562
T3
X-17.971Y-12.592
T5
X-31.761Y-1.342
X-31.761Y-18.982
X-29.221Y-1.342
X-29.221Y-18.982
X-26.681Y-1.342
X-26.681Y-18.982
X-24.141Y-1.342
X-24.141Y-18.982
X-21.601Y-1.342
X-21.601Y-18.982
X-19.061Y-1.342
X-19.061Y-18.982
X-16.521Y-1.342
X-16.521Y-18.982
X-13.981Y-1.342
X-13.981Y-18.982
X-11.441Y-1.342
X-11.441Y-18.982
X-8.901Y-1.342
X-8.901Y-18.982
X-6.361Y-1.342
X-6.361Y-18.982
X-3.821Y-1.342
X-3.821Y-18.982
X-1.281Y-1.342
X-1.281Y-18.982
X1.259Y-1.342
X1.259Y-18.982
X3.799Y-1.342
X3.799Y-18.982
X6.339Y-1.342
X6.339Y-18.982
X8.879Y-1.342
X8.879Y-18.982
X11.419Y-1.342
X11.419Y-18.982
X13.959Y-1.342
X13.959Y-18.982
X16.499Y-1.342
X16.499Y-18.982
X19.039Y-1.342
X19.039Y-18.982
X21.579Y-1.342
X21.579Y-18.982
X24.119Y-1.342
X24.119Y-18.982
X26.659Y-1.342
X26.659Y-18.982
X29.869Y-6.372
X29.869Y-8.912
X29.869Y-11.452
X29.869Y-13.992
T6
X-34.681Y-2.552
X-34.681Y-17.772
X29.579Y-2.552
X29.579Y-17.762
T7
X-31.192Y-7.282
X-31.192Y-13.062
T4
G00X-34.442Y-5.847
M15
G01X-35.342Y-5.847
M16
G05
G00X-34.442Y-14.497
M15
G01X-35.342Y-14.497
M16
G05
G00X-30.092Y-5.847
M15
G01X-31.292Y-5.847
M16
G05
G00X-30.092Y-14.497
M15
G01X-31.292Y-14.497
M16
G05
T0
M30
