M48
; DRILL file {KiCad 7.0.9} date Fri Jan 12 00:39:40 2024
; FORMAT={-:-/ absolute / metric / decimal}
; #@! TF.CreationDate,2024-01-12T00:39:40+08:00
; #@! TF.GenerationSoftware,Kicad,Pcbnew,7.0.9
; #@! TF.FileFunction,MixedPlating,1,2
FMAT,2
METRIC
; #@! TA.AperFunction,Plated,PTH,ViaDrill
T1C0.300
; #@! TA.AperFunction,Plated,PTH,ViaDrill
T2C0.400
; #@! TA.AperFunction,Plated,PTH,ViaDrill
T3C0.500
; #@! TA.AperFunction,Plated,PTH,ComponentDrill
T4C0.600
; #@! TA.AperFunction,Plated,PTH,ComponentDrill
T5C1.000
; #@! TA.AperFunction,Plated,PTH,ComponentDrill
T6C1.200
; #@! TA.AperFunction,NonPlated,NPTH,ComponentDrill
T7C0.650
%
G90
G05
T1
X2.899Y-9.422
X2.899Y-10.422
X8.439Y-16.652
X9.61Y-8.15
X9.61Y-10.35
X9.61Y-11.45
X10.619Y-7.412
X10.819Y-16.652
X10.91Y-3.41
X11.309Y-4.63
X13.459Y-16.652
X13.62Y-11.45
X15.199Y-14.472
X15.929Y-16.652
X17.499Y-10.252
X18.379Y-16.652
X20.739Y-10.252
X20.959Y-8.072
X22.699Y-8.562
X23.529Y-6.862
X23.541Y-6.03
X23.724Y-11.877
X24.029Y-16.652
X25.939Y-16.652
X27.219Y-9.462
X27.784Y-16.207
X29.329Y-7.442
X29.349Y-12.952
X29.532Y-11.655
X30.749Y-17.112
X30.829Y-11.182
X31.819Y-10.707
X32.109Y-4.202
X33.879Y-13.982
X35.139Y-9.462
X35.149Y-12.682
X35.149Y-11.082
X35.159Y-12.022
X36.699Y-16.872
X40.204Y-16.547
X42.469Y-7.162
X42.469Y-15.392
X42.639Y-5.812
X44.029Y-10.192
X44.389Y-3.322
X45.449Y-14.632
X46.409Y-15.392
X46.909Y-3.322
X49.467Y-3.322
X52.024Y-3.322
X53.139Y-15.512
X54.582Y-3.322
X55.589Y-10.972
X55.789Y-15.512
X57.139Y-3.322
X58.679Y-8.912
X58.679Y-10.192
X58.679Y-12.807
X60.252Y-11.459
T2
X6.169Y-7.762
X6.169Y-12.562
T3
X15.789Y-12.592
T5
X1.999Y-1.342
X1.999Y-18.982
X4.539Y-1.342
X4.539Y-18.982
X7.079Y-1.342
X7.079Y-18.982
X9.619Y-1.342
X9.619Y-18.982
X12.159Y-1.342
X12.159Y-18.982
X14.699Y-1.342
X14.699Y-18.982
X17.239Y-1.342
X17.239Y-18.982
X19.779Y-1.342
X19.779Y-18.982
X22.319Y-1.342
X22.319Y-18.982
X24.859Y-1.342
X24.859Y-18.982
X27.399Y-1.342
X27.399Y-18.982
X29.939Y-1.342
X29.939Y-18.982
X32.479Y-1.342
X32.479Y-18.982
X35.019Y-1.342
X35.019Y-18.982
X37.559Y-1.342
X37.559Y-18.982
X40.099Y-1.342
X40.099Y-18.982
X42.639Y-1.342
X42.639Y-18.982
X45.179Y-1.342
X45.179Y-18.982
X47.719Y-1.342
X47.719Y-18.982
X50.259Y-1.342
X50.259Y-18.982
X52.799Y-1.342
X52.799Y-18.982
X55.339Y-1.342
X55.339Y-18.982
X57.879Y-1.342
X57.879Y-18.982
X60.419Y-1.342
X60.419Y-18.982
X63.629Y-6.372
X63.629Y-8.912
X63.629Y-11.452
X63.629Y-13.992
T6
X-0.921Y-2.552
X-0.921Y-17.772
X63.339Y-2.552
X63.339Y-17.762
T7
X2.568Y-7.282
X2.568Y-13.062
T4
G00X-0.682Y-5.847
M15
G01X-1.582Y-5.847
M16
G05
G00X-0.682Y-14.497
M15
G01X-1.582Y-14.497
M16
G05
G00X3.668Y-5.847
M15
G01X2.468Y-5.847
M16
G05
G00X3.668Y-14.497
M15
G01X2.468Y-14.497
M16
G05
T0
M30
