%TF.GenerationSoftware,KiCad,Pcbnew,(6.0.11)*%
%TF.CreationDate,2023-01-31T14:13:47+08:00*%
%TF.ProjectId,UINIO-MCU-GD32F103C,55494e49-4f2d-44d4-9355-2d4744333246,Version 1.0.0*%
%TF.SameCoordinates,PX9357ba0PY5667240*%
%TF.FileFunction,Legend,Bot*%
%TF.FilePolarity,Positive*%
%FSLAX46Y46*%
G04 Gerber Fmt 4.6, Leading zero omitted, Abs format (unit mm)*
G04 Created by KiCad (PCBNEW (6.0.11)) date 2023-01-31 14:13:47*
%MOMM*%
%LPD*%
G01*
G04 APERTURE LIST*
%ADD10C,0.150000*%
%ADD11C,0.100000*%
%ADD12C,0.300000*%
%ADD13C,0.120000*%
%ADD14R,1.700000X1.700000*%
%ADD15O,1.700000X1.700000*%
%ADD16C,1.200000*%
%ADD17C,0.650000*%
%ADD18O,2.100000X1.000000*%
%ADD19O,1.900000X1.000000*%
G04 APERTURE END LIST*
D10*
X28708095Y-17371904D02*
X28060476Y-17371904D01*
X27984285Y-17333809D01*
X27946190Y-17295714D01*
X27908095Y-17219523D01*
X27908095Y-17067142D01*
X27946190Y-16990952D01*
X27984285Y-16952857D01*
X28060476Y-16914761D01*
X28708095Y-16914761D01*
X27908095Y-16533809D02*
X28708095Y-16533809D01*
X27908095Y-16152857D02*
X28708095Y-16152857D01*
X27908095Y-15695714D01*
X28708095Y-15695714D01*
X27908095Y-15314761D02*
X28708095Y-15314761D01*
X28708095Y-14781428D02*
X28708095Y-14629047D01*
X28670000Y-14552857D01*
X28593809Y-14476666D01*
X28441428Y-14438571D01*
X28174761Y-14438571D01*
X28022380Y-14476666D01*
X27946190Y-14552857D01*
X27908095Y-14629047D01*
X27908095Y-14781428D01*
X27946190Y-14857619D01*
X28022380Y-14933809D01*
X28174761Y-14971904D01*
X28441428Y-14971904D01*
X28593809Y-14933809D01*
X28670000Y-14857619D01*
X28708095Y-14781428D01*
X28212857Y-14095714D02*
X28212857Y-13486190D01*
X27908095Y-13105238D02*
X28708095Y-13105238D01*
X28136666Y-12838571D01*
X28708095Y-12571904D01*
X27908095Y-12571904D01*
X27984285Y-11733809D02*
X27946190Y-11771904D01*
X27908095Y-11886190D01*
X27908095Y-11962380D01*
X27946190Y-12076666D01*
X28022380Y-12152857D01*
X28098571Y-12190952D01*
X28250952Y-12229047D01*
X28365238Y-12229047D01*
X28517619Y-12190952D01*
X28593809Y-12152857D01*
X28670000Y-12076666D01*
X28708095Y-11962380D01*
X28708095Y-11886190D01*
X28670000Y-11771904D01*
X28631904Y-11733809D01*
X28708095Y-11390952D02*
X28060476Y-11390952D01*
X27984285Y-11352857D01*
X27946190Y-11314761D01*
X27908095Y-11238571D01*
X27908095Y-11086190D01*
X27946190Y-11010000D01*
X27984285Y-10971904D01*
X28060476Y-10933809D01*
X28708095Y-10933809D01*
X28212857Y-10552857D02*
X28212857Y-9943333D01*
X28670000Y-9143333D02*
X28708095Y-9219523D01*
X28708095Y-9333809D01*
X28670000Y-9448095D01*
X28593809Y-9524285D01*
X28517619Y-9562380D01*
X28365238Y-9600476D01*
X28250952Y-9600476D01*
X28098571Y-9562380D01*
X28022380Y-9524285D01*
X27946190Y-9448095D01*
X27908095Y-9333809D01*
X27908095Y-9257619D01*
X27946190Y-9143333D01*
X27984285Y-9105238D01*
X28250952Y-9105238D01*
X28250952Y-9257619D01*
X27908095Y-8762380D02*
X28708095Y-8762380D01*
X28708095Y-8571904D01*
X28670000Y-8457619D01*
X28593809Y-8381428D01*
X28517619Y-8343333D01*
X28365238Y-8305238D01*
X28250952Y-8305238D01*
X28098571Y-8343333D01*
X28022380Y-8381428D01*
X27946190Y-8457619D01*
X27908095Y-8571904D01*
X27908095Y-8762380D01*
X28708095Y-8038571D02*
X28708095Y-7543333D01*
X28403333Y-7810000D01*
X28403333Y-7695714D01*
X28365238Y-7619523D01*
X28327142Y-7581428D01*
X28250952Y-7543333D01*
X28060476Y-7543333D01*
X27984285Y-7581428D01*
X27946190Y-7619523D01*
X27908095Y-7695714D01*
X27908095Y-7924285D01*
X27946190Y-8000476D01*
X27984285Y-8038571D01*
X28631904Y-7238571D02*
X28670000Y-7200476D01*
X28708095Y-7124285D01*
X28708095Y-6933809D01*
X28670000Y-6857619D01*
X28631904Y-6819523D01*
X28555714Y-6781428D01*
X28479523Y-6781428D01*
X28365238Y-6819523D01*
X27908095Y-7276666D01*
X27908095Y-6781428D01*
X28327142Y-6171904D02*
X28327142Y-6438571D01*
X27908095Y-6438571D02*
X28708095Y-6438571D01*
X28708095Y-6057619D01*
X27908095Y-5333809D02*
X27908095Y-5790952D01*
X27908095Y-5562380D02*
X28708095Y-5562380D01*
X28593809Y-5638571D01*
X28517619Y-5714761D01*
X28479523Y-5790952D01*
X28708095Y-4838571D02*
X28708095Y-4762380D01*
X28670000Y-4686190D01*
X28631904Y-4648095D01*
X28555714Y-4610000D01*
X28403333Y-4571904D01*
X28212857Y-4571904D01*
X28060476Y-4610000D01*
X27984285Y-4648095D01*
X27946190Y-4686190D01*
X27908095Y-4762380D01*
X27908095Y-4838571D01*
X27946190Y-4914761D01*
X27984285Y-4952857D01*
X28060476Y-4990952D01*
X28212857Y-5029047D01*
X28403333Y-5029047D01*
X28555714Y-4990952D01*
X28631904Y-4952857D01*
X28670000Y-4914761D01*
X28708095Y-4838571D01*
X28708095Y-4305238D02*
X28708095Y-3810000D01*
X28403333Y-4076666D01*
X28403333Y-3962380D01*
X28365238Y-3886190D01*
X28327142Y-3848095D01*
X28250952Y-3810000D01*
X28060476Y-3810000D01*
X27984285Y-3848095D01*
X27946190Y-3886190D01*
X27908095Y-3962380D01*
X27908095Y-4190952D01*
X27946190Y-4267142D01*
X27984285Y-4305238D01*
X27984285Y-3010000D02*
X27946190Y-3048095D01*
X27908095Y-3162380D01*
X27908095Y-3238571D01*
X27946190Y-3352857D01*
X28022380Y-3429047D01*
X28098571Y-3467142D01*
X28250952Y-3505238D01*
X28365238Y-3505238D01*
X28517619Y-3467142D01*
X28593809Y-3429047D01*
X28670000Y-3352857D01*
X28708095Y-3238571D01*
X28708095Y-3162380D01*
X28670000Y-3048095D01*
X28631904Y-3010000D01*
D11*
X30683333Y-13553333D02*
X29983333Y-13320000D01*
X30683333Y-13086666D01*
X30016666Y-12586666D02*
X29983333Y-12653333D01*
X29983333Y-12786666D01*
X30016666Y-12853333D01*
X30083333Y-12886666D01*
X30350000Y-12886666D01*
X30416666Y-12853333D01*
X30450000Y-12786666D01*
X30450000Y-12653333D01*
X30416666Y-12586666D01*
X30350000Y-12553333D01*
X30283333Y-12553333D01*
X30216666Y-12886666D01*
X29983333Y-12253333D02*
X30450000Y-12253333D01*
X30316666Y-12253333D02*
X30383333Y-12220000D01*
X30416666Y-12186666D01*
X30450000Y-12120000D01*
X30450000Y-12053333D01*
X30016666Y-11853333D02*
X29983333Y-11786666D01*
X29983333Y-11653333D01*
X30016666Y-11586666D01*
X30083333Y-11553333D01*
X30116666Y-11553333D01*
X30183333Y-11586666D01*
X30216666Y-11653333D01*
X30216666Y-11753333D01*
X30250000Y-11820000D01*
X30316666Y-11853333D01*
X30350000Y-11853333D01*
X30416666Y-11820000D01*
X30450000Y-11753333D01*
X30450000Y-11653333D01*
X30416666Y-11586666D01*
X29983333Y-11253333D02*
X30450000Y-11253333D01*
X30683333Y-11253333D02*
X30650000Y-11286666D01*
X30616666Y-11253333D01*
X30650000Y-11220000D01*
X30683333Y-11253333D01*
X30616666Y-11253333D01*
X29983333Y-10820000D02*
X30016666Y-10886666D01*
X30050000Y-10920000D01*
X30116666Y-10953333D01*
X30316666Y-10953333D01*
X30383333Y-10920000D01*
X30416666Y-10886666D01*
X30450000Y-10820000D01*
X30450000Y-10720000D01*
X30416666Y-10653333D01*
X30383333Y-10620000D01*
X30316666Y-10586666D01*
X30116666Y-10586666D01*
X30050000Y-10620000D01*
X30016666Y-10653333D01*
X29983333Y-10720000D01*
X29983333Y-10820000D01*
X30450000Y-10286666D02*
X29983333Y-10286666D01*
X30383333Y-10286666D02*
X30416666Y-10253333D01*
X30450000Y-10186666D01*
X30450000Y-10086666D01*
X30416666Y-10020000D01*
X30350000Y-9986666D01*
X29983333Y-9986666D01*
X29983333Y-8753333D02*
X29983333Y-9153333D01*
X29983333Y-8953333D02*
X30683333Y-8953333D01*
X30583333Y-9020000D01*
X30516666Y-9086666D01*
X30483333Y-9153333D01*
X30050000Y-8453333D02*
X30016666Y-8420000D01*
X29983333Y-8453333D01*
X30016666Y-8486666D01*
X30050000Y-8453333D01*
X29983333Y-8453333D01*
X30683333Y-7986666D02*
X30683333Y-7920000D01*
X30650000Y-7853333D01*
X30616666Y-7820000D01*
X30550000Y-7786666D01*
X30416666Y-7753333D01*
X30250000Y-7753333D01*
X30116666Y-7786666D01*
X30050000Y-7820000D01*
X30016666Y-7853333D01*
X29983333Y-7920000D01*
X29983333Y-7986666D01*
X30016666Y-8053333D01*
X30050000Y-8086666D01*
X30116666Y-8120000D01*
X30250000Y-8153333D01*
X30416666Y-8153333D01*
X30550000Y-8120000D01*
X30616666Y-8086666D01*
X30650000Y-8053333D01*
X30683333Y-7986666D01*
X30050000Y-7453333D02*
X30016666Y-7420000D01*
X29983333Y-7453333D01*
X30016666Y-7486666D01*
X30050000Y-7453333D01*
X29983333Y-7453333D01*
X30683333Y-6986666D02*
X30683333Y-6920000D01*
X30650000Y-6853333D01*
X30616666Y-6820000D01*
X30550000Y-6786666D01*
X30416666Y-6753333D01*
X30250000Y-6753333D01*
X30116666Y-6786666D01*
X30050000Y-6820000D01*
X30016666Y-6853333D01*
X29983333Y-6920000D01*
X29983333Y-6986666D01*
X30016666Y-7053333D01*
X30050000Y-7086666D01*
X30116666Y-7120000D01*
X30250000Y-7153333D01*
X30416666Y-7153333D01*
X30550000Y-7120000D01*
X30616666Y-7086666D01*
X30650000Y-7053333D01*
X30683333Y-6986666D01*
D12*
%TO.C,*%
D11*
%TO.C,HOLE\u002A\u002A*%
X31600000Y-18460000D02*
G75*
G03*
X31600000Y-18460000I-900000J0D01*
G01*
X-32360000Y-18460000D02*
G75*
G03*
X-32360000Y-18460000I-900000J0D01*
G01*
X-32360000Y-1800000D02*
G75*
G03*
X-32360000Y-1800000I-900000J0D01*
G01*
X31600000Y-1800000D02*
G75*
G03*
X31600000Y-1800000I-900000J0D01*
G01*
%TO.C,*%
G36*
X11508945Y-5525320D02*
G01*
X11365248Y-5523336D01*
X11182051Y-5505199D01*
X11058488Y-5458515D01*
X10952821Y-5371760D01*
X10915104Y-5331771D01*
X10842244Y-5218675D01*
X10807881Y-5069470D01*
X10799261Y-4839987D01*
X10805703Y-4666496D01*
X10826509Y-4518627D01*
X10856706Y-4461774D01*
X10893920Y-4457558D01*
X11013110Y-4423799D01*
X11025299Y-4419565D01*
X11079562Y-4427106D01*
X11105456Y-4509956D01*
X11112069Y-4692814D01*
X11134662Y-4929179D01*
X11203631Y-5092172D01*
X11312266Y-5149951D01*
X11336915Y-5096861D01*
X11355292Y-4950395D01*
X11355950Y-4930985D01*
X11737685Y-4930985D01*
X11738225Y-4959722D01*
X11758895Y-5094954D01*
X11800246Y-5149951D01*
X11808457Y-5148060D01*
X11847095Y-5075715D01*
X11862808Y-4930985D01*
X11862268Y-4902249D01*
X11841598Y-4767016D01*
X11800246Y-4712020D01*
X11792036Y-4713911D01*
X11753398Y-4786256D01*
X11737685Y-4930985D01*
X11355950Y-4930985D01*
X11362315Y-4743301D01*
X11362315Y-4336650D01*
X11670582Y-4336650D01*
X11687615Y-4336689D01*
X11883328Y-4350066D01*
X12008868Y-4400889D01*
X12114667Y-4508695D01*
X12189322Y-4623631D01*
X12227895Y-4774194D01*
X12221113Y-4989570D01*
X12208859Y-5088226D01*
X12144316Y-5302001D01*
X12019470Y-5436088D01*
X11814340Y-5505518D01*
X11800246Y-5506432D01*
X11508945Y-5525320D01*
G37*
G36*
X11648555Y-14222006D02*
G01*
X11907409Y-14228357D01*
X12068975Y-14243538D01*
X12152096Y-14269977D01*
X12175616Y-14310105D01*
X12179186Y-14356858D01*
X12213590Y-14497790D01*
X12216082Y-14504850D01*
X12213499Y-14545260D01*
X12162247Y-14571907D01*
X12043219Y-14587540D01*
X11837309Y-14594905D01*
X11525413Y-14596749D01*
X10799261Y-14596749D01*
X10799261Y-14221379D01*
X11487438Y-14221379D01*
X11648555Y-14222006D01*
G37*
G36*
X11252832Y-14797333D02*
G01*
X11396014Y-14803597D01*
X11572914Y-14818014D01*
X11668245Y-14846004D01*
X11710007Y-14898831D01*
X11726200Y-14987759D01*
X11732246Y-15073495D01*
X11706322Y-15133014D01*
X11615244Y-15155998D01*
X11429032Y-15159803D01*
X11316261Y-15161023D01*
X11181835Y-15175519D01*
X11124264Y-15217890D01*
X11112069Y-15302287D01*
X11134104Y-15423753D01*
X11209459Y-15583814D01*
X11212349Y-15587910D01*
X11278408Y-15659065D01*
X11371701Y-15699890D01*
X11524809Y-15718462D01*
X11770312Y-15722857D01*
X12025160Y-15715257D01*
X12207643Y-15675386D01*
X12309474Y-15580275D01*
X12353682Y-15406999D01*
X12363300Y-15132635D01*
X12366015Y-14954899D01*
X12383857Y-14839897D01*
X12430528Y-14793225D01*
X12519704Y-14784434D01*
X12572769Y-14785992D01*
X12631362Y-14806741D01*
X12662169Y-14873140D01*
X12674110Y-15011678D01*
X12676108Y-15248845D01*
X12671048Y-15496243D01*
X12648943Y-15665272D01*
X12599930Y-15788437D01*
X12514143Y-15905742D01*
X12491650Y-15932329D01*
X12415258Y-16012436D01*
X12333761Y-16061435D01*
X12217153Y-16086971D01*
X12035431Y-16096687D01*
X11758592Y-16098227D01*
X11721220Y-16098215D01*
X11454872Y-16095620D01*
X11278943Y-16083374D01*
X11162281Y-16054140D01*
X11073729Y-16000579D01*
X10982133Y-15915354D01*
X10942457Y-15874748D01*
X10864182Y-15776059D01*
X10821170Y-15665042D01*
X10803002Y-15504121D01*
X10799261Y-15255717D01*
X10799261Y-14778952D01*
X11252832Y-14797333D01*
G37*
G36*
X11741840Y-9899297D02*
G01*
X11518719Y-9904631D01*
X11308139Y-9900171D01*
X11163249Y-9876350D01*
X11061715Y-9818544D01*
X10961226Y-9712146D01*
X10871369Y-9585432D01*
X10814358Y-9419116D01*
X10799261Y-9187066D01*
X10804726Y-9026150D01*
X10835190Y-8880451D01*
X10898220Y-8816497D01*
X10979861Y-8790040D01*
X11064519Y-8798436D01*
X11102984Y-8889311D01*
X11112069Y-9083670D01*
X11112401Y-9116404D01*
X11139240Y-9340182D01*
X11205171Y-9466085D01*
X11230693Y-9485485D01*
X11291721Y-9502308D01*
X11332099Y-9442589D01*
X11354085Y-9313988D01*
X11737685Y-9313988D01*
X11738146Y-9344096D01*
X11757676Y-9471550D01*
X11800246Y-9497980D01*
X11843523Y-9419802D01*
X11862808Y-9275323D01*
X11844509Y-9145609D01*
X11800246Y-9091330D01*
X11791277Y-9093628D01*
X11753156Y-9167798D01*
X11737685Y-9313988D01*
X11354085Y-9313988D01*
X11358162Y-9290140D01*
X11376242Y-9028769D01*
X11393596Y-8684680D01*
X11670227Y-8690873D01*
X11792936Y-8698865D01*
X11959135Y-8749336D01*
X12092518Y-8866406D01*
X12156269Y-8955578D01*
X12237402Y-9204705D01*
X12210500Y-9468107D01*
X12076212Y-9712146D01*
X11982355Y-9812800D01*
X11882282Y-9873556D01*
X11800246Y-9888592D01*
X11741840Y-9899297D01*
G37*
G36*
X12201562Y-7363230D02*
G01*
X12230118Y-7418130D01*
X12226692Y-7511650D01*
X12218437Y-7563349D01*
X12184506Y-7635870D01*
X12104740Y-7692412D01*
X11953814Y-7747840D01*
X11706404Y-7817016D01*
X11557127Y-7857420D01*
X11381319Y-7912988D01*
X11314734Y-7958629D01*
X11360364Y-8004600D01*
X11521204Y-8061157D01*
X11800246Y-8138559D01*
X12013774Y-8200712D01*
X12141984Y-8257105D01*
X12203520Y-8323786D01*
X12226692Y-8419401D01*
X12228946Y-8441435D01*
X12215754Y-8558095D01*
X12137110Y-8590838D01*
X12106211Y-8589384D01*
X11935761Y-8561502D01*
X11704964Y-8506342D01*
X11450342Y-8434680D01*
X11208416Y-8357291D01*
X11015709Y-8284951D01*
X10908744Y-8228433D01*
X10838536Y-8128153D01*
X10799261Y-7965222D01*
X10805339Y-7888951D01*
X10860656Y-7760992D01*
X10988081Y-7656376D01*
X11205086Y-7563244D01*
X11529143Y-7469734D01*
X11732318Y-7418731D01*
X11971831Y-7364682D01*
X12121857Y-7345798D01*
X12201562Y-7363230D01*
G37*
G36*
X12222273Y-5619430D02*
G01*
X12233736Y-5745442D01*
X12238177Y-5934814D01*
X12238125Y-5955768D01*
X12225042Y-6172082D01*
X12178764Y-6315986D01*
X12084617Y-6435307D01*
X12018438Y-6494893D01*
X11908516Y-6554491D01*
X11755561Y-6582121D01*
X11518719Y-6588867D01*
X11356265Y-6586412D01*
X11177491Y-6567671D01*
X11056627Y-6520998D01*
X10952821Y-6435307D01*
X10887125Y-6350008D01*
X10811228Y-6157365D01*
X10790295Y-5949067D01*
X10826063Y-5766898D01*
X10920271Y-5652645D01*
X10962153Y-5630731D01*
X11062645Y-5596268D01*
X11104014Y-5646581D01*
X11112069Y-5801731D01*
X11124287Y-6022147D01*
X11179130Y-6146504D01*
X11303778Y-6201262D01*
X11525413Y-6213498D01*
X11862808Y-6213498D01*
X11862808Y-5961703D01*
X11871264Y-5813491D01*
X11917030Y-5710003D01*
X12023285Y-5648895D01*
X12138753Y-5607721D01*
X12210969Y-5587882D01*
X12222273Y-5619430D01*
G37*
G36*
X11648555Y-6777178D02*
G01*
X11907409Y-6783529D01*
X12068975Y-6798710D01*
X12152096Y-6825150D01*
X12175616Y-6865278D01*
X12179186Y-6912030D01*
X12213590Y-7052962D01*
X12216082Y-7060023D01*
X12213499Y-7100432D01*
X12162247Y-7127080D01*
X12043219Y-7142712D01*
X11837309Y-7150077D01*
X11525413Y-7151921D01*
X10799261Y-7151921D01*
X10799261Y-6776552D01*
X11487438Y-6776552D01*
X11648555Y-6777178D01*
G37*
G36*
X10799261Y-10880951D02*
G01*
X10799379Y-10825694D01*
X11112069Y-10825694D01*
X11112399Y-10850120D01*
X11124124Y-10906479D01*
X11169697Y-10941267D01*
X11271936Y-10959682D01*
X11453659Y-10966920D01*
X11737685Y-10968178D01*
X12363300Y-10968178D01*
X12363300Y-10784961D01*
X12362747Y-10753707D01*
X12326873Y-10585132D01*
X12222365Y-10477985D01*
X12031552Y-10421553D01*
X11736764Y-10405123D01*
X11535007Y-10408494D01*
X11375534Y-10426703D01*
X11278457Y-10468911D01*
X11209459Y-10544167D01*
X11147937Y-10664239D01*
X11112069Y-10825694D01*
X10799379Y-10825694D01*
X10799392Y-10819848D01*
X10806248Y-10594952D01*
X10831465Y-10447096D01*
X10885989Y-10336667D01*
X10980765Y-10224055D01*
X10992233Y-10211804D01*
X11081047Y-10124523D01*
X11168157Y-10070831D01*
X11285267Y-10042575D01*
X11464085Y-10031600D01*
X11736317Y-10029754D01*
X12009321Y-10031908D01*
X12190022Y-10043537D01*
X12309563Y-10072376D01*
X12399962Y-10126160D01*
X12493236Y-10212626D01*
X12531110Y-10251336D01*
X12610321Y-10350508D01*
X12653880Y-10461414D01*
X12672304Y-10621827D01*
X12676108Y-10869523D01*
X12676108Y-11343547D01*
X10799261Y-11343547D01*
X10799261Y-10880951D01*
G37*
G36*
X12573523Y-14238297D02*
G01*
X12679880Y-14288745D01*
X12707389Y-14409064D01*
X12706246Y-14443903D01*
X12664214Y-14545428D01*
X12535345Y-14585264D01*
X12434984Y-14589318D01*
X12375525Y-14543908D01*
X12363300Y-14409064D01*
X12369878Y-14295488D01*
X12415744Y-14233029D01*
X12535345Y-14232864D01*
X12573523Y-14238297D01*
G37*
G36*
X11238314Y-14076684D02*
G01*
X11108245Y-14021833D01*
X10982133Y-13913384D01*
X10961862Y-13892632D01*
X10835563Y-13710201D01*
X10799261Y-13501520D01*
X10794067Y-13437159D01*
X11112069Y-13437159D01*
X11151323Y-13572248D01*
X11289785Y-13681406D01*
X11509490Y-13720887D01*
X11716934Y-13697346D01*
X11829520Y-13616327D01*
X11862808Y-13463947D01*
X11862741Y-13438651D01*
X11853389Y-13349207D01*
X11807381Y-13302922D01*
X11695226Y-13285578D01*
X11487438Y-13282956D01*
X11478679Y-13282957D01*
X11274248Y-13286638D01*
X11164576Y-13305524D01*
X11120302Y-13351678D01*
X11112069Y-13437159D01*
X10794067Y-13437159D01*
X10788524Y-13368463D01*
X10750706Y-13292790D01*
X10700253Y-13316831D01*
X10652697Y-13429969D01*
X10623573Y-13621590D01*
X10604538Y-13797499D01*
X10569523Y-13879880D01*
X10508973Y-13882586D01*
X10461657Y-13866646D01*
X10356213Y-13846010D01*
X10334372Y-13821510D01*
X10308754Y-13703813D01*
X10298768Y-13521594D01*
X10304133Y-13373936D01*
X10344176Y-13189099D01*
X10434797Y-13052382D01*
X10494341Y-12995686D01*
X10565539Y-12954719D01*
X10668920Y-12928895D01*
X10827719Y-12914744D01*
X11065168Y-12908798D01*
X11404501Y-12907586D01*
X12238177Y-12907586D01*
X12238177Y-13319049D01*
X12233917Y-13528260D01*
X12210904Y-13685941D01*
X12155797Y-13799915D01*
X12055305Y-13913384D01*
X12004247Y-13962354D01*
X11882596Y-14048237D01*
X11737614Y-14087124D01*
X11518719Y-14096256D01*
X11509490Y-14096152D01*
X11422922Y-14095177D01*
X11238314Y-14076684D01*
G37*
G36*
X12573523Y-6793469D02*
G01*
X12679880Y-6843917D01*
X12707389Y-6964237D01*
X12706246Y-6999076D01*
X12664214Y-7100600D01*
X12535345Y-7140436D01*
X12434984Y-7144491D01*
X12375525Y-7099081D01*
X12363300Y-6964237D01*
X12369878Y-6850660D01*
X12415744Y-6788201D01*
X12535345Y-6788037D01*
X12573523Y-6793469D01*
G37*
G36*
X11518719Y-12719902D02*
G01*
X11450817Y-12719751D01*
X11233066Y-12713348D01*
X11096893Y-12690303D01*
X11007209Y-12640810D01*
X10928925Y-12555061D01*
X10852155Y-12424508D01*
X10810883Y-12249151D01*
X10804870Y-12116105D01*
X11112069Y-12116105D01*
X11124570Y-12238547D01*
X11180064Y-12307430D01*
X11305829Y-12337757D01*
X11529146Y-12344532D01*
X11714050Y-12341617D01*
X11817540Y-12321091D01*
X11856703Y-12265364D01*
X11862808Y-12156847D01*
X11862808Y-11969163D01*
X11487438Y-11969163D01*
X11284630Y-11972513D01*
X11169262Y-11990374D01*
X11121492Y-12034125D01*
X11112069Y-12115140D01*
X11112069Y-12116105D01*
X10804870Y-12116105D01*
X10799261Y-11992007D01*
X10799261Y-11593793D01*
X12238177Y-11593793D01*
X12238177Y-11992007D01*
X12227447Y-12241419D01*
X12187432Y-12419039D01*
X12108513Y-12555061D01*
X12088993Y-12579344D01*
X12011176Y-12655549D01*
X11913584Y-12697838D01*
X11761128Y-12716020D01*
X11529146Y-12719735D01*
X11518719Y-12719902D01*
G37*
G36*
X-3620288Y-9139027D02*
G01*
X-3620288Y-8875229D01*
X-4669853Y-8875229D01*
X-4681229Y-9172002D01*
X-4683582Y-9225275D01*
X-4690009Y-9330357D01*
X-4697955Y-9423298D01*
X-4706630Y-9495584D01*
X-4715245Y-9538705D01*
X-4750260Y-9617039D01*
X-4824865Y-9707613D01*
X-4927807Y-9774772D01*
X-5057370Y-9817119D01*
X-5071204Y-9819064D01*
X-5125557Y-9822749D01*
X-5209801Y-9825802D01*
X-5318657Y-9828126D01*
X-5446845Y-9829624D01*
X-5589084Y-9830199D01*
X-5740095Y-9829751D01*
X-5789569Y-9829426D01*
X-5959707Y-9827999D01*
X-6097643Y-9825757D01*
X-6207735Y-9821959D01*
X-6294345Y-9815863D01*
X-6361833Y-9806730D01*
X-6414560Y-9793817D01*
X-6456887Y-9776383D01*
X-6493174Y-9753689D01*
X-6527782Y-9724991D01*
X-6565072Y-9689550D01*
X-6604172Y-9643908D01*
X-6643678Y-9575142D01*
X-6677938Y-9485046D01*
X-6708961Y-9368169D01*
X-6738761Y-9219063D01*
X-6744091Y-9189370D01*
X-6758071Y-9112633D01*
X-6769675Y-9050490D01*
X-6776812Y-9014199D01*
X-6777839Y-9008460D01*
X-6775037Y-8988121D01*
X-6755924Y-8970131D01*
X-6713923Y-8950045D01*
X-6642452Y-8923416D01*
X-6622046Y-8916252D01*
X-6558577Y-8895125D01*
X-6512943Y-8881713D01*
X-6493913Y-8878659D01*
X-6489558Y-8896685D01*
X-6481099Y-8944919D01*
X-6469906Y-9015673D01*
X-6457231Y-9101341D01*
X-6436526Y-9224273D01*
X-6407909Y-9338441D01*
X-6373037Y-9423001D01*
X-6330057Y-9482269D01*
X-6277113Y-9520563D01*
X-6276892Y-9520673D01*
X-6253708Y-9530400D01*
X-6224733Y-9538018D01*
X-6185412Y-9543773D01*
X-6131189Y-9547913D01*
X-6057507Y-9550684D01*
X-5959810Y-9552335D01*
X-5833541Y-9553111D01*
X-5674146Y-9553260D01*
X-5574619Y-9553162D01*
X-5426707Y-9552456D01*
X-5309888Y-9550458D01*
X-5219958Y-9546453D01*
X-5152715Y-9539726D01*
X-5103955Y-9529564D01*
X-5069475Y-9515249D01*
X-5045072Y-9496068D01*
X-5026543Y-9471306D01*
X-5009684Y-9440248D01*
X-4996663Y-9409327D01*
X-4987042Y-9368638D01*
X-4981765Y-9313634D01*
X-4980127Y-9236546D01*
X-4981420Y-9129605D01*
X-4986386Y-8884650D01*
X-5669435Y-8879704D01*
X-6352484Y-8874759D01*
X-6352484Y-8611430D01*
X-6051000Y-8611430D01*
X-3620288Y-8611430D01*
X-3620288Y-7989620D01*
X-4675481Y-7989620D01*
X-4675481Y-8611430D01*
X-4976965Y-8611430D01*
X-4976965Y-7989620D01*
X-6051000Y-7989620D01*
X-6051000Y-8611430D01*
X-6352484Y-8611430D01*
X-6352484Y-7725822D01*
X-6051000Y-7725822D01*
X-3620288Y-7725822D01*
X-3620288Y-7085169D01*
X-4675481Y-7085169D01*
X-4675481Y-7725822D01*
X-4976053Y-7725822D01*
X-4981220Y-7410206D01*
X-4986386Y-7094591D01*
X-5518693Y-7089587D01*
X-6051000Y-7084582D01*
X-6051000Y-7725822D01*
X-6352484Y-7725822D01*
X-6352484Y-6821371D01*
X-4976965Y-6821371D01*
X-4976965Y-6350303D01*
X-4675481Y-6350303D01*
X-4675481Y-6821371D01*
X-3318804Y-6821371D01*
X-3318804Y-9139027D01*
X-3620288Y-9139027D01*
G37*
G36*
X698230Y-12857016D02*
G01*
X706952Y-12863798D01*
X686846Y-12868400D01*
X667735Y-12867067D01*
X662115Y-12858503D01*
X668781Y-12854769D01*
X698230Y-12857016D01*
G37*
G36*
X-22579358Y-7755939D02*
G01*
X-22469465Y-7842696D01*
X-22278063Y-7985035D01*
X-22366477Y-8072120D01*
X-22411735Y-8114733D01*
X-22449977Y-8146903D01*
X-22470379Y-8159205D01*
X-22478410Y-8156205D01*
X-22512831Y-8134222D01*
X-22566741Y-8094927D01*
X-22634068Y-8043119D01*
X-22708741Y-7983600D01*
X-22784689Y-7921169D01*
X-22855843Y-7860625D01*
X-22916130Y-7806770D01*
X-23029680Y-7701642D01*
X-23184443Y-7852166D01*
X-23229678Y-7894667D01*
X-23316109Y-7970162D01*
X-23403172Y-8040369D01*
X-23477556Y-8094291D01*
X-23615906Y-8185892D01*
X-23515241Y-8220320D01*
X-23453254Y-8240399D01*
X-23298981Y-8283882D01*
X-23118955Y-8327676D01*
X-22921196Y-8370113D01*
X-22713721Y-8409527D01*
X-22504549Y-8444249D01*
X-22301700Y-8472614D01*
X-22036747Y-8505738D01*
X-22113273Y-8632616D01*
X-22140605Y-8676549D01*
X-22175905Y-8725332D01*
X-22203152Y-8748750D01*
X-22227484Y-8752180D01*
X-22251494Y-8748063D01*
X-22307882Y-8739148D01*
X-22384668Y-8727426D01*
X-22472439Y-8714350D01*
X-22765887Y-8665301D01*
X-23249536Y-8557497D01*
X-23712638Y-8419353D01*
X-23935330Y-8343912D01*
X-24139015Y-8411574D01*
X-24219501Y-8437454D01*
X-24562689Y-8530208D01*
X-24933049Y-8603203D01*
X-25333379Y-8657013D01*
X-25416954Y-8666266D01*
X-25489052Y-8672703D01*
X-25538914Y-8670697D01*
X-25574927Y-8656630D01*
X-25605475Y-8626886D01*
X-25638946Y-8577847D01*
X-25683724Y-8505897D01*
X-25756039Y-8390942D01*
X-25452073Y-8379724D01*
X-25331343Y-8374079D01*
X-24923554Y-8336042D01*
X-24537004Y-8269319D01*
X-24525479Y-8266840D01*
X-24418565Y-8243673D01*
X-24346526Y-8225466D01*
X-24307745Y-8208674D01*
X-24300608Y-8189752D01*
X-24323499Y-8165155D01*
X-24374803Y-8131337D01*
X-24452904Y-8084753D01*
X-24575327Y-8007140D01*
X-24704011Y-7916634D01*
X-24825693Y-7822700D01*
X-24931515Y-7732185D01*
X-25012621Y-7651940D01*
X-25044469Y-7614884D01*
X-25068950Y-7575080D01*
X-24693853Y-7575080D01*
X-24628918Y-7642601D01*
X-24616252Y-7655194D01*
X-24545306Y-7715194D01*
X-24450548Y-7783994D01*
X-24340385Y-7856035D01*
X-24223222Y-7925754D01*
X-24107464Y-7987591D01*
X-24073010Y-8004493D01*
X-24006118Y-8035517D01*
X-23954673Y-8056976D01*
X-23927686Y-8064991D01*
X-23896955Y-8056063D01*
X-23840922Y-8028675D01*
X-23768264Y-7987163D01*
X-23686044Y-7935941D01*
X-23601326Y-7879423D01*
X-23521175Y-7822024D01*
X-23452654Y-7768157D01*
X-23408159Y-7731251D01*
X-23357648Y-7689298D01*
X-23320349Y-7655569D01*
X-23298707Y-7629173D01*
X-23295171Y-7609219D01*
X-23312187Y-7594816D01*
X-23352202Y-7585073D01*
X-23417662Y-7579100D01*
X-23511014Y-7576005D01*
X-23634705Y-7574897D01*
X-23791182Y-7574886D01*
X-23982891Y-7575080D01*
X-24693853Y-7575080D01*
X-25068950Y-7575080D01*
X-25069381Y-7574380D01*
X-25079957Y-7528837D01*
X-25082157Y-7461970D01*
X-25082157Y-7348967D01*
X-24234235Y-7348967D01*
X-24166684Y-7348950D01*
X-23968668Y-7348607D01*
X-23804842Y-7347710D01*
X-23672529Y-7346110D01*
X-23569051Y-7343659D01*
X-23491730Y-7340207D01*
X-23437890Y-7335604D01*
X-23404852Y-7329703D01*
X-23389939Y-7322353D01*
X-23390474Y-7313405D01*
X-23403778Y-7302711D01*
X-23412471Y-7295360D01*
X-23441629Y-7264022D01*
X-23478676Y-7219403D01*
X-23536107Y-7146891D01*
X-23407447Y-7090062D01*
X-23278786Y-7033234D01*
X-23183527Y-7158126D01*
X-23143421Y-7207978D01*
X-23053286Y-7309187D01*
X-22944425Y-7421670D01*
X-22824225Y-7538344D01*
X-22746892Y-7609219D01*
X-22700074Y-7652128D01*
X-22579358Y-7755939D01*
G37*
G36*
X430899Y-12860466D02*
G01*
X421478Y-12869887D01*
X412056Y-12860466D01*
X421478Y-12851045D01*
X430899Y-12860466D01*
G37*
G36*
X-21070503Y-6355139D02*
G01*
X-21042425Y-6384055D01*
X-21010152Y-6430384D01*
X-20961496Y-6510466D01*
X-21170528Y-6616163D01*
X-21175315Y-6618582D01*
X-21256662Y-6659004D01*
X-21326287Y-6692405D01*
X-21376928Y-6715376D01*
X-21401324Y-6724509D01*
X-21411651Y-6720888D01*
X-21437671Y-6694157D01*
X-21467031Y-6651145D01*
X-21493081Y-6603334D01*
X-21509169Y-6562205D01*
X-21508643Y-6539240D01*
X-21488329Y-6526906D01*
X-21440581Y-6503015D01*
X-21374918Y-6472299D01*
X-21300000Y-6438586D01*
X-21224491Y-6405703D01*
X-21157051Y-6377477D01*
X-21106343Y-6357734D01*
X-21081028Y-6350303D01*
X-21070503Y-6355139D01*
G37*
G36*
X1655676Y-12747410D02*
G01*
X1646255Y-12756831D01*
X1636834Y-12747410D01*
X1646255Y-12737988D01*
X1655676Y-12747410D01*
G37*
G36*
X2441663Y-9650733D02*
G01*
X2531133Y-9653730D01*
X2614436Y-9659128D01*
X2683693Y-9666424D01*
X2731026Y-9675113D01*
X2748555Y-9684692D01*
X2744369Y-9688482D01*
X2711981Y-9698500D01*
X2654528Y-9709923D01*
X2580380Y-9720946D01*
X2567095Y-9722782D01*
X2479688Y-9738686D01*
X2371419Y-9762990D01*
X2254786Y-9792725D01*
X2142287Y-9824927D01*
X2029561Y-9857841D01*
X1904023Y-9889006D01*
X1803899Y-9905816D01*
X1724120Y-9909053D01*
X1659617Y-9899501D01*
X1628471Y-9884762D01*
X1628019Y-9862831D01*
X1662182Y-9833274D01*
X1731807Y-9794862D01*
X1808179Y-9761337D01*
X1956064Y-9712232D01*
X2116005Y-9675160D01*
X2272231Y-9654225D01*
X2275743Y-9653960D01*
X2353907Y-9650642D01*
X2441663Y-9650733D01*
G37*
G36*
X374371Y-12766252D02*
G01*
X364949Y-12775674D01*
X355528Y-12766252D01*
X364949Y-12756831D01*
X374371Y-12766252D01*
G37*
G36*
X-23780420Y-6335834D02*
G01*
X-23723525Y-6369426D01*
X-23672516Y-6402811D01*
X-23649134Y-6430337D01*
X-23651215Y-6460614D01*
X-23676594Y-6502252D01*
X-23723109Y-6563860D01*
X-23745638Y-6592946D01*
X-23781211Y-6637247D01*
X-23809124Y-6673314D01*
X-23826647Y-6701982D01*
X-23831052Y-6724085D01*
X-23819612Y-6740459D01*
X-23789596Y-6751941D01*
X-23738278Y-6759363D01*
X-23662928Y-6763564D01*
X-23560819Y-6765376D01*
X-23429222Y-6765637D01*
X-23265407Y-6765181D01*
X-23066648Y-6764843D01*
X-22274591Y-6764843D01*
X-22274591Y-7462024D01*
X-22538389Y-7462024D01*
X-22538389Y-7009798D01*
X-25308270Y-7009798D01*
X-25308270Y-7462024D01*
X-25572068Y-7462024D01*
X-25572068Y-6764843D01*
X-23999374Y-6764843D01*
X-24074408Y-6714831D01*
X-24098873Y-6698465D01*
X-24138088Y-6671924D01*
X-24156814Y-6658782D01*
X-24151032Y-6643851D01*
X-24126048Y-6606199D01*
X-24086611Y-6552711D01*
X-24037827Y-6490096D01*
X-23984803Y-6425059D01*
X-23932644Y-6364310D01*
X-23863624Y-6286534D01*
X-23780420Y-6335834D01*
G37*
G36*
X-12353424Y-8125054D02*
G01*
X-12389633Y-8233217D01*
X-12436673Y-8357492D01*
X-12489214Y-8484802D01*
X-12541924Y-8602071D01*
X-12589470Y-8696223D01*
X-12628651Y-8763564D01*
X-12705665Y-8884125D01*
X-12795771Y-9014396D01*
X-12891505Y-9143329D01*
X-12931145Y-9194739D01*
X-12774419Y-9296560D01*
X-12717275Y-9332530D01*
X-12553571Y-9426429D01*
X-12372649Y-9519518D01*
X-12188403Y-9604868D01*
X-12014724Y-9675548D01*
X-11953204Y-9698650D01*
X-11886246Y-9724270D01*
X-11839566Y-9742714D01*
X-11820703Y-9751049D01*
X-11820830Y-9753047D01*
X-11834314Y-9776727D01*
X-11864202Y-9820742D01*
X-11905495Y-9877629D01*
X-11995882Y-9998935D01*
X-12142626Y-9936824D01*
X-12255534Y-9886858D01*
X-12482027Y-9775442D01*
X-12706939Y-9651420D01*
X-12912494Y-9524316D01*
X-12933589Y-9510408D01*
X-13009480Y-9460819D01*
X-13071975Y-9420675D01*
X-13115082Y-9393791D01*
X-13132814Y-9383982D01*
X-13135501Y-9385068D01*
X-13161190Y-9401417D01*
X-13207059Y-9433321D01*
X-13265461Y-9475501D01*
X-13305083Y-9504165D01*
X-13530919Y-9653007D01*
X-13775405Y-9789639D01*
X-14048046Y-9919452D01*
X-14148370Y-9963820D01*
X-14261277Y-9828524D01*
X-14374183Y-9693228D01*
X-14193119Y-9631395D01*
X-14162636Y-9620744D01*
X-14057475Y-9581378D01*
X-13950180Y-9538041D01*
X-13859803Y-9498337D01*
X-13808120Y-9472913D01*
X-13723777Y-9427793D01*
X-13634664Y-9376845D01*
X-13548415Y-9324723D01*
X-13472666Y-9276082D01*
X-13415052Y-9235574D01*
X-13383210Y-9207853D01*
X-13379559Y-9192619D01*
X-13392653Y-9161877D01*
X-13427531Y-9113668D01*
X-13486912Y-9043695D01*
X-13516836Y-9009069D01*
X-13629448Y-8866727D01*
X-13736313Y-8713569D01*
X-13834574Y-8555072D01*
X-13921375Y-8396713D01*
X-13993859Y-8243969D01*
X-14049170Y-8102316D01*
X-14075642Y-8008463D01*
X-13779059Y-8008463D01*
X-13766527Y-8050859D01*
X-13760824Y-8069008D01*
X-13726052Y-8159748D01*
X-13677190Y-8268058D01*
X-13619726Y-8382850D01*
X-13559145Y-8493038D01*
X-13500935Y-8587533D01*
X-13479333Y-8619093D01*
X-13410450Y-8712249D01*
X-13335503Y-8805394D01*
X-13267267Y-8882407D01*
X-13143307Y-9012400D01*
X-13048561Y-8891997D01*
X-13043728Y-8885842D01*
X-12901546Y-8690432D01*
X-12786992Y-8499926D01*
X-12694007Y-8303053D01*
X-12616530Y-8088545D01*
X-12591230Y-8008463D01*
X-13779059Y-8008463D01*
X-14075642Y-8008463D01*
X-14084451Y-7977233D01*
X-14096846Y-7874196D01*
X-14096846Y-7763508D01*
X-13305451Y-7763508D01*
X-13305451Y-7198226D01*
X-14304116Y-7198226D01*
X-14304116Y-6934427D01*
X-13305451Y-6934427D01*
X-13305451Y-6331460D01*
X-13022810Y-6331460D01*
X-13022810Y-6934427D01*
X-12061831Y-6934427D01*
X-12061831Y-7198226D01*
X-13022810Y-7198226D01*
X-13022810Y-7763508D01*
X-12061831Y-7763508D01*
X-12061831Y-8008463D01*
X-12320732Y-8008463D01*
X-12345544Y-8097966D01*
X-12353424Y-8125054D01*
G37*
G36*
X570725Y-12852524D02*
G01*
X572219Y-12869887D01*
X568352Y-12875526D01*
X552265Y-12888730D01*
X550384Y-12888240D01*
X543955Y-12869887D01*
X544722Y-12864723D01*
X563910Y-12851045D01*
X570725Y-12852524D01*
G37*
G36*
X268893Y-10256614D02*
G01*
X304751Y-10300605D01*
X315722Y-10344160D01*
X292242Y-10380436D01*
X286013Y-10384947D01*
X258117Y-10388054D01*
X218610Y-10363901D01*
X190980Y-10345136D01*
X127556Y-10325181D01*
X71887Y-10340129D01*
X28553Y-10389366D01*
X26383Y-10393249D01*
X-14938Y-10444834D01*
X-65234Y-10483009D01*
X-100489Y-10496871D01*
X-181201Y-10504623D01*
X-259674Y-10485132D01*
X-325331Y-10442035D01*
X-367599Y-10378972D01*
X-388760Y-10322772D01*
X-511238Y-10335725D01*
X-571981Y-10342998D01*
X-620139Y-10350481D01*
X-641451Y-10356126D01*
X-638859Y-10369437D01*
X-617898Y-10398147D01*
X-597428Y-10424880D01*
X-589318Y-10460952D01*
X-616238Y-10484199D01*
X-650547Y-10486937D01*
X-702147Y-10461015D01*
X-754883Y-10403330D01*
X-764198Y-10389752D01*
X-789988Y-10335499D01*
X-784217Y-10294022D01*
X-746474Y-10258242D01*
X-727899Y-10248923D01*
X-698076Y-10240684D01*
X-653830Y-10234140D01*
X-590508Y-10228917D01*
X-503457Y-10224639D01*
X-388027Y-10220933D01*
X-239563Y-10217423D01*
X219944Y-10207665D01*
X268893Y-10256614D01*
G37*
G36*
X631888Y-12857326D02*
G01*
X634836Y-12862993D01*
X619326Y-12869887D01*
X609351Y-12868528D01*
X606764Y-12857326D01*
X609526Y-12855070D01*
X631888Y-12857326D01*
G37*
G36*
X-12593202Y-12825360D02*
G01*
X-12603287Y-12977780D01*
X-12620716Y-13115608D01*
X-12645122Y-13227591D01*
X-12650212Y-13244659D01*
X-12732181Y-13451980D01*
X-12843754Y-13637623D01*
X-12982416Y-13799468D01*
X-13145653Y-13935391D01*
X-13330952Y-14043272D01*
X-13535798Y-14120989D01*
X-13757677Y-14166420D01*
X-13888225Y-14180150D01*
X-14006941Y-14185448D01*
X-14123927Y-14181403D01*
X-14257009Y-14168077D01*
X-14370732Y-14150596D01*
X-14595456Y-14091796D01*
X-14796482Y-14004103D01*
X-14973042Y-13888185D01*
X-15124368Y-13744711D01*
X-15249694Y-13574349D01*
X-15348252Y-13377767D01*
X-15419274Y-13155634D01*
X-15425641Y-13127617D01*
X-15449252Y-12972866D01*
X-15460307Y-12798911D01*
X-15460180Y-12783587D01*
X-14717338Y-12783587D01*
X-14713000Y-12907808D01*
X-14701037Y-13013223D01*
X-14698111Y-13029364D01*
X-14652678Y-13190828D01*
X-14582621Y-13335578D01*
X-14491475Y-13458744D01*
X-14382776Y-13555454D01*
X-14260060Y-13620837D01*
X-14171188Y-13646301D01*
X-14028718Y-13660566D01*
X-13885310Y-13646796D01*
X-13750910Y-13606275D01*
X-13635464Y-13540284D01*
X-13580181Y-13492438D01*
X-13483735Y-13373125D01*
X-13409467Y-13226661D01*
X-13358384Y-13055967D01*
X-13331491Y-12863961D01*
X-13329797Y-12653565D01*
X-13332619Y-12608379D01*
X-13360200Y-12403088D01*
X-13410355Y-12227339D01*
X-13482898Y-12081372D01*
X-13577642Y-11965426D01*
X-13694400Y-11879743D01*
X-13832985Y-11824561D01*
X-13993211Y-11800122D01*
X-14041143Y-11798183D01*
X-14119151Y-11799976D01*
X-14185008Y-11811273D01*
X-14255479Y-11834255D01*
X-14257897Y-11835172D01*
X-14388901Y-11904000D01*
X-14499687Y-12003215D01*
X-14591114Y-12133788D01*
X-14664039Y-12296690D01*
X-14669537Y-12313452D01*
X-14690151Y-12405493D01*
X-14705359Y-12521689D01*
X-14714606Y-12651300D01*
X-14717338Y-12783587D01*
X-15460180Y-12783587D01*
X-15458821Y-12619305D01*
X-15444810Y-12447601D01*
X-15418290Y-12297354D01*
X-15409276Y-12261954D01*
X-15334362Y-12046700D01*
X-15231332Y-11854936D01*
X-15101574Y-11688198D01*
X-14946475Y-11548024D01*
X-14767423Y-11435949D01*
X-14565806Y-11353509D01*
X-14446981Y-11321225D01*
X-14230496Y-11285712D01*
X-14007631Y-11275756D01*
X-13785754Y-11290685D01*
X-13572229Y-11329827D01*
X-13374426Y-11392511D01*
X-13199709Y-11478064D01*
X-13179568Y-11490494D01*
X-13019369Y-11613631D01*
X-12880729Y-11765470D01*
X-12765914Y-11942589D01*
X-12677189Y-12141564D01*
X-12616820Y-12358970D01*
X-12610681Y-12393109D01*
X-12596532Y-12521770D01*
X-12591447Y-12653565D01*
X-12590828Y-12669605D01*
X-12593202Y-12825360D01*
G37*
G36*
X1099533Y-10543541D02*
G01*
X1110260Y-10562967D01*
X1118072Y-10601296D01*
X1124192Y-10664787D01*
X1129842Y-10759698D01*
X1135078Y-10835872D01*
X1144255Y-10922879D01*
X1155172Y-10993105D01*
X1166446Y-11036104D01*
X1172918Y-11053509D01*
X1177609Y-11120744D01*
X1145883Y-11178673D01*
X1077631Y-11227533D01*
X1060814Y-11235588D01*
X1013322Y-11252403D01*
X982622Y-11254639D01*
X974607Y-11250202D01*
X959506Y-11221041D01*
X965697Y-11185347D01*
X991470Y-11161165D01*
X1014464Y-11150454D01*
X1056005Y-11122431D01*
X1063484Y-11115728D01*
X1077020Y-11095573D01*
X1075206Y-11067026D01*
X1058332Y-11016949D01*
X1053287Y-11001255D01*
X1039485Y-10929425D01*
X1030734Y-10838032D01*
X1027600Y-10740824D01*
X1030652Y-10651549D01*
X1040456Y-10583954D01*
X1057163Y-10546843D01*
X1086357Y-10537044D01*
X1099533Y-10543541D01*
G37*
G36*
X-530080Y-13915659D02*
G01*
X-539502Y-13925080D01*
X-548923Y-13915659D01*
X-539502Y-13906238D01*
X-530080Y-13915659D01*
G37*
G36*
X2363393Y-12880299D02*
G01*
X2436945Y-13030639D01*
X2513347Y-13205702D01*
X2590891Y-13401594D01*
X2667867Y-13614421D01*
X2742568Y-13840288D01*
X2755083Y-13879892D01*
X2783976Y-13971192D01*
X2808275Y-14047792D01*
X2825731Y-14102612D01*
X2834098Y-14128573D01*
X2829530Y-14142636D01*
X2799441Y-14148551D01*
X2737972Y-14147416D01*
X2633642Y-14141772D01*
X2587655Y-14009873D01*
X2585568Y-14003896D01*
X2561426Y-13935954D01*
X2541101Y-13880739D01*
X2528804Y-13849709D01*
X2520277Y-13824654D01*
X2510732Y-13776870D01*
X2505333Y-13746968D01*
X2495666Y-13722439D01*
X2488563Y-13721309D01*
X2474713Y-13741391D01*
X2462561Y-13778880D01*
X2455778Y-13820896D01*
X2458031Y-13854558D01*
X2462005Y-13879545D01*
X2446906Y-13877871D01*
X2439522Y-13875971D01*
X2431335Y-13890730D01*
X2428739Y-13932868D01*
X2431121Y-14007411D01*
X2438382Y-14151193D01*
X-492395Y-14151193D01*
X-492395Y-14112396D01*
X-489456Y-14090594D01*
X-478263Y-14082322D01*
X-470287Y-14082321D01*
X-461564Y-14058356D01*
X-459439Y-14011424D01*
X-463544Y-13950491D01*
X-473508Y-13884525D01*
X-488962Y-13822492D01*
X-524152Y-13711379D01*
X-545164Y-13771654D01*
X-545930Y-13773896D01*
X-556637Y-13824385D01*
X-554347Y-13862753D01*
X-550594Y-13878986D01*
X-561203Y-13882029D01*
X-563626Y-13881568D01*
X-579696Y-13899547D01*
X-601569Y-13945014D01*
X-625644Y-14010779D01*
X-671401Y-14151076D01*
X-743331Y-14151135D01*
X-783113Y-14149412D01*
X-805690Y-14139927D01*
X-805737Y-14118218D01*
X-804323Y-14113228D01*
X-793716Y-14074751D01*
X-775986Y-14009739D01*
X-753225Y-13925882D01*
X-727526Y-13830867D01*
X-660136Y-13591309D01*
X-590165Y-13366193D01*
X-522095Y-13173309D01*
X-454885Y-13009931D01*
X-387495Y-12873333D01*
X-318883Y-12760790D01*
X-272105Y-12705630D01*
X-223141Y-12663601D01*
X268785Y-12663601D01*
X269529Y-12687619D01*
X270386Y-12693345D01*
X284473Y-12740438D01*
X308252Y-12794392D01*
X311731Y-12801065D01*
X332780Y-12837055D01*
X345327Y-12842993D01*
X355716Y-12822656D01*
X363928Y-12804028D01*
X372274Y-12807561D01*
X382277Y-12844760D01*
X382662Y-12846454D01*
X399970Y-12890608D01*
X422629Y-12914829D01*
X434051Y-12917375D01*
X447656Y-12906732D01*
X452457Y-12870932D01*
X449940Y-12803938D01*
X449763Y-12801103D01*
X450835Y-12766649D01*
X457858Y-12758895D01*
X461975Y-12767917D01*
X469120Y-12806644D01*
X473789Y-12862530D01*
X475715Y-12896021D01*
X482572Y-12935763D01*
X498713Y-12953827D01*
X530143Y-12960673D01*
X563565Y-12969831D01*
X571606Y-12983936D01*
X573398Y-12996965D01*
X598429Y-13021804D01*
X639721Y-13047958D01*
X686027Y-13068646D01*
X726102Y-13077087D01*
X751879Y-13081384D01*
X774060Y-13098555D01*
X779019Y-13101424D01*
X791203Y-13082361D01*
X805824Y-13044459D01*
X819390Y-12998587D01*
X828407Y-12955615D01*
X828910Y-12940548D01*
X959163Y-12940548D01*
X970487Y-12956078D01*
X1005602Y-12964101D01*
X1022307Y-12963518D01*
X1046781Y-12954409D01*
X1049339Y-12927882D01*
X1032447Y-12875825D01*
X1012184Y-12822781D01*
X1146923Y-12822781D01*
X1149602Y-12835867D01*
X1170476Y-12851333D01*
X1181620Y-12854485D01*
X1166636Y-12868950D01*
X1162397Y-12871806D01*
X1148951Y-12893501D01*
X1160087Y-12927882D01*
X1160741Y-12929901D01*
X1175802Y-12963967D01*
X1193562Y-13014178D01*
X1199971Y-13031836D01*
X1231181Y-13062555D01*
X1283532Y-13062877D01*
X1299231Y-13055072D01*
X1310015Y-13032974D01*
X1315181Y-12989136D01*
X1316507Y-12915613D01*
X1316457Y-12892322D01*
X1314871Y-12829521D01*
X1310945Y-12803938D01*
X1335350Y-12803938D01*
X1341203Y-12835004D01*
X1358903Y-12851333D01*
X1371946Y-12854143D01*
X1357681Y-12867333D01*
X1357217Y-12867636D01*
X1340874Y-12899618D01*
X1340335Y-12915613D01*
X1338838Y-12960071D01*
X1339254Y-12965339D01*
X1345256Y-13010309D01*
X1356450Y-13025574D01*
X1377746Y-13018506D01*
X1397239Y-13000041D01*
X1412907Y-12958454D01*
X1413227Y-12952965D01*
X1416807Y-12933078D01*
X1423589Y-12949341D01*
X1425676Y-12956461D01*
X1439299Y-12971617D01*
X1468510Y-12958941D01*
X1489086Y-12939213D01*
X1501509Y-12901385D01*
X1504934Y-12837091D01*
X1505000Y-12832202D01*
X1527002Y-12832202D01*
X1528704Y-12857582D01*
X1538545Y-12898524D01*
X1555730Y-12903191D01*
X1579642Y-12871126D01*
X1584600Y-12861253D01*
X1599272Y-12809044D01*
X1591147Y-12771335D01*
X1561598Y-12756831D01*
X1539183Y-12761366D01*
X1527989Y-12783146D01*
X1527002Y-12832202D01*
X1505000Y-12832202D01*
X1505544Y-12791938D01*
X1510599Y-12755688D01*
X1524606Y-12740844D01*
X1552041Y-12737988D01*
X1617991Y-12737988D01*
X1618351Y-12771878D01*
X1620015Y-12809044D01*
X1620292Y-12815241D01*
X1623350Y-12832202D01*
X1624006Y-12831954D01*
X1637844Y-12814353D01*
X1661035Y-12777477D01*
X1675513Y-12750164D01*
X1692461Y-12695120D01*
X1685768Y-12657626D01*
X1655676Y-12643775D01*
X1646960Y-12644178D01*
X1628397Y-12653295D01*
X1626920Y-12658237D01*
X1619975Y-12681479D01*
X1618983Y-12709724D01*
X1617991Y-12737988D01*
X1552041Y-12737988D01*
X1582768Y-12732456D01*
X1599148Y-12709724D01*
X1596862Y-12695104D01*
X1574443Y-12682479D01*
X1528232Y-12698927D01*
X1508771Y-12708411D01*
X1460499Y-12727383D01*
X1447834Y-12732878D01*
X1432433Y-12756360D01*
X1433162Y-12804129D01*
X1433463Y-12806810D01*
X1432945Y-12853027D01*
X1419622Y-12869887D01*
X1406678Y-12855401D01*
X1406702Y-12813359D01*
X1409373Y-12788007D01*
X1402524Y-12762807D01*
X1375174Y-12756831D01*
X1374239Y-12756835D01*
X1343849Y-12767347D01*
X1335350Y-12803938D01*
X1310945Y-12803938D01*
X1309478Y-12794376D01*
X1298166Y-12779042D01*
X1278822Y-12775674D01*
X1254999Y-12781547D01*
X1241136Y-12812247D01*
X1238378Y-12833817D01*
X1224051Y-12859380D01*
X1215586Y-12857729D01*
X1216827Y-12832228D01*
X1216866Y-12832077D01*
X1216112Y-12802486D01*
X1186806Y-12794516D01*
X1162834Y-12799816D01*
X1146923Y-12822781D01*
X1012184Y-12822781D01*
X1010581Y-12825666D01*
X986007Y-12869887D01*
X968282Y-12907592D01*
X959163Y-12940548D01*
X828910Y-12940548D01*
X829382Y-12926416D01*
X828140Y-12913712D01*
X837082Y-12911998D01*
X837246Y-12912155D01*
X854631Y-12907257D01*
X876558Y-12876870D01*
X884849Y-12860658D01*
X899433Y-12825666D01*
X893073Y-12814063D01*
X864282Y-12818819D01*
X841657Y-12821723D01*
X826596Y-12813735D01*
X823316Y-12809062D01*
X794207Y-12796993D01*
X744775Y-12786526D01*
X728618Y-12784075D01*
X664062Y-12773857D01*
X612876Y-12765175D01*
X605173Y-12763898D01*
X571435Y-12765974D01*
X560920Y-12789437D01*
X560797Y-12791333D01*
X555914Y-12801815D01*
X545938Y-12775674D01*
X531013Y-12745690D01*
X495999Y-12728567D01*
X474149Y-12726123D01*
X448052Y-12713500D01*
X440344Y-12707543D01*
X403994Y-12690805D01*
X350946Y-12672552D01*
X311492Y-12661027D01*
X296342Y-12658286D01*
X627557Y-12658286D01*
X629291Y-12659125D01*
X656559Y-12666179D01*
X709345Y-12677566D01*
X778386Y-12691261D01*
X783746Y-12692276D01*
X866317Y-12705629D01*
X944686Y-12714726D01*
X1002549Y-12717648D01*
X1047535Y-12714072D01*
X1122223Y-12703702D01*
X1205663Y-12689204D01*
X1282740Y-12673242D01*
X1338340Y-12658480D01*
X1338684Y-12658237D01*
X1320830Y-12656639D01*
X1271468Y-12655255D01*
X1195998Y-12654165D01*
X1099819Y-12653452D01*
X988330Y-12653196D01*
X973366Y-12653200D01*
X862549Y-12653509D01*
X766940Y-12654252D01*
X692159Y-12655348D01*
X643825Y-12656720D01*
X627557Y-12658286D01*
X296342Y-12658286D01*
X279783Y-12655290D01*
X268785Y-12663601D01*
X-223141Y-12663601D01*
X-189830Y-12635008D01*
X-94579Y-12573069D01*
X345Y-12529453D01*
X69124Y-12505666D01*
X-75026Y-12431958D01*
X-148180Y-12393955D01*
X-291689Y-12314183D01*
X-412504Y-12237506D01*
X-519562Y-12157488D01*
X-621803Y-12067695D01*
X-728165Y-11961689D01*
X-793018Y-11892813D01*
X-867138Y-11808519D01*
X-926218Y-11731762D01*
X-977992Y-11652247D01*
X-1030193Y-11559680D01*
X-1071577Y-11483068D01*
X-1105018Y-11424773D01*
X-1130152Y-11389118D01*
X-1151924Y-11370517D01*
X-1175281Y-11363387D01*
X-1205172Y-11362142D01*
X-1252690Y-11358792D01*
X-1325754Y-11348814D01*
X-1402909Y-11334579D01*
X-1494992Y-11309599D01*
X-1639343Y-11242378D01*
X-1762763Y-11144286D01*
X-1867348Y-11013878D01*
X-1940218Y-10885652D01*
X-1990424Y-10748003D01*
X-2009437Y-10608439D01*
X-2006899Y-10571074D01*
X-1838560Y-10571074D01*
X-1838077Y-10631990D01*
X-1834681Y-10701543D01*
X-1825979Y-10753229D01*
X-1809603Y-10799013D01*
X-1783185Y-10850858D01*
X-1750197Y-10903969D01*
X-1661299Y-11008466D01*
X-1555013Y-11095134D01*
X-1442335Y-11154186D01*
X-1399554Y-11168242D01*
X-1324698Y-11185959D01*
X-1262970Y-11192884D01*
X-1262495Y-11192884D01*
X-1214770Y-11190485D01*
X-1196132Y-11180300D01*
X-1198179Y-11157777D01*
X-1213183Y-11101559D01*
X-1234153Y-10993504D01*
X-1253921Y-10857848D01*
X-1271659Y-10700514D01*
X-1286534Y-10527424D01*
X-1295183Y-10409860D01*
X-1129415Y-10409860D01*
X-1126062Y-10471335D01*
X-1119459Y-10551972D01*
X-1110388Y-10644161D01*
X-1099631Y-10740290D01*
X-1087967Y-10832746D01*
X-1076180Y-10913917D01*
X-1065050Y-10976193D01*
X-1013176Y-11180300D01*
X-1011615Y-11186442D01*
X-936730Y-11387167D01*
X-839935Y-11567850D01*
X-716990Y-11736309D01*
X-563653Y-11900362D01*
X-433620Y-12015064D01*
X-215216Y-12168816D01*
X24909Y-12296910D01*
X280882Y-12396363D01*
X546829Y-12464193D01*
X578799Y-12469621D01*
X661148Y-12480343D01*
X758588Y-12490013D01*
X862365Y-12498079D01*
X963724Y-12503989D01*
X1053914Y-12507189D01*
X1124178Y-12507129D01*
X1165765Y-12503254D01*
X1174825Y-12501403D01*
X1218199Y-12494228D01*
X1284264Y-12484343D01*
X1362737Y-12473313D01*
X1522725Y-12443054D01*
X1733210Y-12381905D01*
X1944929Y-12299188D01*
X2146013Y-12199657D01*
X2324593Y-12088066D01*
X2339185Y-12077467D01*
X2440997Y-11993300D01*
X2550407Y-11888295D01*
X2657797Y-11772716D01*
X2753545Y-11656828D01*
X2828031Y-11550896D01*
X2845072Y-11522667D01*
X2939894Y-11327368D01*
X2983755Y-11192884D01*
X3169175Y-11192884D01*
X3246216Y-11192870D01*
X3278573Y-11190362D01*
X3366369Y-11167428D01*
X3462570Y-11125296D01*
X3555094Y-11069795D01*
X3631863Y-11006757D01*
X3652045Y-10986041D01*
X3718705Y-10904234D01*
X3762519Y-10819495D01*
X3788082Y-10720607D01*
X3799986Y-10596355D01*
X3801885Y-10551004D01*
X3802471Y-10477630D01*
X3796975Y-10423083D01*
X3783587Y-10374705D01*
X3760501Y-10319835D01*
X3722962Y-10251358D01*
X3671675Y-10177754D01*
X3615515Y-10110964D01*
X3561952Y-10059835D01*
X3518457Y-10033216D01*
X3495874Y-10032227D01*
X3454961Y-10051655D01*
X3398138Y-10098447D01*
X3359146Y-10132538D01*
X3334997Y-10150960D01*
X3318615Y-10163457D01*
X3295415Y-10175377D01*
X3294500Y-10175505D01*
X3284863Y-10196066D01*
X3278468Y-10247313D01*
X3276151Y-10322846D01*
X3275291Y-10362353D01*
X3274065Y-10418640D01*
X3264344Y-10576334D01*
X3248110Y-10742216D01*
X3226939Y-10901007D01*
X3202408Y-11037432D01*
X3169175Y-11192884D01*
X2983755Y-11192884D01*
X3013715Y-11101022D01*
X3066464Y-10843886D01*
X3098072Y-10556217D01*
X3111524Y-10362353D01*
X3064377Y-10383835D01*
X3059008Y-10386393D01*
X3031878Y-10407281D01*
X3023542Y-10426389D01*
X3016355Y-10442864D01*
X3006980Y-10504634D01*
X3004821Y-10522613D01*
X2974703Y-10638954D01*
X2920850Y-10735673D01*
X2847107Y-10805532D01*
X2808576Y-10827347D01*
X2745020Y-10851949D01*
X2665238Y-10870866D01*
X2564962Y-10884641D01*
X2439922Y-10893813D01*
X2285851Y-10898925D01*
X2098480Y-10900518D01*
X2000576Y-10900448D01*
X1886889Y-10899827D01*
X1801030Y-10898140D01*
X1737171Y-10894882D01*
X1689485Y-10889547D01*
X1652141Y-10881632D01*
X1619314Y-10870630D01*
X1585174Y-10856036D01*
X1549066Y-10837415D01*
X1478525Y-10790533D01*
X1422576Y-10740871D01*
X1394163Y-10703897D01*
X1352488Y-10633260D01*
X1315468Y-10554080D01*
X1288960Y-10479350D01*
X1278822Y-10422059D01*
X1277729Y-10412271D01*
X1264099Y-10395335D01*
X1228573Y-10383808D01*
X1163263Y-10374441D01*
X1152245Y-10373321D01*
X1071892Y-10369390D01*
X975756Y-10369716D01*
X882287Y-10374307D01*
X716871Y-10387247D01*
X716561Y-10388916D01*
X704156Y-10455607D01*
X674758Y-10563792D01*
X610650Y-10686315D01*
X517602Y-10784820D01*
X395153Y-10859908D01*
X381890Y-10865885D01*
X351071Y-10877697D01*
X316793Y-10886437D01*
X273353Y-10892563D01*
X215046Y-10896531D01*
X136168Y-10898798D01*
X31014Y-10899822D01*
X-106119Y-10900058D01*
X-186166Y-10899842D01*
X-355784Y-10897337D01*
X-494149Y-10891504D01*
X-605761Y-10881699D01*
X-695122Y-10867275D01*
X-766730Y-10847588D01*
X-825086Y-10821993D01*
X-874691Y-10789843D01*
X-878170Y-10787152D01*
X-952807Y-10705586D01*
X-1000991Y-10602086D01*
X-1018967Y-10484596D01*
X-1022030Y-10440491D01*
X-1036528Y-10406669D01*
X-1069533Y-10384966D01*
X-1106266Y-10371582D01*
X-1127223Y-10370541D01*
X-1128737Y-10375161D01*
X-1129415Y-10409860D01*
X-1295183Y-10409860D01*
X-1299135Y-10356144D01*
X-959323Y-10356144D01*
X-958950Y-10459972D01*
X-956080Y-10491456D01*
X-932630Y-10600078D01*
X-887434Y-10683284D01*
X-817016Y-10744375D01*
X-717899Y-10786649D01*
X-586609Y-10813407D01*
X-551159Y-10817815D01*
X-434396Y-10828655D01*
X-301553Y-10836849D01*
X-163336Y-10842071D01*
X-30448Y-10843995D01*
X86406Y-10842294D01*
X176522Y-10836643D01*
X244050Y-10826931D01*
X377473Y-10787481D01*
X482749Y-10723512D01*
X560702Y-10634421D01*
X612160Y-10519608D01*
X620791Y-10489290D01*
X638750Y-10388916D01*
X634409Y-10350358D01*
X1355366Y-10350358D01*
X1359060Y-10442805D01*
X1392071Y-10557843D01*
X1423738Y-10626578D01*
X1487970Y-10710177D01*
X1575250Y-10771385D01*
X1689392Y-10812601D01*
X1834210Y-10836227D01*
X1887849Y-10841082D01*
X2000983Y-10848197D01*
X2110191Y-10849558D01*
X2229191Y-10845132D01*
X2371700Y-10834884D01*
X2533211Y-10818682D01*
X2662763Y-10797807D01*
X2762120Y-10769718D01*
X2835022Y-10731709D01*
X2885214Y-10681077D01*
X2916438Y-10615116D01*
X2932437Y-10531121D01*
X2936953Y-10426389D01*
X2935489Y-10352727D01*
X2927214Y-10287573D01*
X2907886Y-10245319D01*
X2873333Y-10217827D01*
X2819387Y-10196958D01*
X2755367Y-10181211D01*
X2640779Y-10163759D01*
X2502206Y-10151108D01*
X2347318Y-10143258D01*
X2183787Y-10140208D01*
X2019282Y-10141960D01*
X1861474Y-10148512D01*
X1718033Y-10159864D01*
X1596630Y-10176017D01*
X1504934Y-10196971D01*
X1438119Y-10226213D01*
X1381536Y-10278745D01*
X1355366Y-10350358D01*
X634409Y-10350358D01*
X630155Y-10312566D01*
X592494Y-10255846D01*
X523253Y-10214365D01*
X419917Y-10183731D01*
X415564Y-10182787D01*
X305511Y-10165135D01*
X169744Y-10152564D01*
X16157Y-10144978D01*
X-147355Y-10142283D01*
X-312901Y-10144383D01*
X-472584Y-10151184D01*
X-618512Y-10162592D01*
X-742791Y-10178510D01*
X-837527Y-10198845D01*
X-843282Y-10200586D01*
X-903800Y-10231421D01*
X-941710Y-10281617D01*
X-959323Y-10356144D01*
X-1299135Y-10356144D01*
X-1309846Y-10210554D01*
X-1367478Y-10186463D01*
X-1415455Y-10160340D01*
X-1420315Y-10156298D01*
X-1133048Y-10156298D01*
X-1132372Y-10201525D01*
X-1126858Y-10248831D01*
X-1112482Y-10277739D01*
X-1085353Y-10299973D01*
X-1084496Y-10300533D01*
X-1049984Y-10320051D01*
X-1032977Y-10323961D01*
X-1031194Y-10320699D01*
X-1017569Y-10292400D01*
X-996590Y-10246889D01*
X-988186Y-10229853D01*
X-952120Y-10181465D01*
X-899756Y-10146571D01*
X-823994Y-10121497D01*
X-717730Y-10102566D01*
X-610847Y-10089712D01*
X-430224Y-10075374D01*
X-245543Y-10068782D01*
X-62708Y-10069620D01*
X112374Y-10077571D01*
X273799Y-10092319D01*
X415662Y-10113547D01*
X532057Y-10140938D01*
X617080Y-10174175D01*
X617633Y-10174475D01*
X655142Y-10208367D01*
X685123Y-10256975D01*
X710043Y-10316697D01*
X994437Y-10311043D01*
X1278831Y-10305388D01*
X1307285Y-10250362D01*
X1319843Y-10229490D01*
X1357319Y-10190229D01*
X1412148Y-10158195D01*
X1488394Y-10132181D01*
X1590118Y-10110976D01*
X1721383Y-10093374D01*
X1886252Y-10078165D01*
X1896099Y-10077412D01*
X2030434Y-10070728D01*
X2177790Y-10068987D01*
X2329732Y-10071802D01*
X2477823Y-10078785D01*
X2613628Y-10089547D01*
X2728711Y-10103701D01*
X2814635Y-10120859D01*
X2837357Y-10128105D01*
X2911538Y-10167395D01*
X2969964Y-10221487D01*
X3001766Y-10281077D01*
X3001829Y-10281327D01*
X3017833Y-10318342D01*
X3041537Y-10320783D01*
X3077652Y-10289153D01*
X3078390Y-10288330D01*
X3090839Y-10270520D01*
X3099324Y-10245786D01*
X3104310Y-10207980D01*
X3106259Y-10150960D01*
X3105637Y-10068579D01*
X3102907Y-9954694D01*
X3101407Y-9902002D01*
X3097834Y-9802054D01*
X3093244Y-9728967D01*
X3086477Y-9675158D01*
X3076372Y-9633044D01*
X3061766Y-9595041D01*
X3041501Y-9553567D01*
X2979209Y-9440239D01*
X2869118Y-9277165D01*
X2749891Y-9147023D01*
X2618163Y-9046949D01*
X2470566Y-8974078D01*
X2303736Y-8925543D01*
X2302872Y-8925361D01*
X2233907Y-8911910D01*
X2192337Y-8907597D01*
X2169068Y-8912489D01*
X2155009Y-8926656D01*
X2124655Y-8969871D01*
X2085240Y-9010879D01*
X2039689Y-9033381D01*
X1974354Y-9046423D01*
X1967488Y-9047361D01*
X1873229Y-9055719D01*
X1751962Y-9060479D01*
X1613307Y-9061768D01*
X1466885Y-9059710D01*
X1322317Y-9054432D01*
X1189224Y-9046059D01*
X1077227Y-9034716D01*
X913093Y-9008596D01*
X686996Y-8959950D01*
X454823Y-8897501D01*
X227514Y-8824537D01*
X16007Y-8744345D01*
X-168759Y-8660214D01*
X-200108Y-8644400D01*
X-248296Y-8621557D01*
X-273642Y-8614361D01*
X-283476Y-8621691D01*
X-285125Y-8642428D01*
X-294800Y-8683636D01*
X-321147Y-8747185D01*
X-359311Y-8823591D01*
X-404439Y-8903736D01*
X-451674Y-8978502D01*
X-496162Y-9038770D01*
X-498969Y-9042119D01*
X-557117Y-9103817D01*
X-630306Y-9171744D01*
X-703393Y-9231796D01*
X-719620Y-9244268D01*
X-818388Y-9331946D01*
X-899338Y-9429130D01*
X-966750Y-9542866D01*
X-1024908Y-9680194D01*
X-1078092Y-9848158D01*
X-1082455Y-9863973D01*
X-1109040Y-9975253D01*
X-1126665Y-10076962D01*
X-1133048Y-10156298D01*
X-1420315Y-10156298D01*
X-1452002Y-10129947D01*
X-1484545Y-10100509D01*
X-1531764Y-10070181D01*
X-1562324Y-10056505D01*
X-1587188Y-10056730D01*
X-1615931Y-10075807D01*
X-1659682Y-10117886D01*
X-1687773Y-10148725D01*
X-1742401Y-10220502D01*
X-1786743Y-10292501D01*
X-1801072Y-10320892D01*
X-1820929Y-10369226D01*
X-1832300Y-10418985D01*
X-1837428Y-10482244D01*
X-1838560Y-10571074D01*
X-2006899Y-10571074D01*
X-1999256Y-10458544D01*
X-1979637Y-10372852D01*
X-1940969Y-10264768D01*
X-1890732Y-10159567D01*
X-1834515Y-10068730D01*
X-1777904Y-10003739D01*
X-1763937Y-9991297D01*
X-1732101Y-9957756D01*
X-1723735Y-9931302D01*
X-1733667Y-9899785D01*
X-1748463Y-9848919D01*
X-1754858Y-9788921D01*
X-1757118Y-9760136D01*
X-1770025Y-9694028D01*
X-1790560Y-9624934D01*
X-1796279Y-9608662D01*
X-1844534Y-9444699D01*
X-1887076Y-9252904D01*
X-1922803Y-9041892D01*
X-1950615Y-8820283D01*
X-1969408Y-8596695D01*
X-1978082Y-8379743D01*
X-1975534Y-8178048D01*
X-1973801Y-8143892D01*
X-1951846Y-7916680D01*
X-1913176Y-7696165D01*
X-1859676Y-7489811D01*
X-1793231Y-7305083D01*
X-1715727Y-7149442D01*
X-1691929Y-7112208D01*
X-1611374Y-7007572D01*
X-1510575Y-6897712D01*
X-1398865Y-6791720D01*
X-1285576Y-6698685D01*
X-1180041Y-6627696D01*
X-1115348Y-6587882D01*
X-1037393Y-6529228D01*
X-992667Y-6478395D01*
X-979478Y-6457024D01*
X-889597Y-6343445D01*
X-770296Y-6231457D01*
X-628350Y-6125688D01*
X-470532Y-6030766D01*
X-303619Y-5951321D01*
X-134383Y-5891981D01*
X-23672Y-5865797D01*
X139695Y-5839200D01*
X325015Y-5819174D01*
X523865Y-5806085D01*
X727819Y-5800297D01*
X928453Y-5802177D01*
X1117344Y-5812089D01*
X1286067Y-5830398D01*
X1402498Y-5849065D01*
X1764047Y-5930914D01*
X2110305Y-6046975D01*
X2442912Y-6197864D01*
X2763510Y-6384194D01*
X2764543Y-6384863D01*
X2879249Y-6462186D01*
X2981388Y-6538377D01*
X3077975Y-6619707D01*
X3176024Y-6712448D01*
X3282552Y-6822871D01*
X3404575Y-6957247D01*
X3410849Y-6964292D01*
X3525940Y-7091276D01*
X3622175Y-7192237D01*
X3703524Y-7270807D01*
X3773958Y-7330616D01*
X3837447Y-7375295D01*
X3897961Y-7408477D01*
X3923964Y-7421862D01*
X3978707Y-7456470D01*
X4015309Y-7488347D01*
X4043319Y-7545711D01*
X4043040Y-7614081D01*
X4013658Y-7679447D01*
X3957594Y-7731600D01*
X3916561Y-7757172D01*
X3884646Y-7777717D01*
X3877946Y-7786607D01*
X3872831Y-7813798D01*
X3872910Y-7862774D01*
X3878266Y-7938704D01*
X3888982Y-8046756D01*
X3889278Y-8049544D01*
X3899742Y-8170261D01*
X3908398Y-8310939D01*
X3914357Y-8454326D01*
X3916724Y-8583166D01*
X3917250Y-8643580D01*
X3921977Y-8783706D01*
X3931253Y-8897294D01*
X3944691Y-8978864D01*
X3956403Y-9031318D01*
X3967934Y-9093984D01*
X3972661Y-9135766D01*
X3972510Y-9140570D01*
X3954479Y-9188069D01*
X3914822Y-9236668D01*
X3865425Y-9274518D01*
X3818176Y-9289769D01*
X3809954Y-9290082D01*
X3794014Y-9294960D01*
X3780103Y-9309941D01*
X3766066Y-9340336D01*
X3749752Y-9391458D01*
X3729007Y-9468615D01*
X3701677Y-9577120D01*
X3687170Y-9635196D01*
X3663596Y-9728557D01*
X3643840Y-9805532D01*
X3629638Y-9859385D01*
X3622725Y-9883384D01*
X3627050Y-9897135D01*
X3653775Y-9929049D01*
X3697521Y-9968152D01*
X3778335Y-10046024D01*
X3868880Y-10175431D01*
X3937169Y-10329767D01*
X3965215Y-10448571D01*
X3966546Y-10477630D01*
X3972325Y-10603854D01*
X3950284Y-10758400D01*
X3899906Y-10899728D01*
X3830812Y-11019658D01*
X3723738Y-11147856D01*
X3596237Y-11244738D01*
X3446770Y-11311410D01*
X3273796Y-11348976D01*
X3218727Y-11356242D01*
X3156096Y-11366751D01*
X3118247Y-11378271D01*
X3097331Y-11393573D01*
X3085499Y-11415427D01*
X3080916Y-11426832D01*
X3045577Y-11498604D01*
X2994026Y-11587892D01*
X2932463Y-11684845D01*
X2867090Y-11779616D01*
X2804107Y-11862356D01*
X2770874Y-11902372D01*
X2673418Y-12008938D01*
X2570051Y-12104157D01*
X2453338Y-12193922D01*
X2315845Y-12284124D01*
X2150138Y-12380656D01*
X1956840Y-12488454D01*
X2060150Y-12538999D01*
X2102702Y-12562824D01*
X2172195Y-12612180D01*
X2225856Y-12662440D01*
X2231675Y-12669372D01*
X2249779Y-12695120D01*
X2294400Y-12758579D01*
X2363393Y-12880299D01*
G37*
G36*
X-586609Y-14056979D02*
G01*
X-587968Y-14066955D01*
X-599170Y-14069541D01*
X-601425Y-14066779D01*
X-599170Y-14044418D01*
X-593503Y-14041470D01*
X-586609Y-14056979D01*
G37*
G36*
X2578970Y-14066401D02*
G01*
X2569549Y-14075822D01*
X2560127Y-14066401D01*
X2569549Y-14056979D01*
X2578970Y-14066401D01*
G37*
G36*
X1241136Y-13020629D02*
G01*
X1239776Y-13030605D01*
X1228574Y-13033191D01*
X1226319Y-13030429D01*
X1228574Y-13008067D01*
X1234242Y-13005120D01*
X1241136Y-13020629D01*
G37*
G36*
X-19524289Y-13311921D02*
G01*
X-19573300Y-13509784D01*
X-19651904Y-13685977D01*
X-19758861Y-13839030D01*
X-19892932Y-13967475D01*
X-20052876Y-14069842D01*
X-20237454Y-14144662D01*
X-20445425Y-14190465D01*
X-20447930Y-14190811D01*
X-20547866Y-14198186D01*
X-20670073Y-14197983D01*
X-20800495Y-14190949D01*
X-20925073Y-14177832D01*
X-21029753Y-14159379D01*
X-21178064Y-14113685D01*
X-21347163Y-14028343D01*
X-21493453Y-13914010D01*
X-21615137Y-13772476D01*
X-21710419Y-13605531D01*
X-21777498Y-13414965D01*
X-21788612Y-13362431D01*
X-21802757Y-13244285D01*
X-21808331Y-13117662D01*
X-21114365Y-13117662D01*
X-21112607Y-13226858D01*
X-21107213Y-13309224D01*
X-21097435Y-13372980D01*
X-21082526Y-13426345D01*
X-21073714Y-13449810D01*
X-21016341Y-13556075D01*
X-20940369Y-13642795D01*
X-20853298Y-13700987D01*
X-20818051Y-13714982D01*
X-20704411Y-13737460D01*
X-20588056Y-13731311D01*
X-20477680Y-13698739D01*
X-20381976Y-13641948D01*
X-20309636Y-13563143D01*
X-20287060Y-13526430D01*
X-20255351Y-13462319D01*
X-20233589Y-13393560D01*
X-20220111Y-13311928D01*
X-20213253Y-13209202D01*
X-20211353Y-13077157D01*
X-20211937Y-13010663D01*
X-20218467Y-12877258D01*
X-20233724Y-12770971D01*
X-20259551Y-12684733D01*
X-20297791Y-12611471D01*
X-20350288Y-12544116D01*
X-20391834Y-12502342D01*
X-20465054Y-12452079D01*
X-20549990Y-12425570D01*
X-20658221Y-12418076D01*
X-20730471Y-12422079D01*
X-20843922Y-12449785D01*
X-20936058Y-12506004D01*
X-21010419Y-12593275D01*
X-21070543Y-12714141D01*
X-21073080Y-12720690D01*
X-21090355Y-12771525D01*
X-21102011Y-12823444D01*
X-21109151Y-12885592D01*
X-21112876Y-12967114D01*
X-21114288Y-13077157D01*
X-21114365Y-13117662D01*
X-21808331Y-13117662D01*
X-21808681Y-13109711D01*
X-21806389Y-12971902D01*
X-21795888Y-12844051D01*
X-21777185Y-12739349D01*
X-21727688Y-12588288D01*
X-21638726Y-12415765D01*
X-21522343Y-12268671D01*
X-21379706Y-12148160D01*
X-21211980Y-12055383D01*
X-21020332Y-11991493D01*
X-20962546Y-11980020D01*
X-20836677Y-11965580D01*
X-20695119Y-11959434D01*
X-20550984Y-11961594D01*
X-20417380Y-11972072D01*
X-20307418Y-11990878D01*
X-20220065Y-12015650D01*
X-20037637Y-12092905D01*
X-19880069Y-12197596D01*
X-19748529Y-12328140D01*
X-19644186Y-12482951D01*
X-19568208Y-12660448D01*
X-19521765Y-12859044D01*
X-19506024Y-13077157D01*
X-19506110Y-13093858D01*
X-19524289Y-13311921D01*
G37*
G36*
X562798Y-12916994D02*
G01*
X553377Y-12926416D01*
X543955Y-12916994D01*
X553377Y-12907573D01*
X562798Y-12916994D01*
G37*
G36*
X-8997963Y-11986409D02*
G01*
X-8819334Y-12055705D01*
X-8640240Y-12162340D01*
X-8519398Y-12246815D01*
X-8519398Y-12021965D01*
X-7841060Y-12021965D01*
X-7841060Y-14132350D01*
X-8519398Y-14132350D01*
X-8519398Y-12611236D01*
X-8637165Y-12557403D01*
X-8637931Y-12557053D01*
X-8721822Y-12524237D01*
X-8804693Y-12505768D01*
X-8905674Y-12497368D01*
X-8977304Y-12496432D01*
X-9069594Y-12506235D01*
X-9138282Y-12533222D01*
X-9191011Y-12581006D01*
X-9235422Y-12653196D01*
X-9282528Y-12747410D01*
X-9288837Y-13439880D01*
X-9295145Y-14132350D01*
X-9973158Y-14132350D01*
X-9965346Y-13336245D01*
X-9964465Y-13248444D01*
X-9962223Y-13054604D01*
X-9959583Y-12893071D01*
X-9956135Y-12760005D01*
X-9951467Y-12651571D01*
X-9945170Y-12563929D01*
X-9936833Y-12493243D01*
X-9926044Y-12435674D01*
X-9912394Y-12387385D01*
X-9895471Y-12344538D01*
X-9874866Y-12303295D01*
X-9850166Y-12259819D01*
X-9773115Y-12155250D01*
X-9668703Y-12068125D01*
X-9538833Y-12005237D01*
X-9380349Y-11964603D01*
X-9352352Y-11960226D01*
X-9175759Y-11954549D01*
X-8997963Y-11986409D01*
G37*
G36*
X525113Y-12860466D02*
G01*
X515691Y-12869887D01*
X506270Y-12860466D01*
X515691Y-12851045D01*
X525113Y-12860466D01*
G37*
G36*
X-739Y-11522641D02*
G01*
X36347Y-11533066D01*
X51139Y-11569739D01*
X58993Y-11603688D01*
X75018Y-11638012D01*
X88728Y-11648861D01*
X142104Y-11668869D01*
X226169Y-11686385D01*
X336296Y-11701219D01*
X467860Y-11713181D01*
X616235Y-11722082D01*
X776796Y-11727731D01*
X944916Y-11729940D01*
X1115969Y-11728519D01*
X1285331Y-11723277D01*
X1448375Y-11714025D01*
X1600476Y-11700574D01*
X1698535Y-11688390D01*
X1783283Y-11672425D01*
X1839993Y-11652888D01*
X1873876Y-11627890D01*
X1890145Y-11595540D01*
X1890260Y-11595082D01*
X1908630Y-11559989D01*
X1943694Y-11554384D01*
X1960820Y-11558470D01*
X1980413Y-11578637D01*
X1985424Y-11624234D01*
X1984965Y-11637737D01*
X1975067Y-11679554D01*
X1949474Y-11713585D01*
X1904524Y-11741138D01*
X1836549Y-11763525D01*
X1741885Y-11782055D01*
X1616866Y-11798038D01*
X1457828Y-11812783D01*
X1405412Y-11816698D01*
X1226032Y-11825386D01*
X1031301Y-11828776D01*
X830025Y-11827121D01*
X631012Y-11820672D01*
X443071Y-11809679D01*
X275009Y-11794394D01*
X135633Y-11775068D01*
X52418Y-11753825D01*
X-13721Y-11716132D01*
X-48749Y-11662213D01*
X-55218Y-11589586D01*
X-49987Y-11552281D01*
X-34863Y-11528229D01*
X-2484Y-11522632D01*
X-739Y-11522641D01*
G37*
G36*
X669573Y-12970382D02*
G01*
X672521Y-12976049D01*
X657012Y-12982944D01*
X647036Y-12981584D01*
X644450Y-12970382D01*
X647212Y-12968127D01*
X669573Y-12970382D01*
G37*
G36*
X374371Y-12719146D02*
G01*
X373011Y-12729121D01*
X361809Y-12731707D01*
X359554Y-12728946D01*
X361809Y-12706584D01*
X367476Y-12703636D01*
X374371Y-12719146D01*
G37*
G36*
X-16018804Y-14132350D02*
G01*
X-16697143Y-14132350D01*
X-16697143Y-13397484D01*
X-16018804Y-13397484D01*
X-16018804Y-14132350D01*
G37*
G36*
X1479811Y-12744269D02*
G01*
X1482759Y-12749937D01*
X1467249Y-12756831D01*
X1457274Y-12755471D01*
X1454687Y-12744269D01*
X1457449Y-12742014D01*
X1479811Y-12744269D01*
G37*
G36*
X1228878Y-12017263D02*
G01*
X1255268Y-12019270D01*
X1267647Y-12027929D01*
X1278822Y-12060096D01*
X1275409Y-12079133D01*
X1255268Y-12103950D01*
X1249194Y-12105294D01*
X1210276Y-12108200D01*
X1143916Y-12110096D01*
X1057521Y-12110825D01*
X958495Y-12110231D01*
X910284Y-12109594D01*
X817653Y-12107871D01*
X754461Y-12105139D01*
X714873Y-12100458D01*
X693054Y-12092891D01*
X683169Y-12081498D01*
X679383Y-12065342D01*
X678253Y-12055513D01*
X680457Y-12042286D01*
X692698Y-12033135D01*
X720504Y-12027107D01*
X769405Y-12023250D01*
X844929Y-12020611D01*
X952603Y-12018235D01*
X996760Y-12017424D01*
X1092316Y-12016315D01*
X1172125Y-12016270D01*
X1228878Y-12017263D01*
G37*
G36*
X2508561Y-13919905D02*
G01*
X2506784Y-13950637D01*
X2502026Y-13967169D01*
X2494949Y-13978559D01*
X2488321Y-13955320D01*
X2487586Y-13951879D01*
X2478322Y-13931555D01*
X2462571Y-13945899D01*
X2461427Y-13947532D01*
X2448702Y-13962610D01*
X2451369Y-13945569D01*
X2457837Y-13933058D01*
X2488201Y-13914598D01*
X2508561Y-13919905D01*
G37*
G36*
X-19730822Y-8705644D02*
G01*
X-19730822Y-8404160D01*
X-20409160Y-8404160D01*
X-20409160Y-8649116D01*
X-20671160Y-8649116D01*
X-20682380Y-8413582D01*
X-21370140Y-8403310D01*
X-21370140Y-8630273D01*
X-21633938Y-8630273D01*
X-21633938Y-8196890D01*
X-21370140Y-8196890D01*
X-19730822Y-8196890D01*
X-19730822Y-7933092D01*
X-20409160Y-7933092D01*
X-20409160Y-8196890D01*
X-20671237Y-8196890D01*
X-20676808Y-8069702D01*
X-20682380Y-7942513D01*
X-21026260Y-7937378D01*
X-21370140Y-7932242D01*
X-21370140Y-8196890D01*
X-21633938Y-8196890D01*
X-21633938Y-7725822D01*
X-21370140Y-7725822D01*
X-19730822Y-7725822D01*
X-19730822Y-7462024D01*
X-20409160Y-7462024D01*
X-20409160Y-7725822D01*
X-20672959Y-7725822D01*
X-20672959Y-7462024D01*
X-21370140Y-7462024D01*
X-21370140Y-7725822D01*
X-21633938Y-7725822D01*
X-21633938Y-7235911D01*
X-20672959Y-7235911D01*
X-20672959Y-6990956D01*
X-21860051Y-6990956D01*
X-21860051Y-6764843D01*
X-20672959Y-6764843D01*
X-20672959Y-6331460D01*
X-20409160Y-6331460D01*
X-20409160Y-6764843D01*
X-19278597Y-6764843D01*
X-19278597Y-6990956D01*
X-20409160Y-6990956D01*
X-20409160Y-7235911D01*
X-19467024Y-7235911D01*
X-19467024Y-8705644D01*
X-19730822Y-8705644D01*
G37*
G36*
X-18387251Y-11960709D02*
G01*
X-18218769Y-11971376D01*
X-18071075Y-11996285D01*
X-17933513Y-12037615D01*
X-17795429Y-12097545D01*
X-17665361Y-12172418D01*
X-17519485Y-12291604D01*
X-17403209Y-12433956D01*
X-17316421Y-12599651D01*
X-17259011Y-12788869D01*
X-17230867Y-13001786D01*
X-17228525Y-13138723D01*
X-17250710Y-13347849D01*
X-17304371Y-13536999D01*
X-17388535Y-13705022D01*
X-17502228Y-13850765D01*
X-17644476Y-13973075D01*
X-17814308Y-14070802D01*
X-18010748Y-14142792D01*
X-18232825Y-14187893D01*
X-18392049Y-14199704D01*
X-18582751Y-14194357D01*
X-18775387Y-14170997D01*
X-18957564Y-14131186D01*
X-19116885Y-14076486D01*
X-19203226Y-14039476D01*
X-19203226Y-13756165D01*
X-19203174Y-13678092D01*
X-19202513Y-13592001D01*
X-19200397Y-13534146D01*
X-19195981Y-13498915D01*
X-19188418Y-13480696D01*
X-19176859Y-13473880D01*
X-19160459Y-13472855D01*
X-19158169Y-13472961D01*
X-19120474Y-13485896D01*
X-19065748Y-13516199D01*
X-19005006Y-13557848D01*
X-18988194Y-13570148D01*
X-18860247Y-13643325D01*
X-18721000Y-13692362D01*
X-18577071Y-13717158D01*
X-18435082Y-13717611D01*
X-18301653Y-13693620D01*
X-18183404Y-13645084D01*
X-18086956Y-13571900D01*
X-18079547Y-13564213D01*
X-18018920Y-13491470D01*
X-17976513Y-13415807D01*
X-17949600Y-13328714D01*
X-17935451Y-13221677D01*
X-17931341Y-13086183D01*
X-17931557Y-13013449D01*
X-17933451Y-12936815D01*
X-17938811Y-12880590D01*
X-17949411Y-12834692D01*
X-17967026Y-12789040D01*
X-17993431Y-12733552D01*
X-18041758Y-12649129D01*
X-18124786Y-12552746D01*
X-18225809Y-12486674D01*
X-18348624Y-12448674D01*
X-18497030Y-12436505D01*
X-18589765Y-12442995D01*
X-18725741Y-12472456D01*
X-18856964Y-12521790D01*
X-18972671Y-12586686D01*
X-19062100Y-12662833D01*
X-19097230Y-12687281D01*
X-19149618Y-12700303D01*
X-19203226Y-12700303D01*
X-19203226Y-12118886D01*
X-19094880Y-12078102D01*
X-19039548Y-12057789D01*
X-18894014Y-12011228D01*
X-18760217Y-11981272D01*
X-18623288Y-11965116D01*
X-18468359Y-11959958D01*
X-18387251Y-11960709D01*
G37*
G36*
X2503599Y-13868552D02*
G01*
X2502239Y-13878527D01*
X2491037Y-13881114D01*
X2488782Y-13878352D01*
X2491037Y-13855990D01*
X2496705Y-13853042D01*
X2503599Y-13868552D01*
G37*
G36*
X-19777232Y-9146112D02*
G01*
X-19743538Y-9174840D01*
X-19701438Y-9218119D01*
X-19629983Y-9297211D01*
X-19683101Y-9335886D01*
X-19714262Y-9358832D01*
X-19770334Y-9400478D01*
X-19840769Y-9453008D01*
X-19917237Y-9510222D01*
X-19917871Y-9510697D01*
X-19988752Y-9563282D01*
X-20048301Y-9606469D01*
X-20090283Y-9635803D01*
X-20108464Y-9646832D01*
X-20123608Y-9636804D01*
X-20157806Y-9606189D01*
X-20202678Y-9562031D01*
X-20286683Y-9476282D01*
X-20239576Y-9439893D01*
X-20204419Y-9413509D01*
X-20140889Y-9367871D01*
X-20067603Y-9316824D01*
X-19991314Y-9264898D01*
X-19918774Y-9216625D01*
X-19856736Y-9176535D01*
X-19811951Y-9149159D01*
X-19791173Y-9139027D01*
X-19777232Y-9146112D01*
G37*
G36*
X1486092Y-12860466D02*
G01*
X1476670Y-12869887D01*
X1467249Y-12860466D01*
X1476670Y-12851045D01*
X1486092Y-12860466D01*
G37*
G36*
X-21087499Y-8856386D02*
G01*
X-19184383Y-8856386D01*
X-19184383Y-9082499D01*
X-21087499Y-9082499D01*
X-21087499Y-9556466D01*
X-20974105Y-9669860D01*
X-20662489Y-9663531D01*
X-20561358Y-9661592D01*
X-20475007Y-9660629D01*
X-20416671Y-9661556D01*
X-20381168Y-9664908D01*
X-20363313Y-9671222D01*
X-20357926Y-9681037D01*
X-20359822Y-9694887D01*
X-20362801Y-9708803D01*
X-20372025Y-9760133D01*
X-20381684Y-9822076D01*
X-20394597Y-9911579D01*
X-20729475Y-9911579D01*
X-20749352Y-9911577D01*
X-20864662Y-9911303D01*
X-20950021Y-9909994D01*
X-21012174Y-9906844D01*
X-21057864Y-9901049D01*
X-21093835Y-9891802D01*
X-21126831Y-9878299D01*
X-21163596Y-9859734D01*
X-21215690Y-9829891D01*
X-21262679Y-9792853D01*
X-21296725Y-9747886D01*
X-21320068Y-9689044D01*
X-21334947Y-9610387D01*
X-21343603Y-9505970D01*
X-21348277Y-9369850D01*
X-21354679Y-9082499D01*
X-21954264Y-9082499D01*
X-21954264Y-8856386D01*
X-21351297Y-8856386D01*
X-21351297Y-8630273D01*
X-21087499Y-8630273D01*
X-21087499Y-8856386D01*
G37*
G36*
X-7332306Y-6802528D02*
G01*
X-8519398Y-6802528D01*
X-8566397Y-6802539D01*
X-8771774Y-6802852D01*
X-8964891Y-6803567D01*
X-9142570Y-6804646D01*
X-9301633Y-6806053D01*
X-9438902Y-6807748D01*
X-9551197Y-6809694D01*
X-9635343Y-6811853D01*
X-9688159Y-6814188D01*
X-9706468Y-6816660D01*
X-9696237Y-6826897D01*
X-9658812Y-6857313D01*
X-9597233Y-6905018D01*
X-9514975Y-6967383D01*
X-9415512Y-7041776D01*
X-9302319Y-7125566D01*
X-9178871Y-7216123D01*
X-8651297Y-7601453D01*
X-8651297Y-7989620D01*
X-6936609Y-7989620D01*
X-6936609Y-8253419D01*
X-8651297Y-8253419D01*
X-8651297Y-8857322D01*
X-8651294Y-8889560D01*
X-8651016Y-9062548D01*
X-8649842Y-9202446D01*
X-8647150Y-9313192D01*
X-8642318Y-9398727D01*
X-8634724Y-9462989D01*
X-8623745Y-9509919D01*
X-8608760Y-9543455D01*
X-8589147Y-9567538D01*
X-8564284Y-9586106D01*
X-8533549Y-9603100D01*
X-8515687Y-9611304D01*
X-8483679Y-9620709D01*
X-8440866Y-9626245D01*
X-8380544Y-9628300D01*
X-8296011Y-9627262D01*
X-8180567Y-9623518D01*
X-8125271Y-9621273D01*
X-8027640Y-9616378D01*
X-7945819Y-9611079D01*
X-7887093Y-9605878D01*
X-7858750Y-9601280D01*
X-7849504Y-9598860D01*
X-7840331Y-9604832D01*
X-7837989Y-9628620D01*
X-7842228Y-9676681D01*
X-7852798Y-9755476D01*
X-7857699Y-9789999D01*
X-7867460Y-9858405D01*
X-7874484Y-9907141D01*
X-7877504Y-9927386D01*
X-7878554Y-9927824D01*
X-7904622Y-9929278D01*
X-7961460Y-9929962D01*
X-8043439Y-9929874D01*
X-8144933Y-9929016D01*
X-8260310Y-9927386D01*
X-8285772Y-9926954D01*
X-8410622Y-9924485D01*
X-8504946Y-9921537D01*
X-8574836Y-9917455D01*
X-8626384Y-9911582D01*
X-8665681Y-9903265D01*
X-8698820Y-9891847D01*
X-8731891Y-9876675D01*
X-8790375Y-9841879D01*
X-8875172Y-9758783D01*
X-8935167Y-9647781D01*
X-8935514Y-9646858D01*
X-8942876Y-9616403D01*
X-8949077Y-9566417D01*
X-8954250Y-9493873D01*
X-8958528Y-9395748D01*
X-8962044Y-9269015D01*
X-8964932Y-9110649D01*
X-8967325Y-8917625D01*
X-8974208Y-8253419D01*
X-10592098Y-8253419D01*
X-10592098Y-7989620D01*
X-8971623Y-7989620D01*
X-8971623Y-7729918D01*
X-9584012Y-7280561D01*
X-10196401Y-6831203D01*
X-10196401Y-6538730D01*
X-7332306Y-6538730D01*
X-7332306Y-6802528D01*
G37*
G36*
X-10516727Y-11833537D02*
G01*
X-10968953Y-11833537D01*
X-10968953Y-13623597D01*
X-10516727Y-13623597D01*
X-10516727Y-14132350D01*
X-12137202Y-14132350D01*
X-12137202Y-13623597D01*
X-11684976Y-13623597D01*
X-11684976Y-11833537D01*
X-12137202Y-11833537D01*
X-12137202Y-11324784D01*
X-10516727Y-11324784D01*
X-10516727Y-11833537D01*
G37*
G36*
X770068Y-12973522D02*
G01*
X760647Y-12982944D01*
X751225Y-12973522D01*
X760647Y-12964101D01*
X770068Y-12973522D01*
G37*
G36*
X773601Y-12857016D02*
G01*
X782323Y-12863798D01*
X762217Y-12868400D01*
X743105Y-12867067D01*
X737486Y-12858503D01*
X744152Y-12854769D01*
X773601Y-12857016D01*
G37*
G36*
X-16188389Y-7235911D02*
G01*
X-14586757Y-7235911D01*
X-14586757Y-7499709D01*
X-15314218Y-7499709D01*
X-15337977Y-7499710D01*
X-15518537Y-7499817D01*
X-15665232Y-7500212D01*
X-15781477Y-7501055D01*
X-15870687Y-7502501D01*
X-15936280Y-7504709D01*
X-15981669Y-7507836D01*
X-16010272Y-7512040D01*
X-16025503Y-7517477D01*
X-16030778Y-7524306D01*
X-16029514Y-7532684D01*
X-16022931Y-7548327D01*
X-15992379Y-7606967D01*
X-15945349Y-7687340D01*
X-15885893Y-7783131D01*
X-15818063Y-7888028D01*
X-15745913Y-7995716D01*
X-15673495Y-8099882D01*
X-15604863Y-8194212D01*
X-15544530Y-8271902D01*
X-15425311Y-8414432D01*
X-15289701Y-8565918D01*
X-15145315Y-8718406D01*
X-14999769Y-8863940D01*
X-14860677Y-8994564D01*
X-14735655Y-9102321D01*
X-14671742Y-9154227D01*
X-14603629Y-9209651D01*
X-14548835Y-9254353D01*
X-14515340Y-9281830D01*
X-14467991Y-9320998D01*
X-14566780Y-9446704D01*
X-14584417Y-9468940D01*
X-14627871Y-9521823D01*
X-14660356Y-9558613D01*
X-14675882Y-9572410D01*
X-14695123Y-9563967D01*
X-14739265Y-9531726D01*
X-14801953Y-9479023D01*
X-14879156Y-9409751D01*
X-14966844Y-9327808D01*
X-15060986Y-9237087D01*
X-15157552Y-9141485D01*
X-15252510Y-9044895D01*
X-15341830Y-8951214D01*
X-15421481Y-8864335D01*
X-15487433Y-8788156D01*
X-15606688Y-8637476D01*
X-15780599Y-8392989D01*
X-15943780Y-8134672D01*
X-16086996Y-7876564D01*
X-16178968Y-7697558D01*
X-16183824Y-8842254D01*
X-16188681Y-9986950D01*
X-16470738Y-9986950D01*
X-16475595Y-8842254D01*
X-16480451Y-7697558D01*
X-16606693Y-7938011D01*
X-16726242Y-8153503D01*
X-16945066Y-8495335D01*
X-17184596Y-8809364D01*
X-17442576Y-9092478D01*
X-17497543Y-9145879D01*
X-17575470Y-9217782D01*
X-17658063Y-9290698D01*
X-17739947Y-9360180D01*
X-17815747Y-9421778D01*
X-17880088Y-9471045D01*
X-17927595Y-9503532D01*
X-17952892Y-9514792D01*
X-17959146Y-9511199D01*
X-17986215Y-9484914D01*
X-18027245Y-9438779D01*
X-18076106Y-9379523D01*
X-18183186Y-9245343D01*
X-18076106Y-9179391D01*
X-17874438Y-9043941D01*
X-17611162Y-8831808D01*
X-17361117Y-8589143D01*
X-17128102Y-8319719D01*
X-16915913Y-8027306D01*
X-16911867Y-8021186D01*
X-16856551Y-7935211D01*
X-16799846Y-7843421D01*
X-16745361Y-7752080D01*
X-16696703Y-7667454D01*
X-16657480Y-7595808D01*
X-16631300Y-7543408D01*
X-16621772Y-7516520D01*
X-16621965Y-7516111D01*
X-16643827Y-7512255D01*
X-16699400Y-7508766D01*
X-16785075Y-7505725D01*
X-16897244Y-7503217D01*
X-17032300Y-7501323D01*
X-17186634Y-7500127D01*
X-17356638Y-7499709D01*
X-18091505Y-7499709D01*
X-18091505Y-7235911D01*
X-16471030Y-7235911D01*
X-16471030Y-6331460D01*
X-16188389Y-6331460D01*
X-16188389Y-7235911D01*
G37*
G36*
X-22971772Y-9968107D02*
G01*
X-22971772Y-9798171D01*
X-23909198Y-9803057D01*
X-24846623Y-9807944D01*
X-24852417Y-9888025D01*
X-24858212Y-9968107D01*
X-25119843Y-9968107D01*
X-25119843Y-9572410D01*
X-24857052Y-9572410D01*
X-22971772Y-9572410D01*
X-22971772Y-9006776D01*
X-23909198Y-9011663D01*
X-24846623Y-9016549D01*
X-24851838Y-9294479D01*
X-24857052Y-9572410D01*
X-25119843Y-9572410D01*
X-25119843Y-8781015D01*
X-22707974Y-8781015D01*
X-22707974Y-9968107D01*
X-22971772Y-9968107D01*
G37*
G36*
X1238097Y-12914586D02*
G01*
X1241136Y-12945258D01*
X1237939Y-12967146D01*
X1224058Y-12982944D01*
X1215777Y-12975305D01*
X1216834Y-12945258D01*
X1224015Y-12923109D01*
X1233913Y-12907573D01*
X1238097Y-12914586D01*
G37*
G36*
X-5155971Y-13312692D02*
G01*
X-5105824Y-13419664D01*
X-5058691Y-13499515D01*
X-4980914Y-13576850D01*
X-4880749Y-13628118D01*
X-4755530Y-13654579D01*
X-4602588Y-13657494D01*
X-4534888Y-13651974D01*
X-4403983Y-13624259D01*
X-4301050Y-13573376D01*
X-4223156Y-13496834D01*
X-4167369Y-13392144D01*
X-4130757Y-13256816D01*
X-4125715Y-13210995D01*
X-4121125Y-13127811D01*
X-4117288Y-13010453D01*
X-4114241Y-12860718D01*
X-4112019Y-12680399D01*
X-4110660Y-12471293D01*
X-4110199Y-12235195D01*
X-4110199Y-11324784D01*
X-3394175Y-11324784D01*
X-3394833Y-12271631D01*
X-3395084Y-12444244D01*
X-3395874Y-12651298D01*
X-3397249Y-12826000D01*
X-3399286Y-12971438D01*
X-3402061Y-13090698D01*
X-3405651Y-13186867D01*
X-3410133Y-13263032D01*
X-3415584Y-13322280D01*
X-3422080Y-13367698D01*
X-3422366Y-13369299D01*
X-3472832Y-13553649D01*
X-3553463Y-13715979D01*
X-3663257Y-13855444D01*
X-3801210Y-13971203D01*
X-3966320Y-14062412D01*
X-4157583Y-14128228D01*
X-4373997Y-14167808D01*
X-4393249Y-14169941D01*
X-4670818Y-14183850D01*
X-4931208Y-14164289D01*
X-5174338Y-14111263D01*
X-5261047Y-14083129D01*
X-5383874Y-14030772D01*
X-5490221Y-13965493D01*
X-5593350Y-13879972D01*
X-5650954Y-13822446D01*
X-5734312Y-13714428D01*
X-5796613Y-13591589D01*
X-5844142Y-13442981D01*
X-5849330Y-13422050D01*
X-5856809Y-13387609D01*
X-5863032Y-13350302D01*
X-5868114Y-13306645D01*
X-5872168Y-13253157D01*
X-5875309Y-13186358D01*
X-5877653Y-13102763D01*
X-5879313Y-12998893D01*
X-5880405Y-12871264D01*
X-5881043Y-12716396D01*
X-5881342Y-12530806D01*
X-5881416Y-12311013D01*
X-5881416Y-11324784D01*
X-5166957Y-11324784D01*
X-5155971Y-13312692D01*
G37*
G36*
X2196625Y-10217631D02*
G01*
X2328180Y-10221144D01*
X2473977Y-10226908D01*
X2583476Y-10233886D01*
X2657466Y-10242132D01*
X2696737Y-10251698D01*
X2728136Y-10272589D01*
X2747959Y-10315444D01*
X2733357Y-10369230D01*
X2684489Y-10431638D01*
X2649820Y-10464634D01*
X2612985Y-10490100D01*
X2585708Y-10490067D01*
X2559669Y-10466887D01*
X2549922Y-10452029D01*
X2551565Y-10426955D01*
X2579489Y-10391516D01*
X2623225Y-10344962D01*
X2558701Y-10344754D01*
X2493098Y-10341282D01*
X2425425Y-10333177D01*
X2412577Y-10331138D01*
X2372517Y-10329640D01*
X2348052Y-10346457D01*
X2324353Y-10389912D01*
X2317161Y-10404944D01*
X2298284Y-10442943D01*
X2289472Y-10458302D01*
X2286242Y-10459300D01*
X2258263Y-10469040D01*
X2211537Y-10485739D01*
X2207387Y-10487234D01*
X2154020Y-10505545D01*
X2119228Y-10511552D01*
X2086984Y-10505393D01*
X2041257Y-10487206D01*
X2040783Y-10487007D01*
X1982977Y-10448408D01*
X1936366Y-10392992D01*
X1916105Y-10362196D01*
X1882796Y-10333580D01*
X1838746Y-10326119D01*
X1792274Y-10334820D01*
X1737525Y-10366570D01*
X1719370Y-10382486D01*
X1691248Y-10395477D01*
X1665650Y-10383105D01*
X1657465Y-10375806D01*
X1639165Y-10344441D01*
X1650346Y-10308528D01*
X1692582Y-10260916D01*
X1748330Y-10207506D01*
X2196625Y-10217631D01*
G37*
G36*
X-16949957Y-6486133D02*
G01*
X-16910199Y-6530162D01*
X-16878771Y-6569188D01*
X-16866727Y-6590175D01*
X-16867239Y-6591746D01*
X-16886135Y-6612570D01*
X-16928222Y-6650764D01*
X-16987974Y-6701473D01*
X-17059865Y-6759842D01*
X-17139660Y-6824089D01*
X-17222303Y-6891997D01*
X-17294732Y-6952834D01*
X-17347217Y-6998518D01*
X-17396116Y-7041103D01*
X-17435027Y-7072160D01*
X-17454807Y-7084325D01*
X-17458026Y-7083409D01*
X-17482445Y-7064493D01*
X-17520637Y-7027732D01*
X-17564481Y-6981835D01*
X-17605855Y-6935511D01*
X-17636635Y-6897470D01*
X-17648701Y-6876421D01*
X-17636753Y-6860743D01*
X-17599724Y-6826208D01*
X-17543097Y-6777871D01*
X-17472471Y-6720219D01*
X-17393444Y-6657739D01*
X-17311614Y-6594919D01*
X-17232579Y-6536247D01*
X-17161937Y-6486210D01*
X-17033186Y-6398043D01*
X-16949957Y-6486133D01*
G37*
G36*
X850386Y-12853924D02*
G01*
X854860Y-12869887D01*
X850998Y-12875588D01*
X836018Y-12888730D01*
X833292Y-12887843D01*
X817175Y-12869887D01*
X815666Y-12859908D01*
X836018Y-12851045D01*
X850386Y-12853924D01*
G37*
G36*
X-324182Y-9661505D02*
G01*
X-183310Y-9673971D01*
X-57694Y-9697376D01*
X63387Y-9733698D01*
X190654Y-9784916D01*
X193773Y-9786303D01*
X268750Y-9824548D01*
X309440Y-9856633D01*
X315070Y-9881624D01*
X284868Y-9898590D01*
X271413Y-9901706D01*
X178167Y-9909090D01*
X71436Y-9899017D01*
X-32509Y-9872808D01*
X-111248Y-9847092D01*
X-231840Y-9812066D01*
X-360689Y-9778480D01*
X-486812Y-9749016D01*
X-599227Y-9726350D01*
X-686954Y-9713162D01*
X-698453Y-9711916D01*
X-763663Y-9702417D01*
X-794831Y-9691853D01*
X-795168Y-9679218D01*
X-768035Y-9670696D01*
X-706765Y-9664078D01*
X-615181Y-9659762D01*
X-496974Y-9658012D01*
X-491033Y-9657998D01*
X-324182Y-9661505D01*
G37*
G36*
X1297664Y-12860466D02*
G01*
X1288243Y-12869887D01*
X1278822Y-12860466D01*
X1288243Y-12851045D01*
X1297664Y-12860466D01*
G37*
G36*
X-6522068Y-14132350D02*
G01*
X-7200407Y-14132350D01*
X-7200407Y-12021965D01*
X-6522068Y-12021965D01*
X-6522068Y-14132350D01*
G37*
G36*
X-11232751Y-7085169D02*
G01*
X-10742840Y-7085169D01*
X-10742840Y-7330125D01*
X-11232751Y-7330125D01*
X-11232751Y-8135215D01*
X-10992506Y-8204721D01*
X-10975312Y-8209699D01*
X-10885564Y-8235782D01*
X-10809146Y-8258155D01*
X-10753686Y-8274576D01*
X-10726809Y-8282803D01*
X-10719382Y-8287273D01*
X-10710410Y-8308929D01*
X-10709077Y-8353403D01*
X-10714789Y-8427851D01*
X-10715587Y-8435834D01*
X-10723230Y-8502203D01*
X-10730617Y-8551263D01*
X-10736251Y-8572895D01*
X-10741498Y-8572843D01*
X-10775064Y-8565084D01*
X-10832768Y-8548998D01*
X-10906777Y-8526990D01*
X-10989257Y-8501462D01*
X-11072376Y-8474818D01*
X-11148301Y-8449461D01*
X-11209198Y-8427795D01*
X-11210631Y-8427512D01*
X-11217317Y-8435571D01*
X-11222601Y-8462043D01*
X-11226618Y-8510138D01*
X-11229506Y-8583068D01*
X-11231399Y-8684045D01*
X-11232436Y-8816280D01*
X-11232751Y-8982984D01*
X-11232751Y-9546998D01*
X-11186760Y-9590204D01*
X-11184008Y-9592771D01*
X-11160678Y-9611449D01*
X-11134168Y-9622795D01*
X-11095869Y-9628097D01*
X-11037168Y-9628644D01*
X-10949456Y-9625726D01*
X-10758144Y-9618042D01*
X-10771186Y-9739830D01*
X-10778451Y-9800042D01*
X-10786911Y-9855710D01*
X-10793814Y-9886598D01*
X-10795122Y-9889094D01*
X-10813537Y-9899717D01*
X-10854949Y-9906656D01*
X-10924235Y-9910436D01*
X-11026270Y-9911579D01*
X-11052208Y-9911515D01*
X-11163930Y-9908821D01*
X-11247041Y-9900976D01*
X-11309011Y-9886350D01*
X-11357312Y-9863315D01*
X-11399415Y-9830242D01*
X-11420111Y-9810688D01*
X-11443134Y-9786226D01*
X-11461683Y-9759748D01*
X-11476311Y-9727290D01*
X-11487570Y-9684889D01*
X-11496015Y-9628584D01*
X-11502199Y-9554411D01*
X-11506675Y-9458407D01*
X-11509997Y-9336609D01*
X-11512718Y-9185055D01*
X-11515392Y-8999782D01*
X-11524813Y-8323519D01*
X-11727373Y-8259604D01*
X-11929932Y-8195690D01*
X-11929932Y-7917302D01*
X-11775820Y-7964630D01*
X-11753749Y-7971441D01*
X-11678341Y-7995176D01*
X-11615405Y-8015653D01*
X-11576745Y-8029053D01*
X-11545451Y-8040194D01*
X-11523587Y-8046149D01*
X-11523415Y-8046070D01*
X-11520880Y-8025956D01*
X-11518677Y-7974319D01*
X-11516940Y-7896945D01*
X-11515801Y-7799621D01*
X-11515392Y-7688137D01*
X-11515392Y-7330125D01*
X-11948775Y-7330125D01*
X-11948775Y-7085169D01*
X-11515392Y-7085169D01*
X-11515392Y-6350303D01*
X-11232751Y-6350303D01*
X-11232751Y-7085169D01*
G37*
G36*
X-18656787Y-7367810D02*
G01*
X-18279932Y-7367810D01*
X-18279932Y-7631608D01*
X-18656787Y-7631608D01*
X-18656787Y-9968107D01*
X-18920585Y-9968107D01*
X-18920585Y-7631608D01*
X-19278597Y-7631608D01*
X-19278597Y-7367810D01*
X-18920585Y-7367810D01*
X-18920585Y-6331460D01*
X-18656787Y-6331460D01*
X-18656787Y-7367810D01*
G37*
G36*
X-6503226Y-11701638D02*
G01*
X-7219249Y-11701638D01*
X-7219249Y-11192884D01*
X-6503226Y-11192884D01*
X-6503226Y-11701638D01*
G37*
G36*
X-511238Y-13830867D02*
G01*
X-512597Y-13840842D01*
X-523799Y-13843428D01*
X-526055Y-13840667D01*
X-523799Y-13818305D01*
X-518132Y-13815357D01*
X-511238Y-13830867D01*
G37*
G36*
X1429564Y-12898151D02*
G01*
X1420142Y-12907573D01*
X1410721Y-12898151D01*
X1420142Y-12888730D01*
X1429564Y-12898151D01*
G37*
G36*
X713540Y-12973522D02*
G01*
X704118Y-12982944D01*
X694697Y-12973522D01*
X704118Y-12964101D01*
X713540Y-12973522D01*
G37*
G36*
X-23545690Y-11963638D02*
G01*
X-23531500Y-11966442D01*
X-23422727Y-11998768D01*
X-23302081Y-12049713D01*
X-23183086Y-12112939D01*
X-23079267Y-12182112D01*
X-22990614Y-12249804D01*
X-22990614Y-12021965D01*
X-22312276Y-12021965D01*
X-22312276Y-14132350D01*
X-22990614Y-14132350D01*
X-22990614Y-12611668D01*
X-23119306Y-12552350D01*
X-23179679Y-12527539D01*
X-23303622Y-12495621D01*
X-23418311Y-12491083D01*
X-23518885Y-12513186D01*
X-23600482Y-12561189D01*
X-23658238Y-12634353D01*
X-23659013Y-12635856D01*
X-23668919Y-12656899D01*
X-23677005Y-12680224D01*
X-23683497Y-12709766D01*
X-23688619Y-12749457D01*
X-23692595Y-12803233D01*
X-23695650Y-12875025D01*
X-23698008Y-12968768D01*
X-23699895Y-13088396D01*
X-23701534Y-13237841D01*
X-23703151Y-13421037D01*
X-23709085Y-14132350D01*
X-24384976Y-14132350D01*
X-24384976Y-12608861D01*
X-24493322Y-12555704D01*
X-24565491Y-12525052D01*
X-24645359Y-12505410D01*
X-24742988Y-12496833D01*
X-24754491Y-12496425D01*
X-24864722Y-12500798D01*
X-24947242Y-12523420D01*
X-25008237Y-12567026D01*
X-25053893Y-12634353D01*
X-25062870Y-12653872D01*
X-25070972Y-12677504D01*
X-25077506Y-12707363D01*
X-25082688Y-12747381D01*
X-25086740Y-12801490D01*
X-25089879Y-12873623D01*
X-25092324Y-12967712D01*
X-25094295Y-13087689D01*
X-25096010Y-13237487D01*
X-25097688Y-13421037D01*
X-25103798Y-14132350D01*
X-25783319Y-14132350D01*
X-25774229Y-13336245D01*
X-25773539Y-13276497D01*
X-25771043Y-13080249D01*
X-25768305Y-12916711D01*
X-25764938Y-12781977D01*
X-25760556Y-12672139D01*
X-25754774Y-12583290D01*
X-25747205Y-12511521D01*
X-25737462Y-12452926D01*
X-25725159Y-12403597D01*
X-25709910Y-12359626D01*
X-25691328Y-12317107D01*
X-25669028Y-12272131D01*
X-25619960Y-12194201D01*
X-25523385Y-12095720D01*
X-25403880Y-12020987D01*
X-25266943Y-11972405D01*
X-25118072Y-11952378D01*
X-24962764Y-11963310D01*
X-24910190Y-11975298D01*
X-24794371Y-12015568D01*
X-24667603Y-12074243D01*
X-24540459Y-12146167D01*
X-24423512Y-12226188D01*
X-24301885Y-12318652D01*
X-24251909Y-12239849D01*
X-24217458Y-12191738D01*
X-24116240Y-12093633D01*
X-23992190Y-12019320D01*
X-23851573Y-11971251D01*
X-23700652Y-11951873D01*
X-23545690Y-11963638D01*
G37*
D13*
%TO.C,J1*%
X26660000Y-20290000D02*
X26660000Y-17630000D01*
X27930000Y-20290000D02*
X29260000Y-20290000D01*
X26660000Y-17630000D02*
X-31820000Y-17630000D01*
X26660000Y-20290000D02*
X-31820000Y-20290000D01*
X-31820000Y-20290000D02*
X-31820000Y-17630000D01*
X29260000Y-20290000D02*
X29260000Y-18960000D01*
%TO.C,J2*%
X29260000Y-2640000D02*
X29260000Y-1310000D01*
X26660000Y-2640000D02*
X-31820000Y-2640000D01*
X26660000Y20000D02*
X-31820000Y20000D01*
X27930000Y-2640000D02*
X29260000Y-2640000D01*
X26660000Y-2640000D02*
X26660000Y20000D01*
X-31820000Y-2640000D02*
X-31820000Y20000D01*
%TO.C,*%
G36*
X17803347Y-10212876D02*
G01*
X17889648Y-10281367D01*
X17947613Y-10406446D01*
X17968809Y-10579810D01*
X17965001Y-10642520D01*
X17940620Y-10676530D01*
X17876354Y-10689595D01*
X17752890Y-10691726D01*
X17536970Y-10691726D01*
X17536970Y-10496341D01*
X17543501Y-10372541D01*
X17570116Y-10294788D01*
X17626181Y-10242502D01*
X17697147Y-10209276D01*
X17803347Y-10212876D01*
G37*
G36*
X15748852Y-14969089D02*
G01*
X15436927Y-14966468D01*
X15178330Y-14962078D01*
X14967567Y-14955476D01*
X14799140Y-14946222D01*
X14667552Y-14933871D01*
X14567306Y-14917983D01*
X14492907Y-14898114D01*
X14438857Y-14873823D01*
X14399659Y-14844668D01*
X14369818Y-14810205D01*
X14343835Y-14769994D01*
X14316215Y-14723591D01*
X14307246Y-14708046D01*
X14296260Y-14684063D01*
X14286531Y-14652640D01*
X14277983Y-14609334D01*
X14270539Y-14549704D01*
X14264123Y-14469307D01*
X14258659Y-14363701D01*
X14254068Y-14228444D01*
X14250277Y-14059093D01*
X14247206Y-13851207D01*
X14244781Y-13600342D01*
X14242924Y-13302057D01*
X14241559Y-12951909D01*
X14240610Y-12545457D01*
X14239999Y-12078257D01*
X14239651Y-11545868D01*
X14239580Y-11284473D01*
X16359227Y-11284473D01*
X16359227Y-11820543D01*
X16555517Y-11904985D01*
X16751808Y-11989426D01*
X16751808Y-12843037D01*
X16555517Y-12913622D01*
X16359227Y-12984207D01*
X16359227Y-13517165D01*
X16545703Y-13443253D01*
X16553032Y-13440343D01*
X16654484Y-13399690D01*
X16812354Y-13336041D01*
X17012004Y-13255314D01*
X17238793Y-13163428D01*
X17478083Y-13066302D01*
X17530397Y-13045050D01*
X17754115Y-12954205D01*
X17951955Y-12873929D01*
X18112202Y-12808970D01*
X18223142Y-12764079D01*
X18273060Y-12744005D01*
X18294561Y-12718145D01*
X18315280Y-12617193D01*
X18322132Y-12440411D01*
X18322132Y-12156074D01*
X17782333Y-11917138D01*
X17765824Y-11909829D01*
X17523479Y-11802439D01*
X17261566Y-11686210D01*
X17010546Y-11574667D01*
X16800880Y-11481338D01*
X16359227Y-11284473D01*
X14239580Y-11284473D01*
X14239558Y-11202082D01*
X16359227Y-11202082D01*
X18322132Y-11202082D01*
X18322132Y-10694282D01*
X18320681Y-10509740D01*
X18312011Y-10304665D01*
X18292533Y-10152056D01*
X18258861Y-10036734D01*
X18207609Y-9943522D01*
X18135390Y-9857243D01*
X18010176Y-9761182D01*
X17839708Y-9701821D01*
X17663256Y-9700163D01*
X17500887Y-9755905D01*
X17372666Y-9868745D01*
X17351557Y-9897128D01*
X17301107Y-9953833D01*
X17261587Y-9955720D01*
X17205748Y-9909429D01*
X17163811Y-9878606D01*
X17056001Y-9814921D01*
X16908996Y-9737425D01*
X16741993Y-9656582D01*
X16359227Y-9479278D01*
X16359227Y-10026320D01*
X16663192Y-10164842D01*
X16764771Y-10212588D01*
X16944576Y-10309897D01*
X17061682Y-10398429D01*
X17125237Y-10486093D01*
X17144389Y-10580795D01*
X17144389Y-10691726D01*
X16359227Y-10691726D01*
X16359227Y-11202082D01*
X14239558Y-11202082D01*
X14239489Y-10943847D01*
X14239435Y-10267752D01*
X14239371Y-9774615D01*
X14239279Y-9356950D01*
X16359227Y-9356950D01*
X18322132Y-9356950D01*
X18322132Y-8935287D01*
X17968809Y-8630675D01*
X17968673Y-8630557D01*
X17831531Y-8511776D01*
X17719230Y-8413469D01*
X17643353Y-8345851D01*
X17615486Y-8319138D01*
X17615487Y-8319129D01*
X17643488Y-8292242D01*
X17719421Y-8224418D01*
X17831717Y-8125879D01*
X17968809Y-8006850D01*
X18322132Y-7701488D01*
X18322132Y-7276270D01*
X16359227Y-7276270D01*
X16359227Y-7745374D01*
X16964216Y-7756185D01*
X17569205Y-7766997D01*
X17278281Y-8014859D01*
X17202308Y-8081454D01*
X17091701Y-8186396D01*
X17015645Y-8269277D01*
X16987357Y-8316402D01*
X16999038Y-8341503D01*
X17058778Y-8413580D01*
X17157750Y-8513602D01*
X17283047Y-8627967D01*
X17578737Y-8885853D01*
X16359227Y-8885853D01*
X16359227Y-9356950D01*
X14239279Y-9356950D01*
X14239230Y-9137881D01*
X14239239Y-8572258D01*
X14239630Y-8073402D01*
X14240633Y-7636966D01*
X14242481Y-7258605D01*
X14245405Y-6933973D01*
X14249636Y-6658724D01*
X14255404Y-6428513D01*
X14262943Y-6238995D01*
X14272483Y-6085823D01*
X14284255Y-5964652D01*
X14298490Y-5871136D01*
X14315421Y-5800930D01*
X14335278Y-5749687D01*
X14358293Y-5713064D01*
X14384697Y-5686713D01*
X14414722Y-5666289D01*
X14448598Y-5647447D01*
X14486558Y-5625840D01*
X14487628Y-5625189D01*
X14514232Y-5610509D01*
X14545937Y-5597851D01*
X14588392Y-5587065D01*
X14647242Y-5578001D01*
X14728136Y-5570511D01*
X14836721Y-5564444D01*
X14978644Y-5559652D01*
X15159551Y-5555983D01*
X15385092Y-5553289D01*
X15660912Y-5551421D01*
X15992660Y-5550228D01*
X16385982Y-5549561D01*
X16846525Y-5549270D01*
X17379938Y-5549207D01*
X17403464Y-5549207D01*
X17933757Y-5549277D01*
X18391415Y-5549580D01*
X18782085Y-5550265D01*
X19111412Y-5551483D01*
X19385046Y-5553383D01*
X19608633Y-5556114D01*
X19787821Y-5559826D01*
X19928256Y-5564669D01*
X20035586Y-5570791D01*
X20115459Y-5578343D01*
X20173521Y-5587475D01*
X20215420Y-5598335D01*
X20246803Y-5611074D01*
X20273318Y-5625840D01*
X20299798Y-5641162D01*
X20334961Y-5660430D01*
X20366193Y-5679919D01*
X20393725Y-5703979D01*
X20417791Y-5736958D01*
X20438622Y-5783208D01*
X20456451Y-5847077D01*
X20471509Y-5932915D01*
X20484028Y-6045073D01*
X20494241Y-6187899D01*
X20502380Y-6365744D01*
X20508677Y-6582957D01*
X20513364Y-6843888D01*
X20516673Y-7152887D01*
X20518836Y-7514303D01*
X20520085Y-7932487D01*
X20520653Y-8411787D01*
X20520771Y-8956554D01*
X20520672Y-9571137D01*
X20520587Y-10259887D01*
X20520632Y-10739986D01*
X20520752Y-11377451D01*
X20520727Y-11943731D01*
X20520326Y-12443175D01*
X20519317Y-12880132D01*
X20517466Y-13258953D01*
X20514543Y-13583986D01*
X20510315Y-13859582D01*
X20504551Y-14090091D01*
X20497017Y-14279862D01*
X20487482Y-14433245D01*
X20475713Y-14554590D01*
X20461480Y-14648245D01*
X20444548Y-14718563D01*
X20424688Y-14769890D01*
X20401665Y-14806579D01*
X20375249Y-14832978D01*
X20345207Y-14853437D01*
X20311308Y-14872305D01*
X20273318Y-14893934D01*
X20272813Y-14894241D01*
X20246219Y-14908986D01*
X20214637Y-14921702D01*
X20172411Y-14932537D01*
X20113884Y-14941644D01*
X20033402Y-14949171D01*
X19925308Y-14955271D01*
X19783946Y-14960093D01*
X19603660Y-14963788D01*
X19378794Y-14966506D01*
X19103692Y-14968398D01*
X18772698Y-14969614D01*
X18380156Y-14970305D01*
X17920409Y-14970622D01*
X17387803Y-14970714D01*
X17059572Y-14970761D01*
X16554678Y-14970793D01*
X16359227Y-14970609D01*
X16119604Y-14970383D01*
X15748852Y-14969089D01*
G37*
G36*
X17172374Y-12161784D02*
G01*
X17250407Y-12193475D01*
X17373551Y-12244185D01*
X17520686Y-12305229D01*
X17824360Y-12431649D01*
X17533447Y-12543500D01*
X17505050Y-12554397D01*
X17360269Y-12609322D01*
X17242099Y-12653166D01*
X17173833Y-12677266D01*
X17168777Y-12678800D01*
X17135017Y-12679006D01*
X17115784Y-12645468D01*
X17107137Y-12563279D01*
X17105131Y-12417528D01*
X17106407Y-12307893D01*
X17114156Y-12206042D01*
X17131431Y-12160261D01*
X17161071Y-12157342D01*
X17172374Y-12161784D01*
G37*
%TD*%
%LPC*%
D14*
%TO.C,J3*%
X-33670000Y-13920000D03*
D15*
X-33670000Y-11380000D03*
X-33670000Y-8840000D03*
X-33670000Y-6300000D03*
%TD*%
D16*
%TO.C,HOLE\u002A\u002A*%
X30700000Y-18460000D03*
%TD*%
%TO.C,HOLE\u002A\u002A*%
X-33260000Y-18460000D03*
%TD*%
%TO.C,HOLE\u002A\u002A*%
X-33260000Y-1800000D03*
%TD*%
D17*
%TO.C,USB1*%
X26641000Y-7240000D03*
X26641000Y-13020000D03*
D18*
X26141000Y-14455000D03*
X26141000Y-5805000D03*
D19*
X30341000Y-14455000D03*
X30341000Y-5805000D03*
%TD*%
D16*
%TO.C,HOLE\u002A\u002A*%
X30700000Y-1800000D03*
%TD*%
D14*
%TO.C,J1*%
X27930000Y-18960000D03*
D15*
X25390000Y-18960000D03*
X22850000Y-18960000D03*
X20310000Y-18960000D03*
X17770000Y-18960000D03*
X15230000Y-18960000D03*
X12690000Y-18960000D03*
X10150000Y-18960000D03*
X7610000Y-18960000D03*
X5070000Y-18960000D03*
X2530000Y-18960000D03*
X-10000Y-18960000D03*
X-2550000Y-18960000D03*
X-5090000Y-18960000D03*
X-7630000Y-18960000D03*
X-10170000Y-18960000D03*
X-12710000Y-18960000D03*
X-15250000Y-18960000D03*
X-17790000Y-18960000D03*
X-20330000Y-18960000D03*
X-22870000Y-18960000D03*
X-25410000Y-18960000D03*
X-27950000Y-18960000D03*
X-30490000Y-18960000D03*
%TD*%
D14*
%TO.C,J2*%
X27930000Y-1310000D03*
D15*
X25390000Y-1310000D03*
X22850000Y-1310000D03*
X20310000Y-1310000D03*
X17770000Y-1310000D03*
X15230000Y-1310000D03*
X12690000Y-1310000D03*
X10150000Y-1310000D03*
X7610000Y-1310000D03*
X5070000Y-1310000D03*
X2530000Y-1310000D03*
X-10000Y-1310000D03*
X-2550000Y-1310000D03*
X-5090000Y-1310000D03*
X-7630000Y-1310000D03*
X-10170000Y-1310000D03*
X-12710000Y-1310000D03*
X-15250000Y-1310000D03*
X-17790000Y-1310000D03*
X-20330000Y-1310000D03*
X-22870000Y-1310000D03*
X-25410000Y-1310000D03*
X-27950000Y-1310000D03*
X-30490000Y-1310000D03*
%TD*%
M02*
