%TF.GenerationSoftware,KiCad,Pcbnew,7.0.5*%
%TF.CreationDate,2023-06-29T00:31:54+08:00*%
%TF.ProjectId,UINIO-MCU-GD32F103C,55494e49-4f2d-44d4-9355-2d4744333246,Version 2.0.0*%
%TF.SameCoordinates,PX9357ba0PY5667240*%
%TF.FileFunction,Soldermask,Bot*%
%TF.FilePolarity,Negative*%
%FSLAX46Y46*%
G04 Gerber Fmt 4.6, Leading zero omitted, Abs format (unit mm)*
G04 Created by KiCad (PCBNEW 7.0.5) date 2023-06-29 00:31:54*
%MOMM*%
%LPD*%
G01*
G04 APERTURE LIST*
%ADD10R,1.700000X1.700000*%
%ADD11O,1.700000X1.700000*%
%ADD12C,1.200000*%
%ADD13C,0.650000*%
%ADD14O,2.100000X1.000000*%
%ADD15O,1.900000X1.000000*%
G04 APERTURE END LIST*
D10*
%TO.C,J3*%
X-33700000Y-13920000D03*
D11*
X-33700000Y-11380000D03*
X-33700000Y-8840000D03*
X-33700000Y-6300000D03*
%TD*%
D12*
%TO.C,HOLE\u002A\u002A*%
X30850000Y-17740000D03*
%TD*%
%TO.C,HOLE\u002A\u002A*%
X-33410000Y-17740000D03*
%TD*%
%TO.C,HOLE\u002A\u002A*%
X-33410000Y-2530000D03*
%TD*%
D13*
%TO.C,USB1*%
X27361000Y-13010000D03*
X27361000Y-7230000D03*
D14*
X26861000Y-14445000D03*
X26861000Y-5795000D03*
D15*
X31061000Y-14445000D03*
X31061000Y-5795000D03*
%TD*%
D12*
%TO.C,HOLE\u002A\u002A*%
X30850000Y-2520000D03*
%TD*%
D10*
%TO.C,J1*%
X27930000Y-18950000D03*
D11*
X25390000Y-18950000D03*
X22850000Y-18950000D03*
X20310000Y-18950000D03*
X17770000Y-18950000D03*
X15230000Y-18950000D03*
X12690000Y-18950000D03*
X10150000Y-18950000D03*
X7610000Y-18950000D03*
X5070000Y-18950000D03*
X2530000Y-18950000D03*
X-10000Y-18950000D03*
X-2550000Y-18950000D03*
X-5090000Y-18950000D03*
X-7630000Y-18950000D03*
X-10170000Y-18950000D03*
X-12710000Y-18950000D03*
X-15250000Y-18950000D03*
X-17790000Y-18950000D03*
X-20330000Y-18950000D03*
X-22870000Y-18950000D03*
X-25410000Y-18950000D03*
X-27950000Y-18950000D03*
X-30490000Y-18950000D03*
%TD*%
D10*
%TO.C,J2*%
X27930000Y-1310000D03*
D11*
X25390000Y-1310000D03*
X22850000Y-1310000D03*
X20310000Y-1310000D03*
X17770000Y-1310000D03*
X15230000Y-1310000D03*
X12690000Y-1310000D03*
X10150000Y-1310000D03*
X7610000Y-1310000D03*
X5070000Y-1310000D03*
X2530000Y-1310000D03*
X-10000Y-1310000D03*
X-2550000Y-1310000D03*
X-5090000Y-1310000D03*
X-7630000Y-1310000D03*
X-10170000Y-1310000D03*
X-12710000Y-1310000D03*
X-15250000Y-1310000D03*
X-17790000Y-1310000D03*
X-20330000Y-1310000D03*
X-22870000Y-1310000D03*
X-25410000Y-1310000D03*
X-27950000Y-1310000D03*
X-30490000Y-1310000D03*
%TD*%
M02*
