%TF.GenerationSoftware,KiCad,Pcbnew,7.0.5*%
%TF.CreationDate,2023-07-06T11:55:11+08:00*%
%TF.ProjectId,UINIO-MCU-GD32F103C,55494e49-4f2d-44d4-9355-2d4744333246,Version 2.0.0*%
%TF.SameCoordinates,PX92f3a10PY5584170*%
%TF.FileFunction,Soldermask,Top*%
%TF.FilePolarity,Negative*%
%FSLAX46Y46*%
G04 Gerber Fmt 4.6, Leading zero omitted, Abs format (unit mm)*
G04 Created by KiCad (PCBNEW 7.0.5) date 2023-07-06 11:55:11*
%MOMM*%
%LPD*%
G01*
G04 APERTURE LIST*
G04 Aperture macros list*
%AMRoundRect*
0 Rectangle with rounded corners*
0 $1 Rounding radius*
0 $2 $3 $4 $5 $6 $7 $8 $9 X,Y pos of 4 corners*
0 Add a 4 corners polygon primitive as box body*
4,1,4,$2,$3,$4,$5,$6,$7,$8,$9,$2,$3,0*
0 Add four circle primitives for the rounded corners*
1,1,$1+$1,$2,$3*
1,1,$1+$1,$4,$5*
1,1,$1+$1,$6,$7*
1,1,$1+$1,$8,$9*
0 Add four rect primitives between the rounded corners*
20,1,$1+$1,$2,$3,$4,$5,0*
20,1,$1+$1,$4,$5,$6,$7,0*
20,1,$1+$1,$6,$7,$8,$9,0*
20,1,$1+$1,$8,$9,$2,$3,0*%
%AMHorizOval*
0 Thick line with rounded ends*
0 $1 width*
0 $2 $3 position (X,Y) of the first rounded end (center of the circle)*
0 $4 $5 position (X,Y) of the second rounded end (center of the circle)*
0 Add line between two ends*
20,1,$1,$2,$3,$4,$5,0*
0 Add two circle primitives to create the rounded ends*
1,1,$1,$2,$3*
1,1,$1,$4,$5*%
G04 Aperture macros list end*
%ADD10RoundRect,0.135000X0.135000X0.185000X-0.135000X0.185000X-0.135000X-0.185000X0.135000X-0.185000X0*%
%ADD11RoundRect,0.140000X0.140000X0.170000X-0.140000X0.170000X-0.140000X-0.170000X0.140000X-0.170000X0*%
%ADD12RoundRect,0.135000X-0.135000X-0.185000X0.135000X-0.185000X0.135000X0.185000X-0.135000X0.185000X0*%
%ADD13R,0.650000X1.200000*%
%ADD14R,1.800000X1.000000*%
%ADD15R,1.000000X0.600000*%
%ADD16RoundRect,0.140000X-0.140000X-0.170000X0.140000X-0.170000X0.140000X0.170000X-0.140000X0.170000X0*%
%ADD17RoundRect,0.218750X-0.218750X-0.256250X0.218750X-0.256250X0.218750X0.256250X-0.218750X0.256250X0*%
%ADD18R,1.200000X0.650000*%
%ADD19R,1.700000X1.700000*%
%ADD20O,1.700000X1.700000*%
%ADD21RoundRect,0.140000X-0.170000X0.140000X-0.170000X-0.140000X0.170000X-0.140000X0.170000X0.140000X0*%
%ADD22C,1.200000*%
%ADD23C,0.650000*%
%ADD24O,2.100000X1.000000*%
%ADD25O,1.900000X1.000000*%
%ADD26R,1.150000X0.600000*%
%ADD27R,1.150000X0.300000*%
%ADD28RoundRect,0.140000X0.170000X-0.140000X0.170000X0.140000X-0.170000X0.140000X-0.170000X-0.140000X0*%
%ADD29R,1.400000X1.200000*%
%ADD30RoundRect,0.135000X0.185000X-0.135000X0.185000X0.135000X-0.185000X0.135000X-0.185000X-0.135000X0*%
%ADD31HorizOval,0.280000X-0.537401X0.537401X0.537401X-0.537401X0*%
%ADD32HorizOval,0.280000X0.537401X0.537401X-0.537401X-0.537401X0*%
%ADD33RoundRect,0.218750X0.218750X0.256250X-0.218750X0.256250X-0.218750X-0.256250X0.218750X-0.256250X0*%
G04 APERTURE END LIST*
D10*
%TO.C,R1*%
X-21430940Y-7452130D03*
X-22450940Y-7452130D03*
%TD*%
D11*
%TO.C,C7*%
X11689060Y-13727130D03*
X12649060Y-13727130D03*
%TD*%
D12*
%TO.C,R8*%
X23079060Y-8912130D03*
X24099060Y-8912130D03*
%TD*%
D13*
%TO.C,SW2*%
X-14095940Y-8072130D03*
X-14095940Y-12372130D03*
X-16245940Y-8072130D03*
X-16245940Y-12372130D03*
%TD*%
D14*
%TO.C,Y1*%
X7039060Y-12012130D03*
X7039060Y-14512130D03*
%TD*%
D15*
%TO.C,U1*%
X-23230940Y-12576130D03*
X-23230940Y-13526130D03*
X-23230940Y-14476130D03*
X-20630940Y-14476130D03*
X-20630940Y-12576130D03*
%TD*%
D16*
%TO.C,C11*%
X4479060Y-11972130D03*
X5439060Y-11972130D03*
%TD*%
D17*
%TO.C,D1*%
X-23008440Y-6062130D03*
X-21433440Y-6062130D03*
%TD*%
D18*
%TO.C,SW3*%
X21229060Y-14102130D03*
X16929060Y-14102130D03*
X21229060Y-11952130D03*
X16929060Y-11952130D03*
%TD*%
D19*
%TO.C,J3*%
X29869060Y-6372130D03*
D20*
X29869060Y-8912130D03*
X29869060Y-11452130D03*
X29869060Y-13992130D03*
%TD*%
D21*
%TO.C,C2*%
X-24330940Y-13512130D03*
X-24330940Y-14472130D03*
%TD*%
D12*
%TO.C,R10*%
X12679060Y-12177130D03*
X11659060Y-12177130D03*
%TD*%
D22*
%TO.C,HOLE\u002A\u002A*%
X-34680940Y-2552130D03*
%TD*%
D12*
%TO.C,R4*%
X-22450940Y-10882130D03*
X-21430940Y-10882130D03*
%TD*%
D22*
%TO.C,HOLE\u002A\u002A*%
X29579060Y-2552130D03*
%TD*%
%TO.C,HOLE\u002A\u002A*%
X29579060Y-17762130D03*
%TD*%
D11*
%TO.C,C4*%
X-4890940Y-4172130D03*
X-3930940Y-4172130D03*
%TD*%
D16*
%TO.C,C10*%
X4479060Y-14542130D03*
X5439060Y-14542130D03*
%TD*%
D23*
%TO.C,USB1*%
X-31191940Y-7282130D03*
X-31191940Y-13062130D03*
D24*
X-30691940Y-5847130D03*
X-30691940Y-14497130D03*
D25*
X-34891940Y-5847130D03*
X-34891940Y-14497130D03*
D26*
X-29929940Y-6972130D03*
X-29929940Y-7772130D03*
D27*
X-29929940Y-8922130D03*
X-29929940Y-9922130D03*
X-29929940Y-10422130D03*
X-29929940Y-11422130D03*
D26*
X-29929940Y-13372130D03*
X-29929940Y-12572130D03*
D27*
X-29929940Y-11922130D03*
X-29929940Y-10922130D03*
X-29929940Y-9422130D03*
X-29929940Y-8422130D03*
%TD*%
D28*
%TO.C,C5*%
X-19520940Y-13532130D03*
X-19520940Y-12572130D03*
%TD*%
D10*
%TO.C,R9*%
X24109060Y-11452130D03*
X23089060Y-11452130D03*
%TD*%
D29*
%TO.C,Y2*%
X6999060Y-7332130D03*
X4799060Y-7332130D03*
X4799060Y-9032130D03*
X6999060Y-9032130D03*
%TD*%
D12*
%TO.C,R5*%
X11659060Y-8077130D03*
X12679060Y-8077130D03*
%TD*%
D16*
%TO.C,C6*%
X-3940940Y-16152130D03*
X-4900940Y-16152130D03*
%TD*%
D30*
%TO.C,R7*%
X3329060Y-9112130D03*
X3329060Y-8092130D03*
%TD*%
D31*
%TO.C,U2*%
X-3491701Y-14975456D03*
X-3138148Y-14621903D03*
X-2784594Y-14268349D03*
X-2431041Y-13914796D03*
X-2077488Y-13561243D03*
X-1723934Y-13207689D03*
X-1370381Y-12854136D03*
X-1016827Y-12500582D03*
X-663274Y-12147029D03*
X-309721Y-11793476D03*
X43833Y-11439922D03*
X397386Y-11086369D03*
D32*
X397386Y-9247891D03*
X43833Y-8894338D03*
X-309721Y-8540784D03*
X-663274Y-8187231D03*
X-1016827Y-7833678D03*
X-1370381Y-7480124D03*
X-1723934Y-7126571D03*
X-2077488Y-6773017D03*
X-2431041Y-6419464D03*
X-2784594Y-6065911D03*
X-3138148Y-5712357D03*
X-3491701Y-5358804D03*
D31*
X-5330179Y-5358804D03*
X-5683732Y-5712357D03*
X-6037286Y-6065911D03*
X-6390839Y-6419464D03*
X-6744392Y-6773017D03*
X-7097946Y-7126571D03*
X-7451499Y-7480124D03*
X-7805053Y-7833678D03*
X-8158606Y-8187231D03*
X-8512159Y-8540784D03*
X-8865713Y-8894338D03*
X-9219266Y-9247891D03*
D32*
X-9219266Y-11086369D03*
X-8865713Y-11439922D03*
X-8512159Y-11793476D03*
X-8158606Y-12147029D03*
X-7805053Y-12500582D03*
X-7451499Y-12854136D03*
X-7097946Y-13207689D03*
X-6744392Y-13561243D03*
X-6390839Y-13914796D03*
X-6037286Y-14268349D03*
X-5683732Y-14621903D03*
X-5330179Y-14975456D03*
%TD*%
D11*
%TO.C,C8*%
X7569060Y-10342130D03*
X6609060Y-10342130D03*
%TD*%
D22*
%TO.C,HOLE\u002A\u002A*%
X-34680940Y-17772130D03*
%TD*%
D10*
%TO.C,R3*%
X-22450940Y-8702130D03*
X-21430940Y-8702130D03*
%TD*%
%TO.C,R2*%
X-22450940Y-9792130D03*
X-21430940Y-9792130D03*
%TD*%
D11*
%TO.C,C1*%
X11689060Y-6577130D03*
X12649060Y-6577130D03*
%TD*%
D33*
%TO.C,L1*%
X11381560Y-10177130D03*
X12956560Y-10177130D03*
%TD*%
D11*
%TO.C,C9*%
X-15050940Y-6582130D03*
X-14090940Y-6582130D03*
%TD*%
D16*
%TO.C,C3*%
X-11060940Y-10132130D03*
X-10100940Y-10132130D03*
%TD*%
D12*
%TO.C,R6*%
X-14080940Y-13832130D03*
X-15100940Y-13832130D03*
%TD*%
D11*
%TO.C,C12*%
X7569060Y-6022130D03*
X6609060Y-6022130D03*
%TD*%
D18*
%TO.C,SW1*%
X16929060Y-6202130D03*
X21229060Y-6202130D03*
X16929060Y-8352130D03*
X21229060Y-8352130D03*
%TD*%
D19*
%TO.C,J1*%
X-31760940Y-1342130D03*
D20*
X-29220940Y-1342130D03*
X-26680940Y-1342130D03*
X-24140940Y-1342130D03*
X-21600940Y-1342130D03*
X-19060940Y-1342130D03*
X-16520940Y-1342130D03*
X-13980940Y-1342130D03*
X-11440940Y-1342130D03*
X-8900940Y-1342130D03*
X-6360940Y-1342130D03*
X-3820940Y-1342130D03*
X-1280940Y-1342130D03*
X1259060Y-1342130D03*
X3799060Y-1342130D03*
X6339060Y-1342130D03*
X8879060Y-1342130D03*
X11419060Y-1342130D03*
X13959060Y-1342130D03*
X16499060Y-1342130D03*
X19039060Y-1342130D03*
X21579060Y-1342130D03*
X24119060Y-1342130D03*
X26659060Y-1342130D03*
%TD*%
D19*
%TO.C,J2*%
X-31760940Y-18982130D03*
D20*
X-29220940Y-18982130D03*
X-26680940Y-18982130D03*
X-24140940Y-18982130D03*
X-21600940Y-18982130D03*
X-19060940Y-18982130D03*
X-16520940Y-18982130D03*
X-13980940Y-18982130D03*
X-11440940Y-18982130D03*
X-8900940Y-18982130D03*
X-6360940Y-18982130D03*
X-3820940Y-18982130D03*
X-1280940Y-18982130D03*
X1259060Y-18982130D03*
X3799060Y-18982130D03*
X6339060Y-18982130D03*
X8879060Y-18982130D03*
X11419060Y-18982130D03*
X13959060Y-18982130D03*
X16499060Y-18982130D03*
X19039060Y-18982130D03*
X21579060Y-18982130D03*
X24119060Y-18982130D03*
X26659060Y-18982130D03*
%TD*%
M02*
