%TF.GenerationSoftware,KiCad,Pcbnew,(6.0.11)*%
%TF.CreationDate,2023-01-31T14:13:47+08:00*%
%TF.ProjectId,UINIO-MCU-GD32F103C,55494e49-4f2d-44d4-9355-2d4744333246,Version 1.0.0*%
%TF.SameCoordinates,PX9357ba0PY5667240*%
%TF.FileFunction,Legend,Top*%
%TF.FilePolarity,Positive*%
%FSLAX46Y46*%
G04 Gerber Fmt 4.6, Leading zero omitted, Abs format (unit mm)*
G04 Created by KiCad (PCBNEW (6.0.11)) date 2023-01-31 14:13:47*
%MOMM*%
%LPD*%
G01*
G04 APERTURE LIST*
G04 Aperture macros list*
%AMRoundRect*
0 Rectangle with rounded corners*
0 $1 Rounding radius*
0 $2 $3 $4 $5 $6 $7 $8 $9 X,Y pos of 4 corners*
0 Add a 4 corners polygon primitive as box body*
4,1,4,$2,$3,$4,$5,$6,$7,$8,$9,$2,$3,0*
0 Add four circle primitives for the rounded corners*
1,1,$1+$1,$2,$3*
1,1,$1+$1,$4,$5*
1,1,$1+$1,$6,$7*
1,1,$1+$1,$8,$9*
0 Add four rect primitives between the rounded corners*
20,1,$1+$1,$2,$3,$4,$5,0*
20,1,$1+$1,$4,$5,$6,$7,0*
20,1,$1+$1,$6,$7,$8,$9,0*
20,1,$1+$1,$8,$9,$2,$3,0*%
%AMHorizOval*
0 Thick line with rounded ends*
0 $1 width*
0 $2 $3 position (X,Y) of the first rounded end (center of the circle)*
0 $4 $5 position (X,Y) of the second rounded end (center of the circle)*
0 Add line between two ends*
20,1,$1,$2,$3,$4,$5,0*
0 Add two circle primitives to create the rounded ends*
1,1,$1,$2,$3*
1,1,$1,$4,$5*%
G04 Aperture macros list end*
%ADD10C,0.100000*%
%ADD11C,0.150000*%
%ADD12C,0.200000*%
%ADD13C,0.120000*%
%ADD14C,0.300000*%
%ADD15C,0.254000*%
%ADD16C,0.400000*%
%ADD17RoundRect,0.135000X-0.135000X-0.185000X0.135000X-0.185000X0.135000X0.185000X-0.135000X0.185000X0*%
%ADD18RoundRect,0.140000X-0.140000X-0.170000X0.140000X-0.170000X0.140000X0.170000X-0.140000X0.170000X0*%
%ADD19RoundRect,0.135000X0.135000X0.185000X-0.135000X0.185000X-0.135000X-0.185000X0.135000X-0.185000X0*%
%ADD20R,0.650000X1.200000*%
%ADD21R,1.800000X1.000000*%
%ADD22R,1.000000X0.600000*%
%ADD23RoundRect,0.140000X0.140000X0.170000X-0.140000X0.170000X-0.140000X-0.170000X0.140000X-0.170000X0*%
%ADD24RoundRect,0.218750X0.218750X0.256250X-0.218750X0.256250X-0.218750X-0.256250X0.218750X-0.256250X0*%
%ADD25R,1.200000X0.650000*%
%ADD26R,1.700000X1.700000*%
%ADD27O,1.700000X1.700000*%
%ADD28RoundRect,0.140000X0.170000X-0.140000X0.170000X0.140000X-0.170000X0.140000X-0.170000X-0.140000X0*%
%ADD29C,1.200000*%
%ADD30C,0.650000*%
%ADD31O,2.100000X1.000000*%
%ADD32O,1.900000X1.000000*%
%ADD33R,1.150000X0.600000*%
%ADD34R,1.150000X0.300000*%
%ADD35RoundRect,0.140000X-0.170000X0.140000X-0.170000X-0.140000X0.170000X-0.140000X0.170000X0.140000X0*%
%ADD36R,1.400000X1.200000*%
%ADD37RoundRect,0.135000X-0.185000X0.135000X-0.185000X-0.135000X0.185000X-0.135000X0.185000X0.135000X0*%
%ADD38HorizOval,0.280000X-0.537401X0.537401X0.537401X-0.537401X0*%
%ADD39HorizOval,0.280000X-0.537401X-0.537401X0.537401X0.537401X0*%
%ADD40RoundRect,0.218750X-0.218750X-0.256250X0.218750X-0.256250X0.218750X0.256250X-0.218750X0.256250X0*%
G04 APERTURE END LIST*
D10*
X-31071429Y-3113333D02*
X-30690477Y-3113333D01*
X-31147620Y-3341904D02*
X-30880953Y-2541904D01*
X-30614286Y-3341904D01*
X-30385715Y-2618095D02*
X-30347620Y-2580000D01*
X-30271429Y-2541904D01*
X-30080953Y-2541904D01*
X-30004762Y-2580000D01*
X-29966667Y-2618095D01*
X-29928572Y-2694285D01*
X-29928572Y-2770476D01*
X-29966667Y-2884761D01*
X-30423810Y-3341904D01*
X-29928572Y-3341904D01*
X-15600000Y-3911000D02*
X-15633334Y-3977667D01*
X-15633334Y-4077667D01*
X-15600000Y-4177667D01*
X-15533334Y-4244333D01*
X-15466667Y-4277667D01*
X-15333334Y-4311000D01*
X-15233334Y-4311000D01*
X-15100000Y-4277667D01*
X-15033334Y-4244333D01*
X-14966667Y-4177667D01*
X-14933334Y-4077667D01*
X-14933334Y-4011000D01*
X-14966667Y-3911000D01*
X-15000000Y-3877667D01*
X-15233334Y-3877667D01*
X-15233334Y-4011000D01*
X-14933334Y-3577667D02*
X-15633334Y-3577667D01*
X-14933334Y-3177667D01*
X-15633334Y-3177667D01*
X-14933334Y-2844333D02*
X-15633334Y-2844333D01*
X-15633334Y-2677667D01*
X-15600000Y-2577667D01*
X-15533334Y-2511000D01*
X-15466667Y-2477667D01*
X-15333334Y-2444333D01*
X-15233334Y-2444333D01*
X-15100000Y-2477667D01*
X-15033334Y-2511000D01*
X-14966667Y-2577667D01*
X-14933334Y-2677667D01*
X-14933334Y-2844333D01*
X-2900000Y-17423333D02*
X-2933334Y-17490000D01*
X-2933334Y-17590000D01*
X-2900000Y-17690000D01*
X-2833334Y-17756666D01*
X-2766667Y-17790000D01*
X-2633334Y-17823333D01*
X-2533334Y-17823333D01*
X-2400000Y-17790000D01*
X-2333334Y-17756666D01*
X-2266667Y-17690000D01*
X-2233334Y-17590000D01*
X-2233334Y-17523333D01*
X-2266667Y-17423333D01*
X-2300000Y-17390000D01*
X-2533334Y-17390000D01*
X-2533334Y-17523333D01*
X-2233334Y-17090000D02*
X-2933334Y-17090000D01*
X-2233334Y-16690000D01*
X-2933334Y-16690000D01*
X-2233334Y-16356666D02*
X-2933334Y-16356666D01*
X-2933334Y-16190000D01*
X-2900000Y-16090000D01*
X-2833334Y-16023333D01*
X-2766667Y-15990000D01*
X-2633334Y-15956666D01*
X-2533334Y-15956666D01*
X-2400000Y-15990000D01*
X-2333334Y-16023333D01*
X-2266667Y-16090000D01*
X-2233334Y-16190000D01*
X-2233334Y-16356666D01*
X-343810Y-2922857D02*
X-229524Y-2960952D01*
X-191429Y-2999047D01*
X-153334Y-3075238D01*
X-153334Y-3189523D01*
X-191429Y-3265714D01*
X-229524Y-3303809D01*
X-305715Y-3341904D01*
X-610477Y-3341904D01*
X-610477Y-2541904D01*
X-343810Y-2541904D01*
X-267620Y-2580000D01*
X-229524Y-2618095D01*
X-191429Y-2694285D01*
X-191429Y-2770476D01*
X-229524Y-2846666D01*
X-267620Y-2884761D01*
X-343810Y-2922857D01*
X-610477Y-2922857D01*
X227619Y-3341904D02*
X380000Y-3341904D01*
X456190Y-3303809D01*
X494285Y-3265714D01*
X570476Y-3151428D01*
X608571Y-2999047D01*
X608571Y-2694285D01*
X570476Y-2618095D01*
X532380Y-2580000D01*
X456190Y-2541904D01*
X303809Y-2541904D01*
X227619Y-2580000D01*
X189523Y-2618095D01*
X151428Y-2694285D01*
X151428Y-2884761D01*
X189523Y-2960952D01*
X227619Y-2999047D01*
X303809Y-3037142D01*
X456190Y-3037142D01*
X532380Y-2999047D01*
X570476Y-2960952D01*
X608571Y-2884761D01*
X14896190Y-2922857D02*
X15010476Y-2960952D01*
X15048571Y-2999047D01*
X15086666Y-3075238D01*
X15086666Y-3189523D01*
X15048571Y-3265714D01*
X15010476Y-3303809D01*
X14934285Y-3341904D01*
X14629523Y-3341904D01*
X14629523Y-2541904D01*
X14896190Y-2541904D01*
X14972380Y-2580000D01*
X15010476Y-2618095D01*
X15048571Y-2694285D01*
X15048571Y-2770476D01*
X15010476Y-2846666D01*
X14972380Y-2884761D01*
X14896190Y-2922857D01*
X14629523Y-2922857D01*
X15772380Y-2808571D02*
X15772380Y-3341904D01*
X15581904Y-2503809D02*
X15391428Y-3075238D01*
X15886666Y-3075238D01*
X-31091429Y-17543333D02*
X-30710477Y-17543333D01*
X-31167620Y-17771904D02*
X-30900953Y-16971904D01*
X-30634286Y-17771904D01*
X-30443810Y-16971904D02*
X-29948572Y-16971904D01*
X-30215239Y-17276666D01*
X-30100953Y-17276666D01*
X-30024762Y-17314761D01*
X-29986667Y-17352857D01*
X-29948572Y-17429047D01*
X-29948572Y-17619523D01*
X-29986667Y-17695714D01*
X-30024762Y-17733809D01*
X-30100953Y-17771904D01*
X-30329524Y-17771904D01*
X-30405715Y-17733809D01*
X-30443810Y-17695714D01*
X-7296667Y-2377666D02*
X-7996667Y-2610999D01*
X-7296667Y-2844332D01*
X-7630000Y-3310999D02*
X-7663334Y-3410999D01*
X-7696667Y-3444332D01*
X-7763334Y-3477666D01*
X-7863334Y-3477666D01*
X-7930000Y-3444332D01*
X-7963334Y-3410999D01*
X-7996667Y-3344332D01*
X-7996667Y-3077666D01*
X-7296667Y-3077666D01*
X-7296667Y-3310999D01*
X-7330000Y-3377666D01*
X-7363334Y-3410999D01*
X-7430000Y-3444332D01*
X-7496667Y-3444332D01*
X-7563334Y-3410999D01*
X-7596667Y-3377666D01*
X-7630000Y-3310999D01*
X-7630000Y-3077666D01*
X-7796667Y-3744332D02*
X-7796667Y-4077666D01*
X-7996667Y-3677666D02*
X-7296667Y-3910999D01*
X-7996667Y-4144332D01*
X-7296667Y-4277666D02*
X-7296667Y-4677666D01*
X-7996667Y-4477666D02*
X-7296667Y-4477666D01*
D11*
X-19142858Y-5798333D02*
X-19180953Y-5912619D01*
X-19219048Y-5950714D01*
X-19295239Y-5988809D01*
X-19409524Y-5988809D01*
X-19485715Y-5950714D01*
X-19523810Y-5912619D01*
X-19561905Y-5836428D01*
X-19561905Y-5531666D01*
X-18761905Y-5531666D01*
X-18761905Y-5798333D01*
X-18800000Y-5874523D01*
X-18838096Y-5912619D01*
X-18914286Y-5950714D01*
X-18990477Y-5950714D01*
X-19066667Y-5912619D01*
X-19104762Y-5874523D01*
X-19142858Y-5798333D01*
X-19142858Y-5531666D01*
X-18761905Y-6484047D02*
X-18761905Y-6636428D01*
X-18800000Y-6712619D01*
X-18876191Y-6788809D01*
X-19028572Y-6826904D01*
X-19295239Y-6826904D01*
X-19447620Y-6788809D01*
X-19523810Y-6712619D01*
X-19561905Y-6636428D01*
X-19561905Y-6484047D01*
X-19523810Y-6407857D01*
X-19447620Y-6331666D01*
X-19295239Y-6293571D01*
X-19028572Y-6293571D01*
X-18876191Y-6331666D01*
X-18800000Y-6407857D01*
X-18761905Y-6484047D01*
X-18761905Y-7322142D02*
X-18761905Y-7474523D01*
X-18800000Y-7550714D01*
X-18876191Y-7626904D01*
X-19028572Y-7665000D01*
X-19295239Y-7665000D01*
X-19447620Y-7626904D01*
X-19523810Y-7550714D01*
X-19561905Y-7474523D01*
X-19561905Y-7322142D01*
X-19523810Y-7245952D01*
X-19447620Y-7169761D01*
X-19295239Y-7131666D01*
X-19028572Y-7131666D01*
X-18876191Y-7169761D01*
X-18800000Y-7245952D01*
X-18761905Y-7322142D01*
X-18761905Y-7893571D02*
X-18761905Y-8350714D01*
X-19561905Y-8122142D02*
X-18761905Y-8122142D01*
X-18761905Y-8769761D02*
X-18761905Y-8845952D01*
X-18800000Y-8922142D01*
X-18838096Y-8960238D01*
X-18914286Y-8998333D01*
X-19066667Y-9036428D01*
X-19257143Y-9036428D01*
X-19409524Y-8998333D01*
X-19485715Y-8960238D01*
X-19523810Y-8922142D01*
X-19561905Y-8845952D01*
X-19561905Y-8769761D01*
X-19523810Y-8693571D01*
X-19485715Y-8655476D01*
X-19409524Y-8617380D01*
X-19257143Y-8579285D01*
X-19066667Y-8579285D01*
X-18914286Y-8617380D01*
X-18838096Y-8655476D01*
X-18800000Y-8693571D01*
X-18761905Y-8769761D01*
D10*
X12356190Y-2922857D02*
X12470476Y-2960952D01*
X12508571Y-2999047D01*
X12546666Y-3075238D01*
X12546666Y-3189523D01*
X12508571Y-3265714D01*
X12470476Y-3303809D01*
X12394285Y-3341904D01*
X12089523Y-3341904D01*
X12089523Y-2541904D01*
X12356190Y-2541904D01*
X12432380Y-2580000D01*
X12470476Y-2618095D01*
X12508571Y-2694285D01*
X12508571Y-2770476D01*
X12470476Y-2846666D01*
X12432380Y-2884761D01*
X12356190Y-2922857D01*
X12089523Y-2922857D01*
X13270476Y-2541904D02*
X12889523Y-2541904D01*
X12851428Y-2922857D01*
X12889523Y-2884761D01*
X12965714Y-2846666D01*
X13156190Y-2846666D01*
X13232380Y-2884761D01*
X13270476Y-2922857D01*
X13308571Y-2999047D01*
X13308571Y-3189523D01*
X13270476Y-3265714D01*
X13232380Y-3303809D01*
X13156190Y-3341904D01*
X12965714Y-3341904D01*
X12889523Y-3303809D01*
X12851428Y-3265714D01*
X-19956667Y-2410999D02*
X-19956667Y-2844332D01*
X-20223334Y-2610999D01*
X-20223334Y-2710999D01*
X-20256667Y-2777666D01*
X-20290000Y-2810999D01*
X-20356667Y-2844332D01*
X-20523334Y-2844332D01*
X-20590000Y-2810999D01*
X-20623334Y-2777666D01*
X-20656667Y-2710999D01*
X-20656667Y-2510999D01*
X-20623334Y-2444332D01*
X-20590000Y-2410999D01*
X-19956667Y-3044332D02*
X-20656667Y-3277666D01*
X-19956667Y-3510999D01*
X-19956667Y-3677666D02*
X-19956667Y-4110999D01*
X-20223334Y-3877666D01*
X-20223334Y-3977666D01*
X-20256667Y-4044332D01*
X-20290000Y-4077666D01*
X-20356667Y-4110999D01*
X-20523334Y-4110999D01*
X-20590000Y-4077666D01*
X-20623334Y-4044332D01*
X-20656667Y-3977666D01*
X-20656667Y-3777666D01*
X-20623334Y-3710999D01*
X-20590000Y-3677666D01*
X19327619Y-17543333D02*
X19708571Y-17543333D01*
X19251428Y-17771904D02*
X19518095Y-16971904D01*
X19784761Y-17771904D01*
X20470476Y-17771904D02*
X20013333Y-17771904D01*
X20241904Y-17771904D02*
X20241904Y-16971904D01*
X20165714Y-17086190D01*
X20089523Y-17162380D01*
X20013333Y-17200476D01*
X20775238Y-17048095D02*
X20813333Y-17010000D01*
X20889523Y-16971904D01*
X21080000Y-16971904D01*
X21156190Y-17010000D01*
X21194285Y-17048095D01*
X21232380Y-17124285D01*
X21232380Y-17200476D01*
X21194285Y-17314761D01*
X20737142Y-17771904D01*
X21232380Y-17771904D01*
X4335238Y-17352857D02*
X4449523Y-17390952D01*
X4487619Y-17429047D01*
X4525714Y-17505238D01*
X4525714Y-17619523D01*
X4487619Y-17695714D01*
X4449523Y-17733809D01*
X4373333Y-17771904D01*
X4068571Y-17771904D01*
X4068571Y-16971904D01*
X4335238Y-16971904D01*
X4411428Y-17010000D01*
X4449523Y-17048095D01*
X4487619Y-17124285D01*
X4487619Y-17200476D01*
X4449523Y-17276666D01*
X4411428Y-17314761D01*
X4335238Y-17352857D01*
X4068571Y-17352857D01*
X5287619Y-17771904D02*
X4830476Y-17771904D01*
X5059047Y-17771904D02*
X5059047Y-16971904D01*
X4982857Y-17086190D01*
X4906666Y-17162380D01*
X4830476Y-17200476D01*
X5973333Y-17238571D02*
X5973333Y-17771904D01*
X5782857Y-16933809D02*
X5592380Y-17505238D01*
X6087619Y-17505238D01*
D12*
X4880476Y-14920000D02*
X4804285Y-14881904D01*
X4690000Y-14881904D01*
X4575714Y-14920000D01*
X4499523Y-14996190D01*
X4461428Y-15072380D01*
X4423333Y-15224761D01*
X4423333Y-15339047D01*
X4461428Y-15491428D01*
X4499523Y-15567619D01*
X4575714Y-15643809D01*
X4690000Y-15681904D01*
X4766190Y-15681904D01*
X4880476Y-15643809D01*
X4918571Y-15605714D01*
X4918571Y-15339047D01*
X4766190Y-15339047D01*
X5261428Y-15681904D02*
X5261428Y-14881904D01*
X5451904Y-14881904D01*
X5566190Y-14920000D01*
X5642380Y-14996190D01*
X5680476Y-15072380D01*
X5718571Y-15224761D01*
X5718571Y-15339047D01*
X5680476Y-15491428D01*
X5642380Y-15567619D01*
X5566190Y-15643809D01*
X5451904Y-15681904D01*
X5261428Y-15681904D01*
X5985238Y-14881904D02*
X6480476Y-14881904D01*
X6213809Y-15186666D01*
X6328095Y-15186666D01*
X6404285Y-15224761D01*
X6442380Y-15262857D01*
X6480476Y-15339047D01*
X6480476Y-15529523D01*
X6442380Y-15605714D01*
X6404285Y-15643809D01*
X6328095Y-15681904D01*
X6099523Y-15681904D01*
X6023333Y-15643809D01*
X5985238Y-15605714D01*
X6785238Y-14958095D02*
X6823333Y-14920000D01*
X6899523Y-14881904D01*
X7090000Y-14881904D01*
X7166190Y-14920000D01*
X7204285Y-14958095D01*
X7242380Y-15034285D01*
X7242380Y-15110476D01*
X7204285Y-15224761D01*
X6747142Y-15681904D01*
X7242380Y-15681904D01*
X7851904Y-15262857D02*
X7585238Y-15262857D01*
X7585238Y-15681904D02*
X7585238Y-14881904D01*
X7966190Y-14881904D01*
X8690000Y-15681904D02*
X8232857Y-15681904D01*
X8461428Y-15681904D02*
X8461428Y-14881904D01*
X8385238Y-14996190D01*
X8309047Y-15072380D01*
X8232857Y-15110476D01*
X9185238Y-14881904D02*
X9261428Y-14881904D01*
X9337619Y-14920000D01*
X9375714Y-14958095D01*
X9413809Y-15034285D01*
X9451904Y-15186666D01*
X9451904Y-15377142D01*
X9413809Y-15529523D01*
X9375714Y-15605714D01*
X9337619Y-15643809D01*
X9261428Y-15681904D01*
X9185238Y-15681904D01*
X9109047Y-15643809D01*
X9070952Y-15605714D01*
X9032857Y-15529523D01*
X8994761Y-15377142D01*
X8994761Y-15186666D01*
X9032857Y-15034285D01*
X9070952Y-14958095D01*
X9109047Y-14920000D01*
X9185238Y-14881904D01*
X9718571Y-14881904D02*
X10213809Y-14881904D01*
X9947142Y-15186666D01*
X10061428Y-15186666D01*
X10137619Y-15224761D01*
X10175714Y-15262857D01*
X10213809Y-15339047D01*
X10213809Y-15529523D01*
X10175714Y-15605714D01*
X10137619Y-15643809D01*
X10061428Y-15681904D01*
X9832857Y-15681904D01*
X9756666Y-15643809D01*
X9718571Y-15605714D01*
X11013809Y-15605714D02*
X10975714Y-15643809D01*
X10861428Y-15681904D01*
X10785238Y-15681904D01*
X10670952Y-15643809D01*
X10594761Y-15567619D01*
X10556666Y-15491428D01*
X10518571Y-15339047D01*
X10518571Y-15224761D01*
X10556666Y-15072380D01*
X10594761Y-14996190D01*
X10670952Y-14920000D01*
X10785238Y-14881904D01*
X10861428Y-14881904D01*
X10975714Y-14920000D01*
X11013809Y-14958095D01*
X11280476Y-15681904D02*
X11699523Y-15148571D01*
X11280476Y-15148571D02*
X11699523Y-15681904D01*
X11928095Y-15681904D02*
X12347142Y-15148571D01*
X11928095Y-15148571D02*
X12347142Y-15681904D01*
X12575714Y-15681904D02*
X12994761Y-15148571D01*
X12575714Y-15148571D02*
X12994761Y-15681904D01*
D10*
X-26011429Y-17543333D02*
X-25630477Y-17543333D01*
X-26087620Y-17771904D02*
X-25820953Y-16971904D01*
X-25554286Y-17771904D01*
X-24906667Y-16971904D02*
X-25287620Y-16971904D01*
X-25325715Y-17352857D01*
X-25287620Y-17314761D01*
X-25211429Y-17276666D01*
X-25020953Y-17276666D01*
X-24944762Y-17314761D01*
X-24906667Y-17352857D01*
X-24868572Y-17429047D01*
X-24868572Y-17619523D01*
X-24906667Y-17695714D01*
X-24944762Y-17733809D01*
X-25020953Y-17771904D01*
X-25211429Y-17771904D01*
X-25287620Y-17733809D01*
X-25325715Y-17695714D01*
X-15603810Y-17352857D02*
X-15489524Y-17390952D01*
X-15451429Y-17429047D01*
X-15413334Y-17505238D01*
X-15413334Y-17619523D01*
X-15451429Y-17695714D01*
X-15489524Y-17733809D01*
X-15565715Y-17771904D01*
X-15870477Y-17771904D01*
X-15870477Y-16971904D01*
X-15603810Y-16971904D01*
X-15527620Y-17010000D01*
X-15489524Y-17048095D01*
X-15451429Y-17124285D01*
X-15451429Y-17200476D01*
X-15489524Y-17276666D01*
X-15527620Y-17314761D01*
X-15603810Y-17352857D01*
X-15870477Y-17352857D01*
X-14651429Y-17771904D02*
X-15108572Y-17771904D01*
X-14880000Y-17771904D02*
X-14880000Y-16971904D01*
X-14956191Y-17086190D01*
X-15032381Y-17162380D01*
X-15108572Y-17200476D01*
X16787619Y-17543333D02*
X17168571Y-17543333D01*
X16711428Y-17771904D02*
X16978095Y-16971904D01*
X17244761Y-17771904D01*
X17930476Y-17771904D02*
X17473333Y-17771904D01*
X17701904Y-17771904D02*
X17701904Y-16971904D01*
X17625714Y-17086190D01*
X17549523Y-17162380D01*
X17473333Y-17200476D01*
X18692380Y-17771904D02*
X18235238Y-17771904D01*
X18463809Y-17771904D02*
X18463809Y-16971904D01*
X18387619Y-17086190D01*
X18311428Y-17162380D01*
X18235238Y-17200476D01*
D13*
X-31733842Y-14188155D02*
X-31814654Y-14215093D01*
X-31895466Y-14295905D01*
X-31949341Y-14403654D01*
X-31949341Y-14511404D01*
X-31922403Y-14592216D01*
X-31841591Y-14726903D01*
X-31760779Y-14807715D01*
X-31626092Y-14888528D01*
X-31545280Y-14915465D01*
X-31437530Y-14915465D01*
X-31329781Y-14861590D01*
X-31275906Y-14807715D01*
X-31222031Y-14699966D01*
X-31222031Y-14646091D01*
X-31410593Y-14457529D01*
X-31518342Y-14565279D01*
X-30925720Y-14457529D02*
X-31491405Y-13891844D01*
X-30602471Y-14134280D01*
X-31168156Y-13568595D01*
X-30333097Y-13864906D02*
X-30898782Y-13299221D01*
X-30764095Y-13164534D01*
X-30656346Y-13110659D01*
X-30548596Y-13110659D01*
X-30467784Y-13137597D01*
X-30333097Y-13218409D01*
X-30252285Y-13299221D01*
X-30171472Y-13433908D01*
X-30144535Y-13514720D01*
X-30144535Y-13622470D01*
X-30198410Y-13730219D01*
X-30333097Y-13864906D01*
X-31580559Y-12448494D02*
X-31472810Y-12394619D01*
X-31338123Y-12259932D01*
X-31311185Y-12179120D01*
X-31311185Y-12125245D01*
X-31338123Y-12044433D01*
X-31391997Y-11990558D01*
X-31472810Y-11963621D01*
X-31526684Y-11963621D01*
X-31607497Y-11990558D01*
X-31742184Y-12071370D01*
X-31822996Y-12098308D01*
X-31876871Y-12098308D01*
X-31957683Y-12071370D01*
X-32011558Y-12017496D01*
X-32038495Y-11936683D01*
X-32038495Y-11882809D01*
X-32011558Y-11801996D01*
X-31876871Y-11667309D01*
X-31769121Y-11613435D01*
X-31607497Y-11397935D02*
X-30907124Y-11828934D01*
X-31203436Y-11317123D01*
X-30691625Y-11613435D01*
X-31122623Y-10913062D01*
X-30072065Y-10886125D02*
X-30072065Y-10940000D01*
X-30125939Y-11047749D01*
X-30179814Y-11101624D01*
X-30287564Y-11155499D01*
X-30395313Y-11155499D01*
X-30476126Y-11128561D01*
X-30610813Y-11047749D01*
X-30691625Y-10966937D01*
X-30772437Y-10832250D01*
X-30799375Y-10751438D01*
X-30799375Y-10643688D01*
X-30745500Y-10535938D01*
X-30691625Y-10482064D01*
X-30583875Y-10428189D01*
X-30530000Y-10428189D01*
X-29506379Y-10428189D02*
X-29775753Y-10697563D01*
X-30341439Y-10131877D01*
X-29317817Y-10239627D02*
X-29883503Y-9673942D01*
X-28994569Y-9916378D02*
X-29560254Y-9835566D01*
X-29560254Y-9350693D02*
X-29560254Y-9997190D01*
D10*
X-25991429Y-3113333D02*
X-25610477Y-3113333D01*
X-26067620Y-3341904D02*
X-25800953Y-2541904D01*
X-25534286Y-3341904D01*
X-25115239Y-2541904D02*
X-25039048Y-2541904D01*
X-24962858Y-2580000D01*
X-24924762Y-2618095D01*
X-24886667Y-2694285D01*
X-24848572Y-2846666D01*
X-24848572Y-3037142D01*
X-24886667Y-3189523D01*
X-24924762Y-3265714D01*
X-24962858Y-3303809D01*
X-25039048Y-3341904D01*
X-25115239Y-3341904D01*
X-25191429Y-3303809D01*
X-25229524Y-3265714D01*
X-25267620Y-3189523D01*
X-25305715Y-3037142D01*
X-25305715Y-2846666D01*
X-25267620Y-2694285D01*
X-25229524Y-2618095D01*
X-25191429Y-2580000D01*
X-25115239Y-2541904D01*
X21947619Y-3113333D02*
X22328571Y-3113333D01*
X21871428Y-3341904D02*
X22138095Y-2541904D01*
X22404761Y-3341904D01*
X23090476Y-3341904D02*
X22633333Y-3341904D01*
X22861904Y-3341904D02*
X22861904Y-2541904D01*
X22785714Y-2656190D01*
X22709523Y-2732380D01*
X22633333Y-2770476D01*
X23776190Y-2808571D02*
X23776190Y-3341904D01*
X23585714Y-2503809D02*
X23395238Y-3075238D01*
X23890476Y-3075238D01*
X-13083334Y-4144333D02*
X-13083334Y-3711000D01*
X-12816667Y-3944333D01*
X-12816667Y-3844333D01*
X-12783334Y-3777667D01*
X-12750000Y-3744333D01*
X-12683334Y-3711000D01*
X-12516667Y-3711000D01*
X-12450000Y-3744333D01*
X-12416667Y-3777667D01*
X-12383334Y-3844333D01*
X-12383334Y-4044333D01*
X-12416667Y-4111000D01*
X-12450000Y-4144333D01*
X-13083334Y-3511000D02*
X-12383334Y-3277667D01*
X-13083334Y-3044333D01*
X-13083334Y-2877667D02*
X-13083334Y-2444333D01*
X-12816667Y-2677667D01*
X-12816667Y-2577667D01*
X-12783334Y-2511000D01*
X-12750000Y-2477667D01*
X-12683334Y-2444333D01*
X-12516667Y-2444333D01*
X-12450000Y-2477667D01*
X-12416667Y-2511000D01*
X-12383334Y-2577667D01*
X-12383334Y-2777667D01*
X-12416667Y-2844333D01*
X-12450000Y-2877667D01*
X-28551429Y-17543333D02*
X-28170477Y-17543333D01*
X-28627620Y-17771904D02*
X-28360953Y-16971904D01*
X-28094286Y-17771904D01*
X-27484762Y-17238571D02*
X-27484762Y-17771904D01*
X-27675239Y-16933809D02*
X-27865715Y-17505238D01*
X-27370477Y-17505238D01*
X-18143810Y-17352857D02*
X-18029524Y-17390952D01*
X-17991429Y-17429047D01*
X-17953334Y-17505238D01*
X-17953334Y-17619523D01*
X-17991429Y-17695714D01*
X-18029524Y-17733809D01*
X-18105715Y-17771904D01*
X-18410477Y-17771904D01*
X-18410477Y-16971904D01*
X-18143810Y-16971904D01*
X-18067620Y-17010000D01*
X-18029524Y-17048095D01*
X-17991429Y-17124285D01*
X-17991429Y-17200476D01*
X-18029524Y-17276666D01*
X-18067620Y-17314761D01*
X-18143810Y-17352857D01*
X-18410477Y-17352857D01*
X-17458096Y-16971904D02*
X-17381905Y-16971904D01*
X-17305715Y-17010000D01*
X-17267620Y-17048095D01*
X-17229524Y-17124285D01*
X-17191429Y-17276666D01*
X-17191429Y-17467142D01*
X-17229524Y-17619523D01*
X-17267620Y-17695714D01*
X-17305715Y-17733809D01*
X-17381905Y-17771904D01*
X-17458096Y-17771904D01*
X-17534286Y-17733809D01*
X-17572381Y-17695714D01*
X-17610477Y-17619523D01*
X-17648572Y-17467142D01*
X-17648572Y-17276666D01*
X-17610477Y-17124285D01*
X-17572381Y-17048095D01*
X-17534286Y-17010000D01*
X-17458096Y-16971904D01*
X-20931429Y-17543333D02*
X-20550477Y-17543333D01*
X-21007620Y-17771904D02*
X-20740953Y-16971904D01*
X-20474286Y-17771904D01*
X-20283810Y-16971904D02*
X-19750477Y-16971904D01*
X-20093334Y-17771904D01*
D11*
X-19142858Y-11548333D02*
X-19180953Y-11662619D01*
X-19219048Y-11700714D01*
X-19295239Y-11738809D01*
X-19409524Y-11738809D01*
X-19485715Y-11700714D01*
X-19523810Y-11662619D01*
X-19561905Y-11586428D01*
X-19561905Y-11281666D01*
X-18761905Y-11281666D01*
X-18761905Y-11548333D01*
X-18800000Y-11624523D01*
X-18838096Y-11662619D01*
X-18914286Y-11700714D01*
X-18990477Y-11700714D01*
X-19066667Y-11662619D01*
X-19104762Y-11624523D01*
X-19142858Y-11548333D01*
X-19142858Y-11281666D01*
X-18761905Y-12234047D02*
X-18761905Y-12386428D01*
X-18800000Y-12462619D01*
X-18876191Y-12538809D01*
X-19028572Y-12576904D01*
X-19295239Y-12576904D01*
X-19447620Y-12538809D01*
X-19523810Y-12462619D01*
X-19561905Y-12386428D01*
X-19561905Y-12234047D01*
X-19523810Y-12157857D01*
X-19447620Y-12081666D01*
X-19295239Y-12043571D01*
X-19028572Y-12043571D01*
X-18876191Y-12081666D01*
X-18800000Y-12157857D01*
X-18761905Y-12234047D01*
X-18761905Y-13072142D02*
X-18761905Y-13224523D01*
X-18800000Y-13300714D01*
X-18876191Y-13376904D01*
X-19028572Y-13415000D01*
X-19295239Y-13415000D01*
X-19447620Y-13376904D01*
X-19523810Y-13300714D01*
X-19561905Y-13224523D01*
X-19561905Y-13072142D01*
X-19523810Y-12995952D01*
X-19447620Y-12919761D01*
X-19295239Y-12881666D01*
X-19028572Y-12881666D01*
X-18876191Y-12919761D01*
X-18800000Y-12995952D01*
X-18761905Y-13072142D01*
X-18761905Y-13643571D02*
X-18761905Y-14100714D01*
X-19561905Y-13872142D02*
X-18761905Y-13872142D01*
X-19561905Y-14786428D02*
X-19561905Y-14329285D01*
X-19561905Y-14557857D02*
X-18761905Y-14557857D01*
X-18876191Y-14481666D01*
X-18952381Y-14405476D01*
X-18990477Y-14329285D01*
D10*
X19277619Y-3113333D02*
X19658571Y-3113333D01*
X19201428Y-3341904D02*
X19468095Y-2541904D01*
X19734761Y-3341904D01*
X20420476Y-3341904D02*
X19963333Y-3341904D01*
X20191904Y-3341904D02*
X20191904Y-2541904D01*
X20115714Y-2656190D01*
X20039523Y-2732380D01*
X19963333Y-2770476D01*
X21144285Y-2541904D02*
X20763333Y-2541904D01*
X20725238Y-2922857D01*
X20763333Y-2884761D01*
X20839523Y-2846666D01*
X21030000Y-2846666D01*
X21106190Y-2884761D01*
X21144285Y-2922857D01*
X21182380Y-2999047D01*
X21182380Y-3189523D01*
X21144285Y-3265714D01*
X21106190Y-3303809D01*
X21030000Y-3341904D01*
X20839523Y-3341904D01*
X20763333Y-3303809D01*
X20725238Y-3265714D01*
X21867619Y-17543333D02*
X22248571Y-17543333D01*
X21791428Y-17771904D02*
X22058095Y-16971904D01*
X22324761Y-17771904D01*
X23010476Y-17771904D02*
X22553333Y-17771904D01*
X22781904Y-17771904D02*
X22781904Y-16971904D01*
X22705714Y-17086190D01*
X22629523Y-17162380D01*
X22553333Y-17200476D01*
X23277142Y-16971904D02*
X23772380Y-16971904D01*
X23505714Y-17276666D01*
X23620000Y-17276666D01*
X23696190Y-17314761D01*
X23734285Y-17352857D01*
X23772380Y-17429047D01*
X23772380Y-17619523D01*
X23734285Y-17695714D01*
X23696190Y-17733809D01*
X23620000Y-17771904D01*
X23391428Y-17771904D01*
X23315238Y-17733809D01*
X23277142Y-17695714D01*
X9816190Y-2922857D02*
X9930476Y-2960952D01*
X9968571Y-2999047D01*
X10006666Y-3075238D01*
X10006666Y-3189523D01*
X9968571Y-3265714D01*
X9930476Y-3303809D01*
X9854285Y-3341904D01*
X9549523Y-3341904D01*
X9549523Y-2541904D01*
X9816190Y-2541904D01*
X9892380Y-2580000D01*
X9930476Y-2618095D01*
X9968571Y-2694285D01*
X9968571Y-2770476D01*
X9930476Y-2846666D01*
X9892380Y-2884761D01*
X9816190Y-2922857D01*
X9549523Y-2922857D01*
X10692380Y-2541904D02*
X10540000Y-2541904D01*
X10463809Y-2580000D01*
X10425714Y-2618095D01*
X10349523Y-2732380D01*
X10311428Y-2884761D01*
X10311428Y-3189523D01*
X10349523Y-3265714D01*
X10387619Y-3303809D01*
X10463809Y-3341904D01*
X10616190Y-3341904D01*
X10692380Y-3303809D01*
X10730476Y-3265714D01*
X10768571Y-3189523D01*
X10768571Y-2999047D01*
X10730476Y-2922857D01*
X10692380Y-2884761D01*
X10616190Y-2846666D01*
X10463809Y-2846666D01*
X10387619Y-2884761D01*
X10349523Y-2922857D01*
X10311428Y-2999047D01*
X28260000Y-2844332D02*
X28293333Y-2777666D01*
X28293333Y-2677666D01*
X28260000Y-2577666D01*
X28193333Y-2510999D01*
X28126666Y-2477666D01*
X27993333Y-2444332D01*
X27893333Y-2444332D01*
X27760000Y-2477666D01*
X27693333Y-2510999D01*
X27626666Y-2577666D01*
X27593333Y-2677666D01*
X27593333Y-2744332D01*
X27626666Y-2844332D01*
X27660000Y-2877666D01*
X27893333Y-2877666D01*
X27893333Y-2744332D01*
X27593333Y-3177666D02*
X28293333Y-3177666D01*
X27593333Y-3577666D01*
X28293333Y-3577666D01*
X27593333Y-3910999D02*
X28293333Y-3910999D01*
X28293333Y-4077666D01*
X28260000Y-4177666D01*
X28193333Y-4244332D01*
X28126666Y-4277666D01*
X27993333Y-4310999D01*
X27893333Y-4310999D01*
X27760000Y-4277666D01*
X27693333Y-4244332D01*
X27626666Y-4177666D01*
X27593333Y-4077666D01*
X27593333Y-3910999D01*
X-28531429Y-3113333D02*
X-28150477Y-3113333D01*
X-28607620Y-3341904D02*
X-28340953Y-2541904D01*
X-28074286Y-3341904D01*
X-27388572Y-3341904D02*
X-27845715Y-3341904D01*
X-27617143Y-3341904D02*
X-27617143Y-2541904D01*
X-27693334Y-2656190D01*
X-27769524Y-2732380D01*
X-27845715Y-2770476D01*
X-22530000Y-2844332D02*
X-22496667Y-2777666D01*
X-22496667Y-2677666D01*
X-22530000Y-2577666D01*
X-22596667Y-2510999D01*
X-22663334Y-2477666D01*
X-22796667Y-2444332D01*
X-22896667Y-2444332D01*
X-23030000Y-2477666D01*
X-23096667Y-2510999D01*
X-23163334Y-2577666D01*
X-23196667Y-2677666D01*
X-23196667Y-2744332D01*
X-23163334Y-2844332D01*
X-23130000Y-2877666D01*
X-22896667Y-2877666D01*
X-22896667Y-2744332D01*
X-23196667Y-3177666D02*
X-22496667Y-3177666D01*
X-23196667Y-3577666D01*
X-22496667Y-3577666D01*
X-23196667Y-3910999D02*
X-22496667Y-3910999D01*
X-22496667Y-4077666D01*
X-22530000Y-4177666D01*
X-22596667Y-4244332D01*
X-22663334Y-4277666D01*
X-22796667Y-4310999D01*
X-22896667Y-4310999D01*
X-23030000Y-4277666D01*
X-23096667Y-4244332D01*
X-23163334Y-4177666D01*
X-23196667Y-4077666D01*
X-23196667Y-3910999D01*
X-744762Y-17352857D02*
X-630477Y-17390952D01*
X-592381Y-17429047D01*
X-554286Y-17505238D01*
X-554286Y-17619523D01*
X-592381Y-17695714D01*
X-630477Y-17733809D01*
X-706667Y-17771904D01*
X-1011429Y-17771904D01*
X-1011429Y-16971904D01*
X-744762Y-16971904D01*
X-668572Y-17010000D01*
X-630477Y-17048095D01*
X-592381Y-17124285D01*
X-592381Y-17200476D01*
X-630477Y-17276666D01*
X-668572Y-17314761D01*
X-744762Y-17352857D01*
X-1011429Y-17352857D01*
X207619Y-17771904D02*
X-249524Y-17771904D01*
X-20953Y-17771904D02*
X-20953Y-16971904D01*
X-97143Y-17086190D01*
X-173334Y-17162380D01*
X-249524Y-17200476D01*
X512380Y-17048095D02*
X550476Y-17010000D01*
X626666Y-16971904D01*
X817142Y-16971904D01*
X893333Y-17010000D01*
X931428Y-17048095D01*
X969523Y-17124285D01*
X969523Y-17200476D01*
X931428Y-17314761D01*
X474285Y-17771904D01*
X969523Y-17771904D01*
X25006666Y-17856666D02*
X25006666Y-17423333D01*
X25273333Y-17656666D01*
X25273333Y-17556666D01*
X25306666Y-17490000D01*
X25340000Y-17456666D01*
X25406666Y-17423333D01*
X25573333Y-17423333D01*
X25640000Y-17456666D01*
X25673333Y-17490000D01*
X25706666Y-17556666D01*
X25706666Y-17756666D01*
X25673333Y-17823333D01*
X25640000Y-17856666D01*
X25006666Y-17223333D02*
X25706666Y-16990000D01*
X25006666Y-16756666D01*
X25006666Y-16590000D02*
X25006666Y-16156666D01*
X25273333Y-16390000D01*
X25273333Y-16290000D01*
X25306666Y-16223333D01*
X25340000Y-16190000D01*
X25406666Y-16156666D01*
X25573333Y-16156666D01*
X25640000Y-16190000D01*
X25673333Y-16223333D01*
X25706666Y-16290000D01*
X25706666Y-16490000D01*
X25673333Y-16556666D01*
X25640000Y-16590000D01*
X7276190Y-2922857D02*
X7390476Y-2960952D01*
X7428571Y-2999047D01*
X7466666Y-3075238D01*
X7466666Y-3189523D01*
X7428571Y-3265714D01*
X7390476Y-3303809D01*
X7314285Y-3341904D01*
X7009523Y-3341904D01*
X7009523Y-2541904D01*
X7276190Y-2541904D01*
X7352380Y-2580000D01*
X7390476Y-2618095D01*
X7428571Y-2694285D01*
X7428571Y-2770476D01*
X7390476Y-2846666D01*
X7352380Y-2884761D01*
X7276190Y-2922857D01*
X7009523Y-2922857D01*
X7733333Y-2541904D02*
X8266666Y-2541904D01*
X7923809Y-3341904D01*
X1795238Y-17352857D02*
X1909523Y-17390952D01*
X1947619Y-17429047D01*
X1985714Y-17505238D01*
X1985714Y-17619523D01*
X1947619Y-17695714D01*
X1909523Y-17733809D01*
X1833333Y-17771904D01*
X1528571Y-17771904D01*
X1528571Y-16971904D01*
X1795238Y-16971904D01*
X1871428Y-17010000D01*
X1909523Y-17048095D01*
X1947619Y-17124285D01*
X1947619Y-17200476D01*
X1909523Y-17276666D01*
X1871428Y-17314761D01*
X1795238Y-17352857D01*
X1528571Y-17352857D01*
X2747619Y-17771904D02*
X2290476Y-17771904D01*
X2519047Y-17771904D02*
X2519047Y-16971904D01*
X2442857Y-17086190D01*
X2366666Y-17162380D01*
X2290476Y-17200476D01*
X3014285Y-16971904D02*
X3509523Y-16971904D01*
X3242857Y-17276666D01*
X3357142Y-17276666D01*
X3433333Y-17314761D01*
X3471428Y-17352857D01*
X3509523Y-17429047D01*
X3509523Y-17619523D01*
X3471428Y-17695714D01*
X3433333Y-17733809D01*
X3357142Y-17771904D01*
X3128571Y-17771904D01*
X3052380Y-17733809D01*
X3014285Y-17695714D01*
X9548571Y-17543333D02*
X9929523Y-17543333D01*
X9472380Y-17771904D02*
X9739047Y-16971904D01*
X10005714Y-17771904D01*
X10386666Y-17314761D02*
X10310476Y-17276666D01*
X10272380Y-17238571D01*
X10234285Y-17162380D01*
X10234285Y-17124285D01*
X10272380Y-17048095D01*
X10310476Y-17010000D01*
X10386666Y-16971904D01*
X10539047Y-16971904D01*
X10615238Y-17010000D01*
X10653333Y-17048095D01*
X10691428Y-17124285D01*
X10691428Y-17162380D01*
X10653333Y-17238571D01*
X10615238Y-17276666D01*
X10539047Y-17314761D01*
X10386666Y-17314761D01*
X10310476Y-17352857D01*
X10272380Y-17390952D01*
X10234285Y-17467142D01*
X10234285Y-17619523D01*
X10272380Y-17695714D01*
X10310476Y-17733809D01*
X10386666Y-17771904D01*
X10539047Y-17771904D01*
X10615238Y-17733809D01*
X10653333Y-17695714D01*
X10691428Y-17619523D01*
X10691428Y-17467142D01*
X10653333Y-17390952D01*
X10615238Y-17352857D01*
X10539047Y-17314761D01*
X-10904762Y-17352857D02*
X-10790477Y-17390952D01*
X-10752381Y-17429047D01*
X-10714286Y-17505238D01*
X-10714286Y-17619523D01*
X-10752381Y-17695714D01*
X-10790477Y-17733809D01*
X-10866667Y-17771904D01*
X-11171429Y-17771904D01*
X-11171429Y-16971904D01*
X-10904762Y-16971904D01*
X-10828572Y-17010000D01*
X-10790477Y-17048095D01*
X-10752381Y-17124285D01*
X-10752381Y-17200476D01*
X-10790477Y-17276666D01*
X-10828572Y-17314761D01*
X-10904762Y-17352857D01*
X-11171429Y-17352857D01*
X-9952381Y-17771904D02*
X-10409524Y-17771904D01*
X-10180953Y-17771904D02*
X-10180953Y-16971904D01*
X-10257143Y-17086190D01*
X-10333334Y-17162380D01*
X-10409524Y-17200476D01*
X-9457143Y-16971904D02*
X-9380953Y-16971904D01*
X-9304762Y-17010000D01*
X-9266667Y-17048095D01*
X-9228572Y-17124285D01*
X-9190477Y-17276666D01*
X-9190477Y-17467142D01*
X-9228572Y-17619523D01*
X-9266667Y-17695714D01*
X-9304762Y-17733809D01*
X-9380953Y-17771904D01*
X-9457143Y-17771904D01*
X-9533334Y-17733809D01*
X-9571429Y-17695714D01*
X-9609524Y-17619523D01*
X-9647620Y-17467142D01*
X-9647620Y-17276666D01*
X-9609524Y-17124285D01*
X-9571429Y-17048095D01*
X-9533334Y-17010000D01*
X-9457143Y-16971904D01*
X5100000Y-2710999D02*
X5066666Y-2810999D01*
X5033333Y-2844333D01*
X4966666Y-2877666D01*
X4866666Y-2877666D01*
X4800000Y-2844333D01*
X4766666Y-2810999D01*
X4733333Y-2744333D01*
X4733333Y-2477666D01*
X5433333Y-2477666D01*
X5433333Y-2710999D01*
X5400000Y-2777666D01*
X5366666Y-2810999D01*
X5300000Y-2844333D01*
X5233333Y-2844333D01*
X5166666Y-2810999D01*
X5133333Y-2777666D01*
X5100000Y-2710999D01*
X5100000Y-2477666D01*
X5433333Y-3310999D02*
X5433333Y-3444333D01*
X5400000Y-3510999D01*
X5333333Y-3577666D01*
X5200000Y-3610999D01*
X4966666Y-3610999D01*
X4833333Y-3577666D01*
X4766666Y-3510999D01*
X4733333Y-3444333D01*
X4733333Y-3310999D01*
X4766666Y-3244333D01*
X4833333Y-3177666D01*
X4966666Y-3144333D01*
X5200000Y-3144333D01*
X5333333Y-3177666D01*
X5400000Y-3244333D01*
X5433333Y-3310999D01*
X5433333Y-4044333D02*
X5433333Y-4177666D01*
X5400000Y-4244333D01*
X5333333Y-4310999D01*
X5200000Y-4344333D01*
X4966666Y-4344333D01*
X4833333Y-4310999D01*
X4766666Y-4244333D01*
X4733333Y-4177666D01*
X4733333Y-4044333D01*
X4766666Y-3977666D01*
X4833333Y-3910999D01*
X4966666Y-3877666D01*
X5200000Y-3877666D01*
X5333333Y-3910999D01*
X5400000Y-3977666D01*
X5433333Y-4044333D01*
X5433333Y-4544333D02*
X5433333Y-4944333D01*
X4733333Y-4744333D02*
X5433333Y-4744333D01*
X5433333Y-5310999D02*
X5433333Y-5377666D01*
X5400000Y-5444333D01*
X5366666Y-5477666D01*
X5300000Y-5510999D01*
X5166666Y-5544333D01*
X5000000Y-5544333D01*
X4866666Y-5510999D01*
X4800000Y-5477666D01*
X4766666Y-5444333D01*
X4733333Y-5377666D01*
X4733333Y-5310999D01*
X4766666Y-5244333D01*
X4800000Y-5210999D01*
X4866666Y-5177666D01*
X5000000Y-5144333D01*
X5166666Y-5144333D01*
X5300000Y-5177666D01*
X5366666Y-5210999D01*
X5400000Y-5244333D01*
X5433333Y-5310999D01*
X2196190Y-2922857D02*
X2310476Y-2960952D01*
X2348571Y-2999047D01*
X2386666Y-3075238D01*
X2386666Y-3189523D01*
X2348571Y-3265714D01*
X2310476Y-3303809D01*
X2234285Y-3341904D01*
X1929523Y-3341904D01*
X1929523Y-2541904D01*
X2196190Y-2541904D01*
X2272380Y-2580000D01*
X2310476Y-2618095D01*
X2348571Y-2694285D01*
X2348571Y-2770476D01*
X2310476Y-2846666D01*
X2272380Y-2884761D01*
X2196190Y-2922857D01*
X1929523Y-2922857D01*
X2843809Y-2884761D02*
X2767619Y-2846666D01*
X2729523Y-2808571D01*
X2691428Y-2732380D01*
X2691428Y-2694285D01*
X2729523Y-2618095D01*
X2767619Y-2580000D01*
X2843809Y-2541904D01*
X2996190Y-2541904D01*
X3072380Y-2580000D01*
X3110476Y-2618095D01*
X3148571Y-2694285D01*
X3148571Y-2732380D01*
X3110476Y-2808571D01*
X3072380Y-2846666D01*
X2996190Y-2884761D01*
X2843809Y-2884761D01*
X2767619Y-2922857D01*
X2729523Y-2960952D01*
X2691428Y-3037142D01*
X2691428Y-3189523D01*
X2729523Y-3265714D01*
X2767619Y-3303809D01*
X2843809Y-3341904D01*
X2996190Y-3341904D01*
X3072380Y-3303809D01*
X3110476Y-3265714D01*
X3148571Y-3189523D01*
X3148571Y-3037142D01*
X3110476Y-2960952D01*
X3072380Y-2922857D01*
X2996190Y-2884761D01*
X-4716667Y-2410999D02*
X-4716667Y-2844332D01*
X-4983334Y-2610999D01*
X-4983334Y-2710999D01*
X-5016667Y-2777666D01*
X-5050000Y-2810999D01*
X-5116667Y-2844332D01*
X-5283334Y-2844332D01*
X-5350000Y-2810999D01*
X-5383334Y-2777666D01*
X-5416667Y-2710999D01*
X-5416667Y-2510999D01*
X-5383334Y-2444332D01*
X-5350000Y-2410999D01*
X-4716667Y-3044332D02*
X-5416667Y-3277666D01*
X-4716667Y-3510999D01*
X-4716667Y-3677666D02*
X-4716667Y-4110999D01*
X-4983334Y-3877666D01*
X-4983334Y-3977666D01*
X-5016667Y-4044332D01*
X-5050000Y-4077666D01*
X-5116667Y-4110999D01*
X-5283334Y-4110999D01*
X-5350000Y-4077666D01*
X-5383334Y-4044332D01*
X-5416667Y-3977666D01*
X-5416667Y-3777666D01*
X-5383334Y-3710999D01*
X-5350000Y-3677666D01*
X25763333Y-2810999D02*
X25763333Y-2477666D01*
X25430000Y-2444333D01*
X25463333Y-2477666D01*
X25496666Y-2544333D01*
X25496666Y-2710999D01*
X25463333Y-2777666D01*
X25430000Y-2810999D01*
X25363333Y-2844333D01*
X25196666Y-2844333D01*
X25130000Y-2810999D01*
X25096666Y-2777666D01*
X25063333Y-2710999D01*
X25063333Y-2544333D01*
X25096666Y-2477666D01*
X25130000Y-2444333D01*
X25763333Y-3044333D02*
X25063333Y-3277666D01*
X25763333Y-3510999D01*
X12088571Y-17543333D02*
X12469523Y-17543333D01*
X12012380Y-17771904D02*
X12279047Y-16971904D01*
X12545714Y-17771904D01*
X12850476Y-17771904D02*
X13002857Y-17771904D01*
X13079047Y-17733809D01*
X13117142Y-17695714D01*
X13193333Y-17581428D01*
X13231428Y-17429047D01*
X13231428Y-17124285D01*
X13193333Y-17048095D01*
X13155238Y-17010000D01*
X13079047Y-16971904D01*
X12926666Y-16971904D01*
X12850476Y-17010000D01*
X12812380Y-17048095D01*
X12774285Y-17124285D01*
X12774285Y-17314761D01*
X12812380Y-17390952D01*
X12850476Y-17429047D01*
X12926666Y-17467142D01*
X13079047Y-17467142D01*
X13155238Y-17429047D01*
X13193333Y-17390952D01*
X13231428Y-17314761D01*
X-10694286Y-3265714D02*
X-10732381Y-3303809D01*
X-10846667Y-3341904D01*
X-10922858Y-3341904D01*
X-11037143Y-3303809D01*
X-11113334Y-3227619D01*
X-11151429Y-3151428D01*
X-11189524Y-2999047D01*
X-11189524Y-2884761D01*
X-11151429Y-2732380D01*
X-11113334Y-2656190D01*
X-11037143Y-2580000D01*
X-10922858Y-2541904D01*
X-10846667Y-2541904D01*
X-10732381Y-2580000D01*
X-10694286Y-2618095D01*
X-9932381Y-3341904D02*
X-10389524Y-3341904D01*
X-10160953Y-3341904D02*
X-10160953Y-2541904D01*
X-10237143Y-2656190D01*
X-10313334Y-2732380D01*
X-10389524Y-2770476D01*
X-9665715Y-2541904D02*
X-9170477Y-2541904D01*
X-9437143Y-2846666D01*
X-9322858Y-2846666D01*
X-9246667Y-2884761D01*
X-9208572Y-2922857D01*
X-9170477Y-2999047D01*
X-9170477Y-3189523D01*
X-9208572Y-3265714D01*
X-9246667Y-3303809D01*
X-9322858Y-3341904D01*
X-9551429Y-3341904D01*
X-9627620Y-3303809D01*
X-9665715Y-3265714D01*
X14247619Y-17543333D02*
X14628571Y-17543333D01*
X14171428Y-17771904D02*
X14438095Y-16971904D01*
X14704761Y-17771904D01*
X15390476Y-17771904D02*
X14933333Y-17771904D01*
X15161904Y-17771904D02*
X15161904Y-16971904D01*
X15085714Y-17086190D01*
X15009523Y-17162380D01*
X14933333Y-17200476D01*
X15885714Y-16971904D02*
X15961904Y-16971904D01*
X16038095Y-17010000D01*
X16076190Y-17048095D01*
X16114285Y-17124285D01*
X16152380Y-17276666D01*
X16152380Y-17467142D01*
X16114285Y-17619523D01*
X16076190Y-17695714D01*
X16038095Y-17733809D01*
X15961904Y-17771904D01*
X15885714Y-17771904D01*
X15809523Y-17733809D01*
X15771428Y-17695714D01*
X15733333Y-17619523D01*
X15695238Y-17467142D01*
X15695238Y-17276666D01*
X15733333Y-17124285D01*
X15771428Y-17048095D01*
X15809523Y-17010000D01*
X15885714Y-16971904D01*
D11*
X13732857Y-8621428D02*
X14632857Y-8621428D01*
X13732857Y-9135714D01*
X14632857Y-9135714D01*
X13732857Y-10078571D02*
X14161428Y-9778571D01*
X13732857Y-9564285D02*
X14632857Y-9564285D01*
X14632857Y-9907142D01*
X14590000Y-9992857D01*
X14547142Y-10035714D01*
X14461428Y-10078571D01*
X14332857Y-10078571D01*
X14247142Y-10035714D01*
X14204285Y-9992857D01*
X14161428Y-9907142D01*
X14161428Y-9564285D01*
X13775714Y-10421428D02*
X13732857Y-10550000D01*
X13732857Y-10764285D01*
X13775714Y-10850000D01*
X13818571Y-10892857D01*
X13904285Y-10935714D01*
X13990000Y-10935714D01*
X14075714Y-10892857D01*
X14118571Y-10850000D01*
X14161428Y-10764285D01*
X14204285Y-10592857D01*
X14247142Y-10507142D01*
X14290000Y-10464285D01*
X14375714Y-10421428D01*
X14461428Y-10421428D01*
X14547142Y-10464285D01*
X14590000Y-10507142D01*
X14632857Y-10592857D01*
X14632857Y-10807142D01*
X14590000Y-10935714D01*
X14632857Y-11192857D02*
X14632857Y-11707142D01*
X13732857Y-11450000D02*
X14632857Y-11450000D01*
D10*
X-2210000Y-2844332D02*
X-2176667Y-2777666D01*
X-2176667Y-2677666D01*
X-2210000Y-2577666D01*
X-2276667Y-2510999D01*
X-2343334Y-2477666D01*
X-2476667Y-2444332D01*
X-2576667Y-2444332D01*
X-2710000Y-2477666D01*
X-2776667Y-2510999D01*
X-2843334Y-2577666D01*
X-2876667Y-2677666D01*
X-2876667Y-2744332D01*
X-2843334Y-2844332D01*
X-2810000Y-2877666D01*
X-2576667Y-2877666D01*
X-2576667Y-2744332D01*
X-2876667Y-3177666D02*
X-2176667Y-3177666D01*
X-2876667Y-3577666D01*
X-2176667Y-3577666D01*
X-2876667Y-3910999D02*
X-2176667Y-3910999D01*
X-2176667Y-4077666D01*
X-2210000Y-4177666D01*
X-2276667Y-4244332D01*
X-2343334Y-4277666D01*
X-2476667Y-4310999D01*
X-2576667Y-4310999D01*
X-2710000Y-4277666D01*
X-2776667Y-4244332D01*
X-2843334Y-4177666D01*
X-2876667Y-4077666D01*
X-2876667Y-3910999D01*
X-8364762Y-17352857D02*
X-8250477Y-17390952D01*
X-8212381Y-17429047D01*
X-8174286Y-17505238D01*
X-8174286Y-17619523D01*
X-8212381Y-17695714D01*
X-8250477Y-17733809D01*
X-8326667Y-17771904D01*
X-8631429Y-17771904D01*
X-8631429Y-16971904D01*
X-8364762Y-16971904D01*
X-8288572Y-17010000D01*
X-8250477Y-17048095D01*
X-8212381Y-17124285D01*
X-8212381Y-17200476D01*
X-8250477Y-17276666D01*
X-8288572Y-17314761D01*
X-8364762Y-17352857D01*
X-8631429Y-17352857D01*
X-7412381Y-17771904D02*
X-7869524Y-17771904D01*
X-7640953Y-17771904D02*
X-7640953Y-16971904D01*
X-7717143Y-17086190D01*
X-7793334Y-17162380D01*
X-7869524Y-17200476D01*
X-6650477Y-17771904D02*
X-7107620Y-17771904D01*
X-6879048Y-17771904D02*
X-6879048Y-16971904D01*
X-6955239Y-17086190D01*
X-7031429Y-17162380D01*
X-7107620Y-17200476D01*
X6875238Y-17352857D02*
X6989523Y-17390952D01*
X7027619Y-17429047D01*
X7065714Y-17505238D01*
X7065714Y-17619523D01*
X7027619Y-17695714D01*
X6989523Y-17733809D01*
X6913333Y-17771904D01*
X6608571Y-17771904D01*
X6608571Y-16971904D01*
X6875238Y-16971904D01*
X6951428Y-17010000D01*
X6989523Y-17048095D01*
X7027619Y-17124285D01*
X7027619Y-17200476D01*
X6989523Y-17276666D01*
X6951428Y-17314761D01*
X6875238Y-17352857D01*
X6608571Y-17352857D01*
X7827619Y-17771904D02*
X7370476Y-17771904D01*
X7599047Y-17771904D02*
X7599047Y-16971904D01*
X7522857Y-17086190D01*
X7446666Y-17162380D01*
X7370476Y-17200476D01*
X8551428Y-16971904D02*
X8170476Y-16971904D01*
X8132380Y-17352857D01*
X8170476Y-17314761D01*
X8246666Y-17276666D01*
X8437142Y-17276666D01*
X8513333Y-17314761D01*
X8551428Y-17352857D01*
X8589523Y-17429047D01*
X8589523Y-17619523D01*
X8551428Y-17695714D01*
X8513333Y-17733809D01*
X8437142Y-17771904D01*
X8246666Y-17771904D01*
X8170476Y-17733809D01*
X8132380Y-17695714D01*
X-5473334Y-17856666D02*
X-5473334Y-17423333D01*
X-5206667Y-17656666D01*
X-5206667Y-17556666D01*
X-5173334Y-17490000D01*
X-5140000Y-17456666D01*
X-5073334Y-17423333D01*
X-4906667Y-17423333D01*
X-4840000Y-17456666D01*
X-4806667Y-17490000D01*
X-4773334Y-17556666D01*
X-4773334Y-17756666D01*
X-4806667Y-17823333D01*
X-4840000Y-17856666D01*
X-5473334Y-17223333D02*
X-4773334Y-16990000D01*
X-5473334Y-16756666D01*
X-5473334Y-16590000D02*
X-5473334Y-16156666D01*
X-5206667Y-16390000D01*
X-5206667Y-16290000D01*
X-5173334Y-16223333D01*
X-5140000Y-16190000D01*
X-5073334Y-16156666D01*
X-4906667Y-16156666D01*
X-4840000Y-16190000D01*
X-4806667Y-16223333D01*
X-4773334Y-16290000D01*
X-4773334Y-16490000D01*
X-4806667Y-16556666D01*
X-4840000Y-16590000D01*
D13*
X-31589747Y-9907682D02*
X-31481997Y-9853807D01*
X-31347310Y-9719120D01*
X-31320373Y-9638308D01*
X-31320373Y-9584433D01*
X-31347310Y-9503621D01*
X-31401185Y-9449746D01*
X-31481997Y-9422809D01*
X-31535872Y-9422809D01*
X-31616684Y-9449746D01*
X-31751371Y-9530558D01*
X-31832184Y-9557496D01*
X-31886058Y-9557496D01*
X-31966871Y-9530558D01*
X-32020745Y-9476683D01*
X-32047683Y-9395871D01*
X-32047683Y-9341996D01*
X-32020745Y-9261184D01*
X-31886058Y-9126497D01*
X-31778309Y-9072622D01*
X-31616684Y-8857123D02*
X-30916312Y-9288122D01*
X-31212623Y-8776311D01*
X-30700813Y-9072622D01*
X-31131811Y-8372250D01*
X-30350626Y-8722436D02*
X-30916312Y-8156751D01*
X-30781625Y-8022064D01*
X-30673875Y-7968189D01*
X-30566126Y-7968189D01*
X-30485313Y-7995126D01*
X-30350626Y-8075938D01*
X-30269814Y-8156751D01*
X-30189002Y-8291438D01*
X-30162065Y-8372250D01*
X-30162065Y-8480000D01*
X-30215939Y-8587749D01*
X-30350626Y-8722436D01*
X-29784941Y-8156751D02*
X-30350626Y-7591065D01*
X-29973503Y-7213942D02*
X-29865753Y-7106192D01*
X-29784941Y-7079255D01*
X-29677191Y-7079255D01*
X-29542504Y-7160067D01*
X-29353943Y-7348629D01*
X-29273130Y-7483316D01*
X-29273130Y-7591065D01*
X-29300068Y-7671877D01*
X-29407817Y-7779627D01*
X-29488630Y-7806564D01*
X-29596379Y-7806564D01*
X-29731066Y-7725752D01*
X-29919628Y-7537190D01*
X-30000440Y-7402503D01*
X-30000440Y-7294754D01*
X-29973503Y-7213942D01*
D10*
X-23471429Y-17543333D02*
X-23090477Y-17543333D01*
X-23547620Y-17771904D02*
X-23280953Y-16971904D01*
X-23014286Y-17771904D01*
X-22404762Y-16971904D02*
X-22557143Y-16971904D01*
X-22633334Y-17010000D01*
X-22671429Y-17048095D01*
X-22747620Y-17162380D01*
X-22785715Y-17314761D01*
X-22785715Y-17619523D01*
X-22747620Y-17695714D01*
X-22709524Y-17733809D01*
X-22633334Y-17771904D01*
X-22480953Y-17771904D01*
X-22404762Y-17733809D01*
X-22366667Y-17695714D01*
X-22328572Y-17619523D01*
X-22328572Y-17429047D01*
X-22366667Y-17352857D01*
X-22404762Y-17314761D01*
X-22480953Y-17276666D01*
X-22633334Y-17276666D01*
X-22709524Y-17314761D01*
X-22747620Y-17352857D01*
X-22785715Y-17429047D01*
X-13063810Y-17352857D02*
X-12949524Y-17390952D01*
X-12911429Y-17429047D01*
X-12873334Y-17505238D01*
X-12873334Y-17619523D01*
X-12911429Y-17695714D01*
X-12949524Y-17733809D01*
X-13025715Y-17771904D01*
X-13330477Y-17771904D01*
X-13330477Y-16971904D01*
X-13063810Y-16971904D01*
X-12987620Y-17010000D01*
X-12949524Y-17048095D01*
X-12911429Y-17124285D01*
X-12911429Y-17200476D01*
X-12949524Y-17276666D01*
X-12987620Y-17314761D01*
X-13063810Y-17352857D01*
X-13330477Y-17352857D01*
X-12568572Y-17048095D02*
X-12530477Y-17010000D01*
X-12454286Y-16971904D01*
X-12263810Y-16971904D01*
X-12187620Y-17010000D01*
X-12149524Y-17048095D01*
X-12111429Y-17124285D01*
X-12111429Y-17200476D01*
X-12149524Y-17314761D01*
X-12606667Y-17771904D01*
X-12111429Y-17771904D01*
X27580000Y-17423333D02*
X27546666Y-17490000D01*
X27546666Y-17590000D01*
X27580000Y-17690000D01*
X27646666Y-17756666D01*
X27713333Y-17790000D01*
X27846666Y-17823333D01*
X27946666Y-17823333D01*
X28080000Y-17790000D01*
X28146666Y-17756666D01*
X28213333Y-17690000D01*
X28246666Y-17590000D01*
X28246666Y-17523333D01*
X28213333Y-17423333D01*
X28180000Y-17390000D01*
X27946666Y-17390000D01*
X27946666Y-17523333D01*
X28246666Y-17090000D02*
X27546666Y-17090000D01*
X28246666Y-16690000D01*
X27546666Y-16690000D01*
X28246666Y-16356666D02*
X27546666Y-16356666D01*
X27546666Y-16190000D01*
X27580000Y-16090000D01*
X27646666Y-16023333D01*
X27713333Y-15990000D01*
X27846666Y-15956666D01*
X27946666Y-15956666D01*
X28080000Y-15990000D01*
X28146666Y-16023333D01*
X28213333Y-16090000D01*
X28246666Y-16190000D01*
X28246666Y-16356666D01*
X-17483334Y-4777667D02*
X-18183334Y-4777667D01*
X-17483334Y-4377667D01*
X-18183334Y-4377667D01*
X-17483334Y-3644333D02*
X-17816667Y-3877667D01*
X-17483334Y-4044333D02*
X-18183334Y-4044333D01*
X-18183334Y-3777667D01*
X-18150000Y-3711000D01*
X-18116667Y-3677667D01*
X-18050000Y-3644333D01*
X-17950000Y-3644333D01*
X-17883334Y-3677667D01*
X-17850000Y-3711000D01*
X-17816667Y-3777667D01*
X-17816667Y-4044333D01*
X-17516667Y-3377667D02*
X-17483334Y-3277667D01*
X-17483334Y-3111000D01*
X-17516667Y-3044333D01*
X-17550000Y-3011000D01*
X-17616667Y-2977667D01*
X-17683334Y-2977667D01*
X-17750000Y-3011000D01*
X-17783334Y-3044333D01*
X-17816667Y-3111000D01*
X-17850000Y-3244333D01*
X-17883334Y-3311000D01*
X-17916667Y-3344333D01*
X-17983334Y-3377667D01*
X-18050000Y-3377667D01*
X-18116667Y-3344333D01*
X-18150000Y-3311000D01*
X-18183334Y-3244333D01*
X-18183334Y-3077667D01*
X-18150000Y-2977667D01*
X-18183334Y-2777667D02*
X-18183334Y-2377667D01*
X-17483334Y-2577667D02*
X-18183334Y-2577667D01*
D13*
X-32130153Y-6680592D02*
X-31779967Y-6330406D01*
X-31753029Y-6734467D01*
X-31672217Y-6653654D01*
X-31591405Y-6626717D01*
X-31537530Y-6626717D01*
X-31456718Y-6653654D01*
X-31322031Y-6788341D01*
X-31295094Y-6869154D01*
X-31295094Y-6923028D01*
X-31322031Y-7003841D01*
X-31483655Y-7165465D01*
X-31564468Y-7192402D01*
X-31618342Y-7192402D01*
X-31618342Y-6168781D02*
X-30864095Y-6545905D01*
X-31241219Y-5791658D01*
X-31106532Y-5656971D02*
X-30756346Y-5306784D01*
X-30729408Y-5710845D01*
X-30648596Y-5630033D01*
X-30567784Y-5603096D01*
X-30513909Y-5603096D01*
X-30433097Y-5630033D01*
X-30298410Y-5764720D01*
X-30271472Y-5845532D01*
X-30271472Y-5899407D01*
X-30298410Y-5980219D01*
X-30460034Y-6141844D01*
X-30540846Y-6168781D01*
X-30594721Y-6168781D01*
D10*
X17436190Y-2922857D02*
X17550476Y-2960952D01*
X17588571Y-2999047D01*
X17626666Y-3075238D01*
X17626666Y-3189523D01*
X17588571Y-3265714D01*
X17550476Y-3303809D01*
X17474285Y-3341904D01*
X17169523Y-3341904D01*
X17169523Y-2541904D01*
X17436190Y-2541904D01*
X17512380Y-2580000D01*
X17550476Y-2618095D01*
X17588571Y-2694285D01*
X17588571Y-2770476D01*
X17550476Y-2846666D01*
X17512380Y-2884761D01*
X17436190Y-2922857D01*
X17169523Y-2922857D01*
X17893333Y-2541904D02*
X18388571Y-2541904D01*
X18121904Y-2846666D01*
X18236190Y-2846666D01*
X18312380Y-2884761D01*
X18350476Y-2922857D01*
X18388571Y-2999047D01*
X18388571Y-3189523D01*
X18350476Y-3265714D01*
X18312380Y-3303809D01*
X18236190Y-3341904D01*
X18007619Y-3341904D01*
X17931428Y-3303809D01*
X17893333Y-3265714D01*
%TO.C,R1*%
X19730000Y-13161428D02*
X19530000Y-12875714D01*
X19387142Y-13161428D02*
X19387142Y-12561428D01*
X19615714Y-12561428D01*
X19672857Y-12590000D01*
X19701428Y-12618571D01*
X19730000Y-12675714D01*
X19730000Y-12761428D01*
X19701428Y-12818571D01*
X19672857Y-12847142D01*
X19615714Y-12875714D01*
X19387142Y-12875714D01*
X20301428Y-13161428D02*
X19958571Y-13161428D01*
X20130000Y-13161428D02*
X20130000Y-12561428D01*
X20072857Y-12647142D01*
X20015714Y-12704285D01*
X19958571Y-12732857D01*
%TO.C,C7*%
X-14510000Y-6824285D02*
X-14538572Y-6852857D01*
X-14624286Y-6881428D01*
X-14681429Y-6881428D01*
X-14767143Y-6852857D01*
X-14824286Y-6795714D01*
X-14852858Y-6738571D01*
X-14881429Y-6624285D01*
X-14881429Y-6538571D01*
X-14852858Y-6424285D01*
X-14824286Y-6367142D01*
X-14767143Y-6310000D01*
X-14681429Y-6281428D01*
X-14624286Y-6281428D01*
X-14538572Y-6310000D01*
X-14510000Y-6338571D01*
X-14310000Y-6281428D02*
X-13910000Y-6281428D01*
X-14167143Y-6881428D01*
%TO.C,R8*%
X-27540000Y-12651428D02*
X-27740000Y-12365714D01*
X-27882858Y-12651428D02*
X-27882858Y-12051428D01*
X-27654286Y-12051428D01*
X-27597143Y-12080000D01*
X-27568572Y-12108571D01*
X-27540000Y-12165714D01*
X-27540000Y-12251428D01*
X-27568572Y-12308571D01*
X-27597143Y-12337142D01*
X-27654286Y-12365714D01*
X-27882858Y-12365714D01*
X-27197143Y-12308571D02*
X-27254286Y-12280000D01*
X-27282858Y-12251428D01*
X-27311429Y-12194285D01*
X-27311429Y-12165714D01*
X-27282858Y-12108571D01*
X-27254286Y-12080000D01*
X-27197143Y-12051428D01*
X-27082858Y-12051428D01*
X-27025715Y-12080000D01*
X-26997143Y-12108571D01*
X-26968572Y-12165714D01*
X-26968572Y-12194285D01*
X-26997143Y-12251428D01*
X-27025715Y-12280000D01*
X-27082858Y-12308571D01*
X-27197143Y-12308571D01*
X-27254286Y-12337142D01*
X-27282858Y-12365714D01*
X-27311429Y-12422857D01*
X-27311429Y-12537142D01*
X-27282858Y-12594285D01*
X-27254286Y-12622857D01*
X-27197143Y-12651428D01*
X-27082858Y-12651428D01*
X-27025715Y-12622857D01*
X-26997143Y-12594285D01*
X-26968572Y-12537142D01*
X-26968572Y-12422857D01*
X-26997143Y-12365714D01*
X-27025715Y-12337142D01*
X-27082858Y-12308571D01*
%TO.C,SW2*%
X11592857Y-10850714D02*
X11621428Y-10765000D01*
X11621428Y-10622142D01*
X11592857Y-10565000D01*
X11564285Y-10536428D01*
X11507142Y-10507857D01*
X11450000Y-10507857D01*
X11392857Y-10536428D01*
X11364285Y-10565000D01*
X11335714Y-10622142D01*
X11307142Y-10736428D01*
X11278571Y-10793571D01*
X11250000Y-10822142D01*
X11192857Y-10850714D01*
X11135714Y-10850714D01*
X11078571Y-10822142D01*
X11050000Y-10793571D01*
X11021428Y-10736428D01*
X11021428Y-10593571D01*
X11050000Y-10507857D01*
X11021428Y-10307857D02*
X11621428Y-10165000D01*
X11192857Y-10050714D01*
X11621428Y-9936428D01*
X11021428Y-9793571D01*
X11078571Y-9593571D02*
X11050000Y-9565000D01*
X11021428Y-9507857D01*
X11021428Y-9365000D01*
X11050000Y-9307857D01*
X11078571Y-9279285D01*
X11135714Y-9250714D01*
X11192857Y-9250714D01*
X11278571Y-9279285D01*
X11621428Y-9622142D01*
X11621428Y-9250714D01*
%TO.C,Y1*%
X-11107858Y-7055714D02*
X-11107858Y-7341428D01*
X-11307858Y-6741428D02*
X-11107858Y-7055714D01*
X-10907858Y-6741428D01*
X-10393572Y-7341428D02*
X-10736429Y-7341428D01*
X-10565000Y-7341428D02*
X-10565000Y-6741428D01*
X-10622143Y-6827142D01*
X-10679286Y-6884285D01*
X-10736429Y-6912857D01*
%TO.C,U1*%
X18418571Y-6367857D02*
X17932857Y-6367857D01*
X17875714Y-6396428D01*
X17847142Y-6425000D01*
X17818571Y-6482142D01*
X17818571Y-6596428D01*
X17847142Y-6653571D01*
X17875714Y-6682142D01*
X17932857Y-6710714D01*
X18418571Y-6710714D01*
X17818571Y-7310714D02*
X17818571Y-6967857D01*
X17818571Y-7139285D02*
X18418571Y-7139285D01*
X18332857Y-7082142D01*
X18275714Y-7025000D01*
X18247142Y-6967857D01*
%TO.C,C11*%
X-7305715Y-8564285D02*
X-7334286Y-8592857D01*
X-7420000Y-8621428D01*
X-7477143Y-8621428D01*
X-7562858Y-8592857D01*
X-7620000Y-8535714D01*
X-7648572Y-8478571D01*
X-7677143Y-8364285D01*
X-7677143Y-8278571D01*
X-7648572Y-8164285D01*
X-7620000Y-8107142D01*
X-7562858Y-8050000D01*
X-7477143Y-8021428D01*
X-7420000Y-8021428D01*
X-7334286Y-8050000D01*
X-7305715Y-8078571D01*
X-6734286Y-8621428D02*
X-7077143Y-8621428D01*
X-6905715Y-8621428D02*
X-6905715Y-8021428D01*
X-6962858Y-8107142D01*
X-7020000Y-8164285D01*
X-7077143Y-8192857D01*
X-6162858Y-8621428D02*
X-6505715Y-8621428D01*
X-6334286Y-8621428D02*
X-6334286Y-8021428D01*
X-6391429Y-8107142D01*
X-6448572Y-8164285D01*
X-6505715Y-8192857D01*
%TO.C,D1*%
X15697142Y-14531428D02*
X15697142Y-13931428D01*
X15840000Y-13931428D01*
X15925714Y-13960000D01*
X15982857Y-14017142D01*
X16011428Y-14074285D01*
X16040000Y-14188571D01*
X16040000Y-14274285D01*
X16011428Y-14388571D01*
X15982857Y-14445714D01*
X15925714Y-14502857D01*
X15840000Y-14531428D01*
X15697142Y-14531428D01*
X16611428Y-14531428D02*
X16268571Y-14531428D01*
X16440000Y-14531428D02*
X16440000Y-13931428D01*
X16382857Y-14017142D01*
X16325714Y-14074285D01*
X16268571Y-14102857D01*
%TO.C,SW3*%
X-23690715Y-7517857D02*
X-23605001Y-7546428D01*
X-23462144Y-7546428D01*
X-23405001Y-7517857D01*
X-23376429Y-7489285D01*
X-23347858Y-7432142D01*
X-23347858Y-7375000D01*
X-23376429Y-7317857D01*
X-23405001Y-7289285D01*
X-23462144Y-7260714D01*
X-23576429Y-7232142D01*
X-23633572Y-7203571D01*
X-23662144Y-7175000D01*
X-23690715Y-7117857D01*
X-23690715Y-7060714D01*
X-23662144Y-7003571D01*
X-23633572Y-6975000D01*
X-23576429Y-6946428D01*
X-23433572Y-6946428D01*
X-23347858Y-6975000D01*
X-23147858Y-6946428D02*
X-23005001Y-7546428D01*
X-22890715Y-7117857D01*
X-22776429Y-7546428D01*
X-22633572Y-6946428D01*
X-22462144Y-6946428D02*
X-22090715Y-6946428D01*
X-22290715Y-7175000D01*
X-22205001Y-7175000D01*
X-22147858Y-7203571D01*
X-22119287Y-7232142D01*
X-22090715Y-7289285D01*
X-22090715Y-7432142D01*
X-22119287Y-7489285D01*
X-22147858Y-7517857D01*
X-22205001Y-7546428D01*
X-22376429Y-7546428D01*
X-22433572Y-7517857D01*
X-22462144Y-7489285D01*
%TO.C,C2*%
X20275714Y-7660000D02*
X20247142Y-7631428D01*
X20218571Y-7545714D01*
X20218571Y-7488571D01*
X20247142Y-7402857D01*
X20304285Y-7345714D01*
X20361428Y-7317142D01*
X20475714Y-7288571D01*
X20561428Y-7288571D01*
X20675714Y-7317142D01*
X20732857Y-7345714D01*
X20790000Y-7402857D01*
X20818571Y-7488571D01*
X20818571Y-7545714D01*
X20790000Y-7631428D01*
X20761428Y-7660000D01*
X20761428Y-7888571D02*
X20790000Y-7917142D01*
X20818571Y-7974285D01*
X20818571Y-8117142D01*
X20790000Y-8174285D01*
X20761428Y-8202857D01*
X20704285Y-8231428D01*
X20647142Y-8231428D01*
X20561428Y-8202857D01*
X20218571Y-7860000D01*
X20218571Y-8231428D01*
%TO.C,R10*%
X-14505715Y-8431428D02*
X-14705715Y-8145714D01*
X-14848572Y-8431428D02*
X-14848572Y-7831428D01*
X-14620000Y-7831428D01*
X-14562858Y-7860000D01*
X-14534286Y-7888571D01*
X-14505715Y-7945714D01*
X-14505715Y-8031428D01*
X-14534286Y-8088571D01*
X-14562858Y-8117142D01*
X-14620000Y-8145714D01*
X-14848572Y-8145714D01*
X-13934286Y-8431428D02*
X-14277143Y-8431428D01*
X-14105715Y-8431428D02*
X-14105715Y-7831428D01*
X-14162858Y-7917142D01*
X-14220000Y-7974285D01*
X-14277143Y-8002857D01*
X-13562858Y-7831428D02*
X-13505715Y-7831428D01*
X-13448572Y-7860000D01*
X-13420000Y-7888571D01*
X-13391429Y-7945714D01*
X-13362858Y-8060000D01*
X-13362858Y-8202857D01*
X-13391429Y-8317142D01*
X-13420000Y-8374285D01*
X-13448572Y-8402857D01*
X-13505715Y-8431428D01*
X-13562858Y-8431428D01*
X-13620000Y-8402857D01*
X-13648572Y-8374285D01*
X-13677143Y-8317142D01*
X-13705715Y-8202857D01*
X-13705715Y-8060000D01*
X-13677143Y-7945714D01*
X-13648572Y-7888571D01*
X-13620000Y-7860000D01*
X-13562858Y-7831428D01*
%TO.C,R4*%
X19730000Y-9711428D02*
X19530000Y-9425714D01*
X19387142Y-9711428D02*
X19387142Y-9111428D01*
X19615714Y-9111428D01*
X19672857Y-9140000D01*
X19701428Y-9168571D01*
X19730000Y-9225714D01*
X19730000Y-9311428D01*
X19701428Y-9368571D01*
X19672857Y-9397142D01*
X19615714Y-9425714D01*
X19387142Y-9425714D01*
X20244285Y-9311428D02*
X20244285Y-9711428D01*
X20101428Y-9082857D02*
X19958571Y-9511428D01*
X20330000Y-9511428D01*
%TO.C,C4*%
X440000Y-15644285D02*
X411428Y-15672857D01*
X325714Y-15701428D01*
X268571Y-15701428D01*
X182857Y-15672857D01*
X125714Y-15615714D01*
X97142Y-15558571D01*
X68571Y-15444285D01*
X68571Y-15358571D01*
X97142Y-15244285D01*
X125714Y-15187142D01*
X182857Y-15130000D01*
X268571Y-15101428D01*
X325714Y-15101428D01*
X411428Y-15130000D01*
X440000Y-15158571D01*
X954285Y-15301428D02*
X954285Y-15701428D01*
X811428Y-15072857D02*
X668571Y-15501428D01*
X1040000Y-15501428D01*
%TO.C,C10*%
X-7285715Y-5954285D02*
X-7314286Y-5982857D01*
X-7400000Y-6011428D01*
X-7457143Y-6011428D01*
X-7542858Y-5982857D01*
X-7600000Y-5925714D01*
X-7628572Y-5868571D01*
X-7657143Y-5754285D01*
X-7657143Y-5668571D01*
X-7628572Y-5554285D01*
X-7600000Y-5497142D01*
X-7542858Y-5440000D01*
X-7457143Y-5411428D01*
X-7400000Y-5411428D01*
X-7314286Y-5440000D01*
X-7285715Y-5468571D01*
X-6714286Y-6011428D02*
X-7057143Y-6011428D01*
X-6885715Y-6011428D02*
X-6885715Y-5411428D01*
X-6942858Y-5497142D01*
X-7000000Y-5554285D01*
X-7057143Y-5582857D01*
X-6342858Y-5411428D02*
X-6285715Y-5411428D01*
X-6228572Y-5440000D01*
X-6200000Y-5468571D01*
X-6171429Y-5525714D01*
X-6142858Y-5640000D01*
X-6142858Y-5782857D01*
X-6171429Y-5897142D01*
X-6200000Y-5954285D01*
X-6228572Y-5982857D01*
X-6285715Y-6011428D01*
X-6342858Y-6011428D01*
X-6400000Y-5982857D01*
X-6428572Y-5954285D01*
X-6457143Y-5897142D01*
X-6485715Y-5782857D01*
X-6485715Y-5640000D01*
X-6457143Y-5525714D01*
X-6428572Y-5468571D01*
X-6400000Y-5440000D01*
X-6342858Y-5411428D01*
%TO.C,USB1*%
X29158571Y-9167857D02*
X28672857Y-9167857D01*
X28615714Y-9196428D01*
X28587142Y-9225000D01*
X28558571Y-9282142D01*
X28558571Y-9396428D01*
X28587142Y-9453571D01*
X28615714Y-9482142D01*
X28672857Y-9510714D01*
X29158571Y-9510714D01*
X28587142Y-9767857D02*
X28558571Y-9853571D01*
X28558571Y-9996428D01*
X28587142Y-10053571D01*
X28615714Y-10082142D01*
X28672857Y-10110714D01*
X28730000Y-10110714D01*
X28787142Y-10082142D01*
X28815714Y-10053571D01*
X28844285Y-9996428D01*
X28872857Y-9882142D01*
X28901428Y-9825000D01*
X28930000Y-9796428D01*
X28987142Y-9767857D01*
X29044285Y-9767857D01*
X29101428Y-9796428D01*
X29130000Y-9825000D01*
X29158571Y-9882142D01*
X29158571Y-10025000D01*
X29130000Y-10110714D01*
X28872857Y-10567857D02*
X28844285Y-10653571D01*
X28815714Y-10682142D01*
X28758571Y-10710714D01*
X28672857Y-10710714D01*
X28615714Y-10682142D01*
X28587142Y-10653571D01*
X28558571Y-10596428D01*
X28558571Y-10367857D01*
X29158571Y-10367857D01*
X29158571Y-10567857D01*
X29130000Y-10625000D01*
X29101428Y-10653571D01*
X29044285Y-10682142D01*
X28987142Y-10682142D01*
X28930000Y-10653571D01*
X28901428Y-10625000D01*
X28872857Y-10567857D01*
X28872857Y-10367857D01*
X28558571Y-11282142D02*
X28558571Y-10939285D01*
X28558571Y-11110714D02*
X29158571Y-11110714D01*
X29072857Y-11053571D01*
X29015714Y-10996428D01*
X28987142Y-10939285D01*
%TO.C,C5*%
X15445714Y-5660000D02*
X15417142Y-5631428D01*
X15388571Y-5545714D01*
X15388571Y-5488571D01*
X15417142Y-5402857D01*
X15474285Y-5345714D01*
X15531428Y-5317142D01*
X15645714Y-5288571D01*
X15731428Y-5288571D01*
X15845714Y-5317142D01*
X15902857Y-5345714D01*
X15960000Y-5402857D01*
X15988571Y-5488571D01*
X15988571Y-5545714D01*
X15960000Y-5631428D01*
X15931428Y-5660000D01*
X15988571Y-6202857D02*
X15988571Y-5917142D01*
X15702857Y-5888571D01*
X15731428Y-5917142D01*
X15760000Y-5974285D01*
X15760000Y-6117142D01*
X15731428Y-6174285D01*
X15702857Y-6202857D01*
X15645714Y-6231428D01*
X15502857Y-6231428D01*
X15445714Y-6202857D01*
X15417142Y-6174285D01*
X15388571Y-6117142D01*
X15388571Y-5974285D01*
X15417142Y-5917142D01*
X15445714Y-5888571D01*
%TO.C,R9*%
X-27540000Y-8181428D02*
X-27740000Y-7895714D01*
X-27882858Y-8181428D02*
X-27882858Y-7581428D01*
X-27654286Y-7581428D01*
X-27597143Y-7610000D01*
X-27568572Y-7638571D01*
X-27540000Y-7695714D01*
X-27540000Y-7781428D01*
X-27568572Y-7838571D01*
X-27597143Y-7867142D01*
X-27654286Y-7895714D01*
X-27882858Y-7895714D01*
X-27254286Y-8181428D02*
X-27140000Y-8181428D01*
X-27082858Y-8152857D01*
X-27054286Y-8124285D01*
X-26997143Y-8038571D01*
X-26968572Y-7924285D01*
X-26968572Y-7695714D01*
X-26997143Y-7638571D01*
X-27025715Y-7610000D01*
X-27082858Y-7581428D01*
X-27197143Y-7581428D01*
X-27254286Y-7610000D01*
X-27282858Y-7638571D01*
X-27311429Y-7695714D01*
X-27311429Y-7838571D01*
X-27282858Y-7895714D01*
X-27254286Y-7924285D01*
X-27197143Y-7952857D01*
X-27082858Y-7952857D01*
X-27025715Y-7924285D01*
X-26997143Y-7895714D01*
X-26968572Y-7838571D01*
%TO.C,R5*%
X-14495714Y-12506428D02*
X-14695714Y-12220714D01*
X-14838572Y-12506428D02*
X-14838572Y-11906428D01*
X-14610000Y-11906428D01*
X-14552857Y-11935000D01*
X-14524286Y-11963571D01*
X-14495714Y-12020714D01*
X-14495714Y-12106428D01*
X-14524286Y-12163571D01*
X-14552857Y-12192142D01*
X-14610000Y-12220714D01*
X-14838572Y-12220714D01*
X-13952857Y-11906428D02*
X-14238572Y-11906428D01*
X-14267143Y-12192142D01*
X-14238572Y-12163571D01*
X-14181429Y-12135000D01*
X-14038572Y-12135000D01*
X-13981429Y-12163571D01*
X-13952857Y-12192142D01*
X-13924286Y-12249285D01*
X-13924286Y-12392142D01*
X-13952857Y-12449285D01*
X-13981429Y-12477857D01*
X-14038572Y-12506428D01*
X-14181429Y-12506428D01*
X-14238572Y-12477857D01*
X-14267143Y-12449285D01*
%TO.C,C6*%
X450000Y-5134285D02*
X421428Y-5162857D01*
X335714Y-5191428D01*
X278571Y-5191428D01*
X192857Y-5162857D01*
X135714Y-5105714D01*
X107142Y-5048571D01*
X78571Y-4934285D01*
X78571Y-4848571D01*
X107142Y-4734285D01*
X135714Y-4677142D01*
X192857Y-4620000D01*
X278571Y-4591428D01*
X335714Y-4591428D01*
X421428Y-4620000D01*
X450000Y-4648571D01*
X964285Y-4591428D02*
X850000Y-4591428D01*
X792857Y-4620000D01*
X764285Y-4648571D01*
X707142Y-4734285D01*
X678571Y-4848571D01*
X678571Y-5077142D01*
X707142Y-5134285D01*
X735714Y-5162857D01*
X792857Y-5191428D01*
X907142Y-5191428D01*
X964285Y-5162857D01*
X992857Y-5134285D01*
X1021428Y-5077142D01*
X1021428Y-4934285D01*
X992857Y-4877142D01*
X964285Y-4848571D01*
X907142Y-4820000D01*
X792857Y-4820000D01*
X735714Y-4848571D01*
X707142Y-4877142D01*
X678571Y-4934285D01*
%TO.C,R7*%
X-7421429Y-13170000D02*
X-7135715Y-12970000D01*
X-7421429Y-12827142D02*
X-6821429Y-12827142D01*
X-6821429Y-13055714D01*
X-6850000Y-13112857D01*
X-6878572Y-13141428D01*
X-6935715Y-13170000D01*
X-7021429Y-13170000D01*
X-7078572Y-13141428D01*
X-7107143Y-13112857D01*
X-7135715Y-13055714D01*
X-7135715Y-12827142D01*
X-6821429Y-13370000D02*
X-6821429Y-13770000D01*
X-7421429Y-13512857D01*
%TO.C,U2*%
X147857Y-9831428D02*
X147857Y-10317142D01*
X176428Y-10374285D01*
X205000Y-10402857D01*
X262142Y-10431428D01*
X376428Y-10431428D01*
X433571Y-10402857D01*
X462142Y-10374285D01*
X490714Y-10317142D01*
X490714Y-9831428D01*
X747857Y-9888571D02*
X776428Y-9860000D01*
X833571Y-9831428D01*
X976428Y-9831428D01*
X1033571Y-9860000D01*
X1062142Y-9888571D01*
X1090714Y-9945714D01*
X1090714Y-10002857D01*
X1062142Y-10088571D01*
X719285Y-10431428D01*
X1090714Y-10431428D01*
%TO.C,C8*%
X-9410000Y-10194285D02*
X-9438572Y-10222857D01*
X-9524286Y-10251428D01*
X-9581429Y-10251428D01*
X-9667143Y-10222857D01*
X-9724286Y-10165714D01*
X-9752858Y-10108571D01*
X-9781429Y-9994285D01*
X-9781429Y-9908571D01*
X-9752858Y-9794285D01*
X-9724286Y-9737142D01*
X-9667143Y-9680000D01*
X-9581429Y-9651428D01*
X-9524286Y-9651428D01*
X-9438572Y-9680000D01*
X-9410000Y-9708571D01*
X-9067143Y-9908571D02*
X-9124286Y-9880000D01*
X-9152858Y-9851428D01*
X-9181429Y-9794285D01*
X-9181429Y-9765714D01*
X-9152858Y-9708571D01*
X-9124286Y-9680000D01*
X-9067143Y-9651428D01*
X-8952858Y-9651428D01*
X-8895715Y-9680000D01*
X-8867143Y-9708571D01*
X-8838572Y-9765714D01*
X-8838572Y-9794285D01*
X-8867143Y-9851428D01*
X-8895715Y-9880000D01*
X-8952858Y-9908571D01*
X-9067143Y-9908571D01*
X-9124286Y-9937142D01*
X-9152858Y-9965714D01*
X-9181429Y-10022857D01*
X-9181429Y-10137142D01*
X-9152858Y-10194285D01*
X-9124286Y-10222857D01*
X-9067143Y-10251428D01*
X-8952858Y-10251428D01*
X-8895715Y-10222857D01*
X-8867143Y-10194285D01*
X-8838572Y-10137142D01*
X-8838572Y-10022857D01*
X-8867143Y-9965714D01*
X-8895715Y-9937142D01*
X-8952858Y-9908571D01*
%TO.C,R3*%
X19730000Y-11911428D02*
X19530000Y-11625714D01*
X19387142Y-11911428D02*
X19387142Y-11311428D01*
X19615714Y-11311428D01*
X19672857Y-11340000D01*
X19701428Y-11368571D01*
X19730000Y-11425714D01*
X19730000Y-11511428D01*
X19701428Y-11568571D01*
X19672857Y-11597142D01*
X19615714Y-11625714D01*
X19387142Y-11625714D01*
X19930000Y-11311428D02*
X20301428Y-11311428D01*
X20101428Y-11540000D01*
X20187142Y-11540000D01*
X20244285Y-11568571D01*
X20272857Y-11597142D01*
X20301428Y-11654285D01*
X20301428Y-11797142D01*
X20272857Y-11854285D01*
X20244285Y-11882857D01*
X20187142Y-11911428D01*
X20015714Y-11911428D01*
X19958571Y-11882857D01*
X19930000Y-11854285D01*
%TO.C,R2*%
X19730000Y-10801428D02*
X19530000Y-10515714D01*
X19387142Y-10801428D02*
X19387142Y-10201428D01*
X19615714Y-10201428D01*
X19672857Y-10230000D01*
X19701428Y-10258571D01*
X19730000Y-10315714D01*
X19730000Y-10401428D01*
X19701428Y-10458571D01*
X19672857Y-10487142D01*
X19615714Y-10515714D01*
X19387142Y-10515714D01*
X19958571Y-10258571D02*
X19987142Y-10230000D01*
X20044285Y-10201428D01*
X20187142Y-10201428D01*
X20244285Y-10230000D01*
X20272857Y-10258571D01*
X20301428Y-10315714D01*
X20301428Y-10372857D01*
X20272857Y-10458571D01*
X19930000Y-10801428D01*
X20301428Y-10801428D01*
D14*
%TO.C,*%
D10*
%TO.C,C1*%
X-14495714Y-14019285D02*
X-14524286Y-14047857D01*
X-14610000Y-14076428D01*
X-14667143Y-14076428D01*
X-14752857Y-14047857D01*
X-14810000Y-13990714D01*
X-14838572Y-13933571D01*
X-14867143Y-13819285D01*
X-14867143Y-13733571D01*
X-14838572Y-13619285D01*
X-14810000Y-13562142D01*
X-14752857Y-13505000D01*
X-14667143Y-13476428D01*
X-14610000Y-13476428D01*
X-14524286Y-13505000D01*
X-14495714Y-13533571D01*
X-13924286Y-14076428D02*
X-14267143Y-14076428D01*
X-14095714Y-14076428D02*
X-14095714Y-13476428D01*
X-14152857Y-13562142D01*
X-14210000Y-13619285D01*
X-14267143Y-13647857D01*
%TO.C,L1*%
X-14110000Y-10426428D02*
X-14395715Y-10426428D01*
X-14395715Y-9826428D01*
X-13595715Y-10426428D02*
X-13938572Y-10426428D01*
X-13767143Y-10426428D02*
X-13767143Y-9826428D01*
X-13824286Y-9912142D01*
X-13881429Y-9969285D01*
X-13938572Y-9997857D01*
%TO.C,C9*%
X12280000Y-13984285D02*
X12251428Y-14012857D01*
X12165714Y-14041428D01*
X12108571Y-14041428D01*
X12022857Y-14012857D01*
X11965714Y-13955714D01*
X11937142Y-13898571D01*
X11908571Y-13784285D01*
X11908571Y-13698571D01*
X11937142Y-13584285D01*
X11965714Y-13527142D01*
X12022857Y-13470000D01*
X12108571Y-13441428D01*
X12165714Y-13441428D01*
X12251428Y-13470000D01*
X12280000Y-13498571D01*
X12565714Y-14041428D02*
X12680000Y-14041428D01*
X12737142Y-14012857D01*
X12765714Y-13984285D01*
X12822857Y-13898571D01*
X12851428Y-13784285D01*
X12851428Y-13555714D01*
X12822857Y-13498571D01*
X12794285Y-13470000D01*
X12737142Y-13441428D01*
X12622857Y-13441428D01*
X12565714Y-13470000D01*
X12537142Y-13498571D01*
X12508571Y-13555714D01*
X12508571Y-13698571D01*
X12537142Y-13755714D01*
X12565714Y-13784285D01*
X12622857Y-13812857D01*
X12737142Y-13812857D01*
X12794285Y-13784285D01*
X12822857Y-13755714D01*
X12851428Y-13698571D01*
%TO.C,C3*%
X8190000Y-10394285D02*
X8161428Y-10422857D01*
X8075714Y-10451428D01*
X8018571Y-10451428D01*
X7932857Y-10422857D01*
X7875714Y-10365714D01*
X7847142Y-10308571D01*
X7818571Y-10194285D01*
X7818571Y-10108571D01*
X7847142Y-9994285D01*
X7875714Y-9937142D01*
X7932857Y-9880000D01*
X8018571Y-9851428D01*
X8075714Y-9851428D01*
X8161428Y-9880000D01*
X8190000Y-9908571D01*
X8390000Y-9851428D02*
X8761428Y-9851428D01*
X8561428Y-10080000D01*
X8647142Y-10080000D01*
X8704285Y-10108571D01*
X8732857Y-10137142D01*
X8761428Y-10194285D01*
X8761428Y-10337142D01*
X8732857Y-10394285D01*
X8704285Y-10422857D01*
X8647142Y-10451428D01*
X8475714Y-10451428D01*
X8418571Y-10422857D01*
X8390000Y-10394285D01*
%TO.C,R6*%
X12300000Y-6781428D02*
X12100000Y-6495714D01*
X11957142Y-6781428D02*
X11957142Y-6181428D01*
X12185714Y-6181428D01*
X12242857Y-6210000D01*
X12271428Y-6238571D01*
X12300000Y-6295714D01*
X12300000Y-6381428D01*
X12271428Y-6438571D01*
X12242857Y-6467142D01*
X12185714Y-6495714D01*
X11957142Y-6495714D01*
X12814285Y-6181428D02*
X12700000Y-6181428D01*
X12642857Y-6210000D01*
X12614285Y-6238571D01*
X12557142Y-6324285D01*
X12528571Y-6438571D01*
X12528571Y-6667142D01*
X12557142Y-6724285D01*
X12585714Y-6752857D01*
X12642857Y-6781428D01*
X12757142Y-6781428D01*
X12814285Y-6752857D01*
X12842857Y-6724285D01*
X12871428Y-6667142D01*
X12871428Y-6524285D01*
X12842857Y-6467142D01*
X12814285Y-6438571D01*
X12757142Y-6410000D01*
X12642857Y-6410000D01*
X12585714Y-6438571D01*
X12557142Y-6467142D01*
X12528571Y-6524285D01*
%TO.C,C12*%
X-9395715Y-14574285D02*
X-9424286Y-14602857D01*
X-9510000Y-14631428D01*
X-9567143Y-14631428D01*
X-9652858Y-14602857D01*
X-9710000Y-14545714D01*
X-9738572Y-14488571D01*
X-9767143Y-14374285D01*
X-9767143Y-14288571D01*
X-9738572Y-14174285D01*
X-9710000Y-14117142D01*
X-9652858Y-14060000D01*
X-9567143Y-14031428D01*
X-9510000Y-14031428D01*
X-9424286Y-14060000D01*
X-9395715Y-14088571D01*
X-8824286Y-14631428D02*
X-9167143Y-14631428D01*
X-8995715Y-14631428D02*
X-8995715Y-14031428D01*
X-9052858Y-14117142D01*
X-9110000Y-14174285D01*
X-9167143Y-14202857D01*
X-8595715Y-14088571D02*
X-8567143Y-14060000D01*
X-8510000Y-14031428D01*
X-8367143Y-14031428D01*
X-8310000Y-14060000D01*
X-8281429Y-14088571D01*
X-8252858Y-14145714D01*
X-8252858Y-14202857D01*
X-8281429Y-14288571D01*
X-8624286Y-14631428D01*
X-8252858Y-14631428D01*
%TO.C,SW1*%
X-23660715Y-13252857D02*
X-23575000Y-13281428D01*
X-23432143Y-13281428D01*
X-23375000Y-13252857D01*
X-23346429Y-13224285D01*
X-23317858Y-13167142D01*
X-23317858Y-13110000D01*
X-23346429Y-13052857D01*
X-23375000Y-13024285D01*
X-23432143Y-12995714D01*
X-23546429Y-12967142D01*
X-23603572Y-12938571D01*
X-23632143Y-12910000D01*
X-23660715Y-12852857D01*
X-23660715Y-12795714D01*
X-23632143Y-12738571D01*
X-23603572Y-12710000D01*
X-23546429Y-12681428D01*
X-23403572Y-12681428D01*
X-23317858Y-12710000D01*
X-23117858Y-12681428D02*
X-22975000Y-13281428D01*
X-22860715Y-12852857D01*
X-22746429Y-13281428D01*
X-22603572Y-12681428D01*
X-22060715Y-13281428D02*
X-22403572Y-13281428D01*
X-22232143Y-13281428D02*
X-22232143Y-12681428D01*
X-22289286Y-12767142D01*
X-22346429Y-12824285D01*
X-22403572Y-12852857D01*
D13*
%TO.C,R1*%
X17956359Y-12460000D02*
X18263641Y-12460000D01*
X17956359Y-13220000D02*
X18263641Y-13220000D01*
%TO.C,C7*%
X-16107836Y-6205000D02*
X-15892164Y-6205000D01*
X-16107836Y-6925000D02*
X-15892164Y-6925000D01*
%TO.C,R8*%
X-27266359Y-11760000D02*
X-27573641Y-11760000D01*
X-27266359Y-11000000D02*
X-27573641Y-11000000D01*
D15*
%TO.C,SW2*%
X13040000Y-12170000D02*
X13040000Y-7970000D01*
X10821000Y-12170000D02*
X11859000Y-12170000D01*
X10821000Y-7970000D02*
X11859000Y-7970000D01*
X11975000Y-10832000D02*
X11975000Y-9308000D01*
X9640000Y-7970000D02*
X9709000Y-7970000D01*
X9640000Y-12170000D02*
X9709000Y-12170000D01*
X10705000Y-10832000D02*
X10705000Y-9308000D01*
X12971000Y-7970000D02*
X13040000Y-7970000D01*
X12971000Y-12170000D02*
X13040000Y-12170000D01*
X9640000Y-12170000D02*
X9640000Y-7970000D01*
X10704000Y-10833000D02*
G75*
G03*
X11976000Y-10833000I636000J0D01*
G01*
X11973999Y-9309000D02*
G75*
G03*
X10706000Y-9309068I-633999J-4000D01*
G01*
D11*
%TO.C,Y1*%
X-10108000Y-7538000D02*
X-10108000Y-6459000D01*
X-11632000Y-7538000D02*
X-11632000Y-6459000D01*
D15*
%TO.C,U1*%
X17200000Y-5216000D02*
X19000000Y-5216000D01*
X17200000Y-7166000D02*
X17200000Y-6366000D01*
X17200000Y-8316000D02*
X19000000Y-8316000D01*
D13*
%TO.C,C11*%
X-8682164Y-8680000D02*
X-8897836Y-8680000D01*
X-8682164Y-7960000D02*
X-8897836Y-7960000D01*
%TO.C,D1*%
X19875000Y-13495000D02*
X17590000Y-13495000D01*
X17590000Y-14965000D02*
X19875000Y-14965000D01*
X19875000Y-14965000D02*
X19875000Y-13495000D01*
D15*
%TO.C,SW3*%
X-20810000Y-7784000D02*
X-20810000Y-6746000D01*
X-20810000Y-8965000D02*
X-20810000Y-8896000D01*
X-22148000Y-6630000D02*
X-23672000Y-6630000D01*
X-20810000Y-5565000D02*
X-25010000Y-5565000D01*
X-25010000Y-8965000D02*
X-25010000Y-8896000D01*
X-20810000Y-5634000D02*
X-20810000Y-5565000D01*
X-25010000Y-5634000D02*
X-25010000Y-5565000D01*
X-25010000Y-7784000D02*
X-25010000Y-6746000D01*
X-22148000Y-7900000D02*
X-23672000Y-7900000D01*
X-20810000Y-8965000D02*
X-25010000Y-8965000D01*
X-23671000Y-6631001D02*
G75*
G03*
X-23670932Y-7899000I4000J-633999D01*
G01*
X-22147000Y-7901000D02*
G75*
G03*
X-22147000Y-6629000I0J636000D01*
G01*
D13*
%TO.C,J3*%
X-32340000Y-15250000D02*
X-33670000Y-15250000D01*
X-32340000Y-4970000D02*
X-35000000Y-4970000D01*
X-32340000Y-12650000D02*
X-32340000Y-4970000D01*
X-32340000Y-13920000D02*
X-32340000Y-15250000D01*
X-32340000Y-12650000D02*
X-35000000Y-12650000D01*
X-35000000Y-12650000D02*
X-35000000Y-4970000D01*
%TO.C,C2*%
X20860000Y-6407836D02*
X20860000Y-6192164D01*
X20140000Y-6407836D02*
X20140000Y-6192164D01*
%TO.C,R10*%
X-15846359Y-7735000D02*
X-16153641Y-7735000D01*
X-15846359Y-8495000D02*
X-16153641Y-8495000D01*
D10*
%TO.C,HOLE\u002A\u002A*%
X31600000Y-18460000D02*
G75*
G03*
X31600000Y-18460000I-900000J0D01*
G01*
D13*
%TO.C,R4*%
X18263641Y-9790000D02*
X17956359Y-9790000D01*
X18263641Y-9030000D02*
X17956359Y-9030000D01*
D10*
%TO.C,HOLE\u002A\u002A*%
X-32360000Y-18460000D02*
G75*
G03*
X-32360000Y-18460000I-900000J0D01*
G01*
X-32360000Y-1800000D02*
G75*
G03*
X-32360000Y-1800000I-900000J0D01*
G01*
D13*
%TO.C,C4*%
X472164Y-15880000D02*
X687836Y-15880000D01*
X472164Y-16600000D02*
X687836Y-16600000D01*
%TO.C,C10*%
X-8682164Y-6110000D02*
X-8897836Y-6110000D01*
X-8682164Y-5390000D02*
X-8897836Y-5390000D01*
D15*
%TO.C,USB1*%
X32941000Y-14530000D02*
X32941000Y-5730000D01*
X29164000Y-14530000D02*
X27419000Y-14530000D01*
X29164000Y-5730000D02*
X27419000Y-5730000D01*
X32941000Y-14530000D02*
X31519000Y-14530000D01*
X32941000Y-5730000D02*
X31519000Y-5730000D01*
D13*
%TO.C,C5*%
X15330000Y-7132164D02*
X15330000Y-7347836D01*
X16050000Y-7132164D02*
X16050000Y-7347836D01*
%TO.C,R9*%
X-27583641Y-9220000D02*
X-27276359Y-9220000D01*
X-27583641Y-8460000D02*
X-27276359Y-8460000D01*
%TO.C,Y2*%
X-11730000Y-10460000D02*
X-11730000Y-13760000D01*
X-11730000Y-13760000D02*
X-7730000Y-13760000D01*
%TO.C,R5*%
X-15846359Y-11835000D02*
X-16153641Y-11835000D01*
X-15846359Y-12595000D02*
X-16153641Y-12595000D01*
%TO.C,C6*%
X697836Y-4410000D02*
X482164Y-4410000D01*
X697836Y-3690000D02*
X482164Y-3690000D01*
%TO.C,R7*%
X-6780000Y-11536359D02*
X-6780000Y-11843641D01*
X-7540000Y-11536359D02*
X-7540000Y-11843641D01*
D15*
%TO.C,U2*%
X580000Y-14039087D02*
X-3309087Y-10150000D01*
X580000Y-6260913D02*
X4469087Y-10150000D01*
X-3309087Y-10150000D02*
X580000Y-6260913D01*
X4469087Y-10150000D02*
X580000Y-14039087D01*
D16*
X721487Y-7321524D02*
G75*
G03*
X717886Y-7325108I-142892J139967D01*
G01*
D10*
X680309Y-5722195D02*
G75*
G03*
X678516Y-5723995I-107169J104956D01*
G01*
D13*
X623141Y-5617239D02*
G75*
G03*
X623141Y-5617239I-50001J0D01*
G01*
%TO.C,C8*%
X-11027836Y-10310000D02*
X-10812164Y-10310000D01*
X-11027836Y-9590000D02*
X-10812164Y-9590000D01*
D10*
%TO.C,HOLE\u002A\u002A*%
X31600000Y-1800000D02*
G75*
G03*
X31600000Y-1800000I-900000J0D01*
G01*
D13*
%TO.C,R3*%
X17956359Y-11970000D02*
X18263641Y-11970000D01*
X17956359Y-11210000D02*
X18263641Y-11210000D01*
%TO.C,R2*%
X17956359Y-10120000D02*
X18263641Y-10120000D01*
X17956359Y-10880000D02*
X18263641Y-10880000D01*
%TO.C,*%
G36*
X22638194Y-11288871D02*
G01*
X22732451Y-11301330D01*
X22816216Y-11326745D01*
X22889568Y-11365165D01*
X22952586Y-11416639D01*
X23005349Y-11481218D01*
X23038495Y-11538798D01*
X23065025Y-11599927D01*
X23083322Y-11660825D01*
X23094349Y-11726208D01*
X23099071Y-11800794D01*
X23099404Y-11836700D01*
X23097120Y-11905285D01*
X23089968Y-11965903D01*
X23076707Y-12025134D01*
X23056095Y-12089561D01*
X23047102Y-12114056D01*
X23029047Y-12162020D01*
X22771658Y-12162020D01*
X22771658Y-12138288D01*
X22777423Y-12115096D01*
X22788246Y-12099544D01*
X22821956Y-12059955D01*
X22850685Y-12008732D01*
X22872524Y-11950641D01*
X22885567Y-11890445D01*
X22888440Y-11849392D01*
X22883053Y-11783694D01*
X22866230Y-11729324D01*
X22836981Y-11684602D01*
X22794313Y-11647846D01*
X22756939Y-11626452D01*
X22732375Y-11614763D01*
X22712165Y-11606965D01*
X22691846Y-11602272D01*
X22666956Y-11599900D01*
X22633031Y-11599061D01*
X22600832Y-11598966D01*
X22540850Y-11600785D01*
X22493465Y-11607048D01*
X22454909Y-11618963D01*
X22421414Y-11637736D01*
X22389211Y-11664575D01*
X22385808Y-11667855D01*
X22353410Y-11710552D01*
X22331924Y-11762900D01*
X22321303Y-11821968D01*
X22321504Y-11884826D01*
X22332480Y-11948542D01*
X22354189Y-12010186D01*
X22386584Y-12066827D01*
X22392029Y-12074269D01*
X22410467Y-12101160D01*
X22423882Y-12125386D01*
X22429608Y-12142073D01*
X22429655Y-12143087D01*
X22429201Y-12150347D01*
X22426184Y-12155464D01*
X22418118Y-12158813D01*
X22402522Y-12160768D01*
X22376910Y-12161704D01*
X22338798Y-12161997D01*
X22304235Y-12162020D01*
X22178816Y-12162020D01*
X22162432Y-12123797D01*
X22138217Y-12053267D01*
X22120593Y-11972619D01*
X22110251Y-11887340D01*
X22107884Y-11802918D01*
X22113113Y-11732430D01*
X22133079Y-11634118D01*
X22164948Y-11547156D01*
X22208211Y-11471972D01*
X22262357Y-11409000D01*
X22326876Y-11358669D01*
X22401259Y-11321410D01*
X22484994Y-11297655D01*
X22577573Y-11287834D01*
X22638194Y-11288871D01*
G37*
G36*
X22789302Y-12323595D02*
G01*
X22867878Y-12357230D01*
X22936412Y-12403422D01*
X22994203Y-12461653D01*
X23040549Y-12531408D01*
X23074749Y-12612167D01*
X23085716Y-12650838D01*
X23094041Y-12699517D01*
X23098679Y-12758663D01*
X23099636Y-12822470D01*
X23096915Y-12885137D01*
X23090522Y-12940859D01*
X23085444Y-12966440D01*
X23057160Y-13051281D01*
X23016088Y-13125532D01*
X22962739Y-13188677D01*
X22897621Y-13240198D01*
X22821246Y-13279581D01*
X22754373Y-13301493D01*
X22708022Y-13309773D01*
X22651423Y-13314422D01*
X22590416Y-13315436D01*
X22530841Y-13312814D01*
X22478539Y-13306552D01*
X22455282Y-13301632D01*
X22370920Y-13271936D01*
X22297015Y-13229756D01*
X22234359Y-13175887D01*
X22183744Y-13111125D01*
X22145964Y-13036267D01*
X22125736Y-12970611D01*
X22117567Y-12924270D01*
X22111760Y-12869119D01*
X22109466Y-12826584D01*
X22312516Y-12826584D01*
X22322467Y-12876892D01*
X22328662Y-12892495D01*
X22354423Y-12931041D01*
X22392814Y-12964673D01*
X22439857Y-12990072D01*
X22450245Y-12993973D01*
X22473869Y-13000573D01*
X22502093Y-13004901D01*
X22538556Y-13007289D01*
X22586896Y-13008067D01*
X22604827Y-13008034D01*
X22653543Y-13007408D01*
X22689632Y-13005759D01*
X22717145Y-13002599D01*
X22740129Y-12997438D01*
X22762633Y-12989791D01*
X22765532Y-12988668D01*
X22819039Y-12962051D01*
X22857673Y-12929132D01*
X22882561Y-12888344D01*
X22894826Y-12838121D01*
X22896598Y-12806136D01*
X22893281Y-12758223D01*
X22881545Y-12720622D01*
X22859294Y-12688208D01*
X22840801Y-12669816D01*
X22810983Y-12646576D01*
X22778551Y-12629648D01*
X22740374Y-12618214D01*
X22693322Y-12611460D01*
X22634264Y-12608569D01*
X22604827Y-12608311D01*
X22546372Y-12609152D01*
X22500896Y-12612188D01*
X22464758Y-12618154D01*
X22434319Y-12627788D01*
X22405938Y-12641825D01*
X22389685Y-12651820D01*
X22354798Y-12683844D01*
X22329658Y-12726212D01*
X22315238Y-12775075D01*
X22312516Y-12826584D01*
X22109466Y-12826584D01*
X22108646Y-12811383D01*
X22108556Y-12757283D01*
X22111821Y-12713042D01*
X22111974Y-12711933D01*
X22132251Y-12619865D01*
X22165373Y-12538154D01*
X22210690Y-12467348D01*
X22267552Y-12407996D01*
X22335307Y-12360646D01*
X22413307Y-12325849D01*
X22500899Y-12304152D01*
X22597434Y-12296105D01*
X22604827Y-12296067D01*
X22701385Y-12303035D01*
X22789302Y-12323595D01*
G37*
G36*
X23071954Y-7432365D02*
G01*
X22972414Y-7432365D01*
X23009811Y-7485861D01*
X23057017Y-7565144D01*
X23087694Y-7644222D01*
X23101798Y-7722931D01*
X23099285Y-7801107D01*
X23097347Y-7813502D01*
X23079359Y-7883661D01*
X23051519Y-7941154D01*
X23012949Y-7987376D01*
X22966657Y-8021486D01*
X22947411Y-8032421D01*
X22929153Y-8041543D01*
X22910185Y-8049034D01*
X22888808Y-8055077D01*
X22863322Y-8059853D01*
X22832030Y-8063544D01*
X22793232Y-8066332D01*
X22745228Y-8068398D01*
X22686321Y-8069924D01*
X22614812Y-8071093D01*
X22529000Y-8072086D01*
X22490131Y-8072476D01*
X22137701Y-8075934D01*
X22137701Y-7775783D01*
X22444253Y-7772990D01*
X22750804Y-7770197D01*
X22792512Y-7749343D01*
X22824470Y-7729683D01*
X22845624Y-7706340D01*
X22857571Y-7675932D01*
X22861910Y-7635076D01*
X22861496Y-7603366D01*
X22857778Y-7558663D01*
X22849601Y-7521976D01*
X22835074Y-7484839D01*
X22834919Y-7484499D01*
X22811088Y-7432365D01*
X22137701Y-7432365D01*
X22137701Y-7132069D01*
X23071954Y-7132069D01*
X23071954Y-7432365D01*
G37*
G36*
X23071954Y-13838670D02*
G01*
X22971091Y-13838670D01*
X23001058Y-13877916D01*
X23031680Y-13923876D01*
X23059670Y-13976554D01*
X23082223Y-14029963D01*
X23096534Y-14078116D01*
X23097775Y-14084398D01*
X23102983Y-14152998D01*
X23094405Y-14219810D01*
X23073124Y-14282061D01*
X23040227Y-14336976D01*
X22996796Y-14381785D01*
X22975498Y-14397036D01*
X22940612Y-14419160D01*
X22981546Y-14473004D01*
X23016970Y-14524775D01*
X23048811Y-14581061D01*
X23074785Y-14637180D01*
X23092613Y-14688452D01*
X23097920Y-14711727D01*
X23102759Y-14780480D01*
X23093894Y-14846385D01*
X23072387Y-14907006D01*
X23039303Y-14959910D01*
X22995706Y-15002663D01*
X22961207Y-15024385D01*
X22941296Y-15034257D01*
X22922473Y-15042483D01*
X22903008Y-15049234D01*
X22881170Y-15054680D01*
X22855231Y-15058993D01*
X22823459Y-15062344D01*
X22784126Y-15064904D01*
X22735502Y-15066843D01*
X22675856Y-15068334D01*
X22603459Y-15069546D01*
X22516581Y-15070651D01*
X22490131Y-15070957D01*
X22137701Y-15074980D01*
X22137701Y-14774161D01*
X22452594Y-14771457D01*
X22533851Y-14770714D01*
X22600165Y-14769955D01*
X22653278Y-14769082D01*
X22694931Y-14768000D01*
X22726863Y-14766610D01*
X22750817Y-14764816D01*
X22768533Y-14762522D01*
X22781751Y-14759630D01*
X22792213Y-14756043D01*
X22800854Y-14752069D01*
X22830659Y-14731857D01*
X22849963Y-14704855D01*
X22859978Y-14668324D01*
X22861914Y-14619526D01*
X22861733Y-14614434D01*
X22857936Y-14571214D01*
X22849241Y-14535857D01*
X22835671Y-14503908D01*
X22812139Y-14455944D01*
X22137701Y-14455944D01*
X22137701Y-14156732D01*
X22452594Y-14154105D01*
X22533694Y-14153389D01*
X22599852Y-14152664D01*
X22652811Y-14151828D01*
X22694310Y-14150784D01*
X22726092Y-14149432D01*
X22749898Y-14147672D01*
X22767469Y-14145404D01*
X22780547Y-14142530D01*
X22790873Y-14138951D01*
X22800188Y-14134565D01*
X22800854Y-14134222D01*
X22833243Y-14108654D01*
X22854494Y-14072532D01*
X22864278Y-14028008D01*
X22862269Y-13977236D01*
X22848140Y-13922367D01*
X22837156Y-13895641D01*
X22810896Y-13838670D01*
X22137701Y-13838670D01*
X22137701Y-13538374D01*
X23071954Y-13538374D01*
X23071954Y-13838670D01*
G37*
G36*
X22907651Y-9243547D02*
G01*
X22922764Y-9246265D01*
X23019008Y-9272989D01*
X23107093Y-9312267D01*
X23185502Y-9363095D01*
X23252720Y-9424470D01*
X23307232Y-9495389D01*
X23312735Y-9504305D01*
X23350609Y-9581651D01*
X23378358Y-9669217D01*
X23395686Y-9763743D01*
X23402295Y-9861967D01*
X23397888Y-9960627D01*
X23382166Y-10056464D01*
X23367874Y-10109067D01*
X23331379Y-10198321D01*
X23281764Y-10277586D01*
X23219710Y-10346247D01*
X23145896Y-10403690D01*
X23061004Y-10449301D01*
X22965712Y-10482465D01*
X22950041Y-10486455D01*
X22883527Y-10498196D01*
X22807516Y-10504398D01*
X22728005Y-10505056D01*
X22650996Y-10500162D01*
X22582489Y-10489710D01*
X22570086Y-10486891D01*
X22471750Y-10455450D01*
X22384724Y-10411819D01*
X22309306Y-10356338D01*
X22245791Y-10289347D01*
X22194475Y-10211185D01*
X22155654Y-10122193D01*
X22129624Y-10022709D01*
X22121885Y-9972365D01*
X22115986Y-9913450D01*
X22114528Y-9871302D01*
X22346557Y-9871302D01*
X22352871Y-9934372D01*
X22364144Y-9973715D01*
X22393089Y-10028041D01*
X22435902Y-10076161D01*
X22490426Y-10116510D01*
X22554506Y-10147524D01*
X22625985Y-10167637D01*
X22633131Y-10168933D01*
X22679797Y-10174228D01*
X22734789Y-10176149D01*
X22793351Y-10174940D01*
X22850730Y-10170846D01*
X22902169Y-10164113D01*
X22942914Y-10154988D01*
X22950335Y-10152554D01*
X23022450Y-10120271D01*
X23080254Y-10079797D01*
X23124176Y-10030752D01*
X23154646Y-9972758D01*
X23155052Y-9971687D01*
X23165226Y-9940490D01*
X23170227Y-9911336D01*
X23171020Y-9876802D01*
X23170162Y-9855583D01*
X23159343Y-9784652D01*
X23134914Y-9723301D01*
X23096983Y-9671613D01*
X23045655Y-9629671D01*
X22981036Y-9597557D01*
X22903233Y-9575353D01*
X22812352Y-9563143D01*
X22792349Y-9561894D01*
X22699208Y-9562644D01*
X22614208Y-9574549D01*
X22538643Y-9597164D01*
X22473805Y-9630042D01*
X22420986Y-9672737D01*
X22399804Y-9697211D01*
X22370591Y-9748318D01*
X22352652Y-9807816D01*
X22346557Y-9871302D01*
X22114528Y-9871302D01*
X22114195Y-9861661D01*
X22116540Y-9809106D01*
X22122619Y-9751314D01*
X22142731Y-9653089D01*
X22177135Y-9562406D01*
X22224894Y-9480375D01*
X22285066Y-9408111D01*
X22356713Y-9346726D01*
X22438896Y-9297334D01*
X22530676Y-9261047D01*
X22538231Y-9258794D01*
X22587805Y-9247989D01*
X22648821Y-9240273D01*
X22716296Y-9235809D01*
X22785248Y-9234758D01*
X22792349Y-9235032D01*
X22850694Y-9237283D01*
X22907651Y-9243547D01*
G37*
G36*
X23438982Y-6856798D02*
G01*
X23213760Y-6856798D01*
X23213760Y-6539819D01*
X23438982Y-6539819D01*
X23438982Y-6856798D01*
G37*
G36*
X23071954Y-6848457D02*
G01*
X22137701Y-6848457D01*
X22137701Y-6548161D01*
X23071954Y-6548161D01*
X23071954Y-6848457D01*
G37*
G36*
X22362923Y-8516765D02*
G01*
X23155369Y-8516765D01*
X23155369Y-8316568D01*
X23380591Y-8316568D01*
X23380591Y-9033941D01*
X23155369Y-9033941D01*
X23155369Y-8833744D01*
X22362923Y-8833744D01*
X22362923Y-9033941D01*
X22137701Y-9033941D01*
X22137701Y-8316568D01*
X22362923Y-8316568D01*
X22362923Y-8516765D01*
G37*
G36*
X22463021Y-11052594D02*
G01*
X22137701Y-11052594D01*
X22137701Y-10752299D01*
X22463021Y-10752299D01*
X22463021Y-11052594D01*
G37*
G36*
X23380591Y-5480443D02*
G01*
X22977558Y-5480443D01*
X22873039Y-5480648D01*
X22780470Y-5481249D01*
X22700644Y-5482233D01*
X22634357Y-5483582D01*
X22582403Y-5485280D01*
X22545578Y-5487312D01*
X22525294Y-5489544D01*
X22465385Y-5505752D01*
X22419039Y-5530449D01*
X22385155Y-5564932D01*
X22362629Y-5610500D01*
X22350360Y-5668450D01*
X22347916Y-5698421D01*
X22349207Y-5766127D01*
X22360921Y-5821560D01*
X22383617Y-5865903D01*
X22417853Y-5900334D01*
X22453202Y-5921200D01*
X22500558Y-5943399D01*
X22940575Y-5945831D01*
X23380591Y-5948263D01*
X23380591Y-6264549D01*
X22943994Y-6264549D01*
X22846693Y-6264516D01*
X22764534Y-6264383D01*
X22695975Y-6264101D01*
X22639475Y-6263618D01*
X22593492Y-6262883D01*
X22556485Y-6261845D01*
X22526913Y-6260454D01*
X22503235Y-6258660D01*
X22483908Y-6256410D01*
X22467393Y-6253655D01*
X22452146Y-6250344D01*
X22442880Y-6248048D01*
X22377092Y-6227007D01*
X22322712Y-6199427D01*
X22274894Y-6162525D01*
X22249427Y-6137024D01*
X22211567Y-6091369D01*
X22182669Y-6044290D01*
X22159491Y-5989916D01*
X22147036Y-5951530D01*
X22123562Y-5843898D01*
X22114902Y-5728626D01*
X22121060Y-5605748D01*
X22122004Y-5597225D01*
X22139526Y-5501420D01*
X22168662Y-5416749D01*
X22209040Y-5343656D01*
X22260285Y-5282585D01*
X22322026Y-5233980D01*
X22393888Y-5198286D01*
X22475498Y-5175945D01*
X22476207Y-5175818D01*
X22496313Y-5172942D01*
X22522542Y-5170529D01*
X22556260Y-5168545D01*
X22598833Y-5166956D01*
X22651629Y-5165727D01*
X22716013Y-5164826D01*
X22793352Y-5164217D01*
X22885014Y-5163867D01*
X22961428Y-5163756D01*
X23380591Y-5163465D01*
X23380591Y-5480443D01*
G37*
%TO.C,C1*%
X-16107836Y-13355000D02*
X-15892164Y-13355000D01*
X-16107836Y-14075000D02*
X-15892164Y-14075000D01*
%TO.C,L1*%
X-16162779Y-10625000D02*
X-15837221Y-10625000D01*
X-16162779Y-9605000D02*
X-15837221Y-9605000D01*
%TO.C,C9*%
X10632164Y-14070000D02*
X10847836Y-14070000D01*
X10632164Y-13350000D02*
X10847836Y-13350000D01*
%TO.C,C3*%
X6857836Y-10520000D02*
X6642164Y-10520000D01*
X6857836Y-9800000D02*
X6642164Y-9800000D01*
%TO.C,R6*%
X10913641Y-6840000D02*
X10606359Y-6840000D01*
X10913641Y-6080000D02*
X10606359Y-6080000D01*
%TO.C,C12*%
X-11027836Y-13910000D02*
X-10812164Y-13910000D01*
X-11027836Y-14630000D02*
X-10812164Y-14630000D01*
D15*
%TO.C,SW1*%
X-20810000Y-12496000D02*
X-20810000Y-13534000D01*
X-23672000Y-12380000D02*
X-22148000Y-12380000D01*
X-25010000Y-14715000D02*
X-20810000Y-14715000D01*
X-23672000Y-13650000D02*
X-22148000Y-13650000D01*
X-25010000Y-14646000D02*
X-25010000Y-14715000D01*
X-25010000Y-11315000D02*
X-20810000Y-11315000D01*
X-25010000Y-11315000D02*
X-25010000Y-11384000D01*
X-20810000Y-14646000D02*
X-20810000Y-14715000D01*
X-25010000Y-12496000D02*
X-25010000Y-13534000D01*
X-20810000Y-11315000D02*
X-20810000Y-11384000D01*
X-23673000Y-12379000D02*
G75*
G03*
X-23673000Y-13651000I0J-636000D01*
G01*
X-22149000Y-13648999D02*
G75*
G03*
X-22149068Y-12381000I-4000J633999D01*
G01*
%TD*%
%LPC*%
D17*
%TO.C,R1*%
X17600000Y-12840000D03*
X18620000Y-12840000D03*
%TD*%
D18*
%TO.C,C7*%
X-16480000Y-6565000D03*
X-15520000Y-6565000D03*
%TD*%
D19*
%TO.C,R8*%
X-26910000Y-11380000D03*
X-27930000Y-11380000D03*
%TD*%
D20*
%TO.C,SW2*%
X10265000Y-12220000D03*
X10265000Y-7920000D03*
X12415000Y-12220000D03*
X12415000Y-7920000D03*
%TD*%
D21*
%TO.C,Y1*%
X-10870000Y-8280000D03*
X-10870000Y-5780000D03*
%TD*%
D22*
%TO.C,U1*%
X19400000Y-7716000D03*
X19400000Y-6766000D03*
X19400000Y-5816000D03*
X16800000Y-5816000D03*
X16800000Y-7716000D03*
%TD*%
D23*
%TO.C,C11*%
X-8310000Y-8320000D03*
X-9270000Y-8320000D03*
%TD*%
D24*
%TO.C,D1*%
X19177500Y-14230000D03*
X17602500Y-14230000D03*
%TD*%
D25*
%TO.C,SW3*%
X-20760000Y-8340000D03*
X-25060000Y-8340000D03*
X-20760000Y-6190000D03*
X-25060000Y-6190000D03*
%TD*%
D26*
%TO.C,J3*%
X-33670000Y-13920000D03*
D27*
X-33670000Y-11380000D03*
X-33670000Y-8840000D03*
X-33670000Y-6300000D03*
%TD*%
D28*
%TO.C,C2*%
X20500000Y-6780000D03*
X20500000Y-5820000D03*
%TD*%
D19*
%TO.C,R10*%
X-15490000Y-8115000D03*
X-16510000Y-8115000D03*
%TD*%
D29*
%TO.C,HOLE\u002A\u002A*%
X30700000Y-18460000D03*
%TD*%
D19*
%TO.C,R4*%
X18620000Y-9410000D03*
X17600000Y-9410000D03*
%TD*%
D29*
%TO.C,HOLE\u002A\u002A*%
X-33260000Y-18460000D03*
%TD*%
%TO.C,HOLE\u002A\u002A*%
X-33260000Y-1800000D03*
%TD*%
D18*
%TO.C,C4*%
X100000Y-16240000D03*
X1060000Y-16240000D03*
%TD*%
D23*
%TO.C,C10*%
X-8310000Y-5750000D03*
X-9270000Y-5750000D03*
%TD*%
D30*
%TO.C,USB1*%
X26641000Y-7240000D03*
X26641000Y-13020000D03*
D31*
X26141000Y-14455000D03*
X26141000Y-5805000D03*
D32*
X30341000Y-14455000D03*
X30341000Y-5805000D03*
D33*
X25379000Y-13330000D03*
X25379000Y-12530000D03*
D34*
X25379000Y-11380000D03*
X25379000Y-10380000D03*
X25379000Y-9880000D03*
X25379000Y-8880000D03*
D33*
X25379000Y-6930000D03*
X25379000Y-7730000D03*
D34*
X25379000Y-8380000D03*
X25379000Y-9380000D03*
X25379000Y-10880000D03*
X25379000Y-11880000D03*
%TD*%
D35*
%TO.C,C5*%
X15690000Y-6760000D03*
X15690000Y-7720000D03*
%TD*%
D17*
%TO.C,R9*%
X-27940000Y-8840000D03*
X-26920000Y-8840000D03*
%TD*%
D36*
%TO.C,Y2*%
X-10830000Y-12960000D03*
X-8630000Y-12960000D03*
X-8630000Y-11260000D03*
X-10830000Y-11260000D03*
%TD*%
D19*
%TO.C,R5*%
X-15490000Y-12215000D03*
X-16510000Y-12215000D03*
%TD*%
D23*
%TO.C,C6*%
X1070000Y-4050000D03*
X110000Y-4050000D03*
%TD*%
D37*
%TO.C,R7*%
X-7160000Y-11180000D03*
X-7160000Y-12200000D03*
%TD*%
D38*
%TO.C,U2*%
X-339239Y-5341674D03*
X-692792Y-5695227D03*
X-1046346Y-6048781D03*
X-1399899Y-6402334D03*
X-1753452Y-6755887D03*
X-2107006Y-7109441D03*
X-2460559Y-7462994D03*
X-2814113Y-7816548D03*
X-3167666Y-8170101D03*
X-3521219Y-8523654D03*
X-3874773Y-8877208D03*
X-4228326Y-9230761D03*
D39*
X-4228326Y-11069239D03*
X-3874773Y-11422792D03*
X-3521219Y-11776346D03*
X-3167666Y-12129899D03*
X-2814113Y-12483452D03*
X-2460559Y-12837006D03*
X-2107006Y-13190559D03*
X-1753452Y-13544113D03*
X-1399899Y-13897666D03*
X-1046346Y-14251219D03*
X-692792Y-14604773D03*
X-339239Y-14958326D03*
D38*
X1499239Y-14958326D03*
X1852792Y-14604773D03*
X2206346Y-14251219D03*
X2559899Y-13897666D03*
X2913452Y-13544113D03*
X3267006Y-13190559D03*
X3620559Y-12837006D03*
X3974113Y-12483452D03*
X4327666Y-12129899D03*
X4681219Y-11776346D03*
X5034773Y-11422792D03*
X5388326Y-11069239D03*
D39*
X5388326Y-9230761D03*
X5034773Y-8877208D03*
X4681219Y-8523654D03*
X4327666Y-8170101D03*
X3974113Y-7816548D03*
X3620559Y-7462994D03*
X3267006Y-7109441D03*
X2913452Y-6755887D03*
X2559899Y-6402334D03*
X2206346Y-6048781D03*
X1852792Y-5695227D03*
X1499239Y-5341674D03*
%TD*%
D18*
%TO.C,C8*%
X-11400000Y-9950000D03*
X-10440000Y-9950000D03*
%TD*%
D29*
%TO.C,HOLE\u002A\u002A*%
X30700000Y-1800000D03*
%TD*%
D17*
%TO.C,R3*%
X17600000Y-11590000D03*
X18620000Y-11590000D03*
%TD*%
%TO.C,R2*%
X17600000Y-10500000D03*
X18620000Y-10500000D03*
%TD*%
D18*
%TO.C,C1*%
X-16480000Y-13715000D03*
X-15520000Y-13715000D03*
%TD*%
D40*
%TO.C,L1*%
X-16787500Y-10115000D03*
X-15212500Y-10115000D03*
%TD*%
D18*
%TO.C,C9*%
X10260000Y-13710000D03*
X11220000Y-13710000D03*
%TD*%
D23*
%TO.C,C3*%
X7230000Y-10160000D03*
X6270000Y-10160000D03*
%TD*%
D19*
%TO.C,R6*%
X11270000Y-6460000D03*
X10250000Y-6460000D03*
%TD*%
D18*
%TO.C,C12*%
X-11400000Y-14270000D03*
X-10440000Y-14270000D03*
%TD*%
D25*
%TO.C,SW1*%
X-25060000Y-11940000D03*
X-20760000Y-11940000D03*
X-25060000Y-14090000D03*
X-20760000Y-14090000D03*
%TD*%
D26*
%TO.C,J1*%
X27930000Y-18960000D03*
D27*
X25390000Y-18960000D03*
X22850000Y-18960000D03*
X20310000Y-18960000D03*
X17770000Y-18960000D03*
X15230000Y-18960000D03*
X12690000Y-18960000D03*
X10150000Y-18960000D03*
X7610000Y-18960000D03*
X5070000Y-18960000D03*
X2530000Y-18960000D03*
X-10000Y-18960000D03*
X-2550000Y-18960000D03*
X-5090000Y-18960000D03*
X-7630000Y-18960000D03*
X-10170000Y-18960000D03*
X-12710000Y-18960000D03*
X-15250000Y-18960000D03*
X-17790000Y-18960000D03*
X-20330000Y-18960000D03*
X-22870000Y-18960000D03*
X-25410000Y-18960000D03*
X-27950000Y-18960000D03*
X-30490000Y-18960000D03*
%TD*%
D26*
%TO.C,J2*%
X27930000Y-1310000D03*
D27*
X25390000Y-1310000D03*
X22850000Y-1310000D03*
X20310000Y-1310000D03*
X17770000Y-1310000D03*
X15230000Y-1310000D03*
X12690000Y-1310000D03*
X10150000Y-1310000D03*
X7610000Y-1310000D03*
X5070000Y-1310000D03*
X2530000Y-1310000D03*
X-10000Y-1310000D03*
X-2550000Y-1310000D03*
X-5090000Y-1310000D03*
X-7630000Y-1310000D03*
X-10170000Y-1310000D03*
X-12710000Y-1310000D03*
X-15250000Y-1310000D03*
X-17790000Y-1310000D03*
X-20330000Y-1310000D03*
X-22870000Y-1310000D03*
X-25410000Y-1310000D03*
X-27950000Y-1310000D03*
X-30490000Y-1310000D03*
%TD*%
M02*
