M48
; DRILL file {KiCad (6.0.11)} date Tue Jan 31 11:35:06 2023
; FORMAT={-:-/ absolute / metric / decimal}
; #@! TF.CreationDate,2023-01-31T11:35:06+08:00
; #@! TF.GenerationSoftware,Kicad,Pcbnew,(6.0.11)
; #@! TF.FileFunction,MixedPlating,1,2
FMAT,2
METRIC
; #@! TA.AperFunction,Plated,PTH,ViaDrill
T1C0.300
; #@! TA.AperFunction,Plated,PTH,ViaDrill
T2C0.400
; #@! TA.AperFunction,Plated,PTH,ViaDrill
T3C0.500
; #@! TA.AperFunction,Plated,PTH,ComponentDrill
T4C0.600
; #@! TA.AperFunction,Plated,PTH,ComponentDrill
T5C1.000
; #@! TA.AperFunction,Plated,PTH,ComponentDrill
T6C1.200
; #@! TA.AperFunction,NonPlated,NPTH,ComponentDrill
T7C0.650
%
G90
G05
T1
X-30.323Y-8.833
X-28.75Y-7.485
X-28.75Y-10.1
X-28.75Y-11.38
X-27.21Y-16.97
X-25.86Y-4.78
X-24.652Y-16.97
X-23.21Y-4.78
X-22.095Y-16.97
X-19.537Y-16.97
X-16.98Y-16.97
X-16.48Y-4.9
X-15.52Y-5.66
X-14.46Y-16.97
X-14.1Y-10.1
X-12.71Y-14.48
X-12.54Y-4.9
X-12.54Y-13.13
X-10.275Y-3.745
X-6.77Y-3.42
X-5.456Y-8.27
X-5.45Y-7.58
X-5.45Y-9.21
X-5.369Y-10.83
X-3.742Y-6.252
X-2.18Y-16.09
X-1.889Y-9.585
X-0.9Y-9.11
X-0.76Y-3.18
X0.397Y-8.637
X0.58Y-7.34
X0.6Y-12.85
X2.145Y-4.085
X2.71Y-10.83
X3.99Y-3.64
X5.9Y-3.64
X6.205Y-8.415
X6.388Y-14.262
X6.4Y-13.43
X7.23Y-11.73
X8.97Y-12.22
X9.19Y-10.04
X11.55Y-3.64
X12.43Y-10.04
X14.0Y-3.64
X14.73Y-5.82
X16.47Y-3.64
X18.73Y-16.11
X19.11Y-3.64
X19.31Y-12.88
X20.506Y-8.85
X21.49Y-3.64
X23.76Y-7.73
X26.25Y-9.88
X26.25Y-10.88
T2
X23.76Y-12.53
T3
X14.14Y-7.7
T5
X-33.67Y-6.3
X-33.67Y-8.84
X-33.67Y-11.38
X-33.67Y-13.92
X-30.49Y-1.31
X-30.49Y-18.96
X-27.95Y-1.31
X-27.95Y-18.96
X-25.41Y-1.31
X-25.41Y-18.96
X-22.87Y-1.31
X-22.87Y-18.96
X-20.33Y-1.31
X-20.33Y-18.96
X-17.79Y-1.31
X-17.79Y-18.96
X-15.25Y-1.31
X-15.25Y-18.96
X-12.71Y-1.31
X-12.71Y-18.96
X-10.17Y-1.31
X-10.17Y-18.96
X-7.63Y-1.31
X-7.63Y-18.96
X-5.09Y-1.31
X-5.09Y-18.96
X-2.55Y-1.31
X-2.55Y-18.96
X-0.01Y-1.31
X-0.01Y-18.96
X2.53Y-1.31
X2.53Y-18.96
X5.07Y-1.31
X5.07Y-18.96
X7.61Y-1.31
X7.61Y-18.96
X10.15Y-1.31
X10.15Y-18.96
X12.69Y-1.31
X12.69Y-18.96
X15.23Y-1.31
X15.23Y-18.96
X17.77Y-1.31
X17.77Y-18.96
X20.31Y-1.31
X20.31Y-18.96
X22.85Y-1.31
X22.85Y-18.96
X25.39Y-1.31
X25.39Y-18.96
X27.93Y-1.31
X27.93Y-18.96
T6
X-33.26Y-1.8
X-33.26Y-18.46
X30.7Y-1.8
X30.7Y-18.46
T7
X26.641Y-7.24
X26.641Y-13.02
T4
G00X25.541Y-5.805
M15
G01X26.741Y-5.805
M16
G05
G00X25.541Y-14.455
M15
G01X26.741Y-14.455
M16
G05
G00X29.891Y-5.805
M15
G01X30.791Y-5.805
M16
G05
G00X29.891Y-14.455
M15
G01X30.791Y-14.455
M16
G05
T0
M30
